<svg width="30" height="30" viewBox="0 0 30 30" fill="none" xmlns="http://www.w3.org/2000/svg">
<path d="M8.70793 0C3.91226 0 0 3.91226 0 8.70793V21.3011C0 26.0877 3.91226 30 8.70793 30H21.3011C26.0877 30 30 26.0877 30 21.2921V8.70793C30 3.91226 26.0877 0 21.2921 0H8.70793ZM8.70793 2.30769H21.2921C24.8438 2.30769 27.6923 5.15625 27.6923 8.70793V21.2921C27.6923 24.8438 24.8437 27.6923 21.3011 27.6923H8.70793C5.15625 27.6923 2.30769 24.8437 2.30769 21.3011V8.70793C2.30769 5.15625 5.15625 2.30769 8.70793 2.30769ZM24.2308 4.61538C23.5907 4.61538 23.0769 5.12921 23.0769 5.76923C23.0769 6.40926 23.5907 6.92308 24.2308 6.92308C24.8708 6.92308 25.3846 6.40926 25.3846 5.76923C25.3846 5.12921 24.8708 4.61538 24.2308 4.61538ZM15 6.92308C10.5559 6.92308 6.92308 10.5559 6.92308 15C6.92308 19.4441 10.5559 23.0769 15 23.0769C19.4441 23.0769 23.0769 19.4441 23.0769 15C23.0769 10.5559 19.4441 6.92308 15 6.92308ZM15 9.23077C18.2001 9.23077 20.7692 11.7999 20.7692 15C20.7692 18.2001 18.2001 20.7692 15 20.7692C11.7999 20.7692 9.23077 18.2001 9.23077 15C9.23077 11.7999 11.7999 9.23077 15 9.23077Z" fill="white"/>
</svg>
