<svg width="30" height="30" viewBox="0 0 30 30" fill="none" xmlns="http://www.w3.org/2000/svg">
<path d="M15 0C6.71574 0 0 6.70673 0 14.973C0 21.5895 4.29988 27.2055 10.2584 29.1887C11.0066 29.3239 11.5385 28.5577 11.5385 27.9808C11.5385 27.6292 11.5475 27.2055 11.5385 25.9615C7.36478 26.863 6.05769 23.9423 6.05769 23.9423C5.3726 22.2115 4.54327 21.7157 4.54327 21.7157C3.18209 20.7873 4.64243 20.8143 4.64243 20.8143C6.14784 20.9135 6.92308 22.2115 6.92308 22.2115C8.07692 24.2308 10.6821 24.0325 11.5385 23.6538C11.5385 22.7344 11.6376 22.0673 11.89 21.6436C7.17548 20.8143 4.60637 18.0919 4.61538 14.3239C4.6244 12.0974 5.39063 10.3666 6.63462 9.08654C6.09375 8.40144 5.72416 6.05769 6.83293 4.61538C9.61839 4.61538 11.277 6.6256 11.277 6.6256C11.277 6.6256 12.5841 6.05769 14.991 6.05769C17.4069 6.05769 18.7049 6.59856 18.7049 6.59856C18.7049 6.59856 20.3726 4.61538 23.1581 4.61538C24.2668 6.05769 23.8972 8.40144 23.4645 9.04147C24.6544 10.2945 25.3846 12.0252 25.3846 14.3239C25.3846 18.0919 22.8245 20.8143 18.119 21.6346C18.4165 22.0853 18.4615 22.7163 18.4615 23.6538C18.4615 25.655 18.4615 27.485 18.4615 27.9808C18.4615 28.5577 18.9844 29.3329 19.7506 29.1887C25.7091 27.1965 30 21.5895 30 14.973C30 6.70673 23.2843 0 15 0Z" fill="white"/>
</svg>
