<svg width="30" height="24" viewBox="0 0 30 24" fill="none" xmlns="http://www.w3.org/2000/svg">
<path d="M30 2.77902C28.8783 3.26451 27.7483 3.62444 26.5011 3.74163C27.7483 3.02176 28.7528 1.80804 29.2467 0.485492C27.9994 1.20536 26.7522 1.69085 25.3795 1.93359C24.1239 0.728237 22.5 0 20.7506 0C17.3772 0 14.6233 2.66183 14.6233 5.92634C14.6233 6.40346 14.6233 6.88895 14.7489 7.25726C8.30357 7.25726 3.88393 3.62444 0.887278 0C0.259487 0.845424 0.00837002 1.93359 0.00837002 3.02176C0.00837002 5.07255 1.13839 6.88895 2.76228 7.97712C1.75781 7.85993 0.761719 7.61719 0.00837002 7.25726C0.00837002 7.25726 0.00837002 7.25725 0.00837002 7.37444C0.00837002 10.279 2.13449 12.6897 4.88839 13.1752C4.38616 13.2924 3.88393 13.418 3.25614 13.418C2.88783 13.418 2.51116 13.418 2.13449 13.3008C2.88783 15.7199 6.37835 18.4989 9.12388 18.4989C6.99777 20.0642 5.02232 21.4286 1.07143 21.4286C0.569196 21.4286 0.970982 21.4286 0 21.4286C2.74554 23.1194 6.00167 23.5714 9.375 23.5714C20.7506 23.5714 26.8778 14.5061 26.8778 6.64621C26.8778 6.40346 26.8778 6.16908 26.8778 5.92634C28.125 5.07255 29.1295 3.99274 30 2.77902Z" fill="white"/>
</svg>
