<?xml version="1.0" encoding="UTF-8" standalone="no" ?>
<!DOCTYPE svg PUBLIC "-//W3C//DTD SVG 1.1//EN" "http://www.w3.org/Graphics/SVG/1.1/DTD/svg11.dtd">
<svg xmlns="http://www.w3.org/2000/svg" xmlns:xlink="http://www.w3.org/1999/xlink" version="1.1" width="1080" height="1080" viewBox="0 0 1080 1080" xml:space="preserve">
<desc>Created with Fabric.js 5.2.4</desc>
<defs>
</defs>
<g transform="matrix(1 0 0 1 540 540)" id="62c59a7f-22fb-45fe-a340-97e3217c89b0"  >
<rect style="stroke: none; stroke-width: 1; stroke-dasharray: none; stroke-linecap: butt; stroke-dashoffset: 0; stroke-linejoin: miter; stroke-miterlimit: 4; fill: rgb(255,255,255); fill-rule: nonzero; opacity: 1; visibility: hidden;" vector-effect="non-scaling-stroke"  x="-540" y="-540" rx="0" ry="0" width="1080" height="1080" />
</g>
<g transform="matrix(1 0 0 1 540 540)" id="637897ce-d556-4f66-b4e5-bd1cff5bfa6b"  >
</g>
<g transform="matrix(21.42 0 0 21.42 441.9 406.19)" id="Layer_1"  >
<path style="stroke: none; stroke-width: 1; stroke-dasharray: none; stroke-linecap: butt; stroke-dashoffset: 0; stroke-linejoin: miter; stroke-miterlimit: 4; fill: rgb(255,255,255); fill-rule: nonzero; opacity: 1;" vector-effect="non-scaling-stroke"  transform=" translate(-26, -26)" d="M 40 26 C 40 29.1 39 32 37.3 34.3 L 40 37 L 37 40 L 34.3 37.3 C 32 39 29.1 40 26 40 C 18.3 40 12 33.7 12 26 C 12 18.299999999999997 18.3 12 26 12 C 33.7 12 40 18.3 40 26 z" stroke-linecap="round" />
</g>
<g transform="matrix(21.42 0 0 21.42 441.9 406.19)" id="Layer_1"  >
<path style="stroke: none; stroke-width: 1; stroke-dasharray: none; stroke-linecap: butt; stroke-dashoffset: 0; stroke-linejoin: miter; stroke-miterlimit: 4; fill: rgb(104,178,234); fill-rule: nonzero; opacity: 1;" vector-effect="non-scaling-stroke"  transform=" translate(-26, -26)" d="M 26 14.9 C 32.1 14.9 37.1 19.9 37.1 26 C 37.1 32.1 32.1 37.1 26 37.1 C 19.9 37.1 14.9 32.1 14.9 26 C 14.9 19.9 19.9 14.9 26 14.9 z" stroke-linecap="round" />
</g>
<g transform="matrix(21.42 0 0 21.42 733.26 697.55)" id="Layer_1"  >
<polygon style="stroke: none; stroke-width: 1; stroke-dasharray: none; stroke-linecap: butt; stroke-dashoffset: 0; stroke-linejoin: miter; stroke-miterlimit: 4; fill: rgb(255,234,41); fill-rule: nonzero; opacity: 1;" vector-effect="non-scaling-stroke"  points="4.4,0.4 0.4,4.4 -4.4,-0.4 -3.8,-0.8 -0.8,-3.8 -0.4,-4.4 " />
</g>
<g transform="matrix(21.42 0 0 21.42 836.36 800.65)" id="Layer_1"  >
<path style="stroke: none; stroke-width: 1; stroke-dasharray: none; stroke-linecap: butt; stroke-dashoffset: 0; stroke-linejoin: miter; stroke-miterlimit: 4; fill: rgb(44,44,61); fill-rule: nonzero; opacity: 1;" vector-effect="non-scaling-stroke"  transform=" translate(-44.41, -44.41)" d="M 50 50 L 50 50 C 48.9 51.1 47.1 51.1 46 50 L 38 42 L 42 38 L 50 46 C 51.1 47.1 51.1 48.9 50 50 z" stroke-linecap="round" />
</g>
<g transform="matrix(21.42 0 0 21.42 339.07 303.36)" id="Layer_1"  >
<path style="stroke: none; stroke-width: 1; stroke-dasharray: none; stroke-linecap: butt; stroke-dashoffset: 0; stroke-linejoin: miter; stroke-miterlimit: 4; fill: rgb(255,255,255); fill-rule: nonzero; opacity: 1;" vector-effect="non-scaling-stroke"  transform=" translate(-21.2, -21.2)" d="M 24.1 17.3 C 24.6 17.3 25.1 17.7 25.1 18.3 C 25.1 18.8 24.700000000000003 19.3 24.1 19.3 C 21.8 19.3 19.3 21.8 19.3 24.1 C 19.3 24.6 18.900000000000002 25.1 18.3 25.1 C 17.8 25.1 17.3 24.700000000000003 17.3 24.1 C 17.3 20.7 20.6 17.3 24.1 17.3 z" stroke-linecap="round" />
</g>
</svg>