<svg id="eGSvXjicRuw1" xmlns="http://www.w3.org/2000/svg" xmlns:xlink="http://www.w3.org/1999/xlink" viewBox="0 0 400 300" shape-rendering="geometricPrecision" text-rendering="geometricPrecision">
<style><![CDATA[
#eGSvXjicRuw2 {animation: eGSvXjicRuw2_c_o 3000ms linear 1 normal forwards}@keyframes eGSvXjicRuw2_c_o { 0% {opacity: 0;animation-timing-function: cubic-bezier(0.445,0.05,0.55,0.95)} 40% {opacity: 1} 100% {opacity: 1}} #eGSvXjicRuw18_ts {animation: eGSvXjicRuw18_ts__ts 3000ms linear 1 normal forwards}@keyframes eGSvXjicRuw18_ts__ts { 0% {transform: translate(89.055001px,95.330002px) scale(0,0)} 6.666667% {transform: translate(89.055001px,95.330002px) scale(0,0);animation-timing-function: cubic-bezier(0.445,0.05,0.55,0.95)} 30% {transform: translate(89.055001px,95.330002px) scale(1,1)} 100% {transform: translate(89.055001px,95.330002px) scale(1,1)}} #eGSvXjicRuw54_ts {animation: eGSvXjicRuw54_ts__ts 3000ms linear 1 normal forwards}@keyframes eGSvXjicRuw54_ts__ts { 0% {transform: translate(215.495003px,89.809998px) scale(1,0)} 20% {transform: translate(215.495003px,89.809998px) scale(1,0);animation-timing-function: cubic-bezier(0.445,0.05,0.55,0.95)} 33.333333% {transform: translate(215.495003px,89.809998px) scale(1,1)} 100% {transform: translate(215.495003px,89.809998px) scale(1,1)}} #eGSvXjicRuw55_ts {animation: eGSvXjicRuw55_ts__ts 3000ms linear 1 normal forwards}@keyframes eGSvXjicRuw55_ts__ts { 0% {transform: translate(203.385002px,80.030001px) scale(1,0)} 16.666667% {transform: translate(203.385002px,80.030001px) scale(1,0)} 30% {transform: translate(203.385002px,80.030001px) scale(1,1)} 100% {transform: translate(203.385002px,80.030001px) scale(1,1)}} #eGSvXjicRuw56_ts {animation: eGSvXjicRuw56_ts__ts 3000ms linear 1 normal forwards}@keyframes eGSvXjicRuw56_ts__ts { 0% {transform: translate(191.600006px,71.185001px) scale(1,0)} 13.333333% {transform: translate(191.600006px,71.185001px) scale(1,0);animation-timing-function: cubic-bezier(0.445,0.05,0.55,0.95)} 26.666667% {transform: translate(191.600006px,71.185001px) scale(1,1)} 100% {transform: translate(191.600006px,71.185001px) scale(1,1)}} #eGSvXjicRuw57_ts {animation: eGSvXjicRuw57_ts__ts 3000ms linear 1 normal forwards}@keyframes eGSvXjicRuw57_ts__ts { 0% {transform: translate(206.455001px,64.527523px) scale(0,0)} 23.333333% {transform: translate(206.455001px,64.527523px) scale(0,0)} 36.666667% {transform: translate(206.455001px,64.527523px) scale(1,1)} 100% {transform: translate(206.455001px,64.527523px) scale(1,1)}} #eGSvXjicRuw58_ts {animation: eGSvXjicRuw58_ts__ts 3000ms linear 1 normal forwards}@keyframes eGSvXjicRuw58_ts__ts { 0% {transform: translate(201.365128px,104.740841px) scale(0,0)} 23.333333% {transform: translate(201.365128px,104.740841px) scale(0,0)} 36.666667% {transform: translate(201.365128px,104.740841px) scale(1,1)} 100% {transform: translate(201.365128px,104.740841px) scale(1,1)}} #eGSvXjicRuw63_ts {animation: eGSvXjicRuw63_ts__ts 3000ms linear 1 normal forwards}@keyframes eGSvXjicRuw63_ts__ts { 0% {transform: translate(117.399998px,52.795002px) scale(0,0)} 13.333333% {transform: translate(117.399998px,52.795002px) scale(0,0);animation-timing-function: cubic-bezier(0.445,0.05,0.55,0.95)} 36.666667% {transform: translate(117.399998px,52.795002px) scale(1,1)} 100% {transform: translate(117.399998px,52.795002px) scale(1,1)}} #eGSvXjicRuw107_tr {animation: eGSvXjicRuw107_tr__tr 3000ms linear 1 normal forwards}@keyframes eGSvXjicRuw107_tr__tr { 0% {transform: translate(158.32px,146.04px) rotate(78.940213deg)} 23.333333% {transform: translate(158.32px,146.04px) rotate(78.940213deg);animation-timing-function: cubic-bezier(0.445,0.05,0.55,0.95)} 46.666667% {transform: translate(158.32px,146.04px) rotate(0deg)} 100% {transform: translate(158.32px,146.04px) rotate(0deg)}}
]]></style>
<defs><linearGradient id="eGSvXjicRuw4-fill" x1="266.17" y1="217.86" x2="288.43" y2="180.31" spreadMethod="pad" gradientUnits="userSpaceOnUse" gradientTransform="translate(0 0)"><stop id="eGSvXjicRuw4-fill-0" offset="0%" stop-color="#ffc2a4"/><stop id="eGSvXjicRuw4-fill-1" offset="100%" stop-color="#dd6f31"/></linearGradient><linearGradient id="eGSvXjicRuw98-fill" x1="137.09" y1="247.01" x2="180.44" y2="207.41" spreadMethod="pad" gradientUnits="userSpaceOnUse" gradientTransform="translate(0 0)"><stop id="eGSvXjicRuw98-fill-0" offset="0%" stop-color="#ffc2a4"/><stop id="eGSvXjicRuw98-fill-1" offset="100%" stop-color="#dd6f31"/></linearGradient><linearGradient id="eGSvXjicRuw120-fill" x1="31.47" y1="186.02" x2="49.81" y2="173.25" spreadMethod="pad" gradientUnits="userSpaceOnUse" gradientTransform="translate(0 0)"><stop id="eGSvXjicRuw120-fill-0" offset="0%" stop-color="#ffc2a4"/><stop id="eGSvXjicRuw120-fill-1" offset="100%" stop-color="#dd6f31"/></linearGradient></defs><g id="eGSvXjicRuw2" transform="translate(.000001 0.000001)" opacity="0"><path d="M194.28,291.14L14.56,184.93C8.84,181.71,3.93,176.44,9.51,173L189.88,69c2.71-1.68,6.82-2.78,9.57-1.18L388.11,177.34c5.72,3.32,6.75,12.6,1,15.93L218,291c-7.323992,4.243847-16.346424,4.297099-23.72.14Z" fill="#ffc2a4"/><path d="M251.72,170l-4.72.48-28,17.36c-11.59,9.34-.32,10.69,5.64,14.56c3.48,2.26,58.54,38.6,62,40.83l45.37-24.09c-8.11-4.72-72.22-44.32-80.29-49.14Z" fill="url(#eGSvXjicRuw4-fill)"/><ellipse rx="7.73" ry="3.63" transform="translate(324.8 217.85)" fill="#484887"/><polyline points="332.53,213.24 332.53,217.85 317.07,217.85 317.07,213.24" fill="#484887"/><ellipse rx="7.73" ry="3.63" transform="translate(324.8 213.24)" fill="#6969bc"/><path d="M326.81,146.42v65.19c0,0-1.71,2.94-4,0v-67.39c0,0,.34-1.91,4,2.2Z" fill="#484887"/><ellipse rx="7.73" ry="3.63" transform="translate(249.01 177.96)" fill="#484887"/><polyline points="256.75,173.34 256.75,177.96 241.28,177.96 241.28,173.34" fill="#484887"/><ellipse rx="7.73" ry="3.63" transform="translate(249.01 173.34)" fill="#6969bc"/><path d="M251,106.53v65.19c0,0-1.71,2.94-4,0v-67.39c0,0,.36-1.91,4,2.2Z" fill="#484887"/><path d="M336.66,91.49L243.55,38.8c-1.521257-.861723-3.385981-.8495-4.895811.032092s-2.436967,2.499542-2.434189,4.247908v57.22c-.002812,1.771376.948719,3.40694,2.49,4.28l93.11,52.69c1.521257.861723,3.385981.8495,4.895811-.032092s2.436967-2.499542,2.434189-4.247908v-57.23c-.000792-1.7678-.951834-3.398702-2.49-4.27Z" fill="#68e1fd"/><path d="M249,98c0,0,6.88-26.28,19-19.41s6.39,34.34,14.92,33.87s18.24-18,25.58-14.43s7.11,35.42,16.34,40.42" fill="#fff"/><polyline points="249.79,63.39 259.68,93.81 277.85,81.69 285.6,107.95 299.5,100.83 310.8,122.79 327.22,122.33" fill="none" stroke="#42210b" stroke-width="0.75" stroke-miterlimit="10"/><ellipse rx="2.1" ry="3.31" transform="matrix(.992504-.122216 0.122216 0.992504 327.217682 122.341458)" fill="#89562c"/><ellipse rx="2.1" ry="3.31" transform="matrix(.992504-.122216 0.122216 0.992504 249.784726 63.39648)" fill="#89562c"/><g id="eGSvXjicRuw18_ts" transform="translate(89.055001,95.330002) scale(0,0)"><g transform="translate(-89.055,-95.330002)"><path d="M76.45,116.13c.07.15.45,1.57.75,1.27s1.87.38,1.87.38l4.38-5.57-.58-1.82h-3.95" fill="#68e1fd"/><path d="M97.6,92.14l.4-1.45l4.6-2.51v-7.84c0-.15-4.45,2.62-4.45,2.62L98,82.52c-.249095-1.200011-.705966-2.347265-1.35-3.39l3.24-6L95.73,70l-3.08,6.17v0c-1.121037-.25977-2.288827-.239162-3.4.06v-5.9L83.34,73.6v6.2c-1.155625,1.107668-2.206735,2.319456-3.14,3.62l-3.55-2.27-4,7.63l3.18,2.53-.27,1.28c-.416281,1.351864-.750227,2.727721-1,4.12l-4.72,2.6v7.81l4.5-2.68c.194422,1.42102.688677,2.784482,1.45,4l-3.37,5.72l4.27,3.23l3-5.89h3.73v5.89L89,114v-5.79c1.289424-1.263461,2.427108-2.672981,3.39-4.2l3.38,2.31l4.08-7.79L96.5,96l.33-1.17c.3-.91.56-1.83.77-2.69Z" fill="#68e1fd"/><polyline points="108.28,83.6 103.07,80.45 101.77,82.38 103.79,86.59" fill="#68e1fd"/><polyline points="101.47,109.56 97.61,107.96 97.61,105.63" fill="#68e1fd"/><polygon points="89.07,120.66 83.41,117.4 84.85,113.12 89.94,114.61 89.07,120.66" fill="#68e1fd"/><polygon points="95.73,70.01 101.39,73.27 98.28,79.46 94.89,79.52 94.1,73.27 95.73,70.01" fill="#68e1fd"/><ellipse rx="4.39" ry="2.55" transform="matrix(.365689-.930737 0.930737 0.365689 92.258583 97.009346)" fill="#68e1fd"/><polygon points="83.34,73.6 89,76.86 94.89,73.59 89.22,70.33 83.34,73.6" fill="#68e1fd"/><polygon points="82.3,84.41 76.64,81.14 72.63,88.78 78.29,92.04 82.3,84.41" fill="#68e1fd"/><polygon points="72.41,114.17 78.07,117.43 82.34,120.66 76.68,117.4 72.41,114.17" fill="#68e1fd"/><path d="M76.45,116.13c.07.15.45,1.57.75,1.27s1.87.38,1.87.38l4.38-5.57-.58-1.82h-3.95" opacity="0.44" fill="#053855"/><path d="M97.6,92.14l.4-1.45l4.6-2.51v-7.84c0-.15-4.45,2.62-4.45,2.62L98,82.52c-.249095-1.200011-.705966-2.347265-1.35-3.39l3.24-6L95.73,70l-3.08,6.17v0c-1.121037-.25977-2.288827-.239162-3.4.06v-5.9L83.34,73.6v6.2c-1.155625,1.107668-2.206735,2.319456-3.14,3.62l-3.55-2.27-4,7.63l3.18,2.53-.27,1.28c-.416281,1.351864-.750227,2.727721-1,4.12l-4.72,2.6v7.81l4.5-2.68c.194422,1.42102.688677,2.784482,1.45,4l-3.37,5.72l4.27,3.23l3-5.89h3.73v5.89L89,114v-5.79c1.289424-1.263461,2.427108-2.672981,3.39-4.2l3.38,2.31l4.08-7.79L96.5,96l.33-1.17c.3-.91.56-1.83.77-2.69Z" fill="#68e1fd"/><polyline points="108.28,83.6 103.07,80.45 101.77,82.38 103.79,86.59" opacity="0.44" fill="#053855"/><polyline points="101.47,109.56 97.61,107.96 97.61,105.63" fill="#68e1fd"/><polygon points="89.07,120.66 83.41,117.4 84.85,113.12 89.94,114.61 89.07,120.66" fill="#68e1fd"/><polygon points="95.73,70.01 101.39,73.27 98.28,79.46 94.89,79.52 94.1,73.27 95.73,70.01" fill="#68e1fd"/><ellipse rx="4.39" ry="2.55" transform="matrix(.365689-.930737 0.930737 0.365689 92.258583 97.009346)" fill="#68e1fd"/><polygon points="82.3,84.41 76.64,81.14 72.63,88.78 78.29,92.04 82.3,84.41" fill="#68e1fd"/><polygon points="72.41,114.17 78.07,117.43 82.34,120.66 76.68,117.4 72.41,114.17" fill="#68e1fd"/><path d="M97.6,92.14l.4-1.45l4.6-2.51v-7.84c0-.15-4.45,2.62-4.45,2.62L98,82.52c-.249095-1.200011-.705966-2.347265-1.35-3.39l3.24-6L95.73,70l-3.08,6.17v0c-1.121037-.25977-2.288827-.239162-3.4.06v-5.9L83.34,73.6v6.2c-1.155625,1.107668-2.206735,2.319456-3.14,3.62l-3.55-2.27-4,7.63l3.18,2.53-.27,1.28c-.416281,1.351864-.750227,2.727721-1,4.12l-4.72,2.6v7.81l4.5-2.68c.194422,1.42102.688677,2.784482,1.45,4l-3.37,5.72l4.27,3.23l3-5.89h3.73v5.89L89,114v-5.79c1.289424-1.263461,2.427108-2.672981,3.39-4.2l3.38,2.31l4.08-7.79L96.5,96l.33-1.17c.3-.91.56-1.83.77-2.69Z" opacity="0.44" fill="#053855"/><polyline points="101.47,109.56 97.61,107.96 97.61,105.63" opacity="0.1" fill="#053855"/><polygon points="89.07,120.66 83.41,117.4 84.85,113.12 89.94,114.61 89.07,120.66" opacity="0.1" fill="#053855"/><ellipse rx="4.39" ry="2.55" transform="matrix(.365689-.930737 0.930737 0.365689 92.258583 97.009346)" opacity="0.1" fill="#053855"/><polygon points="82.3,84.41 76.64,81.14 72.63,88.78 78.29,92.04 82.3,84.41" opacity="0.1" fill="#053855"/><polygon points="72.41,114.17 78.07,117.43 82.34,120.66 76.68,117.4 72.41,114.17" opacity="0.1" fill="#053855"/><polyline points="101.47,109.56 97.61,107.96 97.61,105.63" opacity="0.1" fill="#053855"/><polygon points="89.07,120.66 83.41,117.4 84.85,113.12 89.94,114.61 89.07,120.66" opacity="0.44" fill="#053855"/><path d="M103.26,95.4l.41-1.45l4.6-2.51v-7.84c0-.15-4.45,2.62-4.45,2.62l-.21-.44c-.249095-1.200011-.705966-2.347265-1.35-3.39l3.24-6-4.12-3.13-3.08,6.17v0c-1.121037-.25977-2.288827-.239162-3.4.06v-5.9L89,76.86v6.2c-1.155625,1.107668-2.206735,2.319456-3.14,3.62L82.3,84.41l-4,7.63l3.18,2.53-.27,1.28c-.416281,1.351864-.750227,2.727721-1,4.12l-4.72,2.6v7.81L80,107.7c.194422,1.42102.688677,2.784482,1.45,4l-3.37,5.72l4.27,3.23l3-5.89h3.73v5.89l5.62-3.43v-5.79c1.289424-1.263461,2.427108-2.672981,3.39-4.2l3.38,2.31l4.08-7.79-3.39-2.5.33-1.17c.3-.89.56-1.79.77-2.68Z" fill="#68e1fd"/><ellipse rx="4.39" ry="2.55" transform="matrix(.365689-.930737 0.930737 0.365689 92.258583 97.009346)" opacity="0.44" fill="#053855"/><polygon points="72.41,114.17 78.07,117.43 82.34,120.66 76.68,117.4 72.41,114.17" opacity="0.44" fill="#053855"/><polygon points="83.34,73.6 89,76.86 94.89,73.59 89.22,70.33 83.34,73.6" fill="#68e1fd"/><polygon points="83.34,73.58 88.98,76.86 94.89,73.62 89.24,70.33 83.34,73.58" opacity="0.44" fill="#053855"/><polygon points="69.83,99.31 75.49,102.58 75.49,110.39 69.83,107.12 69.83,99.31" fill="#68e1fd"/><polygon points="69.83,99.31 75.49,102.58 75.49,110.39 69.83,107.12 69.83,99.31" opacity="0.44" fill="#053855"/></g></g><path d="M181.59,13l-.73,90.36c-.015992,1.947535,1.004748,3.756682,2.68,4.75l40.47,24c1.021165.613772,2.293883.629449,3.329857.041016s1.674326-1.689598,1.670143-2.881016v-91.2c.0012-1.990617-1.058139-3.831124-2.78-4.83l-39.67-23c-1.007215-.5915-2.252078-.606485-3.273239-.039401s-1.666465,1.631738-1.696761,2.799401Z" fill="#68e1fd"/><g id="eGSvXjicRuw54_ts" transform="translate(215.495003,89.809998) scale(1,0)"><polygon points="219.13,74.54 219.13,109.28 211.93,105.07 211.86,70.34 219.13,74.54" transform="translate(-215.495003,-89.809998)" fill="#5fad00"/></g><g id="eGSvXjicRuw55_ts" transform="translate(203.385002,80.030001) scale(1,0)"><polygon points="207.03,61.71 207.16,102.54 199.61,98.16 199.61,57.52 207.03,61.71" transform="translate(-203.385002,-80.030001)" fill="#f8997c"/></g><g id="eGSvXjicRuw56_ts" transform="translate(191.600006,71.185001) scale(1,0)"><polygon points="194.84,50.67 194.96,95.72 188.24,91.82 188.24,46.65 194.84,50.67" transform="translate(-191.600006,-71.185001)" fill="#fff"/></g><g id="eGSvXjicRuw57_ts" transform="translate(206.455001,64.527523) scale(0,0)"><g transform="translate(-206.455001,-64.527523)"><g id="eGSvXjicRuw58_ts" transform="translate(201.365128,104.740841) scale(0,0)"><path d="M218.5,113.54v0c.010255.600162-.304286,1.159111-.822619,1.461817s-1.159705.302012-1.677381-.001817L185.07,97.35c-.5182-.294404-.838804-.844011-.84-1.44v0c.001184-.590408.315872-1.135757.826452-1.432222s1.140202-.299427,1.653548-.007778l30.95,17.63c.5182.294404.838804.844011.84,1.44Z" transform="translate(-201.365128,-104.740841)" fill="#ffe427"/></g><path d="M225.24,45.73v12.53c-.001499.628036-.337546,1.207685-.881818,1.521054s-1.214286.312967-1.758182-.001054L188.55,40.11c-.543247-.313641-.8785-.892715-.88-1.52v-12.52c.001499-.628036.337546-1.207685.881818-1.521054s1.214286-.312967,1.758182.001054l34.06,19.66c.5394.316168.870573.894768.87,1.52Z" fill="#ffe427"/><ellipse rx="4.44" ry="5.55" transform="matrix(.953138-.302536 0.302536 0.953138 217.619843 48.861503)" fill="#fff"/><path d="M212.24,41.13L192.32,30c-.84-.47-1.6.82-.76,1.3l19.91,11.15c.84.47,1.6-.82.76-1.3Z" fill="#7f47dd"/><path d="M211.49,46l-12.37-6.93c-.84-.47-1.6.82-.76,1.3l12.37,6.93c.84.47,1.6-.82.76-1.3Z" fill="#7f47dd"/></g></g><g id="eGSvXjicRuw63_ts" transform="translate(117.399998,52.795002) scale(0,0)"><g transform="translate(-117.399997,-52.795002)"><path d="M107.39,69.31c.06.12.36,1.24.59,1s1.48.3,1.48.3l3.48-4.42-.46-1.44h-3.13" fill="#68e1fd"/><path d="M124.19,50.25l.33-1.15l3.66-2v-6.22c0-.12-3.54,2.08-3.54,2.08l-.17-.35c-.197517-.952069-.559612-1.862382-1.07-2.69l2.6-4.75-3.27-2.49-2.45,4.9v0c-.88638-.221434-1.81362-.221434-2.7,0v-4.65l-4.68,2.59v4.92c-.92018.881026-1.757064,1.845116-2.5,2.88l-2.82-1.8-3.19,6.06l2.52,2-.22,1c-.326143,1.07654-.586622,2.171888-.78,3.28L102.13,56v6.2l3.58-2.2c.152367,1.129833.544459,2.214051,1.15,3.18l-2.68,4.55l3.39,2.57L110,65.64h3v4.68l4.46-2.72v-4.6c1.023518-1.004921,1.926289-2.125833,2.69-3.34l2.69,1.84L126,55.31l-2.69-2l.27-.93c.24-.71.42-1.38.61-2.13Z" fill="#68e1fd"/><polyline points="132.67,43.47 128.54,40.97 127.5,42.5 129.1,45.85" fill="#68e1fd"/><polyline points="127.26,64.09 124.2,62.82 124.2,60.97" fill="#68e1fd"/><polygon points="117.42,72.91 112.92,70.32 114.06,66.92 118.11,68.11 117.42,72.91" fill="#68e1fd"/><polygon points="122.71,32.68 127.2,35.27 124.73,40.19 122.04,40.23 121.41,35.27 122.71,32.68" fill="#68e1fd"/><ellipse rx="3.49" ry="2.03" transform="matrix(.365689-.930737 0.930737 0.365689 119.945198 54.122833)" fill="#68e1fd"/><polygon points="112.86,35.53 117.36,38.12 122.04,35.53 117.54,32.93 112.86,35.53" fill="#68e1fd"/><polygon points="112.04,44.12 107.55,41.52 104.36,47.59 108.86,50.18 112.04,44.12" fill="#68e1fd"/><polygon points="104.18,67.75 108.68,70.34 112.07,72.91 107.58,70.32 104.18,67.75" fill="#68e1fd"/><path d="M107.39,69.31c.06.12.36,1.24.59,1s1.48.3,1.48.3l3.48-4.42-.46-1.44h-3.13" opacity="0.44" fill="#053855"/><path d="M124.19,50.25l.33-1.15l3.66-2v-6.22c0-.12-3.54,2.08-3.54,2.08l-.17-.35c-.197517-.952069-.559612-1.862382-1.07-2.69l2.6-4.75-3.27-2.49-2.45,4.9v0c-.88638-.221434-1.81362-.221434-2.7,0v-4.65l-4.68,2.59v4.92c-.92018.881026-1.757064,1.845116-2.5,2.88l-2.82-1.8-3.19,6.06l2.52,2-.22,1c-.326143,1.07654-.586622,2.171888-.78,3.28L102.13,56v6.2l3.58-2.2c.152367,1.129833.544459,2.214051,1.15,3.18l-2.68,4.55l3.39,2.57L110,65.64h3v4.68l4.46-2.72v-4.6c1.023518-1.004921,1.926289-2.125833,2.69-3.34l2.69,1.84L126,55.31l-2.69-2l.27-.93c.24-.71.42-1.38.61-2.13Z" fill="#68e1fd"/><polyline points="132.67,43.47 128.54,40.97 127.5,42.5 129.1,45.85" opacity="0.44" fill="#053855"/><polyline points="127.26,64.09 124.2,62.82 124.2,60.97" fill="#68e1fd"/><polygon points="117.42,72.91 112.92,70.32 114.06,66.92 118.11,68.11 117.42,72.91" fill="#68e1fd"/><polygon points="122.71,32.68 127.2,35.27 124.73,40.19 122.04,40.23 121.41,35.27 122.71,32.68" fill="#68e1fd"/><ellipse rx="3.49" ry="2.03" transform="matrix(.365689-.930737 0.930737 0.365689 119.945198 54.122833)" fill="#68e1fd"/><polygon points="112.04,44.12 107.55,41.52 104.36,47.59 108.86,50.18 112.04,44.12" fill="#68e1fd"/><polygon points="104.18,67.75 108.68,70.34 112.07,72.91 107.58,70.32 104.18,67.75" fill="#68e1fd"/><path d="M124.19,50.25l.33-1.15l3.66-2v-6.22c0-.12-3.54,2.08-3.54,2.08l-.17-.35c-.197517-.952069-.559612-1.862382-1.07-2.69l2.6-4.75-3.27-2.49-2.45,4.9v0c-.88638-.221434-1.81362-.221434-2.7,0v-4.65l-4.68,2.59v4.92c-.92018.881026-1.757064,1.845116-2.5,2.88l-2.82-1.8-3.19,6.06l2.52,2-.22,1c-.326143,1.07654-.586622,2.171888-.78,3.28L102.13,56v6.2l3.58-2.2c.152367,1.129833.544459,2.214051,1.15,3.18l-2.68,4.55l3.39,2.57L110,65.64h3v4.68l4.46-2.72v-4.6c1.023518-1.004921,1.926289-2.125833,2.69-3.34l2.69,1.84L126,55.31l-2.69-2l.27-.93c.24-.71.42-1.38.61-2.13Z" opacity="0.44" fill="#053855"/><polyline points="127.26,64.09 124.2,62.82 124.2,60.97" opacity="0.1" fill="#053855"/><polygon points="117.42,72.91 112.92,70.32 114.06,66.92 118.11,68.11 117.42,72.91" opacity="0.1" fill="#053855"/><ellipse rx="3.49" ry="2.03" transform="matrix(.365689-.930737 0.930737 0.365689 119.945198 54.122833)" opacity="0.1" fill="#053855"/><polygon points="112.04,44.12 107.55,41.52 104.36,47.59 108.86,50.18 112.04,44.12" opacity="0.1" fill="#053855"/><polygon points="104.18,67.75 108.68,70.34 112.07,72.91 107.58,70.32 104.18,67.75" opacity="0.1" fill="#053855"/><polyline points="127.26,64.09 124.2,62.82 124.2,60.97" opacity="0.1" fill="#053855"/><polygon points="117.42,72.91 112.92,70.32 114.06,66.92 118.11,68.11 117.42,72.91" opacity="0.44" fill="#053855"/><path d="M128.69,52.84L129,51.7l3.66-2v-6.23c0-.12-3.54,2.08-3.54,2.08l-.17-.35c-.197517-.952069-.559612-1.862382-1.07-2.69l2.58-4.75-3.27-2.49-2.45,4.9v0c-.88638-.221434-1.81362-.221434-2.7,0v-4.64l-4.68,2.59v4.88c-.92018.881026-1.757064,1.845116-2.5,2.88L112,44.12l-3.19,6.06l2.52,2-.22,1c-.326143,1.07654-.586622,2.171888-.78,3.28l-3.75,2.07v6.2l3.57-2.13c.152367,1.129833.544459,2.214051,1.15,3.18l-2.68,4.55l3.39,2.57l2.38-4.68h3v4.68l4.46-2.72v-4.6c1.023518-1.004921,1.926289-2.125833,2.69-3.34l2.69,1.84l3.24-6.19-2.69-2l.27-.93c.27-.7.47-1.41.64-2.12Z" fill="#68e1fd"/><ellipse rx="3.49" ry="2.03" transform="matrix(.365689-.930737 0.930737 0.365689 119.945198 54.122833)" opacity="0.44" fill="#053855"/><polygon points="104.18,67.75 108.68,70.34 112.07,72.91 107.58,70.32 104.18,67.75" opacity="0.44" fill="#053855"/><polygon points="112.86,35.53 117.36,38.12 122.04,35.53 117.54,32.93 112.86,35.53" fill="#68e1fd"/><polygon points="112.86,35.51 117.35,38.12 122.04,35.54 117.55,32.94 112.86,35.51" opacity="0.44" fill="#053855"/><polygon points="102.14,55.95 106.63,58.54 106.63,64.75 102.14,62.16 102.14,55.95" fill="#68e1fd"/><polygon points="102.14,55.95 106.63,58.54 106.63,64.75 102.14,62.16 102.14,55.95" opacity="0.44" fill="#053855"/></g></g><path d="M161.65,207.38c-14.73,8.59-25.26,14.36-47.92,27.3c17.15,10.42,30.44,20,32.37,21.14L197,225.93c-3.93-2.08-17-9.48-35.35-18.55Z" fill="url(#eGSvXjicRuw98-fill)"/><path d="M173.82,173.54c-4.31-3-9.38-4.66-14.86-3.45-5.84,1.28-10.89,5-16.84,5.85-.94.14-4.69-.1-5.27.44-16.55,15.66,29.71,14,29.71,14c4.49-3.68,8.72-7.3,13.17-11-1.34-3.04-3.6-4.23-5.91-5.84Z" fill="#f8997c"/><path d="M152,196.24l-1.64,47.25c-.06,1.79,2.72,1.79,2.78,0l1.64-47.25c.11-1.79-2.67-1.79-2.78,0Z" fill="#f8997c"/><path d="M186.73,221.52q-12.64-12.37-24.15-25.81c-1.17-1.36-3.13.61-2,2q11.5,13.43,24.15,25.81c1.27,1.23,3.27-.74,2-2Z" fill="#f8997c"/><path d="M142.39,191.87q-9.81,18.52-18.48,37.6c-.74,1.62,1.66,3,2.4,1.41q8.67-19.08,18.48-37.6c.84-1.59-1.56-3-2.4-1.41Z" fill="#f8997c"/><path d="M183.92,162.37c0,0,6,1.23,7.37,2.58s3.56,7,2.95,8.71-2.33-1-3.07-2.08c-.874495-1.147988-1.81614-2.243234-2.82-3.28-1.977.304434-3.999829.037268-5.83-.77" fill="#fcbf81"/><path d="M185.93,213.53c.87-.89,1.43-1.87,1.13-2.84-.53-1.74-2.89-2.44-4.5-2.35s-3.29.91-4.92,1.4c-1.709012.613358-3.53308.838805-5.34.66-.292149-.039067-.559403-.185166-.75-.41-1.020075-.243314-1.839053-1.001627-2.16-2l-5.39-1.9c0,0-1.37,11.31-1.32,12.1.4,6.1,9.51,2.62,9.51,2.62s.32-2.76.41-3.13s3.58.71,5,.49c.666767-.185648,1.29851-.479561,1.87-.87c1.08-.59,2.13-1.23,3.18-1.87s2.2-1.25,3.28-1.9Z" fill="#e55600"/><path d="M166,171.8c-2,.2-4,.46-6,.74q1.25,19.26,2.77,38.49c5.2,2.13,7.31,1.14,10.54-2.16.61-12.24,1.69-25.06,1.65-37.42-3.03.13-5.96.26-8.96.35Z" fill="#34323d"/><path d="M144.33,168.27c0,0-.86,14.05,6.2,17.19s21.55,1.57,28.67-2.61c3.684884-2.243788,7.551826-4.173914,11.56-5.77s1.83-6.15-2.61-8.81-14.26-5.94-23,0" fill="#34323d"/><g id="eGSvXjicRuw107_tr" transform="translate(158.32,146.04) rotate(78.940213)"><g transform="translate(-158.32,-146.039995)"><path d="M175.31,129.68c.221435-.528759.482164-1.04019.78-1.53.008248.031086.025672.058965.05.08.016255.08193.081713.14513.164162.1585s.164525-.025906.205838-.0985l.57-.86c-.019408.112502-.019408.227498,0,.34.094927.43595.507479.726907.95.67.253393-.018068.485422-.148525.632528-.355635s.193866-.469159.127472-.714365l.26-.3c-.013333.086154-.013333.173846,0,.26.080029.244655.279934.431175.52954.494084s.514034-.006584.70046-.184084c.1-.08.19-.18.28-.27.159532.068969.340468.068969.5,0c.733721-.249805,1.451693-.543673,2.15-.88-.099164-.042452-.171321-.13069-.193242-.236308s.009162-.215283.083242-.293692c.824184-.666859,1.696564-1.271842,2.61-1.81.0322-.027279.069632-.047696.11-.06l.05-.09c.214072-.693293.164207-1.441259-.14-2.1.446778-.543848.61995-1.262326.47-1.95-.073419-.004979-.143401-.032971-.2-.08-.130303-.111363-.241741-.243062-.33-.39-.161024-.200341-.286201-.427012-.37-.67-.042196-.125191.00247-.26325.11-.34-.34-.45-.74-.88-1.09-1.28.856824-1.459777,1.263821-3.139942,1.17-4.83-.016102-.324118-.241501-.599928-.55592-.680255s-.64449.053577-.81408.330255c-.336367.531124-.640256,1.082133-.91,1.65-.08843.05755-.16071.136714-.21.23-1.445563,2.968281-3.051261,5.855867-4.81,8.65-.3.47-4,5.51-3.54,5.63-.03.24-3.03,7.15.66,1.51Zm2.16-2.13c0,0,0,0,0-.05.037967.04305.0926.067712.15.067712s.112033-.024662.15-.067712v0c.182013.130985.41258.174902.63.12-.016569.276142-.253858.486569-.53.47s-.486569-.253858-.47-.53Z" fill="#fcbf81"/><path d="M175.71,128.08c.802083-.613729,1.480703-1.373783,2-2.24.19799-.3671.536414-.638193.937878-.751281s.83163-.0585,1.192122.151281c.057635-.404155.087705-.811763.09-1.22c0-2.08,3.27-2.11,3.23,0c.073734,1.632498-.363195,3.247388-1.25,4.62-.9786,1.238173-2.170689,2.29141-3.52,3.11-.483275.270968-1.069881.282961-1.563827.031972s-.830109-.731868-.896173-1.281972l-.14-.11c-.317995-.295104-.505229-.7048-.520245-1.138368s.143428-.855236.440245-1.171632Z" fill="#fcbf81"/><path d="M180.89,129.32c1.356557-.892841,2.333056-2.257801,2.74-3.83.024777.044385.067165.076224.116695.087654s.101584.001385.143305-.027654l1.29-.87c.272782-.157147.51913-.35625.73-.59.47-.6,0-1.29-.19-1.91-.014107-.036156-.038428-.067427-.07-.09l.18-.3c.32497-.469777.496174-1.028811.49-1.6-.09-.56-.62-.93-.87-1.41.10118-.575872-.210356-1.144944-.75-1.37-.69-.31-1.07.21-1.44.72q-1.19,1.62-2.25,3.33c-.14.22.22.42.35.2.39-.62.78-1.23,1.19-1.83.341331-.667382.779394-1.280671,1.3-1.82c1.44-.83,1.16,1.16.93,1.67-.14.3-.31.58-.48.87l-1.09,1.92c-.025006.050402-.025006.109598,0,.16.655016,2.422444-.357242,4.987644-2.49,6.31-.26.18-.05.53.17.38Zm2.93-6.57c-.062747-.045064-.147253-.045064-.21,0v-.13c.71818-1.021072,1.309207-2.125888,1.76-3.29.1.13.2.25.3.39.295054.397882.322644.933928.07,1.36-.29.63-1.04,2.17-1.92,1.66Zm-.13,2.46c.128722-.687359.128722-1.392641,0-2.08.69.34,1.28-.11,1.71-.68.121943.256814.219052.5247.29.8.069574.36184-.104787.726781-.43.9-.52.37-1.05.7-1.57,1.05Z" fill="#34323d"/><path d="M157.8,135.83c0,0,9.43.45,11.89-1.81s6-9.37,6-9.37s6.5,4.18,6.82,6.58-6.79,14-9.95,14.81" fill="#ba3e00"/></g></g><path d="M202.24,222.34c.87-.89,1.43-1.87,1.13-2.84-.53-1.74-2.89-2.44-4.5-2.35s-3.29.91-4.92,1.4c-1.709012.613358-3.53308.838805-5.34.66-.292149-.039067-.559403-.185166-.75-.41-1.020075-.243314-1.839053-1.001627-2.16-2l-5.35-1.92c0,0-1.35,11.32-1.35,12.12.4,6.1,9.51,2.62,9.51,2.62s.32-2.76.41-3.13s3.58.71,5,.49c.666767-.185648,1.29851-.479561,1.87-.87c1.08-.59,2.13-1.23,3.18-1.87s2.19-1.24,3.27-1.9Z" fill="#e55600"/><path d="M181.65,168.62c-1.84-.87-3.77-.78-6-.77.31,4.52.14,6.15.42,10.67l.08,1.2C177,193.1,178,206.47,179,219.83c5.2,2.13,7.31,1.14,10.54-2.16.72-14.24,2.06-29.28,1.54-43.45-2.97-2.98-5.64-3.82-9.43-5.6Z" fill="#34323d"/><path d="M144.2,165.36c0,.35.07,1.51.12,2.91c2.92,3.85,6.5,6.11,12.11,5.94c4.54-.13,8.33-2.12,11.89-4.57-.44-8.23-1.77-22.28-3.85-32.08-.18-.83-2.33-1.38-3-1.73-1.48-.81-.61-2.2-2.06-3.07-2.102351-1.222144-4.291565-2.288341-6.55-3.19h-.06c-3.62-.05-9.85,2.73-10.22,7.57-.57,7.45.25,11.93.83,19.36.28,3,.54,5.96.79,8.86Z" fill="#e55600"/><path d="M156.8,115.49c.48.12,4.49,9.36,2.92,15s-11.1-.16-13.5-4.43s1.56-12.91,10.58-10.57Z" fill="#fcbf81"/><path d="M156.67,116.78c0,0,0,3.05-2.66,4s-4.88,1.65-4.74,2.88s4.82-.17,4.84,2.65c.002852,1.902428-.25282,3.796422-.76,5.63-.29,1.38-8.3-2.86-10.94-10.09s4-9.15,4.29-9.2.92-2,4.16-2.72s4.15.55,4.15.55c1.512182-.911998,3.446982-.703384,4.73.51c3,2.37,2.23,6.7-1.15,8.46Z" fill="#34323d"/><path d="M158.32,145.42c0,0,9.91,18.1,15.39,19.66c3.931499,1.027197,7.94787,1.696592,12,2s.68-5,0-7.18c0,0-8.77-3.95-9.63-6.32s-8.25-19-16.64-20.76" fill="#e55600"/><path d="M167.44,159.49c-.61-.78-7.48-8.56-7.48-8.56l8.26,16.92Z" fill="#34323d"/><path d="M179.1,179c-2.580842,3.594651-6.23652,6.276882-10.44,7.66-5.89,1.79-14.46.95-17.55-5.21-5.63-11.21-.34-25.23-6.29-36.13-1.387695-2.786296-3.897553-4.848745-6.9-5.67-3.86-.84-6.5,2.05-7.9,5.46-2.51,6.11-2.42,13.73-2.29,20.23.005299,5.260457.386268,10.513819,1.14,15.72s3.6,21.84,31.7,16c4.863558-.882759,9.534426-2.612334,13.8-5.11c2.191433-1.274391,4.105684-2.974436,5.63-5c1.72-2.41.58-5.38-.9-7.95Z" fill="#68e1fd"/><path d="M37.7,195.71L62.7,178c-7.31-3.49-8.38-7-14.12-12.66-9.49,5.95-22.4,12.45-33.91,18.34c7.82,3.8,15.66,7.5,23.03,12.03Z" fill="url(#eGSvXjicRuw120-fill)"/><path d="M51.3,160.94c-4.4-.38-9-1.71-12.27-4.72v13c0,3.585727,1.424424,7.024592,3.959916,9.560084s5.974357,3.959916,9.560084,3.959916v0c3.585727,0,7.024592-1.424424,9.560084-3.959916s3.959916-5.974357,3.959916-9.560084v-13.22c-4.61,1.89-9.85,5.37-14.77,4.94Z" fill="#68e1fd"/><ellipse rx="13.52" ry="7.17" transform="translate(52.55 156.14)" fill="#5ed18d"/><path d="M52.55,157.36c0,0-9.2-1.35-11.63-16.23c0,0,7.84,4.33,11.63,16.23Z" fill="#5ed18d"/><path d="M53.9,155.46c0,0-10.55-18.93,0-31.65c3.223596,10.303754,3.223596,21.346246,0,31.65Z" fill="#5ed18d"/><path d="M52.55,143.56c0,0-9.2-1.35-11.63-16.23c0,0,7.84,4.33,11.63,16.23Z" fill="#5ed18d"/><path d="M53.67,149.63c0,0-2.3-9,10.48-17c0,0-.97,8.91-10.48,17Z" fill="#5ed18d"/><ellipse rx="13.52" ry="7.17" transform="translate(52.55 156.14)" fill="#146666"/><path d="M52.55,157.36c0,0-9.2-1.35-11.63-16.23c0,0,7.84,4.33,11.63,16.23Z" fill="#5ed18d"/><path d="M53.9,155.46c0,0-10.55-18.93,0-31.65c3.223596,10.303754,3.223596,21.346246,0,31.65Z" fill="#5ed18d"/><path d="M52.55,143.56c0,0-9.2-1.35-11.63-16.23c0,0,7.84,4.33,11.63,16.23Z" fill="#5ed18d"/><path d="M53.67,149.63c0,0-2.3-9,10.48-17c0,0-.97,8.91-10.48,17Z" fill="#5ed18d"/></g></svg>
