<svg id="evMVWQdp6Du1" xmlns="http://www.w3.org/2000/svg" xmlns:xlink="http://www.w3.org/1999/xlink" viewBox="0 0 400 300" shape-rendering="geometricPrecision" text-rendering="geometricPrecision">
<style><![CDATA[
#evMVWQdp6Du46_to {animation: evMVWQdp6Du46_to__to 10000ms linear 1 normal forwards}@keyframes evMVWQdp6Du46_to__to { 0% {transform: translate(400px,179.842704px)} 2% {transform: translate(400px,179.842704px);animation-timing-function: cubic-bezier(0.445,0.05,0.55,0.95)} 19% {transform: translate(320.68013px,132.786266px)} 100% {transform: translate(320.68013px,132.786266px)}} #evMVWQdp6Du46 {animation: evMVWQdp6Du46_c_o 10000ms linear 1 normal forwards}@keyframes evMVWQdp6Du46_c_o { 0% {opacity: 0} 2% {opacity: 0} 12% {opacity: 1} 100% {opacity: 1}} #evMVWQdp6Du66_to {animation: evMVWQdp6Du66_to__to 10000ms linear 1 normal forwards}@keyframes evMVWQdp6Du66_to__to { 0% {transform: translate(347.204882px,203.03873px)} 5% {transform: translate(347.204882px,203.03873px);animation-timing-function: cubic-bezier(0.445,0.05,0.55,0.95)} 20% {transform: translate(291.955117px,170.85127px)} 100% {transform: translate(291.955117px,170.85127px)}} #evMVWQdp6Du66 {animation: evMVWQdp6Du66_c_o 10000ms linear 1 normal forwards}@keyframes evMVWQdp6Du66_c_o { 0% {opacity: 0} 5% {opacity: 0} 15% {opacity: 1} 100% {opacity: 1}} #evMVWQdp6Du76_to {animation: evMVWQdp6Du76_to__to 10000ms linear 1 normal forwards}@keyframes evMVWQdp6Du76_to__to { 0% {transform: translate(270.69px,254.680361px);animation-timing-function: cubic-bezier(0.445,0.05,0.55,0.95)} 15% {transform: translate(228.55589px,227.339638px)} 100% {transform: translate(228.55589px,227.339638px)}} #evMVWQdp6Du76 {animation: evMVWQdp6Du76_c_o 10000ms linear 1 normal forwards}@keyframes evMVWQdp6Du76_c_o { 0% {opacity: 0} 10% {opacity: 1} 100% {opacity: 1}} #evMVWQdp6Du86_to {animation: evMVWQdp6Du86_to__to 10000ms linear 1 normal forwards}@keyframes evMVWQdp6Du86_to__to { 0% {transform: translate(365.382552px,201.1px)} 11.9% {transform: translate(365.382552px,201.1px);animation-timing-function: cubic-bezier(0.445,0.05,0.55,0.95)} 27% {transform: translate(299.410278px,158.018726px)} 100% {transform: translate(299.410278px,158.018726px)}} #evMVWQdp6Du86 {animation: evMVWQdp6Du86_c_o 10000ms linear 1 normal forwards}@keyframes evMVWQdp6Du86_c_o { 0% {opacity: 0} 12% {opacity: 0} 22% {opacity: 1} 100% {opacity: 1}}
]]></style>
<defs><linearGradient id="evMVWQdp6Du13-fill" x1="39.05" y1="145.41" x2="41.2" y2="143.12" spreadMethod="pad" gradientUnits="userSpaceOnUse" gradientTransform="translate(0 0)"><stop id="evMVWQdp6Du13-fill-0" offset="0%" stop-color="rgba(255,115,77,0)"/><stop id="evMVWQdp6Du13-fill-1" offset="100%" stop-color="#42210b"/></linearGradient><linearGradient id="evMVWQdp6Du17-fill" x1="66.36" y1="127.74" x2="68.51" y2="125.46" spreadMethod="pad" gradientUnits="userSpaceOnUse" gradientTransform="translate(0 0)"><stop id="evMVWQdp6Du17-fill-0" offset="0%" stop-color="rgba(255,115,77,0)"/><stop id="evMVWQdp6Du17-fill-1" offset="100%" stop-color="#42210b"/></linearGradient><linearGradient id="evMVWQdp6Du21-fill" x1="82.49" y1="119.21" x2="84.64" y2="116.93" spreadMethod="pad" gradientUnits="userSpaceOnUse" gradientTransform="translate(0 0)"><stop id="evMVWQdp6Du21-fill-0" offset="0%" stop-color="rgba(255,115,77,0)"/><stop id="evMVWQdp6Du21-fill-1" offset="100%" stop-color="#42210b"/></linearGradient><linearGradient id="evMVWQdp6Du25-fill" x1="147.98" y1="80.41" x2="150.13" y2="78.12" spreadMethod="pad" gradientUnits="userSpaceOnUse" gradientTransform="translate(0 0)"><stop id="evMVWQdp6Du25-fill-0" offset="0%" stop-color="rgba(255,115,77,0)"/><stop id="evMVWQdp6Du25-fill-1" offset="100%" stop-color="#42210b"/></linearGradient><linearGradient id="evMVWQdp6Du97-fill" x1="116.42" y1="219.09" x2="122.95" y2="225.3" spreadMethod="pad" gradientUnits="userSpaceOnUse" gradientTransform="translate(0 0)"><stop id="evMVWQdp6Du97-fill-0" offset="0%" stop-color="#7f4e00"/><stop id="evMVWQdp6Du97-fill-1" offset="100%" stop-color="#fff"/></linearGradient><linearGradient id="evMVWQdp6Du105-fill" x1="141" y1="205.01" x2="147.52" y2="211.22" spreadMethod="pad" gradientUnits="userSpaceOnUse" gradientTransform="translate(0 0)"><stop id="evMVWQdp6Du105-fill-0" offset="0%" stop-color="#7f4e00"/><stop id="evMVWQdp6Du105-fill-1" offset="100%" stop-color="#fff"/></linearGradient><linearGradient id="evMVWQdp6Du113-fill" x1="168.06" y1="187.81" x2="174.59" y2="194.02" spreadMethod="pad" gradientUnits="userSpaceOnUse" gradientTransform="translate(0 0)"><stop id="evMVWQdp6Du113-fill-0" offset="0%" stop-color="#7f4e00"/><stop id="evMVWQdp6Du113-fill-1" offset="100%" stop-color="#fff"/></linearGradient><linearGradient id="evMVWQdp6Du121-fill" x1="192.64" y1="173.73" x2="199.17" y2="179.94" spreadMethod="pad" gradientUnits="userSpaceOnUse" gradientTransform="translate(0 0)"><stop id="evMVWQdp6Du121-fill-0" offset="0%" stop-color="#7f4e00"/><stop id="evMVWQdp6Du121-fill-1" offset="100%" stop-color="#fff"/></linearGradient><linearGradient id="evMVWQdp6Du129-fill" x1="245.33" y1="145.58" x2="251.86" y2="151.79" spreadMethod="pad" gradientUnits="userSpaceOnUse" gradientTransform="translate(0 0)"><stop id="evMVWQdp6Du129-fill-0" offset="0%" stop-color="#7f4e00"/><stop id="evMVWQdp6Du129-fill-1" offset="100%" stop-color="#fff"/></linearGradient><linearGradient id="evMVWQdp6Du137-fill" x1="269.91" y1="131.5" x2="276.43" y2="137.71" spreadMethod="pad" gradientUnits="userSpaceOnUse" gradientTransform="translate(0 0)"><stop id="evMVWQdp6Du137-fill-0" offset="0%" stop-color="#7f4e00"/><stop id="evMVWQdp6Du137-fill-1" offset="100%" stop-color="#fff"/></linearGradient><linearGradient id="evMVWQdp6Du145-fill" x1="248.28" y1="105.56" x2="263.16" y2="118.05" spreadMethod="pad" gradientUnits="userSpaceOnUse" gradientTransform="translate(0 0)"><stop id="evMVWQdp6Du145-fill-0" offset="0%" stop-color="#7f4e00"/><stop id="evMVWQdp6Du145-fill-1" offset="100%" stop-color="#fff"/></linearGradient><linearGradient id="evMVWQdp6Du172-fill" x1="222.24" y1="113.05" x2="228.25" y2="118.77" spreadMethod="pad" gradientUnits="userSpaceOnUse" gradientTransform="translate(0 0)"><stop id="evMVWQdp6Du172-fill-0" offset="0%" stop-color="#7f4e00"/><stop id="evMVWQdp6Du172-fill-1" offset="100%" stop-color="#fff"/></linearGradient><linearGradient id="evMVWQdp6Du176-fill" x1="203.23" y1="130.81" x2="220.36" y2="145.19" spreadMethod="pad" gradientUnits="userSpaceOnUse" gradientTransform="translate(0 0)"><stop id="evMVWQdp6Du176-fill-0" offset="0%" stop-color="#7f4e00"/><stop id="evMVWQdp6Du176-fill-1" offset="100%" stop-color="#fff"/></linearGradient><linearGradient id="evMVWQdp6Du194-fill" x1="183.08" y1="139.25" x2="189.61" y2="145.46" spreadMethod="pad" gradientUnits="userSpaceOnUse" gradientTransform="translate(0 0)"><stop id="evMVWQdp6Du194-fill-0" offset="0%" stop-color="#7f4e00"/><stop id="evMVWQdp6Du194-fill-1" offset="100%" stop-color="#fff"/></linearGradient><linearGradient id="evMVWQdp6Du202-fill" x1="169.94" y1="143.63" x2="175.96" y2="149.35" spreadMethod="pad" gradientUnits="userSpaceOnUse" gradientTransform="translate(0 0)"><stop id="evMVWQdp6Du202-fill-0" offset="0%" stop-color="#7f4e00"/><stop id="evMVWQdp6Du202-fill-1" offset="100%" stop-color="#fff"/></linearGradient><linearGradient id="evMVWQdp6Du206-fill" x1="102.91" y1="165.98" x2="124.38" y2="184" spreadMethod="pad" gradientUnits="userSpaceOnUse" gradientTransform="translate(0 0)"><stop id="evMVWQdp6Du206-fill-0" offset="0%" stop-color="#7f4e00"/><stop id="evMVWQdp6Du206-fill-1" offset="100%" stop-color="#fff"/></linearGradient><linearGradient id="evMVWQdp6Du245-fill" x1="224.5" y1="159.99" x2="253.92" y2="184.68" spreadMethod="pad" gradientUnits="userSpaceOnUse" gradientTransform="translate(0 0)"><stop id="evMVWQdp6Du245-fill-0" offset="0%" stop-color="#7f4e00"/><stop id="evMVWQdp6Du245-fill-1" offset="100%" stop-color="#fff"/></linearGradient></defs><g style="isolation:isolate"><g><path d="M14.77,150c.86-.49,11.92-57.94,31.37-62.49c12.66-3,18,17.39,34.14,7.57s16.07-22.48,26.3-19.41s7,15,20-1.2s23.15-30.06,42.26-27.18s28.71,1.71,28.71,1.71Z" fill="#398de7"/><path d="M208.17,224.81c24.72-11.34,53.44-13.21,66.2-49.36s36.9-60.45,36.9-60.45L197.55,49c-2.76-1.6-6.88-.5-9.59,1.18L7.18,154.38c-5.59,3.46-.67,8.75,5.06,12L179.2,265v0c0,0,4.25-28.85,28.97-40.19Z" fill="#006d29"/><path d="M216.11,272.64l171.54-97.93c5.74-3.33,4.71-12.63-1-16L311.27,115c0,0-24.14,24.29-36.9,60.44s-41.47,38-66.2,49.36-29,40.21-29,40.21v0l13.17,7.78c7.393429,4.152831,16.42957,4.095809,23.77-.15Z" fill="#398de7"/><path d="M276.5,143.05c-4.7,8-7.52,15.19-12.15,23.24-3.44,6-6.39,15.09-11.41,19.87-10.13,9.64-24,12.3-36.65,17.29-11.84,4.68-23.7,10.52-32.56,19.89-9.25,9.79-13.54,22.42-14.89,35.56L179.2,265c0,0,4.24-28.87,29-40.21s53.44-13.21,66.2-49.36s36.87-60.43,36.87-60.43l-9.83-5.7c-7.79,11.81-17.78,21.55-24.94,33.75Z" fill="#f9b176"/><path d="M275.3,94.13l-41.88,24.14-98.57,56.81c-18.63,10.74-40.77,28.62-62.47,12.09-4.93-3.76-7.58-10.83-6.74-17c1.31-9.71,14.49-14.5,22.49-18.86c14-7.63,27.75-15.73,41.62-23.6l65.88-37.36l43.46-24.64c-6.22-3.73-12.43-7.46-19-10.63l-.06-.05-164,94.5c-19.33,14.51-14.29,34.3-14.29,34.3l38.44,22.72l27,16L301.44,109.3c-6.25-3.37-34.44-20.09-26.14-15.17Z" fill="#c8bebc"/><path d="M127.58,84.91c-5.49,2.93-10.88,6-16.44,8.83l36.73,21.14l15.77-9.32Z" fill="#c8bebc"/><path d="M59.09,124.59c-5.39,2.86-10.57,6.1-15.84,9.18L74.84,152l15.77-9.32Z" fill="#c8bebc"/><path d="M124.05,128.37c-5.05,3.12-10.06,6.31-15,9.6l51.43,29.61l15.77-9.32Z" fill="#c8bebc"/><path d="M31.45,102c-.66,1.21-2.27,4.45,1.18,2.73s5.69-11.56,7.07-7.25-2.7,19.32,1.52,13.8s2.63-15.53,5.9-13.8s3.8,8.8,5.18,3.28s1.24-7.42,4.16-6c1.857532.749499,3.974803.439934,5.54-.81s-6.8-8.26-16.62-6.47C38.13,88.81,31.45,102,31.45,102Z" fill="#8dc8fc"/><path d="M37.41,144.94c.26,0,.47,0,.58.08-.18,1.81,1.12.93,1.69,1.39l.49-.21q1.49-1.49,3-3c-.34-.25-.68-.51-1-.77-1.654797.700544-3.247174,1.540222-4.76,2.51Z" opacity="0.41" fill="url(#evMVWQdp6Du13-fill)"/><path d="M43.31,143.25v-8.94h-1.95v9c.633148.233868,1.332428.212352,1.95-.06Z" fill="#a83f1e"/><path d="M42.54,134.33v9.16c.272289-.019335.537738-.094205.78-.22v-8.94Z" fill="#7f2b14"/><path d="M44.64,130c-.080027-.139043-.091394-.307241-.030802-.455788s.186356-.260809.340802-.304212c.331478-.046239.665387-.072952,1-.08.042158-.056825.072738-.121382.09-.19c0-.1-.08-.31-.25-.58s-.38-.47-.59-.7c-1-1-2-2-3-3.05-1.3,1.29-2.69,2.5-4.06,3.72-.070829.113828-.121568.238984-.15.37.597359.06701,1.180852.225531,1.73.47.238858.146683.318471.45629.18.7-.418373.752384-.918029,1.456597-1.49,2.1-.49.65-.95,1.32-1.41,2c1.09.1,3.21.07,2.67,1.48-.389586.676016-.874572,1.292352-1.44,1.83-.582456.784228-1.10717,1.609734-1.57,2.47v0c.28.47,1.17.62,1.69.73c1.142106.229948,2.305023.340542,3.47.33c1.170729.016951,2.336279-.158726,3.45-.52.607428-.192071,1.17137-.50122,1.66-.91-1.011818-1.291526-1.867733-2.697912-2.55-4.19-.070553-.272858.089103-.552256.36-.63.88-.27,1.79-.47,2.67-.73c0,0,0,0,0-.06-.44-.59-1-1.1-1.43-1.68s-.83-1.48-1.34-2.12Z" fill="#0a3a16"/><path d="M64.72,127.28c.26,0,.47,0,.58.08-.18,1.81,1.12.93,1.69,1.39l.49-.21q1.49-1.49,3-3c-.34-.25-.68-.51-1-.77-1.654797.700544-3.247174,1.540222-4.76,2.51Z" opacity="0.41" fill="url(#evMVWQdp6Du17-fill)"/><path d="M70.62,125.58v-8.94h-1.94v9c.630168.231171,1.325322.209671,1.94-.06Z" fill="#a83f1e"/><path d="M69.85,116.67v9.16c.272289-.019335.537738-.094205.78-.22v-8.94Z" fill="#7f2b14"/><path d="M72,112.29c-.080027-.139043-.091394-.307241-.030802-.455788s.186356-.260809.340802-.304212c.331478-.046239.665387-.072952,1-.08.042158-.056825.072738-.121382.09-.19c0-.1-.08-.31-.25-.58s-.38-.47-.59-.7c-1-1-2-2-3-3.05-1.3,1.29-2.69,2.5-4.06,3.72-.070829.113828-.121568.238984-.15.37.597359.06701,1.180852.225531,1.73.47.238858.146683.318471.45629.18.7-.447873.767759-.981274,1.482314-1.59,2.13-.49.65-.95,1.32-1.41,2c1.09.1,3.21.07,2.67,1.48-.389586.676016-.874572,1.292352-1.44,1.83-.554571.7835-1.052503,1.60559-1.49,2.46v0c.28.47,1.17.62,1.69.73c1.142106.229948,2.305023.340542,3.47.33c1.170729.016951,2.336279-.158726,3.45-.52.607428-.192071,1.17137-.50122,1.66-.91-1.011818-1.291526-1.867733-2.697912-2.55-4.19-.070553-.272858.089103-.552256.36-.63.88-.27,1.79-.47,2.67-.73c0,0,0,0,0-.06-.44-.59-1-1.1-1.43-1.68s-.86-1.43-1.32-2.14Z" fill="#0a3a16"/><path d="M80.85,118.75c.26,0,.47,0,.58.08-.18,1.81,1.12.93,1.69,1.39l.49-.21q1.49-1.49,3-3c-.34-.25-.68-.51-1-.77-1.654797.700544-3.247174,1.540222-4.76,2.51Z" opacity="0.41" fill="url(#evMVWQdp6Du21-fill)"/><path d="M86.75,117.06v-8.94h-1.94v9c.630168.231171,1.325322.209671,1.94-.06Z" fill="#a83f1e"/><path d="M86,108.14v9.16c.272289-.019335.537738-.094205.78-.22v-8.94Z" fill="#7f2b14"/><path d="M88.09,103.76c-.080027-.139043-.091394-.307241-.030802-.455788s.186356-.260809.340802-.304212c.331478-.046239.665387-.072952,1-.08.042158-.056825.072738-.121382.09-.19c0-.1-.08-.31-.25-.58s-.38-.47-.59-.7c-1-1-2-2-3-3.05-1.3,1.29-2.69,2.5-4.06,3.72-.070829.113828-.121568.238984-.15.37.597359.06701,1.180852.225531,1.73.47.238858.146683.318471.45629.18.7-.447873.767759-.981274,1.482314-1.59,2.13-.49.65-.95,1.32-1.41,2c1.09.1,3.21.07,2.67,1.48-.389586.676016-.874572,1.292352-1.44,1.83-.582456.784228-1.10717,1.609734-1.57,2.47v0c.28.47,1.17.62,1.69.73c1.142106.229948,2.305023.340542,3.47.33c1.170729.016951,2.336279-.158726,3.45-.52.607428-.192071,1.17137-.50122,1.66-.91-.977599-1.299708-1.79985-2.709281-2.45-4.2-.070553-.272858.089103-.552256.36-.63.88-.27,1.79-.47,2.67-.73c0,0,0,0,0-.06-.44-.59-1-1.1-1.43-1.68s-.84-1.46-1.34-2.14Z" fill="#0a3a16"/><path d="M146.35,79.94c.26,0,.47,0,.58.08-.18,1.81,1.12.93,1.69,1.39l.49-.21q1.49-1.49,3-3c-.34-.25-.68-.51-1-.77-1.654797.700544-3.247174,1.540222-4.76,2.51Z" opacity="0.41" fill="url(#evMVWQdp6Du25-fill)"/><path d="M152.25,78.25v-8.94h-1.95v9c.633148.233868,1.332428.212352,1.95-.06Z" fill="#a83f1e"/><path d="M151.47,69.33v9.16c.272289-.019335.537738-.094205.78-.22v-8.94Z" fill="#7f2b14"/><path d="M153.58,65c-.080027-.139043-.091394-.307241-.030802-.455788s.186356-.260809.340802-.304212c.331478-.046239.665387-.072952,1-.08.042158-.056825.072738-.121382.09-.19c0-.1-.08-.31-.25-.58s-.38-.47-.59-.7c-1-1-2-2-3-3.05-1.3,1.29-2.69,2.5-4.06,3.72-.070829.113828-.121568.238984-.15.37.597359.06701,1.180852.225531,1.73.47.238858.146683.318471.45629.18.7-.418373.752384-.918029,1.456597-1.49,2.1-.49.65-.95,1.32-1.41,2c1.09.1,3.21.07,2.67,1.48-.389586.676016-.874572,1.292352-1.44,1.83-.582456.784228-1.10717,1.609734-1.57,2.47v0c.28.47,1.17.62,1.69.73c1.142106.229948,2.305023.340542,3.47.33c1.170729.016951,2.336279-.158726,3.45-.52.607428-.192071,1.17137-.50122,1.66-.91-1.011818-1.291526-1.867733-2.697912-2.55-4.19-.070553-.272858.089103-.552256.36-.63.88-.27,1.79-.47,2.67-.73c0,0,0,0,0-.06-.44-.59-1-1.1-1.43-1.68s-.83-1.48-1.34-2.12Z" fill="#0a3a16"/><polygon points="164.84,132.15 164.84,76.35 152.68,83.15 152.68,139.17 164.84,132.15" fill="#68e1fd"/><polygon points="164.84,132.15 164.84,76.35 152.68,83.15 152.68,139.17 164.84,132.15" opacity="0.33" fill="#1e4549"/><polygon points="152.68,83.15 140.32,76.35 140.32,131.91 152.68,139.17 152.68,83.15" fill="#68e1fd"/><polygon points="164.84,76.35 152.68,68.89 140.32,76.35 152.68,83.15 164.84,76.35" fill="#9d9ca1"/><polygon points="140.32,80.28 152.78,86.73 164.84,80.39 164.84,81.37 152.78,87.7 140.32,81.26 140.32,80.28" fill="#ccc"/><polygon points="140.32,84.33 152.78,90.77 164.84,84.44 164.84,85.42 152.78,91.75 140.32,85.3 140.32,84.33" fill="#ccc"/><polygon points="140.32,88.74 152.83,95.2 164.84,88.9 164.84,89.87 152.83,96.18 140.32,89.71 140.32,88.74" fill="#ccc"/><polygon points="140.32,92.73 152.93,99.25 164.84,92.99 164.84,93.97 152.93,100.22 140.32,93.7 140.32,92.73" fill="#ccc"/><polygon points="140.32,96.62 152.73,103.04 164.84,96.68 164.84,97.66 152.74,104.01 140.32,97.59 140.32,96.62" fill="#ccc"/><polygon points="140.32,100.61 152.83,107.08 164.84,100.78 164.84,101.75 152.83,108.06 140.32,101.59 140.32,100.61" fill="#ccc"/><polygon points="140.32,104.56 152.68,110.96 164.84,104.57 164.84,105.55 152.69,111.93 140.32,105.53 140.32,104.56" fill="#ccc"/><polygon points="140.32,108.69 152.78,115.13 164.84,108.8 164.84,109.78 152.78,116.11 140.32,109.66 140.32,108.69" fill="#ccc"/><polygon points="140.32,112.81 152.88,119.3 164.84,113.02 164.84,114 152.88,120.28 140.32,113.78 140.32,112.81" fill="#ccc"/><polygon points="140.32,116.8 152.98,123.35 164.84,117.12 164.84,118.09 152.98,124.32 140.32,117.77 140.32,116.8" fill="#ccc"/><polygon points="140.32,121.22 152.68,127.62 164.84,121.23 164.84,122.21 152.69,128.59 140.32,122.2 140.32,121.22" fill="#ccc"/><polygon points="140.32,125.22 152.78,131.66 164.84,125.33 164.84,126.3 152.78,132.63 140.32,126.19 140.32,125.22" fill="#ccc"/><polygon points="140.32,129.1 152.83,135.57 164.84,129.26 164.84,130.24 152.83,136.54 140.32,130.07 140.32,129.1" fill="#ccc"/><g id="evMVWQdp6Du46_to" transform="translate(400,179.842704)"><g id="evMVWQdp6Du46" transform="translate(-320.68013,-132.786266)" opacity="0"><path d="M329.8,137.7c1.568663,1.381541,2.962356,2.949866,4.15,4.67-3.034977.829302-6.245833.756328-9.24-.21-4.49-1.66-15.31-8.26-15.59-8.37-.530113-.884631-.972228-1.8191-1.32-2.79" fill="#189681"/><path d="M307.8,127c-.1.15,0,4,0,4s5.74,4.24,8.78,6s7.63,3.64,14.67,4.24v-3.44c-1.940825-2.531109-4.187964-4.811837-6.69-6.79s.45-.95-.35-1.4-7.54-4.44-7.54-4.44l-4.78-2.54-3.89,2.25c-.503145.287472-.720059.899935-.51,1.44Z" fill="#fff"/><path d="M331.26,139.27c0,0-7.38-.39-11.62-2.76s-11.87-7.26-11.87-7.26v1.77l7.41,5.18c0,0,5.55,4.36,16,5.09Z" fill="#3d639b"/><polygon points="324.57,131.07 324.57,134.18 319.64,136.51 307.77,129.25 307.53,126.32 318.81,133.59 324.57,131.07" fill="#ccccce"/><polygon points="317.04,132.98 317.04,134.44 315.97,133.82 315.97,132.26 317.04,132.98" fill="#6a4e39"/><polygon points="315.58,132.14 315.58,133.59 314.51,132.98 314.51,131.41 315.58,132.14" fill="#6a4e39"/><polygon points="313.22,130.54 313.22,131.99 312.16,131.38 312.16,129.81 313.22,130.54" fill="#6a4e39"/><polygon points="311.86,129.7 311.86,131.15 310.8,130.54 310.8,128.97 311.86,129.7" fill="#6a4e39"/><path d="M331.26,137.85c0,0-8.07-.43-12.29-1.73v0c3.768412,2.062186,7.994245,3.145292,12.29,3.15Z" fill="#7c9bc1"/></g></g><g><path d="M321.79,149.31c1.568663,1.381541,2.962356,2.949866,4.15,4.67-3.034977.829302-6.245833.756328-9.24-.21-4.49-1.66-15.31-8.26-15.59-8.37-.52894-.87826-.971029-1.805978-1.32-2.77" fill="#189681"/><path d="M299.8,138.64c-.1.15,0,4,0,4s5.74,4.24,8.78,6s7.63,3.64,14.67,4.24v-3.44c-1.940825-2.531109-4.187964-4.811837-6.69-6.79s.45-.95-.35-1.4-7.54-4.44-7.54-4.44l-4.78-2.54-3.89,2.22c-.503145.287472-.720059.899935-.51,1.44Z" fill="#fff"/><path d="M323.25,150.89c0,0-7.38-.39-11.62-2.76s-11.87-7.26-11.87-7.26v1.77l7.41,5.18c0,0,5.55,4.36,16,5.09Z" fill="#3d639b"/><polygon points="316.56,142.68 316.56,145.8 311.63,148.12 299.76,140.86 299.52,137.94 310.8,145.21 316.56,142.68" fill="#ccccce"/><polygon points="309.03,144.6 309.03,146.05 307.97,145.44 307.97,143.87 309.03,144.6" fill="#6a4e39"/><polygon points="307.57,143.75 307.57,145.21 306.5,144.59 306.5,143.03 307.57,143.75" fill="#6a4e39"/><polygon points="305.21,142.15 305.21,143.6 304.15,142.99 304.15,141.43 305.21,142.15" fill="#6a4e39"/><polygon points="303.85,141.31 303.85,142.76 302.79,142.15 302.79,140.58 303.85,141.31" fill="#6a4e39"/><path d="M323.25,149.47c0,0-8.07-.43-12.29-1.73v0c3.768412,2.062186,7.994245,3.145292,12.29,3.15Z" fill="#7c9bc1"/></g><g id="evMVWQdp6Du66_to" transform="translate(347.204882,203.03873)"><g id="evMVWQdp6Du66" transform="translate(-291.945129,-168.41127)" opacity="0"><path d="M301.05,173.29c1.571173,1.39395,2.964966,2.975821,4.15,4.71-3.034977.829302-6.245833.756328-9.24-.21-4.49-1.66-15.31-8.26-15.59-8.37-.52894-.87826-.971029-1.805978-1.32-2.77" fill="#189681"/><path d="M279.06,162.62c-.1.15,0,4,0,4s5.74,4.24,8.78,6s7.63,3.64,14.67,4.24v-3.44c-1.940825-2.531109-4.187964-4.811837-6.69-6.79s.45-.95-.35-1.4-7.54-4.44-7.54-4.44l-4.78-2.54-3.87,2.19c-.503145.287472-.720059.899935-.51,1.44Z" fill="#fff"/><path d="M302.51,174.87c0,0-7.38-.39-11.62-2.76s-11.89-7.27-11.89-7.27v1.77l7.41,5.18c0,0,5.55,4.36,16,5.09Z" fill="#3d639b"/><polygon points="295.82,166.66 295.82,169.78 290.89,172.1 279.02,164.84 278.78,161.91 290.06,169.19 295.82,166.66" fill="#ccccce"/><polygon points="288.29,168.58 288.29,170.03 287.23,169.42 287.23,167.85 288.29,168.58" fill="#6a4e39"/><polygon points="286.83,167.74 286.83,169.19 285.76,168.57 285.76,167.01 286.83,167.74" fill="#6a4e39"/><polygon points="284.47,166.13 284.47,167.59 283.41,166.97 283.41,165.41 284.47,166.13" fill="#6a4e39"/><polygon points="283.11,165.29 283.11,166.74 282.05,166.13 282.05,164.56 283.11,165.29" fill="#6a4e39"/><path d="M302.51,173.45c0,0-8.07-.43-12.29-1.73v0c3.768412,2.062186,7.994245,3.145292,12.29,3.15Z" fill="#7c9bc1"/></g></g><g id="evMVWQdp6Du76_to" transform="translate(270.69,254.680361)"><g id="evMVWQdp6Du76" transform="rotate(0.774735) translate(-235.410019,-226.471275)" opacity="0"><path d="M244.52,231.37c1.568663,1.381541,2.962356,2.949866,4.15,4.67-3.034977.829302-6.245833.756328-9.24-.21-4.49-1.66-15.31-8.26-15.59-8.37-.52894-.87826-.971029-1.805978-1.32-2.77" fill="#189681"/><path d="M222.52,220.7c-.1.15,0,4,0,4s5.74,4.24,8.78,6s7.63,3.64,14.67,4.24v-3.44c-1.940825-2.531109-4.187964-4.811837-6.69-6.79s.45-.95-.35-1.4-7.54-4.44-7.54-4.44l-4.78-2.54-3.87,2.19c-.503145.287472-.720059.899935-.51,1.44Z" transform="translate(-.000211 0)" fill="#fff"/><path d="M246,232.95c0,0-7.38-.39-11.62-2.76s-11.87-7.26-11.87-7.26v1.77l7.41,5.18c0,0,5.55,4.36,16,5.09Z" fill="#3d639b"/><polygon points="239.29,224.74 239.29,227.86 234.35,230.18 222.48,222.92 222.24,220 233.53,227.27 239.29,224.74" fill="#ccccce"/><polygon points="231.75,226.66 231.75,228.11 230.69,227.5 230.69,225.93 231.75,226.66" fill="#6a4e39"/><polygon points="230.29,225.81 230.29,227.27 229.23,226.65 229.23,225.09 230.29,225.81" fill="#6a4e39"/><polygon points="227.94,224.21 227.94,225.66 226.87,225.05 226.87,223.49 227.94,224.21" fill="#6a4e39"/><polygon points="226.58,223.37 226.58,224.82 225.51,224.21 225.51,222.65 226.58,223.37" fill="#6a4e39"/><path d="M246,231.53c0,0-8.07-.43-12.29-1.73v0c3.768412,2.062186,7.994245,3.145292,12.29,3.15Z" fill="#7c9bc1"/></g></g><g id="evMVWQdp6Du86_to" transform="translate(365.382552,201.1)"><g id="evMVWQdp6Du86" transform="translate(-299.43013,-158.011268)" opacity="0"><path d="M308.54,162.91c1.568663,1.381541,2.962356,2.949866,4.15,4.67-3.034977.829302-6.245833.756328-9.24-.21-4.49-1.66-15.31-8.26-15.59-8.37-.52894-.87826-.971029-1.805978-1.32-2.77" fill="#189681"/><path d="M286.54,152.24c-.1.15,0,4,0,4s5.74,4.24,8.78,6s7.63,3.64,14.67,4.24v-3.44c-1.940825-2.531109-4.187964-4.811837-6.69-6.79s.45-.95-.35-1.4-7.54-4.44-7.54-4.44l-4.78-2.54-3.87,2.19c-.503145.287472-.720059.899935-.51,1.44Z" fill="#fff"/><path d="M310,164.49c0,0-7.38-.39-11.62-2.76s-11.87-7.26-11.87-7.26v1.77l7.41,5.18c0,0,5.55,4.36,16,5.09Z" fill="#3d639b"/><polygon points="303.31,156.28 303.31,159.4 298.38,161.72 286.51,154.46 286.27,151.53 297.55,158.81 303.31,156.28" fill="#ccccce"/><polygon points="295.78,158.2 295.78,159.65 294.71,159.04 294.71,157.47 295.78,158.2" fill="#6a4e39"/><polygon points="294.32,157.35 294.32,158.81 293.25,158.19 293.25,156.63 294.32,157.35" fill="#6a4e39"/><polygon points="291.96,155.75 291.96,157.2 290.9,156.59 290.9,155.03 291.96,155.75" fill="#6a4e39"/><polygon points="290.6,154.91 290.6,156.36 289.54,155.75 289.54,154.18 290.6,154.91" fill="#6a4e39"/><path d="M310,163.07c0,0-8.07-.43-12.29-1.73v0c3.768412,2.062186,7.994245,3.145292,12.29,3.15Z" fill="#7c9bc1"/></g></g><path d="M168.2,47.23c0,0-9-1.47-16.17,2-2.628547,1.332685-5.131957,2.898989-7.48,4.68Q140.09,58,136,62.56c-.45.58-.91,1.15-1.41,1.69-.41,1.32-.18,2.07,1.73.48c3.8-3.16,5.71-7.54,8.11-6.45s1.37,3.91,5.19,0s1.95-6.28,6.11-5.28s2.76-.54,6.16-1.87s7.73-1.29,8.11-2.94-1.8-.96-1.8-.96Z" fill="#8dc8fc"/><path style="mix-blend-mode:multiply" d="M115.23,222.35l2.13-2l9.9,4.68c-1,.52-2.49,1.41-3.92,2.25-2.80845-1.463833-5.517625-3.110718-8.11-4.93Z" opacity="0.68" fill="url(#evMVWQdp6Du97-fill)"/><rect width="0.81" height="19.51" rx="0" ry="0" transform="matrix(-1 0 0-1 117.55 221.51)" fill="#404048"/><circle r="2.42" transform="translate(117.21 201.53)" fill="#68e1fd"/><circle r="0.5" transform="translate(118.3 200.6)" fill="#fff"/><path d="M115.37,200c-.430989,1.165036.098239,2.466415,1.22,3c.962471.543,2.176464.310353,2.87-.55-.34595.901035-1.194224,1.510351-2.158555,1.550492s-1.860309-.49657-2.279945-1.365737-.282681-1.90458.3485-2.634755Z" opacity="0.4" fill="#3e3e4a"/><path d="M116.16,216.53l-.88,5.31c.678633.300995,1.418586.438024,2.16.4c1.65.06,1.56-.5,1.56-.5l-.87-5.21Z" fill="#3e3e4a"/><ellipse rx="0.98" ry="0.49" transform="translate(117.14 216.53)" fill="#55555f"/><ellipse rx="1.87" ry="0.94" transform="translate(117.14 221.88)" fill="#3e3e4a"/><path style="mix-blend-mode:multiply" d="M139.81,208.27l2.13-2l9.9,4.68c-1,.52-2.49,1.41-3.92,2.25-2.80845-1.463833-5.517625-3.110718-8.11-4.93Z" opacity="0.68" fill="url(#evMVWQdp6Du105-fill)"/><rect width="0.81" height="19.51" rx="0" ry="0" transform="matrix(-1 0 0-1 142.13 207.43)" fill="#404048"/><circle r="2.42" transform="translate(141.78 187.45)" fill="#68e1fd"/><circle r="0.5" transform="translate(142.88 186.52)" fill="#fff"/><path d="M139.95,185.87c-.430989,1.165036.098239,2.466415,1.22,3c.962471.543,2.176464.310353,2.87-.55-.34595.901035-1.194224,1.510351-2.158555,1.550492s-1.860309-.49657-2.279945-1.365737-.282681-1.90458.3485-2.634755Z" opacity="0.4" fill="#3e3e4a"/><path d="M140.74,202.45l-.88,5.31c.678633.300995,1.418586.438024,2.16.4c1.65.06,1.56-.5,1.56-.5l-.87-5.21Z" fill="#3e3e4a"/><ellipse rx="0.98" ry="0.49" transform="translate(141.72 202.45)" fill="#55555f"/><ellipse rx="1.87" ry="0.94" transform="translate(141.72 207.8)" fill="#3e3e4a"/><path style="mix-blend-mode:multiply" d="M166.88,191.07l2.13-2l9.9,4.68c-1,.52-2.49,1.41-3.92,2.25-2.80845-1.463833-5.517625-3.110718-8.11-4.93Z" opacity="0.68" fill="url(#evMVWQdp6Du113-fill)"/><rect width="0.81" height="19.51" rx="0" ry="0" transform="matrix(-1 0 0-1 169.19 190.23)" fill="#404048"/><circle r="2.42" transform="translate(168.85 170.25)" fill="#68e1fd"/><circle r="0.5" transform="translate(169.94 169.32)" fill="#fff"/><path d="M167,168.67c-.430989,1.165036.098239,2.466415,1.22,3c.962471.543,2.176464.310353,2.87-.55-.34595.901035-1.194224,1.510351-2.158555,1.550492s-1.860309-.49657-2.279945-1.365737-.282681-1.90458.3485-2.634755Z" opacity="0.4" fill="#3e3e4a"/><path d="M167.8,185.25l-.88,5.31c.678633.300995,1.418586.438024,2.16.4c1.65.06,1.56-.5,1.56-.5l-.87-5.21Z" fill="#3e3e4a"/><ellipse rx="0.98" ry="0.49" transform="translate(168.79 185.25)" fill="#55555f"/><ellipse rx="1.87" ry="0.94" transform="translate(168.79 190.6)" fill="#3e3e4a"/><path style="mix-blend-mode:multiply" d="M191.45,177l2.13-2l9.9,4.68c-1,.52-2.49,1.41-3.92,2.25-2.80845-1.463833-5.517625-3.110718-8.11-4.93Z" opacity="0.68" fill="url(#evMVWQdp6Du121-fill)"/><rect width="0.81" height="19.51" rx="0" ry="0" transform="matrix(-1 0 0-1 193.77 176.15)" fill="#404048"/><circle r="2.42" transform="translate(193.43 156.17)" fill="#68e1fd"/><circle r="0.5" transform="translate(194.52 155.24)" fill="#fff"/><path d="M191.59,154.59c-.430989,1.165036.098239,2.466415,1.22,3c.962471.543,2.176464.310353,2.87-.55-.34595.901035-1.194224,1.510351-2.158555,1.550492s-1.860309-.49657-2.279945-1.365737-.282681-1.90458.3485-2.634755Z" opacity="0.4" fill="#3e3e4a"/><path d="M192.38,171.17l-.88,5.31c.678633.300995,1.418586.438024,2.16.4c1.65.06,1.56-.5,1.56-.5l-.87-5.21Z" fill="#3e3e4a"/><ellipse rx="0.98" ry="0.49" transform="translate(193.36 171.17)" fill="#55555f"/><ellipse rx="1.87" ry="0.94" transform="translate(193.36 176.52)" fill="#3e3e4a"/><path style="mix-blend-mode:multiply" d="M244.14,148.84l2.13-2l9.9,4.68c-1,.52-2.49,1.41-3.92,2.25-2.80845-1.463833-5.517625-3.110718-8.11-4.93Z" opacity="0.68" fill="url(#evMVWQdp6Du129-fill)"/><rect width="0.81" height="19.51" rx="0" ry="0" transform="matrix(-1 0 0-1 246.46 148)" fill="#404048"/><circle r="2.42" transform="translate(246.12 128.01)" fill="#68e1fd"/><circle r="0.5" transform="translate(247.21 127.09)" fill="#fff"/><path d="M244.28,126.44c-.430989,1.165036.098239,2.466415,1.22,3c.962471.543,2.176464.310353,2.87-.55-.34595.901035-1.194224,1.510351-2.158555,1.550492s-1.860309-.49657-2.279945-1.365737-.282681-1.90458.3485-2.634755Z" opacity="0.4" fill="#3e3e4a"/><path d="M245.07,143l-.88,5.31c.678633.300995,1.418586.438024,2.16.4c1.65.06,1.56-.5,1.56-.5L247,143Z" fill="#3e3e4a"/><ellipse rx="0.98" ry="0.49" transform="translate(246.05 143.02)" fill="#55555f"/><ellipse rx="1.87" ry="0.94" transform="translate(246.06 148.37)" fill="#3e3e4a"/><path style="mix-blend-mode:multiply" d="M268.72,134.76l2.13-2l9.9,4.68c-1,.52-2.49,1.41-3.92,2.25-2.80845-1.463833-5.517625-3.110718-8.11-4.93Z" opacity="0.68" fill="url(#evMVWQdp6Du137-fill)"/><rect width="0.81" height="19.51" rx="0" ry="0" transform="matrix(-1 0 0-1 271.04 133.92)" fill="#404048"/><circle r="2.42" transform="translate(270.69 113.93)" fill="#68e1fd"/><circle r="0.5" transform="translate(271.79 113.01)" fill="#fff"/><path d="M268.86,112.36c-.430989,1.165036.098239,2.466415,1.22,3c.962471.543,2.176464.310353,2.87-.55-.34595.901035-1.194224,1.510351-2.158555,1.550492s-1.860309-.49657-2.279945-1.365737-.282681-1.90458.3485-2.634755Z" opacity="0.4" fill="#3e3e4a"/><path d="M269.65,128.94l-.88,5.31c.678633.300995,1.418586.438024,2.16.4c1.65.06,1.56-.5,1.56-.5l-.87-5.21Z" fill="#3e3e4a"/><ellipse rx="0.98" ry="0.49" transform="translate(270.63 128.94)" fill="#55555f"/><ellipse rx="1.87" ry="0.94" transform="translate(270.63 134.29)" fill="#3e3e4a"/><path style="mix-blend-mode:multiply" d="M260.72,126.5c0,0-23-12.32-24.37-13.25L256,101.9l24.9,13.37c-1.72,1.27-18.43,9.97-20.18,11.23Z" opacity="0.68" fill="url(#evMVWQdp6Du145-fill)"/><path d="M256.48,104.83v-51l-18.8,10.5v48.52l.39.09c5.93-3.17,12.43-5.07,18.41-8.11Z" fill="#68e1fd"/><path d="M256.48,104.83v-51l-18.8,10.5v48.52l.39.09c5.93-3.17,12.43-5.07,18.41-8.11Z" opacity="0.33" fill="#1e4549"/><path d="M237.68,112.82v-48.52L218.59,53.8v49.73c6.76,2.24,12.24,7.47,19.09,9.29Z" fill="#68e1fd"/><polygon points="256.48,53.8 237.68,42.27 218.59,53.8 237.68,64.3 256.48,53.8" fill="#ccc"/><polygon points="218.59,53.8 237.68,64.3 256.48,53.8 256.48,56.34 237.68,66.69 218.59,56.16 218.59,53.8" fill="#1e4549"/><polygon points="220.86,64.9 220.86,60.88 223.25,62.19 223.25,66.06 220.86,64.9" fill="#e0e0e0"/><polygon points="226.83,68.12 226.83,64.1 229.22,65.41 229.22,69.28 226.83,68.12" fill="#e0e0e0"/><polygon points="233.02,71.92 233.02,67.9 235.41,69.21 235.41,73.08 233.02,71.92" fill="#e0e0e0"/><polygon points="220.86,79.34 220.86,75.31 223.25,76.62 223.25,80.49 220.86,79.34" fill="#e0e0e0"/><polygon points="226.83,82.56 226.83,78.53 229.22,79.84 229.22,83.71 226.83,82.56" fill="#e0e0e0"/><polygon points="233.02,86.36 233.02,82.33 235.41,83.64 235.41,87.51 233.02,86.36" fill="#e0e0e0"/><polygon points="220.86,95.85 220.86,91.82 223.25,93.14 223.25,97 220.86,95.85" fill="#e0e0e0"/><polygon points="226.83,99.07 226.83,95.04 229.22,96.36 229.22,100.22 226.83,99.07" fill="#e0e0e0"/><polygon points="233.02,102.87 233.02,98.84 235.41,100.16 235.41,104.03 233.02,102.87" fill="#e0e0e0"/><polygon points="255.38,64.95 255.38,60.92 252.99,62.23 252.99,66.1 255.38,64.95" fill="#e0e0e0"/><polygon points="249.42,68.17 249.42,64.14 247.02,65.45 247.02,69.32 249.42,68.17" fill="#e0e0e0"/><polygon points="243.23,71.97 243.23,67.94 240.83,69.26 240.83,73.12 243.23,71.97" fill="#e0e0e0"/><polygon points="255.38,79.38 255.38,75.35 252.99,76.67 252.99,80.53 255.38,79.38" fill="#e0e0e0"/><polygon points="249.42,82.6 249.42,78.57 247.02,79.89 247.02,83.75 249.42,82.6" fill="#e0e0e0"/><polygon points="243.23,86.4 243.23,82.38 240.83,83.69 240.83,87.56 243.23,86.4" fill="#e0e0e0"/><polygon points="255.38,95.89 255.38,91.87 252.99,93.18 252.99,97.05 255.38,95.89" fill="#e0e0e0"/><polygon points="249.42,99.11 249.42,95.09 247.02,96.4 247.02,100.27 249.42,99.11" fill="#e0e0e0"/><polygon points="243.23,102.92 243.23,98.89 240.83,100.2 240.83,104.07 243.23,102.92" fill="#e0e0e0"/><polygon points="218.59,83.69 237.84,93.64 256.48,83.86 256.48,87.84 237.68,97.61 218.59,87.84 218.59,83.69" fill="#2e5b5a"/><polygon points="218.59,100.22 237.84,110.18 256.48,100.4 256.48,104.38 237.68,114.15 218.59,104.38 218.59,100.22" fill="#2e5b5a"/><polygon points="218.59,67.9 237.84,77.85 256.48,68.07 256.48,72.05 237.68,81.83 218.59,72.05 218.59,67.9" fill="#2e5b5a"/><path style="mix-blend-mode:multiply" d="M221.14,116.05l2-1.85l9.12,4.31c-.94.48-2.29,1.3-3.61,2.07-2.600218-1.343224-5.108998-2.856509-7.51-4.53Z" opacity="0.68" fill="url(#evMVWQdp6Du172-fill)"/><rect width="2.36" height="15.65" rx="1.13" ry="1.13" transform="matrix(-1 0 0-1 223.4 116.02)" fill="#bc532a"/><circle r="7.91" transform="translate(222.19 101.66)" fill="#5fc963"/><path d="M218.2,101.64c-.070364-2.701373.660319-5.363149,2.1-7.65-4.255354.96926-6.91926,5.204646-5.95,9.46s5.204646,6.91926,9.46,5.95c-3.396906-1.038309-5.688996-4.20883-5.61-7.76Z" fill="#388e38"/><path style="mix-blend-mode:multiply" d="M217.56,154.92c0,0-26.56-14.19-28.07-15.26l22.67-13.07L240.83,142c-2.02,1.45-21.25,11.47-23.27,12.92Z" opacity="0.68" fill="url(#evMVWQdp6Du176-fill)"/><polygon points="215.44,127.93 215.44,21.92 192.32,34.84 192.32,141.26 215.44,127.93" fill="#68e1fd"/><polygon points="215.44,127.93 215.44,21.92 192.32,34.84 192.32,141.26 215.44,127.93" opacity="0.33" fill="#1e4549"/><polygon points="192.32,34.84 168.84,21.92 168.84,127.47 192.32,141.26 192.32,34.84" fill="#68e1fd"/><polygon points="215.44,21.92 192.32,7.74 168.84,21.92 192.32,34.84 215.44,21.92" fill="#9d9ca1"/><polygon points="168.84,29.4 192.52,41.64 215.43,29.61 215.43,31.46 192.53,43.49 168.84,31.24 168.84,29.4" fill="#ccc"/><polygon points="168.84,37.08 192.52,49.32 215.43,37.29 215.43,39.15 192.53,51.17 168.84,38.93 168.84,37.08" fill="#ccc"/><polygon points="168.84,45.45 192.61,57.74 215.43,45.76 215.43,47.61 192.62,59.59 168.84,47.3 168.84,45.45" fill="#ccc"/><polygon points="168.84,53.04 192.8,65.42 215.43,53.54 215.43,55.4 192.81,67.28 168.84,54.89 168.84,53.04" fill="#ccc"/><polygon points="168.84,60.43 192.43,72.62 215.43,60.54 215.43,62.4 192.43,74.47 168.84,62.28 168.84,60.43" fill="#ccc"/><polygon points="168.84,68.02 192.61,80.31 215.43,68.33 215.43,70.18 192.62,82.16 168.84,69.86 168.84,68.02" fill="#ccc"/><polygon points="168.84,75.52 192.33,87.66 215.43,75.53 215.43,77.39 192.34,89.51 168.84,77.36 168.84,75.52" fill="#ccc"/><polygon points="168.84,83.35 192.52,95.6 215.43,83.56 215.43,85.42 192.53,97.45 168.84,85.2 168.84,83.35" fill="#ccc"/><polygon points="168.84,91.18 192.71,103.52 215.43,91.59 215.43,93.44 192.71,105.37 168.84,93.03 168.84,91.18" fill="#ccc"/><polygon points="168.84,98.77 192.89,111.2 215.43,99.37 215.43,101.22 192.9,113.06 168.84,100.62 168.84,98.77" fill="#ccc"/><polygon points="168.84,107.17 192.33,119.31 215.43,107.18 215.43,109.04 192.34,121.16 168.84,109.01 168.84,107.17" fill="#ccc"/><polygon points="168.84,114.75 192.52,126.99 215.43,114.96 215.43,116.82 192.53,128.84 168.84,116.6 168.84,114.75" fill="#ccc"/><polygon points="168.84,122.13 192.61,134.42 215.43,122.44 215.43,124.29 192.62,136.27 168.84,123.98 168.84,122.13" fill="#ccc"/><path style="mix-blend-mode:multiply" d="M181.89,142.51l2.13-2l9.9,4.68c-1,.52-2.49,1.41-3.92,2.25-2.80845-1.463833-5.517625-3.110718-8.11-4.93Z" opacity="0.68" fill="url(#evMVWQdp6Du194-fill)"/><rect width="0.81" height="19.51" rx="0" ry="0" transform="matrix(-1 0 0-1 184.2 141.67)" fill="#404048"/><circle r="2.42" transform="translate(183.87 121.69)" fill="#68e1fd"/><circle r="0.5" transform="translate(184.96 120.76)" fill="#fff"/><path d="M182,120.11c-.430989,1.165036.098239,2.466415,1.22,3c.962471.543,2.176464.310353,2.87-.55-.34595.901035-1.194224,1.510351-2.158555,1.550492s-1.860309-.49657-2.279945-1.365737-.282681-1.90458.3485-2.634755Z" opacity="0.4" fill="#3e3e4a"/><path d="M182.82,136.69l-.88,5.31c.678633.300995,1.418586.438024,2.16.4c1.65.06,1.56-.5,1.56-.5l-.87-5.21Z" fill="#3e3e4a"/><ellipse rx="0.98" ry="0.49" transform="translate(183.8 136.69)" fill="#55555f"/><ellipse rx="1.87" ry="0.94" transform="translate(183.8 142.04)" fill="#3e3e4a"/><path style="mix-blend-mode:multiply" d="M168.85,146.64l2-1.85l9.12,4.31c-.94.48-2.29,1.3-3.61,2.07-2.600218-1.343224-5.108998-2.856509-7.51-4.53Z" opacity="0.68" fill="url(#evMVWQdp6Du202-fill)"/><rect width="2.36" height="15.65" rx="1.13" ry="1.13" transform="matrix(-1 0 0-1 171.11 146.6)" fill="#bc532a"/><circle r="7.91" transform="translate(169.9 132.24)" fill="#5fc963"/><path d="M165.91,132.23c-.070364-2.701373.660319-5.363149,2.1-7.65-4.258115.96926-6.92426,5.206885-5.955,9.465s5.206885,6.92426,9.465,5.955c-3.400545-1.03931-5.693533-4.215159-5.61-7.77Z" fill="#388e38"/><path style="mix-blend-mode:multiply" d="M120.86,196.19c0,0-33.24-17.78-35.17-19.12l28.41-16.38L150,180c-2.5,1.82-26.61,14.37-29.14,16.19Z" opacity="0.68" fill="url(#evMVWQdp6Du206-fill)"/><ellipse rx="20.17" ry="8.73" transform="translate(102.86 173.52)" fill="#145fa3"/><polyline points="82.69,163.84 82.69,173.52 123.03,173.52 123.03,163.84" fill="#145fa3"/><ellipse rx="20.17" ry="8.73" transform="translate(102.86 164.43)" fill="#398de7"/><ellipse rx="15.24" ry="6.6" transform="translate(102.02 164.63)" fill="#145fa3"/><polyline points="86.77,161.31 86.77,164.63 117.26,164.63 117.26,161.31" fill="#145fa3"/><ellipse rx="15.24" ry="6.6" transform="translate(102.02 161.31)" fill="#398de7"/><ellipse rx="10.25" ry="4.43" transform="translate(102.86 160.87)" fill="#145fa3"/><polyline points="92.61,158.63 92.61,160.87 113.11,160.87 113.11,158.63" fill="#145fa3"/><ellipse rx="10.25" ry="4.43" transform="translate(102.86 158.63)" fill="#398de7"/><path d="M98.3,149.31v9.9c2.835749,1.562203,6.274251,1.562203,9.11,0v-9.94c-3.03.1-6.07.01-9.11.04Z" fill="#145fa3"/><ellipse rx="17.36" ry="8.36" transform="translate(102.86 144.4)" fill="#68e1fd"/><path d="M98.35,124.85v19.38c2.835749,1.562203,6.274251,1.562203,9.11,0v-19.28c-2.976813.889363-6.153427.854494-9.11-.1Z" fill="#145fa3"/><ellipse rx="11.85" ry="5.7" transform="translate(102.91 124.96)" fill="#68e1fd"/><path d="M107.46,122.92v-60c0-2.515657-2.039343-4.555-4.555-4.555s-4.555,2.039343-4.555,4.555v59.84c2.923611,1.121714,6.148803,1.178358,9.11.16Z" fill="#145fa3"/><path d="M87.8,64.81c0,0,6.68,17.45,6.68,21.43s-.1,23-.2,24-11.37,61.61-11.37,61.61l.6,1.4h1.69L93,127.12l3.19-18.64l2.89-.6c0,0,.5-16.65,0-18.54s-4.3-22.64-4.3-22.64l-2.19-.6c0,0,2.79,9.07,1.69,9.37s-4-10.17-4-10.17Z" fill="#68e1fd"/><path d="M96.18,108.48c0,0-.2,11.44-.49,12.9s-8.69,54.42-8.69,54.42l1.94.58c0,0,8.44-53.75,8.83-55s1.25-13.49,1.25-13.49Z" fill="#68e1fd"/><polygon points="94.67,114.97 97,116.44 96.38,119.63 93.93,118.04 94.67,114.97" fill="#68e1fd"/><polygon points="93.14,123.74 95.47,125.22 94.84,128.4 92.4,126.81 93.14,123.74" fill="#68e1fd"/><polygon points="91.6,133.71 93.93,135.19 93.31,138.38 90.86,136.78 91.6,133.71" fill="#68e1fd"/><polygon points="90.06,141.43 92.4,142.91 91.77,146.1 89.32,144.5 90.06,141.43" fill="#68e1fd"/><polygon points="88.53,151.33 90.86,152.81 90.23,156 87.79,154.4 88.53,151.33" fill="#68e1fd"/><polygon points="87.21,160.63 89.55,162.11 88.92,165.3 86.47,163.71 87.21,160.63" fill="#68e1fd"/><path d="M117.85,65.35c0,0-6.68,17.45-6.68,21.43s.1,23,.2,24s11.37,61.61,11.37,61.61l-.6,1.4h-1.69l-7.78-46.16-3.2-18.63-2.89-.6c0,0-.5-16.65,0-18.54s4.29-22.63,4.29-22.63l2.19-.6c0,0-2.79,9.07-1.69,9.37s4-10.17,4-10.17Z" fill="#68e1fd"/><path d="M109.47,109c0,0,.2,11.44.49,12.9s8.63,54.42,8.63,54.42l-1.94.58c0,0-8.44-53.75-8.83-55s-1.25-13.49-1.25-13.49Z" fill="#68e1fd"/><polygon points="110.98,115.5 108.64,116.98 109.27,120.17 111.72,118.57 110.98,115.5" fill="#68e1fd"/><polygon points="112.51,124.27 110.18,125.75 110.81,128.94 113.25,127.34 112.51,124.27" fill="#68e1fd"/><polygon points="114.05,134.25 111.72,135.73 112.34,138.91 114.79,137.32 114.05,134.25" fill="#68e1fd"/><polygon points="115.58,141.97 113.25,143.45 113.88,146.63 116.32,145.04 115.58,141.97" fill="#68e1fd"/><polygon points="117.12,151.87 114.79,153.34 115.41,156.53 117.86,154.94 117.12,151.87" fill="#68e1fd"/><polygon points="118.43,161.17 116.1,162.65 116.73,165.84 119.17,164.24 118.43,161.17" fill="#68e1fd"/><ellipse rx="29.05" ry="14.85" transform="translate(102.69 52.99)" fill="#68e1fd"/><ellipse rx="22.53" ry="9.75" transform="translate(102.8 53.53)" fill="#145fa3"/><polyline points="80.27,48.61 80.27,53.53 125.33,53.53 125.33,48.61" fill="#145fa3"/><ellipse rx="22.53" ry="9.75" transform="translate(102.8 48.61)" fill="#398de7"/><ellipse rx="9.8" ry="4.24" transform="translate(102.8 42.96)" fill="#145fa3"/><polyline points="93,40.82 93,42.96 112.6,42.96 112.6,40.82" fill="#145fa3"/><ellipse rx="9.8" ry="4.24" transform="translate(102.8 40.82)" fill="#398de7"/><path d="M101,38.54l1.47-23.82h.83l1.58,23.82c-1.150367.860006-2.729633.860006-3.88,0Z" fill="#d1d1d1"/><path style="mix-blend-mode:multiply" d="M242.33,159.64c-2.037271.7174-4.180135,1.08919-6.34,1.1-4.87,0-20.68,4.13-24.09,1.33l-1.21,4.84c1.93,1.34,47.94,35.15,47.94,35.15c2.53-1.82,19.76-11.37,22.29-13.2Z" opacity="0.68" fill="url(#evMVWQdp6Du245-fill)"/><path d="M280.73,180.67l.11-.05-50.59-29.73-19.13,11.29h.07c-.308609.155098-.499616.474743-.49.82v4.26c0,.552285.447715,1,1,1s1-.447715,1-1v-4.13l9.18,5.81v7.73c0,.552285.447715,1,1,1s1-.447715,1-1v-6.46l10.5,6.65v9.51c0,.552285.447715,1,1,1s1-.447715,1-1v-8.24l9.6,6.09c-.184843.177181-.286489.424036-.28.68v8.68c0,.552285.447715,1,1,1s1-.447715,1-1v-8.27l9.93,6.3v8.83c0,.552285.447715,1,1,1s1-.447715,1-1v-9.29l19.3-9.63v7.69c0,.552285.447715,1,1,1s1-.447715,1-1v-8c-.006456-.196904-.076638-.386395-.2-.54Z" fill="#873230"/></g></g></svg>
