<svg id="eK9rtGDq0Sl1" xmlns="http://www.w3.org/2000/svg" xmlns:xlink="http://www.w3.org/1999/xlink" viewBox="0 0 400 300" shape-rendering="geometricPrecision" text-rendering="geometricPrecision">
<style><![CDATA[
#eK9rtGDq0Sl2 {animation: eK9rtGDq0Sl2_c_o 3000ms linear 1 normal forwards}@keyframes eK9rtGDq0Sl2_c_o { 0% {opacity: 0;animation-timing-function: cubic-bezier(0.445,0.05,0.55,0.95)} 40% {opacity: 1} 100% {opacity: 1}} #eK9rtGDq0Sl27_ts {animation: eK9rtGDq0Sl27_ts__ts 3000ms linear 1 normal forwards}@keyframes eK9rtGDq0Sl27_ts__ts { 0% {transform: translate(233.450005px,55.815002px) scale(0,0)} 16.666667% {transform: translate(233.450005px,55.815002px) scale(1,1)} 100% {transform: translate(233.450005px,55.815002px) scale(1,1)}} #eK9rtGDq0Sl29_ts {animation: eK9rtGDq0Sl29_ts__ts 3000ms linear 1 normal forwards}@keyframes eK9rtGDq0Sl29_ts__ts { 0% {transform: translate(233.450005px,70.110001px) scale(0,0)} 6.666667% {transform: translate(233.450005px,70.110001px) scale(0,0)} 23.333333% {transform: translate(233.450005px,70.110001px) scale(1,1)} 100% {transform: translate(233.450005px,70.110001px) scale(1,1)}} #eK9rtGDq0Sl31_ts {animation: eK9rtGDq0Sl31_ts__ts 3000ms linear 1 normal forwards}@keyframes eK9rtGDq0Sl31_ts__ts { 0% {transform: translate(233.450005px,84.445px) scale(0,0)} 13.333333% {transform: translate(233.450005px,84.445px) scale(0,0);animation-timing-function: cubic-bezier(0.445,0.05,0.55,0.95)} 30% {transform: translate(233.450005px,84.445px) scale(1,1)} 100% {transform: translate(233.450005px,84.445px) scale(1,1)}} #eK9rtGDq0Sl33_ts {animation: eK9rtGDq0Sl33_ts__ts 3000ms linear 1 normal forwards}@keyframes eK9rtGDq0Sl33_ts__ts { 0% {transform: translate(233.450005px,98.755001px) scale(0,0)} 20% {transform: translate(233.450005px,98.755001px) scale(0,0);animation-timing-function: cubic-bezier(0.445,0.05,0.55,0.95)} 36.666667% {transform: translate(233.450005px,98.755001px) scale(1,1)} 100% {transform: translate(233.450005px,98.755001px) scale(1,1)}} #eK9rtGDq0Sl34_tr {animation: eK9rtGDq0Sl34_tr__tr 3000ms linear 1 normal forwards}@keyframes eK9rtGDq0Sl34_tr__tr { 0% {transform: translate(302.366945px,82.4px) rotate(-12.13987deg);animation-timing-function: cubic-bezier(0.445,0.05,0.55,0.95)} 46.666667% {transform: translate(302.366945px,82.4px) rotate(0.681725deg)} 100% {transform: translate(302.366945px,82.4px) rotate(0.681725deg)}} #eK9rtGDq0Sl62 {animation: eK9rtGDq0Sl62_f_p 3000ms linear 1 normal forwards}@keyframes eK9rtGDq0Sl62_f_p { 0% {fill: #29abe2} 20% {fill: #29abe2} 36.666667% {fill: #e4f5fd} 100% {fill: #e4f5fd}}
]]></style>
<defs><linearGradient id="eK9rtGDq0Sl18-fill" x1="128.93" y1="173.81" x2="157.06" y2="151.67" spreadMethod="pad" gradientUnits="userSpaceOnUse" gradientTransform="translate(0 0)"><stop id="eK9rtGDq0Sl18-fill-0" offset="0%" stop-color="#58e6ca"/><stop id="eK9rtGDq0Sl18-fill-1" offset="100%" stop-color="#5297a4"/></linearGradient><linearGradient id="eK9rtGDq0Sl21-fill" x1="216.91" y1="140.92" x2="231.05" y2="120.37" spreadMethod="pad" gradientUnits="userSpaceOnUse" gradientTransform="translate(0 0)"><stop id="eK9rtGDq0Sl21-fill-0" offset="0%" stop-color="#ffc2a4"/><stop id="eK9rtGDq0Sl21-fill-1" offset="100%" stop-color="#dd6f31"/></linearGradient><linearGradient id="eK9rtGDq0Sl22-fill" x1="285.3" y1="211.67" x2="313.03" y2="194.52" spreadMethod="pad" gradientUnits="userSpaceOnUse" gradientTransform="translate(0 0)"><stop id="eK9rtGDq0Sl22-fill-0" offset="0%" stop-color="#ffc2a4"/><stop id="eK9rtGDq0Sl22-fill-1" offset="100%" stop-color="#dd6f31"/></linearGradient><linearGradient id="eK9rtGDq0Sl50-fill" x1="196.63" y1="270.73" x2="224.64" y2="248.68" spreadMethod="pad" gradientUnits="userSpaceOnUse" gradientTransform="translate(0 0)"><stop id="eK9rtGDq0Sl50-fill-0" offset="0%" stop-color="#ffc2a4"/><stop id="eK9rtGDq0Sl50-fill-1" offset="100%" stop-color="#dd6f31"/></linearGradient></defs><g id="eK9rtGDq0Sl2" transform="translate(.000001 0.000001)" opacity="0"><path d="M193.23,278.3L13.5,172.08c-5.72-3.21-10.63-8.49-5.05-11.94l180.37-104c2.71-1.68,6.82-2.78,9.57-1.18L387,164.5c5.72,3.32,6.75,12.6,1,15.93l-171.08,97.7c-7.311039,4.241771-16.318838,4.306411-23.69.17Z" fill="#ffc2a4"/><path d="M173.72,182.49l-1.18-.89l1-13.94l6.13.22c0,0-.31,6,1,7.42s5,.75,5.34.89s2.8-.38,3.8.81-4,4.06-6.55,4.47c-1.751541.224622-3.527912.163833-5.26-.18s-.29-3.61-1.19-3.32-1.24,4.06-1.24,4.06Z" fill="#053855"/><path d="M159.68,143.78c-.51,14.58,10.48,28.4,10.48,28.4s3.33,4.52,12.37,2.6c1-.21,3.12-23.46,4.18-35.54-5.06-1.37-23.65-2.74-27.03,4.54Z" fill="#7ec971"/><path d="M190.11,199.28c.28,0,2.84-1,.69-2.67-1.426154-1.11027-2.918946-2.132182-4.47-3.06" fill="#fec64b"/><path d="M190.11,185.72c0,0-2.15,8,0,12.22l-29.26,17.2-28.95,16.75v-12.38" fill="#ffe8bc"/><path d="M191.08,184.48q-.1.83-.21,1.66l-59,33.37v12.37l58.92-34.37c0,.49,0,1,0,1.47L129.58,234.4v-16.86Z" fill="#fec64b"/><path d="M190.75,184.7l-60.81,34.81-85.33-50.1l59.51-34.13c1.826322-1.064041,4.083678-1.064041,5.91,0l80.74,47.85c.293975.153616.476599.45948.472374.791145s-.194581.632777-.492374.778855Z" fill="#fec64b"/><path d="M129.63,234.41c0,0-85.28-50.22-85-50.46s0-14.54,0-14.54l85.33,50.1Z" fill="#fec64b"/><path d="M190.77,183.18c.503084.362583.827007.923079.89,1.54.1,1-1,1.54-1.39,1.76" fill="#fec64b"/><path d="M190.11,182.42c.28,0,2.84-1,.69-2.67-1.426154-1.11027-2.918946-2.132182-4.47-3.06" fill="#58e6ca"/><path d="M190.11,168.86c0,0-2.15,8,0,12.22l-29.26,17.2L131.9,215v-12.35" fill="#ffe8bc"/><path d="M191.08,167.62q-.1.83-.21,1.66l-59,33.37v12.35l58.92-34.37c0,.49,0,1,0,1.47l-61.21,35.42v-16.85Z" fill="#58e6ca"/><path d="M190.75,167.84l-60.81,34.81-85.33-50.1l59.51-34.13c1.826322-1.064041,4.083678-1.064041,5.91,0l80.74,47.85c.293975.153616.476599.45948.472374.791145s-.194581.632777-.492374.778855Z" fill="#58e6ca"/><path d="M129.63,217.55c0,0-85.28-50.22-85-50.46s0-14.54,0-14.54l85.33,50.1Z" fill="#46d1b6"/><path d="M190.77,166.31c.503084.362583.827007.923079.89,1.54.1,1-1,1.54-1.39,1.76" fill="#58e6ca"/><path d="M131.28,180.31l45-22.84-26.4-7.73-39.25,17.52c6.635293,4.730633,13.529338,9.087403,20.65,13.05Z" fill="url(#eK9rtGDq0Sl18-fill)"/><path d="M189.72,194.46l-1.18-.89l1-13.94l6.13.22c0,0-.31,6,1,7.42s5,.75,5.34.89s2.8-.38,3.8.81-4,4.06-6.55,4.47c-1.751541.224622-3.527912.163833-5.26-.18s-.29-3.61-1.19-3.32-1.24,4.06-1.24,4.06Z" fill="#053855"/><path d="M192.35,141.24c-4.032388-1.824858-8.362629-2.902336-12.78-3.18.75,5.46,1.44,9.25,1.56,9.52.3.69,5.91,35.34,5.91,35.34c6.63,2.68,14.47.44,14.47.44s-2.7-27-2.93-31.55q0-.73-.08-1.46c-.199122-3.943137-2.56727-7.451077-6.15-9.11Z" fill="#7ec971"/><polyline points="267.39,144.35 236.44,160.13 177.94,120.76 203.05,107.89 219.15,100.18" fill="url(#eK9rtGDq0Sl21-fill)"/><polyline points="323.56,200 288.04,220.6 267.43,210.73 292.54,197.85 308.64,190.15" fill="url(#eK9rtGDq0Sl22-fill)"/><path d="M270.21,50L269,140.3c-.023555,1.582404-.880241,3.034976-2.253673,3.821261s-3.059808.789606-4.436327.008739L203.7,110.78c-1.396981-.796988-2.259543-2.281664-2.26-3.89v-95c-.001226-.902986.480787-1.737609,1.263526-2.187839s1.746545-.447239,2.526474.007839L268,46c1.412456.829121,2.259888,2.362934,2.21,4Z" fill="#68e1fd"/><path d="M219.05,17.73c.11.06,0,11.6,0,11.6l33.4,19.3v-11.57Z" fill="#723d49"/><polygon points="208.82,23.95 262.69,55.08 262.69,130.16 208.82,100.56 208.82,23.95" fill="#fff"/><line x1="215.87" y1="46.43" x2="251.03" y2="65.2" fill="#fff"/><g id="eK9rtGDq0Sl27_ts" transform="translate(233.450005,55.815002) scale(0,0)"><path d="M215.11,47.72L250.27,66.5c1.7.91,3.22-1.68,1.51-2.59L216.63,45.13c-1.7-.91-3.22,1.68-1.51,2.59Z" transform="translate(-233.450005,-55.815002)" fill="#ccc"/></g><line x1="215.87" y1="60.74" x2="251.03" y2="79.52" fill="#fff"/><g id="eK9rtGDq0Sl29_ts" transform="translate(233.450005,70.110001) scale(0,0)"><path d="M215.11,62l35.16,18.78c1.7.91,3.22-1.68,1.51-2.59L216.63,59.44c-1.7-.91-3.22,1.68-1.51,2.59Z" transform="translate(-233.450005,-70.110001)" fill="#ccc"/></g><line x1="215.87" y1="75.05" x2="251.03" y2="93.83" fill="#fff"/><g id="eK9rtGDq0Sl31_ts" transform="translate(233.450005,84.445) scale(0,0)"><path d="M215.11,76.35l35.16,18.78c1.7.91,3.22-1.68,1.51-2.59L216.63,73.76c-1.7-.91-3.22,1.68-1.51,2.59Z" transform="translate(-233.450005,-84.445)" fill="#ccc"/></g><line x1="215.87" y1="89.36" x2="251.03" y2="108.14" fill="#fff"/><g id="eK9rtGDq0Sl33_ts" transform="translate(233.450005,98.755001) scale(0,0)"><path d="M215.11,90.66l35.16,18.78c1.7.91,3.22-1.68,1.51-2.59L216.63,88.07c-1.7-.91-3.22,1.68-1.51,2.59Z" transform="translate(-233.450005,-98.755001)" fill="#ccc"/></g><g id="eK9rtGDq0Sl34_tr" transform="translate(302.366945,82.4) rotate(-12.13987)"><g transform="translate(-303.790764,-82.306643)"><path d="M274.32,85c-.72-1.15-33.86-29.1-33.86-29.1l-.65.68l33.38,29.63Z" fill="#200904"/><path d="M278.35,87.42c0,0-2.55-3.23-2.69-3.5s-2.69-2.83-3.72-2.39-3.1,1.65-3.07,2.39s2.06.42,3.2-.13c-.428544,1.747068-.022198,3.594095,1.1,5c1.304155,1.283547,3.008915,2.081219,4.83,2.26" fill="#f67770"/><path d="M302.89,82.41c0,0-4.47.71-10.41,11.22c0,0-13.53-7.41-14.55-7.24s-4.9,2.85-5.19,4.3s12.59,12.24,19.27,14s11.77-10.29,11.77-10.29" fill="#42210b"/></g></g><path d="M302.25,185.38c.196269,1.000424-.059987,2.03643-.7,2.83-1.07,1.15-5.15,4.77-5.54,5.55s-.93,2.92,0,3.66s2.74.82,5,0c3.071503-1.407852,5.948576-3.206022,8.56-5.35c1-1.07,0-12.09,0-12.09s-5.73-1.4-7.65,0Z" fill="#42210b"/><path d="M317.33,192.74c.196269,1.000424-.059987,2.03643-.7,2.83-1.07,1.15-5.15,4.77-5.54,5.55s-.93,2.92,0,3.66s2.74.82,5,0c3.071503-1.407852,5.948576-3.206022,8.56-5.35c1-1.07,0-12.09,0-12.09s-5.73-1.4-7.65,0Z" fill="#42210b"/><path d="M301.55,114.14c-1.779323,8.254713-2.823409,16.650906-3.12,25.09-.19,12.12,1.24,44.69,1.24,44.69s3.36,3.23,10.74,2.09v-45.2c0,0,2.57,1,2.57,2.87s2.35,48.15,2.35,48.15s1.32,2.45,11-1.3c0,0,3.3-61.27-3.79-73.15" fill="#68e1fd"/><path d="M320.19,117.3c-1.7-.06-6.44,1.13-9.67.89-3.117854-.134611-6.204398-.679295-9.18-1.62-.12-.57-.23-1.17-.32-1.83-2.14-16.56-1.57-28.18,0-30.8s11-4.7,15.27-3.51s10.71,6.19,10.71,6.19-1.76,14-4.91,24c-.87,2.83-.87,2.83-1.9,6.68Z" fill="#42210b"/><path d="M309.45,82c-1.51.32-1.79-3.86-1.15-4.25s7.72-.43,8.81.05c2.39,1.06,0,4.6,0,4.6" fill="#42210b"/><path d="M318.53,64.51c-1.36-.24-1.32-2.51-3.85-3.55s-5.51.45-6.64,1.26-1.92-.83-3.13.42-.44,3.17-1.15,3.86l-.1.08c-.624183,1.049127-.662001,2.34629-.1,3.43.556639.751719,1.212612,1.424511,1.95,2l11.36,5.92c1.37-1,4-10.09,3.85-11.23-.098285-1.166371-1.023629-2.091715-2.19-2.19Z" fill="#200904"/><path d="M306.06,68c-.52.56,1.18,11.51,4.52,11.91s7.27-4,7.62-5.33.14-8.33-1.21-9-7.8-.96-10.93,2.42Z" fill="#f67770"/><path d="M307.62,64.82c0,0-.66,2.55,3.33,3s4.26,1.37,4.73,2.77c.89,2.62,3.69,5.68,4.64-2.21c0-.38-2.82-5.78-5.91-6.2s-6.79,2.64-6.79,2.64Z" fill="#200904"/><path d="M316,72c0,0,1.25-2.15,2.22-1.13s.27,3.43-1,4.18" fill="#f67770"/><path d="M320.12,113.45l-3.48,1.21c0,0-3,.95-3.23,1.8s3.42.08,4.18,0-3.36,3.89-3.34,4.56.68.76,1.16.57-.66,1.14.28,1.42c.620112.119225,1.252007-.139813,1.61-.66s.09,1.33,1,1.14s5.22-5,5.6-6.74-2-3.92-3.78-3.3Z" fill="#f67770"/><path d="M324,117.18c0,0-1.62,5.15-2.58,5.08s-1.21-2.25-1.21-2.25s2.63-3.89,3.28-4.19.51,1.36.51,1.36Z" fill="#f67770"/><path d="M326.86,86.43c0,0,10.49,12.67,11.61,17.18s-13.33,15.39-13.33,15.39l-5.26-5.59c0,0,9.35-8.85,8-10.2s-8.52-8.1-8.52-8.1" fill="#42210b"/><path d="M202.44,278l39.75-25.62-20.66-6L180,266.24c7.33,5.03,14.67,7.53,22.44,11.76Z" fill="url(#eK9rtGDq0Sl50-fill)"/><path d="M226.94,217.43c-4.875225,6.252559-7.255671,14.092351-6.68,22c.89,12.85,8.12,16.58,8.12,16.58l8.61.48c0,0,10.24-3.34,8.9-20.05-1.25-15.69-6.36-19.38-6.36-19.38" fill="#68e1fd"/><ellipse rx="6.34" ry="2.24" transform="translate(233.28 217.43)" fill="#003b94"/><ellipse rx="6.34" ry="2.24" transform="translate(233.28 254.65)" fill="#68e1fd"/><path d="M230.68,218.1l-7.67-44c-.17-1-1.63-.55-1.46.4l7.67,44c.16.96,1.62.56,1.46-.4Z" fill="#007f68"/><path d="M232.07,218.25c.234372-.046611.475628-.046611.71,0c.301451.080034.572706.246961.78.48q.92-18.45.33-36.92c0-1-1.55-1-1.51,0q.62,18.19-.31,36.44Z" fill="#007f68"/><path d="M249.32,175.53c-5.717392,13.815489-10.664974,27.937129-14.82,42.3-.06926.387023.168099.762979.547296.866868s.775032-.098588.912704-.466868c4.155007-14.362877,9.102589-28.484518,14.82-42.3.37-.93-1.09-1.29-1.46-.4Z" fill="#007f68"/><path d="M224.64,192.24c0,0-.83-.1-4.45-3.91s1-6.67-1.14-11s.86-9.91,1.53-14.2c.406795,3.002455,1.494495,5.872205,3.18,8.39c2.73,3.91,4.25,7.43,4,12.39-.204224,3.13205-.743981,6.233139-1.61,9.25" fill="#007f68"/><path d="M232.41,199c0,0-.78-.3-3.37-4.88s2.55-6.24,1.55-10.91s3.24-9.41,4.93-13.41c-.349493,3.007399-.007462,6.054896,1,8.91c1.7,4.45,2.32,8.25.84,13-.959453,2.988044-2.236764,5.86451-3.81,8.58" fill="#007f68"/><path d="M243.22,191.1c0,0-.7-.45-2.3-5.46s3.77-5.59,3.75-10.36s5.1-8.54,7.57-12.11c-.944704,2.880047-1.218344,5.93798-.8,8.94.75,4.71.58,8.55-1.84,12.88-1.548915,2.728659-3.386094,5.283276-5.48,7.62" fill="#007f68"/><path d="M174.57,131.15l-8.95-6.33c-.743322-.523511-1.011608-1.500242-.64-2.33l6.34-14.09c.225468-.500266.656208-.878625,1.18137-1.037707s1.093455-.08335,1.55863.207707l10,6.23c.842188.525026,1.138428,1.609786.68,2.49l-7.39,14.19c-.25415.485318-.705415.837315-1.238003.965673s-1.094662.020582-1.541997-.295673Z" fill="#1784aa"/><path d="M173.77,130.65l-8.95-6.33c-.743322-.523511-1.011608-1.500242-.64-2.33l6.34-14.09c.225468-.500266.656208-.878625,1.18137-1.037707s1.093455-.08335,1.55863.207707l10,6.23c.842188.525026,1.138428,1.609786.68,2.49L176.55,130c-.257765.482022-.710642.829679-1.242902.954128s-1.092333.013634-1.537098-.304128Z" fill="#29abe2"/><polygon id="eK9rtGDq0Sl62" points="175.26,129.79 165.19,122.68 171.79,107.99 182.98,114.96 175.26,129.79" fill="#29abe2"/><path d="M170.6,114.22c-3.33,1.82-8.54,3.91-12,6.32-.56.39-1.4,1.72-.84,1.53-.24.27,2.05,1.17,1.84,1.47-.07.1,1.48-.76,1.57-.72v0c1.317067.696787,2.846281.878582,4.29.51l.58-.43v0l.14-.08c.024811-.043594.058961-.081159.1-.11l.09-.06c.015478-.083821.061875-.15877.13-.21.77-.61,2.46-.93,2.64-1.95-.029247-.269815-.110765-.53135-.24-.77-.085156-.125667-.058991-.29574.06-.39.130342-.614916.007808-1.256416-.34-1.78v-.05l.2-.23c.910915-.63867,1.773274-1.343933,2.58-2.11.088812-.084897.145369-.198012.16-.32v-.06c.00341-.033246.00341-.066754,0-.1-.025343-.214404-.15871-.400898-.353409-.494191s-.423609-.08039-.606591.034191Z" fill="#e85454"/><path d="M168.9,117.83c-.25-.64-.62-.67-1.19-.42-1.164245.523002-2.275947,1.155868-3.32,1.89-.17.12,0,.4.17.28.65-.44,3.46-2.52,4-1.61s-1.32,1.54-1.85,1.82l-2,1.08c-.19.1,0,.38.17.28l1.3-.67c-.010026.032579-.010026.067421,0,.1.108995.143185.236815.271005.38.38-.233873.336632-.286276.767089-.14,1.15l.06.07c-1.152035,1.210081-2.982579,1.474539-4.43.64-.17-.13-.4.11-.23.24c1.32,1,4,.71,5-.76.209606-.027606.41271-.091922.6-.19.596549-.201365,1.135306-.544522,1.57-1c.241786-.410367.241786-.919633,0-1.33v-.06c.157561-.1559.246219-.368346.246219-.59s-.088658-.4341-.246219-.59c.039257-.240391.007996-.487007-.09-.71Zm-.14,3c-.216989.301442-.510389.539614-.85.69-.21.12-.73.49-.95.44-.42-.11-.17-.67,0-.91v0c.236583-.093485.45618-.225244.65-.39l.81-.51.27-.2c.155338.263977.181134.584583.07.87Zm-1-.62c-.46.29-.83.65-1.27.14.65-.33,1.29-.66,1.9-1c.188535-.107877.352116-.254419.48-.43.31.53-.8,1.08-1.14,1.28Z" fill="#653200"/><path d="M160.64,118c0,0,2.25.51,2.41,5.22l-1.68,4.19-9.15-4.75c0,0,2.19-2.72,8.42-4.66Z" fill="#88d3d8"/><path d="M182.33,120.24c-.68,1.5-1.36,2.87-1.93,4.41-.42-1-.81-1.86-1.31-2.84-.024177-.032123-.050933-.062223-.08-.09-.192247-.314121-.576038-.453734-.92518-.336557s-.571001.460058-.53482.826557c.160956.931777.526381,1.816312,1.07,2.59-.078279.04149-.149221.095541-.21.16-1.32,1.47-1,3.7-.85,5.51.018442.229292.149938.434315.350643.54671s.444221.117379.649357.01329c.125857.002444.2501-.028617.36-.09c1.18663-.815295,2.036126-2.034446,2.39-3.43.83-2.31,1.79-4.84,1.02-7.27Z" fill="#e85454"/><path d="M148.17,120.12l3.31-1c.82.12,8,3,11,8.14.361617,1.556127.605639,3.137256.73,4.73.27,2.12.49,4.25.6,6.39.13917,2.332785.102399,4.67274-.11,7-.1,1-.16,1.49-.34,2.47-.384301.336648-.824177.603957-1.3.79-9.93,3.45-17.21-2.14-17.51-2.94s-.77-12.25-1-19.06c-.117624-2.96981,1.779098-5.646568,4.62-6.52Z" fill="#88d3d8"/><path d="M156.93,108.33c0,0,2.23,11.21-1.9,12.42s-9-3.46-9.35-5.77s5.45-10.39,11.25-6.65Z" fill="#e85454"/><path d="M155.33,112.81c.13-.19,2.5-.81,3-2.81s-1.31-4.63-5.44-5-11.07,1.88-10,12.75s12,6.2,12.73,2.73c.379277-2.552558.280942-5.15337-.29-7.67Z" fill="#653200"/><path d="M155.33,112.81c0,0,.69,3.72,2.2,5.31s2.72,4.51.88,6.72s0,3.42,2.61,5.54s1,10.75-8.42,8.63-13.86-7.8-13.86-7.8s2.42-16.94,5-20.91" fill="#653200"/><path d="M162.45,127.44c0,0,2.13,7.14,4.26,7.36s5.36-2.94,7.64-7.05c1.638274-.152186,3.267162.37507,4.505514,1.458391s1.9775,2.627646,2.044486,4.271609-7.51,15.21-18.45,11.5" fill="#88d3d8"/><polygon points="171.53,117.36 172.71,116.99 173.21,118.66 177.05,117.29 177.22,118.46 172.54,120.18 171.53,117.36" fill="#e4f5fd"/><path d="M144.49,145.68c0,0-1.75,11.42,6.1,16.17s20.08-.19,26.81-5.23-14.1-8.79-14.1-8.79-10.35,2.63-18.81-2.15Z" fill="#7ec971"/><polygon points="176,157.62 182.61,155.93 183.14,161.85 176,157.62" fill="#007f68"/></g></svg>
