<?xml version="1.0" encoding="UTF-8" standalone="no" ?>
<!DOCTYPE svg PUBLIC "-//W3C//DTD SVG 1.1//EN" "http://www.w3.org/Graphics/SVG/1.1/DTD/svg11.dtd">
<svg xmlns="http://www.w3.org/2000/svg" xmlns:xlink="http://www.w3.org/1999/xlink" version="1.1" width="1080" height="1080" viewBox="0 0 1080 1080" xml:space="preserve">
<desc>Created with Fabric.js 5.2.4</desc>
<defs>
</defs>
<g transform="matrix(1 0 0 1 540 540)" id="af02677c-6832-4248-a27e-7bf64e006ca1"  >
<rect style="stroke: none; stroke-width: 1; stroke-dasharray: none; stroke-linecap: butt; stroke-dashoffset: 0; stroke-linejoin: miter; stroke-miterlimit: 4; fill: rgb(255,255,255); fill-rule: nonzero; opacity: 1; visibility: hidden;" vector-effect="non-scaling-stroke"  x="-540" y="-540" rx="0" ry="0" width="1080" height="1080" />
</g>
<g transform="matrix(1 0 0 1 540 540)" id="8cc9ee66-74c8-42c9-b93f-293e15226889"  >
</g>
<g transform="matrix(20.22 0 0 20.22 540 468.38)" id="Layer_1"  >
<path style="stroke: none; stroke-width: 1; stroke-dasharray: none; stroke-linecap: butt; stroke-dashoffset: 0; stroke-linejoin: miter; stroke-miterlimit: 4; fill: rgb(255,255,255); fill-rule: nonzero; opacity: 1;" vector-effect="non-scaling-stroke"  transform=" translate(-32, -30.75)" d="M 49.6 44 L 14.4 44 C 13.1 44 12 42.9 12 41.6 L 12 19.9 C 12 18.599999999999998 13.1 17.5 14.4 17.5 L 49.6 17.5 C 50.9 17.5 52 18.6 52 19.9 L 52 41.599999999999994 C 52 42.9 50.9 44 49.6 44 z" stroke-linecap="round" />
</g>
<g transform="matrix(20.22 0 0 20.22 540 468.38)" id="Layer_1"  >
<path style="stroke: none; stroke-width: 1; stroke-dasharray: none; stroke-linecap: butt; stroke-dashoffset: 0; stroke-linejoin: miter; stroke-miterlimit: 4; fill: rgb(56,68,84); fill-rule: nonzero; opacity: 1;" vector-effect="non-scaling-stroke"  transform=" translate(-32, -30.75)" d="M 51.5 43.5 L 12.5 43.5 L 12.5 20 C 12.5 18.9 13.4 18 14.5 18 L 49.5 18 C 50.6 18 51.5 18.9 51.5 20 L 51.5 43.5 z" stroke-linecap="round" />
</g>
<g transform="matrix(20.22 0 0 20.22 540 463.33)" id="Layer_1"  >
<rect style="stroke: none; stroke-width: 1; stroke-dasharray: none; stroke-linecap: butt; stroke-dashoffset: 0; stroke-linejoin: miter; stroke-miterlimit: 4; fill: rgb(79,97,127); fill-rule: nonzero; opacity: 1;" vector-effect="non-scaling-stroke"  x="-17.5" y="-10.5" rx="0" ry="0" width="35" height="21" />
</g>
<g transform="matrix(20.22 0 0 20.22 550.9 478.38)" id="Layer_1"  >
<path style="stroke: none; stroke-width: 1; stroke-dasharray: none; stroke-linecap: butt; stroke-dashoffset: 0; stroke-linejoin: miter; stroke-miterlimit: 4; fill: rgb(106,128,160); fill-rule: nonzero; opacity: 1;" vector-effect="non-scaling-stroke"  transform=" translate(-32.54, -31.24)" d="M 35.2 30.3 C 35.2 29 36.2 28.400000000000002 36.300000000000004 28.400000000000002 C 35.7 27.500000000000004 34.800000000000004 27.400000000000002 34.50000000000001 27.400000000000002 C 33.70000000000001 27.3 33.00000000000001 27.900000000000002 32.60000000000001 27.900000000000002 C 32.20000000000001 27.900000000000002 31.60000000000001 27.400000000000002 31.000000000000007 27.500000000000004 C 30.200000000000006 27.500000000000004 29.400000000000006 28.000000000000004 29.000000000000007 28.800000000000004 C 28.10000000000001 30.300000000000004 28.800000000000008 32.6 29.60000000000001 33.800000000000004 C 30.000000000000007 34.400000000000006 30.500000000000007 35.1 31.10000000000001 35.1 C 31.70000000000001 35.1 32.00000000000001 34.7 32.70000000000001 34.7 C 33.40000000000001 34.7 33.70000000000001 35.1 34.30000000000001 35.1 C 35.000000000000014 35.1 35.40000000000001 34.5 35.80000000000001 33.9 C 36.30000000000001 33.199999999999996 36.500000000000014 32.5 36.500000000000014 32.5 C 36.5 32.3 35.2 31.8 35.2 30.3 z" stroke-linecap="round" />
</g>
<g transform="matrix(20.22 0 0 20.22 569.32 375.35)" id="Layer_1"  >
<path style="stroke: none; stroke-width: 1; stroke-dasharray: none; stroke-linecap: butt; stroke-dashoffset: 0; stroke-linejoin: miter; stroke-miterlimit: 4; fill: rgb(106,128,160); fill-rule: nonzero; opacity: 1;" vector-effect="non-scaling-stroke"  transform=" translate(-33.45, -26.15)" d="M 33.9 26.6 C 34.199999999999996 26.200000000000003 34.5 25.6 34.4 25 C 33.9 25 33.3 25.3 33 25.8 C 32.7 26.2 32.4 26.8 32.5 27.3 C 33 27.3 33.6 27 33.9 26.6 z" stroke-linecap="round" />
</g>
<g transform="matrix(20.22 0 0 20.22 540 756.56)" id="Layer_1"  >
<path style="stroke: none; stroke-width: 1; stroke-dasharray: none; stroke-linecap: butt; stroke-dashoffset: 0; stroke-linejoin: miter; stroke-miterlimit: 4; fill: rgb(204,219,226); fill-rule: nonzero; opacity: 1;" vector-effect="non-scaling-stroke"  transform=" translate(-32, -45)" d="M 52 47 L 12 47 C 9.8 47 8 45.2 8 43 L 8 43 L 56 43 L 56 43 C 56 45.2 54.2 47 52 47 z" stroke-linecap="round" />
</g>
<g transform="matrix(20.22 0 0 20.22 550.11 726.23)" id="Layer_1"  >
<path style="stroke: none; stroke-width: 1; stroke-dasharray: none; stroke-linecap: butt; stroke-dashoffset: 0; stroke-linejoin: miter; stroke-miterlimit: 4; fill: rgb(160,181,186); fill-rule: nonzero; opacity: 1;" vector-effect="non-scaling-stroke"  transform=" translate(-32.5, -43.5)" d="M 35.6 44 L 29.400000000000002 44 C 29.1 44 28.900000000000002 43.9 28.700000000000003 43.7 L 28 43 L 37 43 L 36.3 43.7 C 36.1 43.9 35.9 44 35.6 44 z" stroke-linecap="round" />
</g>
<g transform="matrix(20.22 0 0 20.22 550.11 230.76)" id="Layer_1"  >
<circle style="stroke: none; stroke-width: 1; stroke-dasharray: none; stroke-linecap: butt; stroke-dashoffset: 0; stroke-linejoin: miter; stroke-miterlimit: 4; fill: rgb(29,34,38); fill-rule: nonzero; opacity: 1;" vector-effect="non-scaling-stroke"  cx="0" cy="0" r="0.5" />
</g>
</svg>