<svg width="30" height="30" viewBox="0 0 30 30" fill="none" xmlns="http://www.w3.org/2000/svg">
<path d="M15 0C6.7294 0 0 6.7294 0 15C0 23.2706 6.7294 30 15 30C23.2706 30 30 23.2706 30 15C30 6.7294 23.2706 0 15 0ZM15 2.30769C22.0234 2.30769 27.6923 7.97656 27.6923 15C27.6923 21.3838 23.0021 26.6331 16.875 27.5391V18.6689H20.4582L21.0216 15.0316H16.875V13.0394C16.875 11.5278 17.3669 10.1863 18.7816 10.1863H21.0532V7.00871C20.654 6.95564 19.8106 6.83744 18.2136 6.83744C14.8813 6.83744 12.9267 8.59821 12.9267 12.6067V15.027H9.5012V18.6689H12.9312V27.5075C6.89951 26.5203 2.30769 21.3163 2.30769 15C2.30769 7.97656 7.97656 2.30769 15 2.30769Z" fill="white"/>
</svg>
