<svg id="e4S3hAe7uIT1" xmlns="http://www.w3.org/2000/svg" xmlns:xlink="http://www.w3.org/1999/xlink" viewBox="0 0 400 300" shape-rendering="geometricPrecision" text-rendering="geometricPrecision">
<style><![CDATA[
#e4S3hAe7uIT2 {animation: e4S3hAe7uIT2_c_o 3000ms linear 1 normal forwards}@keyframes e4S3hAe7uIT2_c_o { 0% {opacity: 0;animation-timing-function: cubic-bezier(0.445,0.05,0.55,0.95)} 40% {opacity: 1} 100% {opacity: 1}} #e4S3hAe7uIT14_tr {animation: e4S3hAe7uIT14_tr__tr 3000ms linear 1 normal forwards}@keyframes e4S3hAe7uIT14_tr__tr { 0% {transform: translate(193.57px,111.22px) rotate(64.742008deg)} 33.333333% {transform: translate(193.57px,111.22px) rotate(64.742008deg);animation-timing-function: cubic-bezier(0.445,0.05,0.55,0.95)} 66.666667% {transform: translate(193.57px,111.22px) rotate(-0.642745deg)} 100% {transform: translate(193.57px,111.22px) rotate(-0.642745deg)}} #e4S3hAe7uIT30_to {animation: e4S3hAe7uIT30_to__to 3000ms linear 1 normal forwards}@keyframes e4S3hAe7uIT30_to__to { 0% {transform: translate(80.645px,138.155001px);animation-timing-function: cubic-bezier(0.445,0.05,0.55,0.95)} 33.333333% {transform: translate(153.389999px,96.029999px)} 100% {transform: translate(153.389999px,96.029999px)}} #e4S3hAe7uIT30 {animation: e4S3hAe7uIT30_c_o 3000ms linear 1 normal forwards}@keyframes e4S3hAe7uIT30_c_o { 0% {opacity: 0;animation-timing-function: cubic-bezier(0.445,0.05,0.55,0.95)} 33.333333% {opacity: 1} 100% {opacity: 1}} #e4S3hAe7uIT33_to {animation: e4S3hAe7uIT33_to__to 3000ms linear 1 normal forwards}@keyframes e4S3hAe7uIT33_to__to { 0% {transform: translate(94.144996px,137.869999px)} 3.333333% {transform: translate(94.144996px,137.869999px);animation-timing-function: cubic-bezier(0.445,0.05,0.55,0.95)} 36.666667% {transform: translate(155.504997px,101.380001px)} 100% {transform: translate(155.504997px,101.380001px)}} #e4S3hAe7uIT33 {animation: e4S3hAe7uIT33_c_o 3000ms linear 1 normal forwards}@keyframes e4S3hAe7uIT33_c_o { 0% {opacity: 0} 3.333333% {opacity: 0;animation-timing-function: cubic-bezier(0.445,0.05,0.55,0.95)} 30% {opacity: 1} 100% {opacity: 1}} #e4S3hAe7uIT36_to {animation: e4S3hAe7uIT36_to__to 3000ms linear 1 normal forwards}@keyframes e4S3hAe7uIT36_to__to { 0% {transform: translate(113.160004px,145.040001px)} 6.666667% {transform: translate(113.160004px,145.040001px);animation-timing-function: cubic-bezier(0.445,0.05,0.55,0.95)} 43.333333% {transform: translate(165.605003px,108.655003px)} 100% {transform: translate(165.605003px,108.655003px)}} #e4S3hAe7uIT36 {animation: e4S3hAe7uIT36_c_o 3000ms linear 1 normal forwards}@keyframes e4S3hAe7uIT36_c_o { 0% {opacity: 0} 6.666667% {opacity: 0;animation-timing-function: cubic-bezier(0.445,0.05,0.55,0.95)} 33.333333% {opacity: 1} 100% {opacity: 1}} #e4S3hAe7uIT39_to {animation: e4S3hAe7uIT39_to__to 3000ms linear 1 normal forwards}@keyframes e4S3hAe7uIT39_to__to { 0% {transform: translate(122.454997px,152.285004px)} 10% {transform: translate(122.454997px,152.285004px);animation-timing-function: cubic-bezier(0.445,0.05,0.55,0.95)} 50% {transform: translate(174.535004px,119.174999px)} 100% {transform: translate(174.535004px,119.174999px)}} #e4S3hAe7uIT39 {animation: e4S3hAe7uIT39_c_o 3000ms linear 1 normal forwards}@keyframes e4S3hAe7uIT39_c_o { 0% {opacity: 0} 10% {opacity: 0;animation-timing-function: cubic-bezier(0.445,0.05,0.55,0.95)} 36.666667% {opacity: 1} 100% {opacity: 1}}
]]></style>
<defs><linearGradient id="e4S3hAe7uIT4-fill" x1="126.62" y1="249.13" x2="186.64" y2="192.67" spreadMethod="pad" gradientUnits="userSpaceOnUse" gradientTransform="translate(0 0)"><stop id="e4S3hAe7uIT4-fill-0" offset="0%" stop-color="rgba(0,0,0,0)"/><stop id="e4S3hAe7uIT4-fill-1" offset="99%" stop-color="#552800"/></linearGradient></defs><g id="e4S3hAe7uIT2" transform="translate(0 0.000001)" opacity="0"><path d="M191.53,285.29l-165.77-98c-5.28-3-9.8-7.83-4.66-11L187.47,80.42c2.5-1.55,6.29-2.56,8.82-1.09l174,101c5.28,3.06,6.22,11.63.94,14.69L213.38,285.13c-6.740212,3.922132-15.053073,3.983004-21.85.16Z" fill="#74bc5c"/><path d="M144.39,256.63l8.35-5.65l60.5-50-14.32-6.15c-8.59,2.3-24,9-32,12.65-11.81,5.44-23.77,10.37-35.87,15.13q-10.05,4-20.13,7.88c12.08,7.57,22.85,16.74,33.47,26.14Z" opacity="0.32" fill="url(#e4S3hAe7uIT4-fill)"/><polyline points="205.67,207.67 193.58,202.33 193.58,110 209.46,104.33" fill="#7f1d18"/><polyline points="213.24,92.33 213.24,201 205.67,207.67 205.67,103" fill="#aa3529"/><path d="M141.49,114.93v-40.21c0,0-1.06-7.14,11.64-13.49s54.76-30.95,54.76-30.95s20.63-3.7,31.74,26.45c1.946346,5.073828,3.191164,10.38954,3.7,15.8v31.55l-61.11,33.86Z" fill="#68e1fd"/><path d="M143.85,112v-37.81c0,0,1.32-10.58,12.17-6.88s22.22,18.25,24.6,31.74v34.12l-35.45-20.63" fill="#e98669"/><path d="M143.28,115.61l-23.81,28.83c0,0-10.85,16.67,6.88,26.19s34.39-10.32,34.39-10.32L181.11,137Z" fill="#68e1fd"/><path d="M141.2,114.93l-23.81,28.83c0,0-10.85,16.67,6.88,26.19s34.39-10.32,34.39-10.32L179,136.36Z" fill="#aa3529"/><path d="M176,86.31c-4.86-8.93-12.57-16.6-20-19.15-10.83-3.7-12.15,6.84-12.15,6.84v38c12-9.62,17.77-13.72,32.15-25.69Z" fill="#cd725f"/><ellipse rx="17" ry="13.57" transform="matrix(.442445-.896796 0.896796 0.442445 223.236719 89.213343)" fill="#ffd7cb"/><path d="M228.5,79.9c1.500871,1.159931,2.331785,2.986443,2.22,4.88.045969,1.757475-.353057,3.498054-1.16,5.06-.587669,1.372399-1.653749,2.484676-3,3.13-.612928.367376-1.405281.201939-1.82-.38-.378627.872552-1.055793,1.581627-1.91,2-.749131.373022-1.655384.196692-2.21-.43-.715068-.880464-1.072121-1.998038-1-3.13-.051545-1.411486.269191-2.811689.93-4.06.506223-1.074798,1.37314-1.938177,2.45-2.44.539139-.250935,1.167145-.22103,1.68.08l.12-.63l2-.82-.44,6.08c0,.41,0,.77,0,1.07s.15.49.43.37c.671381-.408541,1.174917-1.043279,1.42-1.79.459007-1.023411.674646-2.139257.63-3.26.102771-1.423674-.512618-2.804546-1.64-3.68-1.149374-.723782-2.597151-.780931-3.8-.15-1.718226.777683-3.126463,2.108466-4,3.78-1.059063,1.78225-1.592909,3.827507-1.54,5.9-.070116,1.621723.53444,3.200084,1.67,4.36q1.6,1.5,4.42.32c1.710526-.791515,3.231395-1.940692,4.46-3.37l.74,1.85c-1.429029,1.606098-3.184945,2.888087-5.15,3.76-2.46,1-4.43.91-5.92-.35s-2.27-3.16-2.33-5.73c-.053947-2.70525.682844-5.367431,2.12-7.66c1.232523-2.21238,3.147965-3.966448,5.46-5q3.04-1.27,5.17.24Zm-4.35,10.73c.329688-.696419.493962-1.459611.48-2.23.040248-.470297-.127912-.934565-.46-1.27-.269801-.252894-.667874-.312605-1-.15-.468758.250178-.825872.668001-1,1.17-.281334.655977-.411218,1.366922-.38,2.08-.014123.518574.106469,1.031949.35,1.49.065613.149122.188152.265801.340308.324033s.321284.05318.469692-.014033c.571328-.295562,1.01045-.795376,1.23-1.4" fill="#aa3529"/><g id="e4S3hAe7uIT14_tr" transform="translate(193.57,111.22) rotate(64.742008)"><g transform="translate(-193.569996,-111.219998)"><rect width="3.44" height="71.42" rx="1.72" ry="1.72" transform="translate(193.58 39.8)" fill="#aa3529"/><path d="M197,39.8c0,0,23.54-2.38,25.13-2.12s-25.13,25.67-25.13,25.67" fill="#aa3529"/></g></g><path d="M58,186.33c.66-.22,12.52,7.47,12.52,7.47l22.84-13L81,172.93L56.86,186.77" fill="#e0e4ef"/><path d="M75.29,147.19c.88.22,19.11,15.37,19.11,15.37l14.49-6.37-19.32-15.37Z" fill="#e0e4ef"/><polygon points="100.77,191.95 118.78,191.95 117.24,210.61 99.01,210.61 100.77,191.95" fill="#e0e4ef"/><path d="M147,192.39c1.32,0,29.87,8.13,29.87,8.13l8.35-9.22-30.09-7.91Z" fill="#e0e4ef"/><polygon points="123.96,223.9 116.71,233.78 147.68,240.81 153.39,230.93 123.96,223.9" fill="#e0e4ef"/><polygon points="181.06,223.24 174.25,232.91 203.9,241.47 210.55,231.37 181.06,223.24" fill="#e0e4ef"/><polygon points="178.9,262.11 202.62,275.07 215.13,268.59 191.63,255.31 178.9,262.11" fill="#e0e4ef"/><polygon points="280.11,184.37 272.86,194.25 303.82,201.28 309.53,191.4 280.11,184.37" fill="#e0e4ef"/><polygon points="230.91,162.54 229.81,182.53 247.82,182.53 247.82,162.54 230.91,162.54" fill="#e0e4ef"/><polygon points="294.71,168.03 314.48,183.85 330.07,177.48 308.87,161.23 294.71,168.03" fill="#e0e4ef"/><path d="M227.6,135.49L254.83,141c0,0,8.13-9.44,7.47-9.44s-27-6.15-27-6.15Z" fill="#e0e4ef"/><path d="M255,215.57c.44-.66,23.28,12.74,23.28,12.74l12.52-6.38-23.94-14.26Z" fill="#e0e4ef"/><polygon points="219.36,221.05 215.95,232.36 249.11,235.54 251.09,223.9 219.36,221.05" fill="#e0e4ef"/><g id="e4S3hAe7uIT30_to" transform="translate(80.645,138.155001)"><g id="e4S3hAe7uIT30" transform="translate(-153.389999,-96.029999)" opacity="0"><polygon points="125.14,91.36 132.3,125.53 181.64,98.19 173.32,66.53 125.14,91.36" fill="#e0e4ef"/><polygon points="125.14,91.36 153.39,96.03 172.44,66.98 125.14,91.36" fill="#fdc54c"/></g></g><g id="e4S3hAe7uIT33_to" transform="translate(94.144996,137.869999)"><g id="e4S3hAe7uIT33" transform="translate(-155.504997,-101.380001)" opacity="0"><polygon points="136.47,97.45 136.47,127.25 174.54,105.95 174.54,75.51 136.47,97.45" fill="#e0e4ef"/><polygon points="136.47,97.45 158.51,101.38 174.54,75.51 136.47,97.45" fill="#acc9e2"/></g></g><g id="e4S3hAe7uIT36_to" transform="translate(113.160004,145.040001)"><g id="e4S3hAe7uIT36" transform="translate(-165.605003,-108.655002)" opacity="0"><polygon points="146.57,104.73 146.57,134.52 184.64,113.22 184.64,82.79 146.57,104.73" fill="#c5c9d3"/><polygon points="146.57,104.73 168.61,108.65 184.64,82.79 146.57,104.73" fill="#e4acc9"/></g></g><g id="e4S3hAe7uIT39_to" transform="translate(122.454997,152.285004)"><g id="e4S3hAe7uIT39" transform="translate(-174.535004,-119.174999)" opacity="0"><path d="M192.13,118c-1.169702-6.993815-1.428522-14.109688-.77-21.17c0-1-.08-1.9-.11-2.85l-35.75,20.6v29.79l38.07-21.29v-2.58c-.815147-.589313-1.339242-1.499199-1.44-2.5Z" fill="#e0e4ef"/><path d="M191.26,94l-35.75,20.6l22,3.93L191.3,96.27c.01-.74-.02-1.5-.04-2.27Z" fill="#e4acc9"/></g></g><path d="M162.23,70.55c0,0,17.77,10.7,18.38,28.51v34.12l13-10.07c0,0,.16-33.5-3.89-43.78s-17.25-18.74-17.25-18.74Z" fill="#68e1fd"/><polygon points="89.57,140.82 92.09,151.69 108.89,156.19 89.57,140.82" fill="#fdc54c"/><polygon points="70.48,193.79 76.85,182.53 93.32,180.84 70.48,193.79" fill="#fdc54c"/><polygon points="118.78,191.95 110.94,200.51 117.24,210.61 118.78,191.95" fill="#a0d179"/><polygon points="155.09,183.38 165.6,191.95 185.18,191.29 155.09,183.38" fill="#fdc54c"/><polygon points="116.71,233.78 134.4,232.36 147.68,240.81 116.71,233.78" fill="#fdc54c"/><polygon points="181.06,223.24 191.51,231.46 210.55,231.37 181.06,223.24" fill="#fdc54c"/><polygon points="178.9,262.11 197.01,265.19 202.62,275.07 178.9,262.11" fill="#a0d179"/><polygon points="219.36,221.05 234.22,229.66 251.09,223.9 219.36,221.05" fill="#fdc54c"/><polygon points="266.82,207.67 272.86,218.72 290.76,221.93 266.82,207.67" fill="#a0d179"/><polygon points="280.11,184.37 290.76,191.95 309.53,191.4 280.11,184.37" fill="#fdc54c"/><polygon points="308.87,161.23 309.53,173.22 330.07,177.48 308.87,161.23" fill="#a0d179"/><polygon points="230.91,162.54 239.92,171.8 229.81,182.53 230.91,162.54" fill="#fdc54c"/><polygon points="235.28,125.38 243.96,133.18 262.3,131.53 235.28,125.38" fill="#a0d179"/></g></svg>
