<svg id="Layer_2" data-name="Layer 2" xmlns="http://www.w3.org/2000/svg" xmlns:xlink="http://www.w3.org/1999/xlink" viewBox="0 0 400 300" width="406" height="306" class="illustration styles_illustrationTablet__1DWOa"><defs><linearGradient id="linear-gradient" x1="123.71" y1="232.98" x2="132.6" y2="218.4" gradientUnits="userSpaceOnUse"><stop offset="0" stop-color="#e5d2c1"></stop><stop offset="1" stop-color="#9d7d6a"></stop></linearGradient><linearGradient id="linear-gradient-2" x1="86.2" y1="192.32" x2="108.98" y2="167.49" xlink:href="#linear-gradient"></linearGradient><linearGradient id="linear-gradient-3" x1="256.42" y1="231.56" x2="311.48" y2="191.4" xlink:href="#linear-gradient"></linearGradient><linearGradient id="linear-gradient-4" x1="163.43" y1="235.54" x2="207.07" y2="203.7" xlink:href="#linear-gradient"></linearGradient></defs><title>PP</title><path d="M194.86,289.28,15.14,183.06c-5.72-3.21-10.63-8.49-5.05-11.94l180.37-104c2.71-1.68,6.82-2.78,9.57-1.18L388.68,175.48c5.72,3.32,6.75,12.6,1,15.93L218.55,289.11A23.9,23.9,0,0,1,194.86,289.28Z" fill="#e5d2c1"></path><path d="M138.27,236.46l-1-1.14a2,2,0,0,1-3.13,1.07c-3.55-2.55-5.09-6.63-5.47-10.87,0,0,0-.07,0-.11l-.11-.13L118,215,83.64,200.19l-12.57,8.94,91.81,56.73L173,262.43Z" fill="url(#linear-gradient)"></path><polyline points="154.77 161.75 88.61 200.19 55.76 181.33 106.98 150.44" fill="url(#linear-gradient-2)"></polyline><polyline points="331.54 212.39 254.54 254.92 218.97 223.26 264.1 194.5" fill="url(#linear-gradient-3)"></polyline><polyline points="220.71 217.24 169.04 260.25 133.47 228.59 188.88 203.58" fill="url(#linear-gradient-4)"></polyline><path d="M228.61,149.91a4.57,4.57,0,0,0-.8-1.71,10.18,10.18,0,0,0-2.5-2.17c-12.68-8.58-30.22-10.95-43.62-2.56-3.06,1.92-7.6,6.26-5.8,10.35,1,2.38,4.23,3.76,6.44,4.73,7.19,3.17,15.21,4.67,22.92,6,2.84.48,5.7,1,8.57,1.23a11.85,11.85,0,0,0,10.43-4.48C226.32,158.75,229.51,153.63,228.61,149.91Z" fill="#754c24"></path><path d="M175.55,152s11.55,10.46,31.53,8.94,21.53-11,21.53-11-5.17,66.2-7.9,67.33-12.94,6.05-17.85,6.43-20.5-5.87-20.88-7.58S175.55,152,175.55,152Z" fill="#ff8f6f"></path><path d="M178.29,157.48c-.46-1.45-.89-2.9-1.27-4.37-1-.7-1.47-1.15-1.47-1.15s6,62.42,6.42,64.13,16,8,20.88,7.58,15.12-5.3,17.85-6.43c.25-.1.53-.78.81-1.89C199.69,204.28,182.89,180.49,178.29,157.48Z" fill="#f77b5e"></path><path d="M194.56,160.41l2.17-.2c-2.43-29.43-5.48-59.46-18.81-86.32-.62-1.25-2.5-.15-1.89,1.09C189.21,101.53,192.16,131.31,194.56,160.41Z" fill="#007f68"></path><path d="M176.17,74.15s3.82,14.3-.12,21.45-7.2,8.58-2.49,17.51,17.3,10.08,18.14,16.88S185.67,86.29,176.17,74.15Z" fill="#007f68"></path><path d="M208,159.71A176.47,176.47,0,0,1,224.81,94c.72-1.52-1.57-2.86-2.3-1.33a179.8,179.8,0,0,0-17.18,67.06Q206.66,159.71,208,159.71Z" fill="#007f68"></path><path d="M224.37,99.65c0-1.43-.32-4.25-.17-6.78q-.75.5-1.53,1c-5.2,12.62-12.94,42.26-15.27,51.35,3.15-6.8,16.1-7.73,19.88-17.51a17.85,17.85,0,0,0,.22-12.89C225.78,109.65,224.45,105.06,224.37,99.65Z" fill="#007f68"></path><circle cx="202.08" cy="30.53" r="9.51" fill="#007f68"></circle><circle cx="216.67" cy="53.61" r="6.1" fill="#007f68"></circle><path d="M202.08,30.53s-1.91,118.31,0,118.31" fill="none" stroke="#007f68" stroke-miterlimit="10" stroke-width="3"></path><polyline points="216.67 53.61 216.67 72.35 201.66 72.35" fill="none" stroke="#007f68" stroke-miterlimit="10" stroke-width="3"></polyline><circle cx="188.89" cy="61.04" r="6.1" fill="#007f68"></circle><polyline points="188.88 61.04 188.88 85.64 201.24 85.64" fill="none" stroke="#007f68" stroke-miterlimit="10" stroke-width="3"></polyline><path d="M231.85,134.93h-.1a1.32,1.32,0,0,0-1.31-1.43,1.47,1.47,0,0,0-1.79-1.39,33.48,33.48,0,0,1-5.15.7c-4.66-.34-9.26-1.17-13.27-3.63a7.65,7.65,0,0,0-1.39-1.35,1.8,1.8,0,0,0-2.94,1.22c-.15,1.43,1.4,2.63,2.66,3.57a43.86,43.86,0,0,0-4.44,1.17c-1.27.41-2.9.79-3.19,2.3a1.46,1.46,0,0,0,1.77,1.77l.45-.08a2.82,2.82,0,0,0-1.48,1.81,1.46,1.46,0,0,0,1.39,1.82,6.35,6.35,0,0,0,1.74-.24,3.58,3.58,0,0,0-.22.32,1.45,1.45,0,0,0,1.62,2.11c.66-.16,1.32-.33,2-.52a1.4,1.4,0,0,0,1.71,1.8q3.95-1.25,7.82-2.72a114,114,0,0,1,13.08-1.76,1.53,1.53,0,0,0,1-2.57l.49-.08C233.82,137.51,233.46,134.81,231.85,134.93Z" fill="#ffe8e6"></path><path d="M209.81,135.71l-7.33,2a.32.32,0,0,0,.17.62l7.33-2A.32.32,0,0,0,209.81,135.71Z" fill="#42210b"></path><path d="M211.29,138.66q-3.3,1.06-6.62,2a.32.32,0,0,0,.17.62q3.32-1,6.62-2C211.85,139.15,211.69,138.53,211.29,138.66Z" fill="#42210b"></path><path d="M212.85,141.1l-4.6,1.66c-.38.14-.22.76.17.62l4.6-1.66C213.4,141.58,213.24,141,212.85,141.1Z" fill="#42210b"></path><path d="M270.25,106.42s-18.65,11.05-38.78-.13l-1,14.7s22.13,8.81,37.75,5.21" fill="#68e1fd"></path><path d="M270.25,106.42s-18.65,11.05-38.78-.13l-1,14.7s22.13,8.81,37.75,5.21" fill="#124577" opacity="0.32"></path><path d="M231.26,109.4a6.5,6.5,0,0,1-3.13-1.7c-.68-.8-.86-1.89-1.47-2.72a4.46,4.46,0,0,0-2.48-1.93c-1.16-.24-2,1-1.82,2.08a6.38,6.38,0,0,0,1.91,2.82,2.09,2.09,0,0,0,.2.19,7,7,0,0,1-.65,1.31,1.39,1.39,0,0,1-.15.46c-.88,1.66-2.13,3.12-3.07,4.75a5.9,5.9,0,0,1-.4.75q-.13.26-.24.53a32.72,32.72,0,0,0,3.45.43,28.17,28.17,0,0,0,7.4.64C231,114.5,231.07,112,231.26,109.4Z" fill="#ffe8e6"></path><path d="M226.42,114c-2.32-1-2.23-3.35-1.86-5.45.07-.4-.55-.57-.62-.17-.44,2.51-.36,5.12,2.31,6.24C226.63,114.74,226.8,114.12,226.42,114Z" fill="#42210b"></path><path d="M243.72,197.08s-.23,7.14-1.66,8.32-8.2,4.9-11.37,5.07-2.92,3.47-1,5.43,16.23,1.11,17.25.08,5-7.47,4.38-7.57-.86,8.6-.3,8.9a7.58,7.58,0,0,0,2.41.21l2.07-22.85" fill="#124577"></path><path d="M256.69,164.37c1.47.12,15,1.72,25.29-2,2.57-3.62,4-8.1,5.09-12.32A71.56,71.56,0,0,0,289,138.13l-10.37.48a175,175,0,0,0-30.38,3.66c-5.82,1.31-12.43,2.66-16.62,7.29-4.77,5.26-3.35,12.56-2,18.86A189,189,0,0,0,239,198.25l25.08-3.75S254,164.15,256.69,164.37Z" fill="#f4a195"></path><path d="M338.34,205.55a13.79,13.79,0,0,0,1.24-1.18l-7.28-12.43-10.83-5.44-3.8,12.73s6.45.84,7.08,2.82.88,4.19-.34,5.91c-1,1.45-2.64,2.36-3.76,3.74a8.32,8.32,0,0,0-2,3.19c-.36,1.78,2,2.85,5.35,2.5s6.6-4.46,7.49-5,0-13.53,1.29-13.17c.91.26,2.21,4,3.19,5.92Z" fill="#124577"></path><path d="M321.7,195.75c.69-5.07,1.18-12-1.5-16.91L281,182.4s19.06-19.25,14-42.36l-25.89.64s-38.25,56-12,65.61c11.14,4.1,41.82,1.48,62.72-1.74A56.77,56.77,0,0,0,321.7,195.75Z" fill="#ffb3a6"></path><path d="M269.61,106.29s-20.21,22.46-49,23.09l.64,15.13s27.8,3.2,45-11.18l2.9,7.34s14.7,7,26.21,1.6c0,0-.41-32.19-23.51-43" fill="#68e1fd"></path><path d="M269.61,106.29s-20.21,22.46-49,23.09l.64,15.13s27.8,3.2,45-11.18l2.9,7.34s14.7,7,26.21,1.6c0,0-.41-32.19-23.51-43" fill="#68e1fd"></path><path d="M257.51,91.81s-.78,14.5,6.31,16.24c8.1,2,13.54-9.19,9.91-15.48S259.4,86.94,257.51,91.81Z" fill="#ffe8e6"></path><path d="M262.14,85.66a10.56,10.56,0,0,0-6.48,5.72c-.08.2-.15.4-.22.6a8.84,8.84,0,0,0-.08,1.75,3.65,3.65,0,0,0,2.25,3.35c0-2.34.31-4.59,2.4-6.62,0,0-.82,1.59,7,5.08,0,0,5.35,7.07,3.87,10.74.14-.35,1.12-.86,1.41-1.11a21.34,21.34,0,0,0,3.18-3.3C282,93.27,271.39,82.73,262.14,85.66Z" fill="#f47a63"></path><path d="M260,90.48s.23,6.62,8.13,7.83c4.79.73-5.34,9.51-.6,12.24s13.7-3.35,15.83-7.9-4.94-17.77-16.31-18.41c0,0-8.17-1.57-11.51,7.62" fill="#f47a63"></path><path d="M262.18,98.49a.32.32,0,0,0-.1.63A.32.32,0,0,0,262.18,98.49Z" fill="#42210b"></path><path d="M258.6,97.78l-.18.06c-.39.13-.16.72.24.59l.18-.06C259.23,98.25,259,97.65,258.6,97.78Z" fill="#42210b"></path><path d="M271.4,98.31c-1.31-2.33-4.46.14-4.36,2.11a.56.56,0,0,0,.69.54.71.71,0,0,0,.07.22,1.88,1.88,0,0,1-.47,0c-.81-.16-1,1.11-.19,1.26C269.14,102.8,272.74,100.69,271.4,98.31Zm-2.69,1.11a.64.64,0,0,0,.23.19.6.6,0,0,0,.62-.07.72.72,0,0,1-.13.23,1.24,1.24,0,0,1-1,.47h-.14A1.43,1.43,0,0,1,268.7,99.41Z" fill="#ffe8e6"></path><path d="M260.91,102.13c-1.23-.06-.57-1.43-.38-2.07s.42-1.38.65-2.06c.13-.39-.49-.56-.62-.17-.23.68-.45,1.37-.64,2.06a7.69,7.69,0,0,0-.45,1.76c0,.85.73,1.09,1.45,1.12C261.32,102.79,261.32,102.15,260.91,102.13Z" fill="#42210b"></path><path d="M264.07,102.05a2.61,2.61,0,0,1-1,1.4,3.57,3.57,0,0,1-2.1.21c-.4-.06-.58.56-.17.62a4.51,4.51,0,0,0,2.38-.18,2.93,2.93,0,0,0,1.48-1.72C264.79,102,264.24,101.68,264.07,102.05Z" fill="#42210b"></path><path d="M128,230.41c-.79-2.36-.41-4.37-2.19-6.46-1.35-1.58-2.77-3.1-4.15-4.65-.65-.72.42-1.8,1.07-1.07,1.89,2.12,4.75,4.4,5.84,7.07.62,1.51.34,3.2.9,4.72a5.94,5.94,0,0,0,4.23,3.67l5.81-7.06a3.12,3.12,0,0,1,4.32-.48l25,19.36s6.19,4.86,4.12,16.94a26.76,26.76,0,0,1-13.26-3.24c-5.27-2.87-24.82-16.26-33.23-22.06a1.51,1.51,0,0,1,.84-2.76l4-.06A7.15,7.15,0,0,1,128,230.41Z" fill="#3a3f3b"></path><path d="M120.75,215.29s.49-1.48-2-3.75S93.65,193,88.31,194.78s-5.73,6.38-3,9.37,25.3,16.93,27.22,17.38,5.52-1,5.52-1" fill="#68e1fd"></path><polygon points="124.66 217.83 121.23 223.44 116.92 220.75 120.67 215.01 124.66 217.83" fill="#978c86"></polygon><polyline points="155.42 159.66 155.42 160.95 154.77 161.75" fill="#adcee1"></polyline><path d="M129.47,143.93l25.21,15.63a1.56,1.56,0,0,1-.05,2.69l-38.26,21.64a3.5,3.5,0,0,1-3.5,0l-25.1-14.75c-1.82-1.5-1.69-4.32,0-4.44l38-20.79A3.56,3.56,0,0,1,129.47,143.93Z" fill="#88d3d8"></path><path d="M129.47,142.86l25.21,15.63a1.56,1.56,0,0,1-.05,2.69l-38.26,21.64a3.5,3.5,0,0,1-3.5,0L87.78,168a1.94,1.94,0,0,1,0-3.36l38-21.87A3.56,3.56,0,0,1,129.47,142.86Z" fill="#fff"></path><path d="M128.45,140.72S118,106.93,118,106.93s-.33-1.5-2.2-.65L75.67,129.93s-1.95.79-1.57,2.6S84.33,165.6,84.33,165.6a1.7,1.7,0,0,0,1.9.65c1.22-.38,41.27-23.64,41.27-23.64A1.54,1.54,0,0,0,128.45,140.72Z" fill="#053855"></path><polygon points="117.38 109.39 76.23 133.38 84.77 162.03 126.44 138.75 117.38 109.39" fill="#68e1fd"></polygon><path d="M131,146.44l9.22,5.74a1.11,1.11,0,0,1,0,1.91L107.12,173a3.26,3.26,0,0,1-3.25,0c-2.13-1.24-5.79-3.47-8-4.85a1.35,1.35,0,0,1,0-2.32l33.3-19.36A1.8,1.8,0,0,1,131,146.44Z" fill="#68e1fd"></path><path d="M130.53,162,119,168.53a1.15,1.15,0,0,0,0,2l6.8,4a1.53,1.53,0,0,0,1.54,0l11.83-6.74a1,1,0,0,0,0-1.68L132,162A1.53,1.53,0,0,0,130.53,162Z" fill="#68e1fd"></path><path d="M131,146.44l9.22,5.74a1.11,1.11,0,0,1,0,1.91L107.12,173a3.26,3.26,0,0,1-3.25,0c-2.13-1.24-5.79-3.47-8-4.85a1.35,1.35,0,0,1,0-2.32l33.3-19.36A1.8,1.8,0,0,1,131,146.44Z" fill="#053855" opacity="0.1"></path><path d="M130.53,162,119,168.53a1.15,1.15,0,0,0,0,2l6.8,4a1.53,1.53,0,0,0,1.54,0l11.83-6.74a1,1,0,0,0,0-1.68L132,162A1.53,1.53,0,0,0,130.53,162Z" fill="#053855" opacity="0.1"></path></svg>