<svg id="eDHUVcSmAQx1" xmlns="http://www.w3.org/2000/svg" xmlns:xlink="http://www.w3.org/1999/xlink" viewBox="0 0 400 300" shape-rendering="geometricPrecision" text-rendering="geometricPrecision">
<style><![CDATA[
#eDHUVcSmAQx10_ts {animation: eDHUVcSmAQx10_ts__ts 3000ms linear 1 normal forwards}@keyframes eDHUVcSmAQx10_ts__ts { 0% {transform: translate(196.730001px,159.66px) scale(0,0);animation-timing-function: cubic-bezier(0.445,0.05,0.55,0.95)} 33.333333% {transform: translate(196.730001px,159.66px) scale(1,1)} 100% {transform: translate(196.730001px,159.66px) scale(1,1)}} #eDHUVcSmAQx13_ts {animation: eDHUVcSmAQx13_ts__ts 3000ms linear 1 normal forwards}@keyframes eDHUVcSmAQx13_ts__ts { 0% {transform: translate(206.229996px,159.819351px) scale(0,0);animation-timing-function: cubic-bezier(0.445,0.05,0.55,0.95)} 33.333333% {transform: translate(206.229996px,159.819351px) scale(1,1)} 100% {transform: translate(206.229996px,159.819351px) scale(1,1)}} #eDHUVcSmAQx16_ts {animation: eDHUVcSmAQx16_ts__ts 3000ms linear 1 normal forwards}@keyframes eDHUVcSmAQx16_ts__ts { 0% {transform: translate(201.663795px,148.840001px) scale(0,0);animation-timing-function: cubic-bezier(0.445,0.05,0.55,0.95)} 33.333333% {transform: translate(201.663795px,148.840001px) scale(1,1)} 100% {transform: translate(201.663795px,148.840001px) scale(1,1)}} #eDHUVcSmAQx27_tr {animation: eDHUVcSmAQx27_tr__tr 3000ms linear 1 normal forwards}@keyframes eDHUVcSmAQx27_tr__tr { 0% {transform: translate(283.638885px,129.990012px) rotate(-23.352881deg)} 3.333333% {transform: translate(283.638885px,129.990012px) rotate(-23.352881deg);animation-timing-function: cubic-bezier(0.445,0.05,0.55,0.95)} 33.333333% {transform: translate(283.638885px,129.990012px) rotate(-0.007884deg)} 100% {transform: translate(283.638885px,129.990012px) rotate(-0.007884deg)}} #eDHUVcSmAQx53 {animation: eDHUVcSmAQx53_c_o 3000ms linear 1 normal forwards}@keyframes eDHUVcSmAQx53_c_o { 0% {opacity: 0} 16.666667% {opacity: 0;animation-timing-function: cubic-bezier(0.445,0.05,0.55,0.95)} 53.333333% {opacity: 1} 100% {opacity: 1}}
]]></style>
<defs><linearGradient id="eDHUVcSmAQx3-fill" x1="123.71" y1="232.98" x2="132.6" y2="218.4" spreadMethod="pad" gradientUnits="userSpaceOnUse" gradientTransform="translate(0 0)"><stop id="eDHUVcSmAQx3-fill-0" offset="0%" stop-color="#e5d2c1"/><stop id="eDHUVcSmAQx3-fill-1" offset="100%" stop-color="#9d7d6a"/></linearGradient><linearGradient id="eDHUVcSmAQx4-fill" x1="86.2" y1="192.32" x2="108.98" y2="167.49" spreadMethod="pad" gradientUnits="userSpaceOnUse" gradientTransform="translate(0 0)"><stop id="eDHUVcSmAQx4-fill-0" offset="0%" stop-color="#e5d2c1"/><stop id="eDHUVcSmAQx4-fill-1" offset="100%" stop-color="#9d7d6a"/></linearGradient><linearGradient id="eDHUVcSmAQx5-fill" x1="256.42" y1="231.56" x2="311.48" y2="191.4" spreadMethod="pad" gradientUnits="userSpaceOnUse" gradientTransform="translate(0 0)"><stop id="eDHUVcSmAQx5-fill-0" offset="0%" stop-color="#e5d2c1"/><stop id="eDHUVcSmAQx5-fill-1" offset="100%" stop-color="#9d7d6a"/></linearGradient><linearGradient id="eDHUVcSmAQx6-fill" x1="163.43" y1="235.54" x2="207.07" y2="203.7" spreadMethod="pad" gradientUnits="userSpaceOnUse" gradientTransform="translate(0 0)"><stop id="eDHUVcSmAQx6-fill-0" offset="0%" stop-color="#e5d2c1"/><stop id="eDHUVcSmAQx6-fill-1" offset="100%" stop-color="#9d7d6a"/></linearGradient></defs><path d="M194.86,289.28L15.14,183.06c-5.72-3.21-10.63-8.49-5.05-11.94l180.37-104c2.71-1.68,6.82-2.78,9.57-1.18L388.68,175.48c5.72,3.32,6.75,12.6,1,15.93l-171.13,97.7c-7.311039,4.241771-16.318838,4.306411-23.69.17Z" fill="#e5d2c1"/><path d="M138.27,236.46l-1-1.14c-.175187.63866-.655159,1.149189-1.281806,1.36341s-1.318703.104354-1.848194-.29341c-3.55-2.55-5.09-6.63-5.47-10.87c0,0,0-.07,0-.11l-.11-.13L118,215L83.64,200.19l-12.57,8.94l91.81,56.73L173,262.43Z" fill="url(#eDHUVcSmAQx3-fill)"/><polyline points="154.77,161.75 88.61,200.19 55.76,181.33 106.98,150.44" fill="url(#eDHUVcSmAQx4-fill)"/><polyline points="331.54,212.39 254.54,254.92 218.97,223.26 264.1,194.5" fill="url(#eDHUVcSmAQx5-fill)"/><polyline points="220.71,217.24 169.04,260.25 133.47,228.59 188.88,203.58" fill="url(#eDHUVcSmAQx6-fill)"/><path d="M228.61,149.91c-.144742-.619468-.417222-1.201894-.8-1.71-.709354-.854891-1.553851-1.587915-2.5-2.17-12.68-8.58-30.22-10.95-43.62-2.56-3.06,1.92-7.6,6.26-5.8,10.35c1,2.38,4.23,3.76,6.44,4.73c7.19,3.17,15.21,4.67,22.92,6c2.84.48,5.7,1,8.57,1.23c4.012271.377348,7.941298-1.310288,10.43-4.48c2.07-2.55,5.26-7.67,4.36-11.39Z" fill="#754c24"/><path d="M175.55,152c0,0,11.55,10.46,31.53,8.94s21.53-11,21.53-11-5.17,66.2-7.9,67.33-12.94,6.05-17.85,6.43-20.5-5.87-20.88-7.58-6.43-64.12-6.43-64.12Z" fill="#ff8f6f"/><path d="M178.29,157.48c-.46-1.45-.89-2.9-1.27-4.37-1-.7-1.47-1.15-1.47-1.15s6,62.42,6.42,64.13s16,8,20.88,7.58s15.12-5.3,17.85-6.43c.25-.1.53-.78.81-1.89-21.82-11.07-38.62-34.86-43.22-57.87Z" fill="#f77b5e"/><g id="eDHUVcSmAQx10_ts" transform="translate(196.730001,159.66) scale(0,0)"><g transform="translate(-196.73,-159.659988)"><path d="M194.56,160.41l2.17-.2c-2.43-29.43-5.48-59.46-18.81-86.32-.62-1.25-2.5-.15-1.89,1.09c13.18,26.55,16.13,56.33,18.53,85.43Z" fill="#007f68"/><path d="M176.17,74.15c0,0,3.82,14.3-.12,21.45s-7.2,8.58-2.49,17.51s17.3,10.08,18.14,16.88-6.03-43.7-15.53-55.84Z" fill="#007f68"/></g></g><g id="eDHUVcSmAQx13_ts" transform="translate(206.229996,159.819351) scale(0,0)"><g transform="translate(-206.229981,-159.81935)"><path d="M208,159.71c1.301759-22.78423,7.010517-45.099666,16.81-65.71.72-1.52-1.57-2.86-2.3-1.33-10.016412,21.029472-15.851204,43.80486-17.18,67.06q1.33-.02,2.67-.02Z" fill="#007f68"/><path d="M224.37,99.65c0-1.43-.32-4.25-.17-6.78q-.75.5-1.53,1c-5.2,12.62-12.94,42.26-15.27,51.35c3.15-6.8,16.1-7.73,19.88-17.51c1.676551-4.11923,1.755005-8.715957.22-12.89-1.72-5.17-3.05-9.76-3.13-15.17Z" fill="#007f68"/></g></g><g id="eDHUVcSmAQx16_ts" transform="translate(201.663795,148.840001) scale(0,0)"><g transform="translate(-201.663745,-148.839997)"><circle r="9.51" transform="translate(202.08 30.53)" fill="#007f68"/><circle r="6.1" transform="translate(216.67 53.61)" fill="#007f68"/><path d="M202.08,30.53c0,0-1.91,118.31,0,118.31" fill="none" stroke="#007f68" stroke-width="3" stroke-miterlimit="10"/><polyline points="216.67,53.61 216.67,72.35 201.66,72.35" fill="none" stroke="#007f68" stroke-width="3" stroke-miterlimit="10"/><circle r="6.1" transform="translate(188.89 61.04)" fill="#007f68"/><polyline points="188.88,61.04 188.88,85.64 201.24,85.64" fill="none" stroke="#007f68" stroke-width="3" stroke-miterlimit="10"/></g></g><path d="M231.85,134.93h-.1c.030692-.366987-.09332-.73011-.342082-1.001659s-.599653-.426832-.967918-.428341c-.0133-.438187-.221477-.847573-.567729-1.11645s-.79444-.369183-1.222271-.27355c-1.695935.366428-3.417788.600466-5.15.7-4.66-.34-9.26-1.17-13.27-3.63-.404239-.507097-.871319-.960735-1.39-1.35-.514045-.425483-1.221293-.531676-1.837626-.275919s-1.040604.831492-1.102374,1.495919c-.15,1.43,1.4,2.63,2.66,3.57-1.499413.312211-2.981443.702746-4.44,1.17-1.27.41-2.9.79-3.19,2.3-.124084.497349.021743,1.023339.384202,1.385798s.888449.508286,1.385798.384202l.45-.08c-.731987.360769-1.271798,1.020943-1.48,1.81-.110118.43253-.016343.891669.254561,1.246379s.689176.566019,1.135439.573621c.588317.00099,1.173918-.079782,1.74-.24-.079069.102608-.15251.209432-.22.32-.280182.505079-.233883,1.128276.117858,1.586408s.941835.663817,1.502142.523592c.66-.16,1.32-.33,2-.52-.169256.493505-.050056,1.040185.30928,1.418434s.89919.525308,1.40072.381566q3.95-1.25,7.82-2.72c4.322354-.838767,8.68967-1.426418,13.08-1.76.586269-.045331,1.094686-.42264,1.307915-.970636s.093534-1.169707-.307915-1.599364l.49-.08c1.52-.24,1.16-2.94-.45-2.82Z" fill="#ffe8e6"/><path d="M209.81,135.71l-7.33,2c-.171208.046944-.271944.223792-.225.395s.223792.271944.395.225l7.33-2c.171208-.046944.271944-.223792.225-.395s-.223792-.271944-.395-.225Z" fill="#42210b"/><path d="M211.29,138.66q-3.3,1.06-6.62,2c-.171208.046944-.271944.223792-.225.395s.223792.271944.395.225q3.32-1,6.62-2c.39-.13.23-.75-.17-.62Z" fill="#42210b"/><path d="M212.85,141.1l-4.6,1.66c-.38.14-.22.76.17.62l4.6-1.66c.38-.14.22-.72-.17-.62Z" fill="#42210b"/><g id="eDHUVcSmAQx27_tr" transform="translate(283.638885,129.990012) rotate(-23.352881)"><g transform="translate(-283.63888,-129.989974)"><path d="M270.25,106.42c0,0-18.65,11.05-38.78-.13l-1,14.7c0,0,22.13,8.81,37.75,5.21" fill="#68e1fd"/><path d="M270.25,106.42c0,0-18.65,11.05-38.78-.13l-1,14.7c0,0,22.13,8.81,37.75,5.21" opacity="0.32" fill="#124577"/><path d="M231.26,109.4c-1.181271-.264174-2.265308-.852948-3.13-1.7-.68-.8-.86-1.89-1.47-2.72-.565138-.922906-1.44656-1.60885-2.48-1.93-1.16-.24-2,1-1.82,2.08.369359,1.095714,1.029552,2.070449,1.91,2.82.06241.067669.129222.13114.2.19-.170334.458163-.38819.897225-.65,1.31-.022724.160923-.073493.316615-.15.46-.88,1.66-2.13,3.12-3.07,4.75-.115128.259292-.248808.509942-.4.75q-.13.26-.24.53c1.141567.204372,2.293192.347908,3.45.43c2.427606.539018,4.915897.754222,7.4.64.19-2.51.26-5.01.45-7.61Z" fill="#ffe8e6"/><path d="M226.42,114c-2.32-1-2.23-3.35-1.86-5.45.07-.4-.55-.57-.62-.17-.44,2.51-.36,5.12,2.31,6.24.38.12.55-.5.17-.62Z" fill="#42210b"/></g></g><path d="M243.72,197.08c0,0-.23,7.14-1.66,8.32s-8.2,4.9-11.37,5.07-2.92,3.47-1,5.43s16.23,1.11,17.25.08s5-7.47,4.38-7.57-.86,8.6-.3,8.9c.786911.198566,1.600605.269469,2.41.21l2.07-22.85" fill="#124577"/><path d="M256.69,164.37c1.47.12,15,1.72,25.29-2c2.57-3.62,4-8.1,5.09-12.32.978019-3.911861,1.62365-7.899387,1.93-11.92l-10.37.48c-10.214108.330611-20.379625,1.555291-30.38,3.66-5.82,1.31-12.43,2.66-16.62,7.29-4.77,5.26-3.35,12.56-2,18.86c2.294078,10.185063,5.428134,20.162529,9.37,29.83l25.08-3.75c0,0-10.08-30.35-7.39-30.13Z" fill="#f4a195"/><path d="M338.34,205.55c.43737-.367276.851501-.761368,1.24-1.18l-7.28-12.43-10.83-5.44-3.8,12.73c0,0,6.45.84,7.08,2.82s.88,4.19-.34,5.91c-1,1.45-2.64,2.36-3.76,3.74-.901668.896536-1.585852,1.987809-2,3.19-.36,1.78,2,2.85,5.35,2.5s6.6-4.46,7.49-5s0-13.53,1.29-13.17c.91.26,2.21,4,3.19,5.92Z" fill="#124577"/><path d="M321.7,195.75c.69-5.07,1.18-12-1.5-16.91L281,182.4c0,0,19.06-19.25,14-42.36l-25.89.64c0,0-38.25,56-12,65.61c11.14,4.1,41.82,1.48,62.72-1.74.855144-2.879246,1.480441-5.821817,1.87-8.8Z" fill="#ffb3a6"/><path d="M269.61,106.29c0,0-20.21,22.46-49,23.09l.64,15.13c0,0,27.8,3.2,45-11.18l2.9,7.34c0,0,14.7,7,26.21,1.6c0,0-.41-32.19-23.51-43" fill="#68e1fd"/><path d="M269.61,106.29c0,0-20.21,22.46-49,23.09l.64,15.13c0,0,27.8,3.2,45-11.18l2.9,7.34c0,0,14.7,7,26.21,1.6c0,0-.41-32.19-23.51-43" fill="#68e1fd"/><path d="M257.51,91.81c0,0-.78,14.5,6.31,16.24c8.1,2,13.54-9.19,9.91-15.48s-14.33-5.63-16.22-.76Z" fill="#ffe8e6"/><path d="M262.14,85.66c-2.877126.894882-5.23496,2.97618-6.48,5.72-.08.2-.15.4-.22.6-.084543.579246-.111341,1.165457-.08,1.75.008385,1.467436.894768,2.787162,2.25,3.35c0-2.34.31-4.59,2.4-6.62c0,0-.82,1.59,7,5.08c0,0,5.35,7.07,3.87,10.74.14-.35,1.12-.86,1.41-1.11c1.175384-.982662,2.24153-2.08904,3.18-3.3c6.53-8.6-4.08-19.14-13.33-16.21Z" fill="#f47a63"/><path d="M260,90.48c0,0,.23,6.62,8.13,7.83c4.79.73-5.34,9.51-.6,12.24s13.7-3.35,15.83-7.9-4.94-17.77-16.31-18.41c0,0-8.17-1.57-11.51,7.62" fill="#f47a63"/><path d="M262.18,98.49c-.166174-.012677-.314257.104311-.340384.268907s.078452.321689.240384.361093c.166174.012677.314257-.104311.340384-.268907s-.078452-.321689-.240384-.361093Z" fill="#42210b"/><path d="M258.6,97.78l-.18.06c-.39.13-.16.72.24.59l.18-.06c.39-.12.16-.72-.24-.59Z" fill="#42210b"/><path d="M271.4,98.31c-1.31-2.33-4.46.14-4.36,2.11.001431.170566.080521.331181.214848.436306s.309241.143297.475152.103694c.011174.076661.03482.150977.07.22-.15605.01966-.31395.01966-.47,0-.81-.16-1,1.11-.19,1.26c2,.36,5.6-1.75,4.26-4.13Zm-2.69,1.11c.060629.080567.139437.145669.23.19.203502.094407.44267.067404.62-.07-.028776.084029-.072851.162008-.13.23-.241253.30473-.611429.478713-1,.47h-.14c.040856-.314474.185083-.606447.41-.83Z" fill="#ffe8e6"/><path d="M260.91,102.13c-1.23-.06-.57-1.43-.38-2.07s.42-1.38.65-2.06c.13-.39-.49-.56-.62-.17-.23.68-.45,1.37-.64,2.06-.219011.566827-.370065,1.157614-.45,1.76c0,.85.73,1.09,1.45,1.12.4.02.4-.62-.01-.64Z" fill="#42210b"/><path d="M264.07,102.05c-.165523.566275-.518017,1.059767-1,1.4-.66284.280038-1.394833.353237-2.1.21-.4-.06-.58.56-.17.62.795102.154823,1.617227.092646,2.38-.18.704325-.351281,1.237707-.971157,1.48-1.72.13-.38-.42-.7-.59-.33Z" fill="#42210b"/><path d="M128,230.41c-.79-2.36-.41-4.37-2.19-6.46-1.35-1.58-2.77-3.1-4.15-4.65-.65-.72.42-1.8,1.07-1.07c1.89,2.12,4.75,4.4,5.84,7.07.62,1.51.34,3.2.9,4.72.708678,1.852946,2.295613,3.229791,4.23,3.67l5.81-7.06c1.073352-1.301732,2.987082-1.514369,4.32-.48l25,19.36c0,0,6.19,4.86,4.12,16.94-4.625765.084419-9.194398-1.031898-13.26-3.24-5.27-2.87-24.82-16.26-33.23-22.06-.548008-.371364-.790234-1.056367-.597489-1.689671s.775512-1.067222,1.437489-1.070329l4-.06c-1.546519-.854094-2.722073-2.25051-3.3-3.92Z" fill="#3a3f3b"/><path d="M120.75,215.29c0,0,.49-1.48-2-3.75s-25.1-18.54-30.44-16.76-5.73,6.38-3,9.37s25.3,16.93,27.22,17.38s5.52-1,5.52-1" fill="#68e1fd"/><polygon points="124.66,217.83 121.23,223.44 116.92,220.75 120.67,215.01 124.66,217.83" fill="#978c86"/><polyline points="155.42,159.66 155.42,160.95 154.77,161.75" fill="#adcee1"/><path d="M129.47,143.93l25.21,15.63c.471787.288951.755243.806166.744962,1.359312s-.312763,1.059469-.794962,1.330688l-38.26,21.64c-1.082904.625215-2.417096.625215-3.5,0l-25.1-14.75c-1.82-1.5-1.69-4.32,0-4.44l38-20.79c1.14021-.685119,2.567263-.677405,3.7.02Z" fill="#88d3d8"/><path d="M129.47,142.86l25.21,15.63c.471787.288951.755243.806166.744962,1.359312s-.312763,1.059469-.794962,1.330688l-38.26,21.64c-1.082904.625215-2.417096.625215-3.5,0L87.78,168c-.600151-.346571-.969845-.986969-.969845-1.68s.369694-1.333429.969845-1.68l38-21.87c1.150715-.659785,2.572819-.625099,3.69.09Z" fill="#fff"/><path d="M128.45,140.72c0,0-10.45-33.79-10.45-33.79s-.33-1.5-2.2-.65L75.67,129.93c0,0-1.95.79-1.57,2.6s10.23,33.07,10.23,33.07c.42403.607542,1.192691.870505,1.9.65c1.22-.38,41.27-23.64,41.27-23.64.767697-.278463,1.184543-1.107766.95-1.89Z" fill="#053855"/><polygon id="eDHUVcSmAQx53" points="117.38,109.39 76.23,133.38 84.77,162.03 126.44,138.75 117.38,109.39" opacity="0" fill="#5ed0ec"/><path d="M131,146.44l9.22,5.74c.337363.199857.544248.562882.544248.955s-.206885.755143-.544248.955L107.12,173c-1.006103.578502-2.243897.578502-3.25,0-2.13-1.24-5.79-3.47-8-4.85-.408889-.243423-.659421-.684138-.659421-1.16s.250532-.916577.659421-1.16l33.3-19.36c.559017-.342521,1.260056-.354013,1.83-.03Z" fill="#68e1fd"/><path d="M130.53,162L119,168.53c-.359812.204334-.582109.586216-.582109,1s.222297.795666.582109,1l6.8,4c.475918.277174,1.064082.277174,1.54,0l11.83-6.74c.285173-.184203.457414-.500509.457414-.84s-.172241-.655797-.457414-.84L132,162c-.457905-.25081-1.012095-.25081-1.47,0Z" fill="#68e1fd"/><path d="M131,146.44l9.22,5.74c.337363.199857.544248.562882.544248.955s-.206885.755143-.544248.955L107.12,173c-1.006103.578502-2.243897.578502-3.25,0-2.13-1.24-5.79-3.47-8-4.85-.408889-.243423-.659421-.684138-.659421-1.16s.250532-.916577.659421-1.16l33.3-19.36c.559017-.342521,1.260056-.354013,1.83-.03Z" opacity="0.1" fill="#053855"/><path d="M130.53,162L119,168.53c-.359812.204334-.582109.586216-.582109,1s.222297.795666.582109,1l6.8,4c.475918.277174,1.064082.277174,1.54,0l11.83-6.74c.285173-.184203.457414-.500509.457414-.84s-.172241-.655797-.457414-.84L132,162c-.457905-.25081-1.012095-.25081-1.47,0Z" opacity="0.1" fill="#053855"/></svg>
