<svg width="30" height="30" viewBox="0 0 30 30" fill="none" xmlns="http://www.w3.org/2000/svg">
<path d="M4.05649 0C1.82993 0 0 1.82993 0 4.05649V25.9525C0 28.1701 1.82993 30 4.05649 30H25.9525C28.1701 30 30 28.1701 30 25.9525V4.05649C30 1.82993 28.1701 0 25.9525 0H4.05649ZM4.05649 2.30769H25.9525C26.9261 2.30769 27.6923 3.07392 27.6923 4.05649V25.9525C27.6923 26.9261 26.9261 27.6923 25.9525 27.6923H4.05649C3.07392 27.6923 2.30769 26.9261 2.30769 25.9525V4.05649C2.30769 3.07392 3.07392 2.30769 4.05649 2.30769ZM6.92308 4.61538C5.65204 4.61538 4.61538 5.65204 4.61538 6.92308C4.61538 8.19411 5.65204 9.23077 6.92308 9.23077C8.19411 9.23077 9.23077 8.19411 9.23077 6.92308C9.23077 5.65204 8.19411 4.61538 6.92308 4.61538ZM4.61538 11.5385V25.3846H9.23077V11.5385H4.61538ZM11.5385 11.5385V25.3846H16.1538V19.2007C16.1538 17.2806 16.3341 15.5589 18.6418 15.5589C20.9135 15.5589 20.7692 17.6232 20.7692 19.3269V25.3846H25.3846V18.5517C25.3846 14.5853 24.5553 11.5385 20.0571 11.5385C17.8936 11.5385 16.8029 12.4038 16.2079 13.5577H16.1538V11.5385H11.5385Z" fill="white"/>
</svg>
