<?xml version="1.0" encoding="UTF-8" standalone="no"?> <svg id="Layer_1" data-name="Layer 1" xmlns="http://www.w3.org/2000/svg" viewBox="0 0 48 48"><defs><style>.cls-1{fill:#8fa5a5;}.cls-2{fill:#eaeff0;}.cls-3{fill:#d9e1e2;}.cls-4{fill:#009ae0;}.cls-5{fill:#0081bd;}.cls-6{fill:#7b8c8c;}</style></defs><title>Press Release</title><path class="cls-1" d="M43,11a3,3,0,0,1,3,3V39a3,3,0,0,1-3,3H37V11Z"/><path class="cls-2" d="M43,42H5a3,3,0,0,1-3-3V10A4,4,0,0,1,6,6H36a4,4,0,0,1,4,4V39A3,3,0,0,0,43,42Z"/><path class="cls-3" d="M2,10V39a3,3,0,0,0,3,3H40L3.206,7.143A3.985,3.985,0,0,0,2,10Z"/><rect class="cls-4" x="7" y="12" width="13" height="13" rx="2"/><path class="cls-5" d="M9,25h9a2,2,0,0,0,2-1.952L8.431,12.092A2,2,0,0,0,7,14v9A2,2,0,0,0,9,25Z"/><path class="cls-1" d="M34,15H24a1,1,0,0,1,0-2H34a1,1,0,0,1,0,2Z"/><path class="cls-1" d="M34,20H24a1,1,0,0,1,0-2H34a1,1,0,0,1,0,2Z"/><path class="cls-1" d="M34,25H24a1,1,0,0,1,0-2H34a1,1,0,0,1,0,2Z"/><path class="cls-1" d="M34,30H8a1,1,0,0,1,0-2H34a1,1,0,0,1,0,2Z"/><path class="cls-6" d="M8,30H27.333l-2.111-2H8a1,1,0,0,0,0,2Z"/><path class="cls-1" d="M34,35H8a1,1,0,0,1,0-2H34a1,1,0,0,1,0,2Z"/><path class="cls-6" d="M8,35H32.611L30.5,33H8a1,1,0,0,0,0,2Z"/></svg>