<?xml version="1.0" encoding="UTF-8" standalone="no" ?>
<!DOCTYPE svg PUBLIC "-//W3C//DTD SVG 1.1//EN" "http://www.w3.org/Graphics/SVG/1.1/DTD/svg11.dtd">
<svg xmlns="http://www.w3.org/2000/svg" xmlns:xlink="http://www.w3.org/1999/xlink" version="1.1" width="1080" height="1080" viewBox="0 0 1080 1080" xml:space="preserve">
<desc>Created with Fabric.js 5.2.4</desc>
<defs>
</defs>
<g transform="matrix(1 0 0 1 540 540)" id="3da24059-c1cd-4ecc-962c-30be43cf039a"  >
<rect style="stroke: none; stroke-width: 1; stroke-dasharray: none; stroke-linecap: butt; stroke-dashoffset: 0; stroke-linejoin: miter; stroke-miterlimit: 4; fill: rgb(255,255,255); fill-rule: nonzero; opacity: 1; visibility: hidden;" vector-effect="non-scaling-stroke"  x="-540" y="-540" rx="0" ry="0" width="1080" height="1080" />
</g>
<g transform="matrix(1 0 0 1 540 540)" id="fae31e6b-ba7b-4328-bb3b-29b9ce18c4e9"  >
</g>
<g transform="matrix(25.1 0 0 25.1 540 594.96)"  >
<path style="stroke: none; stroke-width: 1; stroke-dasharray: none; stroke-linecap: butt; stroke-dashoffset: 0; stroke-linejoin: miter; stroke-miterlimit: 4; fill: rgb(68,76,99); fill-rule: nonzero; opacity: 1;" vector-effect="non-scaling-stroke"  transform=" translate(-32, -34)" d="M 46 15 L 42 15 L 41 15 L 18 15 C 16.9 15 16 15.9 16 17 L 16 51 C 16 52.1 16.9 53 18 53 L 46 53 C 47.1 53 48 52.1 48 51 L 48 17 C 48 15.9 47.1 15 46 15 z" stroke-linecap="round" />
</g>
<g transform="matrix(25.1 0 0 25.1 540 594.96)"  >
<path style="stroke: none; stroke-width: 1; stroke-dasharray: none; stroke-linecap: butt; stroke-dashoffset: 0; stroke-linejoin: miter; stroke-miterlimit: 4; fill: rgb(255,255,255); fill-rule: nonzero; opacity: 1;" vector-effect="non-scaling-stroke"  transform=" translate(-32, -34)" d="M 45 19 L 45 49 C 45 49.5 44.5 50 44 50 L 20 50 C 19.5 50 19 49.5 19 49 L 19 19 C 19 18.5 19.5 18 20 18 L 44 18 C 44.5 18 45 18.5 45 19 z" stroke-linecap="round" />
</g>
<g transform="matrix(25.1 0 0 25.1 540 594.96)" id="Layer_1"  >
<polygon style="stroke: none; stroke-width: 1; stroke-dasharray: none; stroke-linecap: butt; stroke-dashoffset: 0; stroke-linejoin: miter; stroke-miterlimit: 4; fill: rgb(41,206,127); fill-rule: nonzero; opacity: 1;" vector-effect="non-scaling-stroke"  points="8,-4 -3,6 -8,1 -6,-1 -3,2 6,-6 " />
</g>
<g transform="matrix(25.1 0 0 25.1 540 105.54)"  >
<path style="stroke: none; stroke-width: 1; stroke-dasharray: none; stroke-linecap: butt; stroke-dashoffset: 0; stroke-linejoin: miter; stroke-miterlimit: 4; fill: rgb(255,181,51); fill-rule: nonzero; opacity: 1;" vector-effect="non-scaling-stroke"  transform=" translate(-32, -14.5)" d="M 36 13 C 36 10.6 34.4 9 32 9 C 29.6 9 28 10.6 28 13 L 23 13 L 23 15 L 23 20 L 41 20 L 41 15 L 41 13 L 36 13 z M 32 14.5 C 31.2 14.5 30.5 13.8 30.5 13 C 30.5 12.2 31.2 11.5 32 11.5 C 32.8 11.5 33.5 12.2 33.5 13 C 33.5 13.8 32.8 14.5 32 14.5 z" stroke-linecap="round" />
</g>
<g transform="matrix(25.1 0 0 25.1 540 208.44)" id="Layer_1"  >
<rect style="stroke: none; stroke-width: 1; stroke-dasharray: none; stroke-linecap: butt; stroke-dashoffset: 0; stroke-linejoin: miter; stroke-miterlimit: 4; fill: rgb(255,208,92); fill-rule: nonzero; opacity: 1;" vector-effect="non-scaling-stroke"  x="-9" y="-1.4" rx="0" ry="0" width="18" height="2.8" />
</g>
</svg>