<svg width="343" height="72" viewBox="0 0 343 72" fill="none" xmlns="http://www.w3.org/2000/svg">
<path d="M0.4 71H16.6V42.9H20.2C24.9 42.9 26.9 45.5 26.9 52.4V71H43.2V52C43.2 42.7 39.6 37.6 32.8 35.9V35.7C38.9 33.7 43.3 28.1 43.3 19.5C43.3 7.9 36 1.2 24.1 1.2H0.4V71ZM16.6 28.8V14.1H20.4C24.7 14.1 27.2 16.6 27.2 21.3C27.2 26 24.7 28.8 20.4 28.8H16.6ZM45.0422 71H60.9422L62.4422 61.9H77.8422L79.3422 71H95.7422L81.8422 1.2H58.7422L45.0422 71ZM64.6422 48.8L70.1422 16.2H70.3422L75.7422 48.8H64.6422ZM98.7398 71H114.94V1.2H98.7398V71ZM121.787 71H135.787L135.487 25.1H135.687L150.587 71H170.287V1.2H156.287L156.787 47.3H156.487L141.587 1.2H121.787V71Z" fill="#3056C5"/>
<path d="M226.073 71.7C229.273 71.7 232.773 71.3 236.173 70.6V53C232.673 54.4 229.173 55 226.373 55C216.173 55 208.673 48 208.673 36.1C208.673 24.2 216.173 17.2 226.373 17.2C229.173 17.2 232.673 17.8 236.173 19.2V1.6C232.773 0.899997 229.273 0.499996 226.073 0.499996C205.373 0.499996 190.973 14.5 190.973 36.1C190.973 57.7 205.373 71.7 226.073 71.7ZM241.416 71H257.616V1.2H241.416V71ZM270.963 71H287.163V16.3H296.263V1.2H261.763V16.3H270.963V71ZM311.191 71H327.991V49.9L342.491 1.2H326.591L319.891 31.6H319.691L313.391 1.2H296.691L311.191 49.5V71Z" fill="black"/>
</svg>
