<svg id="evaBfOXkSAN1" xmlns="http://www.w3.org/2000/svg" xmlns:xlink="http://www.w3.org/1999/xlink" viewBox="0 0 400 300" shape-rendering="geometricPrecision" text-rendering="geometricPrecision">
<style><![CDATA[
#evaBfOXkSAN2 {animation: evaBfOXkSAN2_c_o 3000ms linear 1 normal forwards}@keyframes evaBfOXkSAN2_c_o { 0% {opacity: 0} 40% {opacity: 1} 100% {opacity: 1}} #evaBfOXkSAN7_ts {animation: evaBfOXkSAN7_ts__ts 3000ms linear 1 normal forwards}@keyframes evaBfOXkSAN7_ts__ts { 0% {transform: translate(142.915001px,54.643663px) scale(0,0)} 20% {transform: translate(142.915001px,54.643663px) scale(0,0);animation-timing-function: cubic-bezier(0.445,0.05,0.55,0.95)} 43.333333% {transform: translate(142.915001px,54.643663px) scale(1,1)} 100% {transform: translate(142.915001px,54.643663px) scale(1,1)}} #evaBfOXkSAN11_ts {animation: evaBfOXkSAN11_ts__ts 3000ms linear 1 normal forwards}@keyframes evaBfOXkSAN11_ts__ts { 0% {transform: translate(304.574997px,72.883659px) scale(0,0)} 30% {transform: translate(304.574997px,72.883659px) scale(0,0);animation-timing-function: cubic-bezier(0.445,0.05,0.55,0.95)} 53.333333% {transform: translate(304.574997px,72.883659px) scale(1,1)} 100% {transform: translate(304.574997px,72.883659px) scale(1,1)}} #evaBfOXkSAN35_ts {animation: evaBfOXkSAN35_ts__ts 3000ms linear 1 normal forwards}@keyframes evaBfOXkSAN35_ts__ts { 0% {transform: translate(73.695px,154.133663px) scale(0,0)} 10% {transform: translate(73.695px,154.133663px) scale(0,0);animation-timing-function: cubic-bezier(0.445,0.05,0.55,0.95)} 33.333333% {transform: translate(73.695px,154.133663px) scale(1,1)} 100% {transform: translate(73.695px,154.133663px) scale(1,1)}}
]]></style>
<defs><linearGradient id="evaBfOXkSAN5-fill" x1="258.32" y1="249.58" x2="233.54" y2="223.64" spreadMethod="pad" gradientUnits="userSpaceOnUse" gradientTransform="translate(0 0)"><stop id="evaBfOXkSAN5-fill-0" offset="0%" stop-color="rgba(255,255,255,0)"/><stop id="evaBfOXkSAN5-fill-1" offset="100%" stop-color="#9e005d"/></linearGradient><linearGradient id="evaBfOXkSAN6-fill" x1="101.69" y1="195.75" x2="81.77" y2="169.85" spreadMethod="pad" gradientUnits="userSpaceOnUse" gradientTransform="translate(0 0)"><stop id="evaBfOXkSAN6-fill-0" offset="0%" stop-color="rgba(255,255,255,0)"/><stop id="evaBfOXkSAN6-fill-1" offset="100%" stop-color="#9e005d"/></linearGradient><linearGradient id="evaBfOXkSAN43-fill" x1="368.13" y1="201.37" x2="360.79" y2="189.06" spreadMethod="pad" gradientUnits="userSpaceOnUse" gradientTransform="translate(0 0)"><stop id="evaBfOXkSAN43-fill-0" offset="0%" stop-color="rgba(255,255,255,0)"/><stop id="evaBfOXkSAN43-fill-1" offset="100%" stop-color="#9e005d"/></linearGradient></defs><g id="evaBfOXkSAN2" style="isolation:isolate" opacity="0"><g><path d="M195.22,288.83L15.5,182.61c-5.72-3.21-10.63-8.49-5.05-11.94l180.37-104c2.71-1.68,6.82-2.78,9.57-1.18L389,175c5.72,3.32,6.75,12.6,1,15.93L218.91,288.66c-7.311039,4.241771-16.318838,4.306411-23.69.17Z" fill="#dd6f31"/><path style="mix-blend-mode:multiply" d="M245.8,204.75l-50,25.85L239,256.68c.36,0,1.37,10.27-1.35.74c16.7-9.21,37.54-17,49.4-24.31-17.9-12.32-28.25-20.32-41.25-28.36Z" opacity="0.63" fill="url(#evaBfOXkSAN5-fill)"/><path style="mix-blend-mode:multiply" d="M103.44,158.33L44,191.27l43.19,26.07c.36,0,1.37,10.27-1.35.74c16.7-9.21,49.58-26.13,61.44-33.46-17.83-12.32-30.84-18.26-43.84-26.29Z" opacity="0.63" fill="url(#evaBfOXkSAN6-fill)"/><g id="evaBfOXkSAN7_ts" transform="translate(142.915001,54.643663) scale(0,0)"><g transform="translate(-142.915001,-54.643663)"><path d="M113.22,48.77v41.53c.000955.852356.455775,1.639694,1.193661,2.066349s1.647151.428046,2.386339.003651l55.81-29.22v-46.53Z" fill="#68e1fd"/><path d="M113.22,48.77c0,0,32.48,5.34,36.07,4.23s23.32-36.4,23.32-36.4Z" fill="#68e1fd"/><path d="M113.22,48.77c0,0,32.48,5.34,36.07,4.23s23.32-36.4,23.32-36.4Z" opacity="0.82" fill="#124577"/></g></g><g id="evaBfOXkSAN11_ts" transform="translate(304.574997,72.883659) scale(0,0)"><g transform="translate(-304.574997,-72.883659)"><path d="M334.27,67v41.53c-.000955.852356-.455775,1.639694-1.193661,2.066349s-1.647151.428046-2.386339.003651L274.88,81.42v-46.52Z" fill="#68e1fd"/><path d="M334.27,67c0,0-32.47,5.34-36.07,4.25s-23.32-36.4-23.32-36.4Z" fill="#68e1fd"/><path d="M334.27,67c0,0-32.47,5.34-36.07,4.25s-23.32-36.4-23.32-36.4Z" opacity="0.82" fill="#124577"/></g></g><path d="M40.59,79.91c44.86,16.89,30,94,30,94s4.27-78.7,49.68-105.94s136.08-36.37,172.47,10.64c3.37,4.35,6.76,8.05,8.71,13.38c3.061094,8.50107,1.17174,17.997865-4.91,24.68-9.56,10-28.3,7.74-38.93.64-9.57-6.39-15.45-16.79-23.37-24.89-7.49-7.66-16.59-11.75-27.28-8.54-4.473436,1.345692-8.494647,3.887042-11.63,7.35-11.3,12.52-11.58,31.18-4.8,45.93" fill="none" stroke="#2e3192" stroke-width="2" stroke-linecap="round" stroke-miterlimit="10" stroke-dasharray="5,5"/><path d="M196.95,218.25l1.3-1-1.15-15.18-6.75.24c0,0,.34,6.49-1.1,8.08s-5.5.82-5.87,1-3.08-.41-4.18.88s4.38,4.42,7.21,4.86c1.928267.243603,3.883138.176078,5.79-.2s.32-3.93,1.31-3.61s1.37,4.42,1.37,4.42Z" fill="#9c4100"/><path d="M199.73,170.47c.56,15.88,1.15,36.56,1.15,36.56s-3.66,4.93-13.61,2.83c-1.07-.23-3.44-25.53-4.6-38.69c5.562804-1.505923,11.392522-1.745126,17.06-.7Z" fill="#653200"/><path d="M179.36,231.28l1.3-1-1.15-15.18-6.75.24c0,0,.34,6.49-1.1,8.08s-5.5.82-5.87,1-3.08-.41-4.18.88s4.38,4.42,7.21,4.86c1.928267.243603,3.883138.176078,5.79-.2s.32-3.93,1.31-3.61s1.37,4.42,1.37,4.42Z" fill="#9c4100"/><path d="M176.46,173.35c4.43744-1.989597,9.196514-3.16497,14.05-3.47-.83,5.94-1.59,10.06-1.72,10.37-.33.75-6.5,38.47-6.5,38.47-7.3,2.91-15.91.48-15.91.48s3-29.43,3.22-34.34q0-.79.09-1.59c.229375-4.310696,2.839449-8.135207,6.77-9.92Z" fill="#653200"/><path d="M221.29,182.12c0,0-12.35-11.07-21.56-11.66s-22.31,8.86-21.28,14.35s18.65,17.29,18.65,17.29" fill="#653200"/><path d="M196,162.36l9.84-6.89c.815038-.567282,1.109369-1.635283.7-2.54l-7-15.34c-.251568-.543342-.723106-.953462-1.29608-1.127264s-1.192892-.094757-1.70392.217264l-11,6.78c-.923502.565739-1.251238,1.74996-.75,2.71L193,161.63c.284371.512898.770259.883517,1.340087,1.022175s1.171679.032722,1.659913-.292175Z" fill="#1784aa"/><path d="M196.9,161.83l9.84-6.89c.815038-.567282,1.109369-1.635283.7-2.54l-7-15.34c-.251568-.543342-.723106-.953462-1.29608-1.127264s-1.192892-.094757-1.70392.217264l-11,6.78c-.923502.565739-1.251238,1.74996-.75,2.71l8.13,15.45c.280778.538577.780987.92921,1.371554,1.0711s1.213641.021136,1.708446-.3311Z" fill="#29abe2"/><polygon points="195.26,160.89 206.34,153.14 199.07,137.16 186.76,144.75 195.26,160.89" fill="#e4f5fd"/><path d="M200.39,143.94c3.66,2,9.4,4.25,13.25,6.88.62.42,1.54,1.87.93,1.66.26.29-2.26,1.28-2,1.6.08.11-1.63-.82-1.72-.78v0c-1.450904.76085-3.131342.960224-4.72.56l-.64-.46v0l-.16-.09c-.028457-.044048-.065952-.081543-.11-.11l-.1-.07c-.016124-.091529-.066103-.173637-.14-.23-.85-.66-2.71-1-2.91-2.12.033938-.29502.125686-.580458.27-.84.0929-.139542.062363-.327129-.07-.43-.141673-.671441-.004523-1.371628.38-1.94l.05-.06-.22-.25c-1.001757-.692369-1.951006-1.457785-2.84-2.29-.097588-.089049-.161214-.209232-.18-.34-.010115-.056215-.010115-.113785,0-.17.036684-.20296.162237-.378867.342256-.479523s.395626-.115504.587744-.040477Z" fill="#e85454"/><path d="M202.15,148.62c-.170379.17477-.261505.411844-.252052.655738s.118656.473204.302052.634262c-.003178.019874-.003178.040126,0,.06-.267562.446304-.267562,1.003696,0,1.45.474263.507007,1.064488.89134,1.72,1.12.206113.10785.429461.178916.66.21c1,1.59,4,1.9,5.47.82.19-.14-.06-.4-.25-.26-1.22.91-3.94.63-4.87-.7l.07-.08c.161744-.420207.101636-.893555-.16-1.26.158673-.119991.300009-.261327.42-.42.011478-.035768.011478-.074232,0-.11l1.43.73c.21.11.4-.2.19-.31L204.62,150c-.58-.31-2.6-1.07-2-2s3.72,1.27,4.44,1.75c.19.13.38-.18.19-.31-1.152366-.797634-2.377866-1.484048-3.66-2.05-.63-.27-1-.24-1.31.46-.118241.238256-.163467.506131-.13.77Zm.32,1.55l.29.22.89.55c.215339.178544.458588.320439.72.42v0c.17.27.45.88,0,1-.24.06-.81-.34-1-.48-.374301-.162215-.698723-.421062-.94-.75-.134517-.309216-.119774-.663046.04-.96Zm-.16-1.17c.138583.191285.315726.351395.52.47.67.41,1.38.78,2.09,1.13-.48.55-.89.16-1.39-.15s-1.58-.82-1.21-1.45Z" fill="#653200"/><path d="M211.34,148.09c0,0-2.47.55-2.66,5.69l1.85,4.56l10.07-5.17c0,0-2.4-3.01-9.26-5.08Z" fill="#68e1fd"/><path d="M187.48,150.49c.75,1.64,1.49,3.12,2.13,4.8.46-1.11.89-2,1.44-3.09.023986-.035392.050736-.06883.08-.1.214661-.334292.628508-.480707,1.005635-.355784s.621725.489449.594365.885784c-.175513,1.015289-.575212,1.978666-1.17,2.82.08533.043897.162999.101305.23.17c1.45,1.6,1.1,4,.93,6-.016401.262872-.167736.498512-.399963.622774s-.512236.119429-.740037-.012774c-.136511.001371-.270991-.033112-.39-.1-1.300179-.885467-2.231952-2.215554-2.62-3.74-.88-2.5-1.94-5.26-1.09-7.9Z" fill="#e85454"/><path d="M225.06,150.36l-3.64-1.07c-.9.13-8.78,3.31-12.05,8.86-.396277,1.690635-.663711,3.4089-.8,5.14-.3,2.31-.54,4.63-.66,7-.151924,2.529396-.111809,5.066671.12,7.59.11,1.08.18,1.62.37,2.69.424272.363414.908024.650959,1.43.85c10.92,3.75,18.93-2.33,19.26-3.2s.85-13.33,1.11-20.74c.121211-3.270936-1.997199-6.205388-5.14-7.12Z" fill="#68e1fd"/><path d="M215.43,137.53c0,0-2.43,12.2,2.09,13.47s9.89-3.77,10.28-6.28-6-11.26-12.37-7.19Z" fill="#e85454"/><path d="M217.19,142.41c-.14-.2-2.75-.88-3.3-3.06s1.44-5,6-5.44s12.17,2,11,13.88-13.22,6.75-14,3c-.42743-2.78737-.325654-5.63033.3-8.38Z" fill="#653200"/><path d="M217.19,142.41c0,0-.76,4-2.42,5.78s-3,4.91-1,7.32s0,3.72-2.87,6-1.1,11.7,9.26,9.4s15.25-8.49,15.25-8.49-2.63-18.42-5.41-22.73" fill="#653200"/><path d="M209.35,158.33c0,0-2.35,7.78-4.69,8s-5.9-3.2-8.4-7.67c0,0-6.51-.61-7.2,6.24c0,0,8.26,16.56,20.29,12.52" fill="#68e1fd"/><path d="M252.59,217.63c7.4-9.13,10.8-20.81,10.65-32.5-.087326-9.488572-3.834508-18.577101-10.46-25.37-6.11-6.19-15.31-9.25-23.49-5-6.78,3.48-10.07,10.17-12.43,17C214,179.93,213.07,190.44,203,193c-3.92,1-8,.31-12.07,0-7-.47-14.45,1.79-16.64,9.2-3.92,13.28,14.13,24.62,24.28,28.9c17.66,7.46,39,2.74,52-11.13q1.03-1.12,2.02-2.34Z" fill="#7ec971"/><path d="M174.6,202.39c7.18,12.84,30.55,18.64,43.3,18c11.57-.59,18.88-7.57,18.09-19.16-.43-6.36-2.48-12.71-1.9-19.11c1-10.91,11.45-19.87,22.14-17.74c4.564228,6.239588,7.064108,13.749719,7.15,21.48.15,11.69-3.24,23.37-10.65,32.5q-1,1.22-2.07,2.38c-13,13.87-34.31,18.59-52,11.13-10.15-4.29-28.2-15.62-24.28-28.9.08-.21.16-.39.22-.58Z" fill="#61af51"/><g id="evaBfOXkSAN35_ts" transform="translate(73.695,154.133663) scale(0,0)"><g transform="translate(-73.694999,-154.133663)"><path d="M44,148.25v41.53c.000955.852356.455775,1.639694,1.193661,2.066349s1.647151.428046,2.386339.003651l55.81-31v-44.75Z" fill="#68e1fd"/><path d="M44,148.25c0,0,32.47,5.34,36.07,4.25s23.32-36.4,23.32-36.4Z" fill="#68e1fd"/><path d="M44,148.25c0,0,32.47,5.34,36.07,4.25s23.32-36.4,23.32-36.4Z" opacity="0.82" fill="#124577"/></g></g><polygon points="270.96,112.44 275.26,134.34 289.54,121.56 270.96,112.44" fill="#033e93"/><polygon points="247.92,50.08 256.62,59.3 259.61,48.83 247.92,50.08" fill="#033e93"/><polygon points="136.63,66.84 130.26,55.88 124.97,65.39 136.63,66.84" fill="#033e93"/><polygon points="34.75,77.9 43.44,87.12 46.44,76.66 34.75,77.9" fill="#033e93"/><path style="mix-blend-mode:multiply" d="M361.17,206.45c9-5.32,18.87-9.4,27.39-15.49-9.21-6-18.44-11.88-28-17.1l-24.37,18.56l24,14.45Z" opacity="0.63" fill="url(#evaBfOXkSAN43-fill)"/><ellipse rx="19.2" ry="17.85" transform="translate(347.46 178)" fill="#68e1fd"/><ellipse rx="14.38" ry="7.78" transform="translate(347.45 167.46)" fill="#1d3f75"/><path d="M346.71,104.78v61c0,.67931.55069,1.23,1.23,1.23s1.23-.55069,1.23-1.23v-61c0-.67931-.55069-1.23-1.23-1.23s-1.23.55069-1.23,1.23Z" fill="#1c7377"/><path d="M352.48,102.51c.759686-1.436134.893541-3.121979.37-4.66-.56-1.68-1.38-3.3-2-4.94s-1.25-3.09-2-4.6v0c-.72.36-5.87,8.11-6.08,11.37s4.07,6,4.07,6l1.29.82c.23.15,2.47-1.7,2.72-1.92.670707-.579415,1.224039-1.282113,1.63-2.07Z" fill="#1c7377"/><path d="M348.65,120.27v0c5.44-.53,9.19-5.11,11.75-9.86-5.77.3-11.07,3.94-11.75,9.86Z" fill="#1c7377"/><path d="M348.22,120.07v0c-1.65-5.21-6.91-7.93-12.09-9.44c1.5,5.57,6.16,10,12.09,9.44Z" fill="#1c7377"/><path d="M347.92,135.25v0c6.92-.67,11.7-6.5,15-12.54-7.38.37-14.13,4.99-15,12.54Z" fill="#1c7377"/><path d="M347.39,135v0c-2.1-6.63-8.79-10.09-15.38-12c1.89,7.07,7.82,12.71,15.38,12Z" fill="#1c7377"/><path d="M348.45,152.81v0c7.88-.77,13.33-7.41,17-14.29-8.31.43-16.01,5.7-17,14.29Z" fill="#1c7377"/><path d="M347.84,152.52v0c-2.39-7.55-10-11.5-17.53-13.7c2.16,8.09,8.92,14.52,17.53,13.7Z" fill="#1c7377"/></g></g></svg>
