<svg xmlns="http://www.w3.org/2000/svg" xmlns:xlink="http://www.w3.org/1999/xlink" viewBox="0 0 400 300" width="406" height="306" class="illustration styles_illustrationTablet__1DWOa"><defs><linearGradient id="linear-gradient" x1="39.05" y1="145.41" x2="41.2" y2="143.12" gradientUnits="userSpaceOnUse"><stop offset="0" stop-color="#ff734d" stop-opacity="0"></stop><stop offset="1" stop-color="#42210b"></stop></linearGradient><linearGradient id="linear-gradient-2" x1="66.36" y1="127.74" x2="68.51" y2="125.46" xlink:href="#linear-gradient"></linearGradient><linearGradient id="linear-gradient-3" x1="82.49" y1="119.21" x2="84.64" y2="116.93" xlink:href="#linear-gradient"></linearGradient><linearGradient id="linear-gradient-4" x1="147.98" y1="80.41" x2="150.13" y2="78.12" xlink:href="#linear-gradient"></linearGradient><linearGradient id="linear-gradient-5" x1="286.96" y1="219.09" x2="280.43" y2="225.3" gradientTransform="matrix(-1, 0, 0, 1, 403.38, 0)" gradientUnits="userSpaceOnUse"><stop offset="0" stop-color="#7f4e00"></stop><stop offset="1" stop-color="#fff"></stop></linearGradient><linearGradient id="linear-gradient-6" x1="262.38" y1="205.01" x2="255.86" y2="211.22" xlink:href="#linear-gradient-5"></linearGradient><linearGradient id="linear-gradient-7" x1="235.32" y1="187.81" x2="228.79" y2="194.02" xlink:href="#linear-gradient-5"></linearGradient><linearGradient id="linear-gradient-8" x1="210.74" y1="173.73" x2="204.21" y2="179.94" xlink:href="#linear-gradient-5"></linearGradient><linearGradient id="linear-gradient-9" x1="158.05" y1="145.58" x2="151.52" y2="151.79" xlink:href="#linear-gradient-5"></linearGradient><linearGradient id="linear-gradient-10" x1="133.47" y1="131.5" x2="126.95" y2="137.71" xlink:href="#linear-gradient-5"></linearGradient><linearGradient id="linear-gradient-11" x1="248.28" y1="105.56" x2="263.16" y2="118.05" gradientTransform="matrix(1, 0, 0, 1, 0, 0)" xlink:href="#linear-gradient-5"></linearGradient><linearGradient id="linear-gradient-12" x1="181.14" y1="113.05" x2="175.13" y2="118.77" xlink:href="#linear-gradient-5"></linearGradient><linearGradient id="linear-gradient-13" x1="203.23" y1="130.81" x2="220.36" y2="145.19" gradientTransform="matrix(1, 0, 0, 1, 0, 0)" xlink:href="#linear-gradient-5"></linearGradient><linearGradient id="linear-gradient-14" x1="220.3" y1="139.25" x2="213.77" y2="145.46" xlink:href="#linear-gradient-5"></linearGradient><linearGradient id="linear-gradient-15" x1="233.44" y1="143.63" x2="227.42" y2="149.35" xlink:href="#linear-gradient-5"></linearGradient><linearGradient id="linear-gradient-16" x1="102.91" y1="165.98" x2="124.38" y2="184" gradientTransform="matrix(1, 0, 0, 1, 0, 0)" xlink:href="#linear-gradient-5"></linearGradient><linearGradient id="linear-gradient-17" x1="224.5" y1="159.99" x2="253.92" y2="184.68" gradientTransform="matrix(1, 0, 0, 1, 0, 0)" xlink:href="#linear-gradient-5"></linearGradient></defs><title>PP</title><g style="isolation: isolate;"><g id="Layer_5" data-name="Layer 5"><path d="M14.77,150c.86-.49,11.92-57.94,31.37-62.49,12.66-3,18,17.39,34.14,7.57S96.35,72.6,106.58,75.67s7,15,20-1.2,23.15-30.06,42.26-27.18S197.55,49,197.55,49Z" fill="#398de7"></path><path d="M208.17,224.81c24.72-11.34,53.44-13.21,66.2-49.36S311.27,115,311.27,115L197.55,49c-2.76-1.6-6.88-.5-9.59,1.18L7.18,154.38c-5.59,3.46-.67,8.75,5.06,12L179.2,265h0S183.45,236.15,208.17,224.81Z" fill="#006d29"></path><path d="M216.11,272.64l171.54-97.93c5.74-3.33,4.71-12.63-1-16L311.27,115s-24.14,24.29-36.9,60.44-41.47,38-66.2,49.36-29,40.21-29,40.21h0l13.17,7.78A24,24,0,0,0,216.11,272.64Z" fill="#398de7"></path><path d="M276.5,143.05c-4.7,8-7.52,15.19-12.15,23.24-3.44,6-6.39,15.09-11.41,19.87-10.13,9.64-24,12.3-36.65,17.29-11.84,4.68-23.7,10.52-32.56,19.89-9.25,9.79-13.54,22.42-14.89,35.56L179.2,265s4.24-28.87,29-40.21,53.44-13.21,66.2-49.36S311.27,115,311.27,115l-9.83-5.7C293.65,121.11,283.66,130.85,276.5,143.05Z" fill="#f9b176"></path><path d="M275.3,94.13l-41.88,24.14-98.57,56.81c-18.63,10.74-40.77,28.62-62.47,12.09-4.93-3.76-7.58-10.83-6.74-17,1.31-9.71,14.49-14.5,22.49-18.86,14-7.63,27.75-15.73,41.62-23.6l65.88-37.36,43.46-24.64c-6.22-3.73-12.43-7.46-19-10.63l-.06-.05-164,94.5c-19.33,14.51-14.29,34.3-14.29,34.3l38.44,22.72,27,16L301.44,109.3C295.19,105.93,267,89.21,275.3,94.13Z" fill="#c8bebc"></path><path d="M127.58,84.91c-5.49,2.93-10.88,6-16.44,8.83l36.73,21.14,15.77-9.32Z" fill="#c8bebc"></path><path d="M59.09,124.59c-5.39,2.86-10.57,6.1-15.84,9.18L74.84,152l15.77-9.32Z" fill="#c8bebc"></path><path d="M124.05,128.37c-5.05,3.12-10.06,6.31-15,9.6l51.43,29.61,15.77-9.32Z" fill="#c8bebc"></path><path d="M31.45,102c-.66,1.21-2.27,4.45,1.18,2.73s5.69-11.56,7.07-7.25S37,116.8,41.22,111.28s2.63-15.53,5.9-13.8,3.8,8.8,5.18,3.28,1.24-7.42,4.16-6A5.55,5.55,0,0,0,62,93.95s-6.8-8.26-16.62-6.47C38.13,88.81,31.45,102,31.45,102Z" fill="#8dc8fc"></path><path d="M37.41,144.94c.26,0,.47,0,.58.08-.18,1.81,1.12.93,1.69,1.39l.49-.21q1.49-1.49,3-3c-.34-.25-.68-.51-1-.77A31.77,31.77,0,0,0,37.41,144.94Z" opacity="0.41" fill="url(#linear-gradient)"></path><path d="M43.31,143.25v-8.94H41.36v9A2.6,2.6,0,0,0,43.31,143.25Z" fill="#a83f1e"></path><path d="M42.54,134.33v9.16a2,2,0,0,0,.78-.22v-8.94Z" fill="#7f2b14"></path><path d="M44.64,130a.52.52,0,0,1,.31-.76,8.54,8.54,0,0,1,1-.08.54.54,0,0,0,.09-.19c0-.1-.08-.31-.25-.58s-.38-.47-.59-.7c-1-1-2-2-3-3.05-1.3,1.29-2.69,2.5-4.06,3.72a1.17,1.17,0,0,0-.15.37,5.86,5.86,0,0,1,1.73.47.52.52,0,0,1,.18.7A11.77,11.77,0,0,1,38.41,132c-.49.65-.95,1.32-1.41,2,1.09.1,3.21.07,2.67,1.48a8.12,8.12,0,0,1-1.44,1.83,20.17,20.17,0,0,0-1.57,2.47h0c.28.47,1.17.62,1.69.73a16.81,16.81,0,0,0,3.47.33,10.68,10.68,0,0,0,3.45-.52,4.88,4.88,0,0,0,1.66-.91,20.86,20.86,0,0,1-2.55-4.19.52.52,0,0,1,.36-.63c.88-.27,1.79-.47,2.67-.73,0,0,0,0,0-.06-.44-.59-1-1.1-1.43-1.68S45.15,130.64,44.64,130Z" fill="#0a3a16"></path><path d="M64.72,127.28c.26,0,.47,0,.58.08-.18,1.81,1.12.93,1.69,1.39l.49-.21q1.49-1.49,3-3c-.34-.25-.68-.51-1-.77A31.77,31.77,0,0,0,64.72,127.28Z" opacity="0.41" fill="url(#linear-gradient-2)"></path><path d="M70.62,125.58v-8.94H68.68v9A2.6,2.6,0,0,0,70.62,125.58Z" fill="#a83f1e"></path><path d="M69.85,116.67v9.16a2,2,0,0,0,.78-.22v-8.94Z" fill="#7f2b14"></path><path d="M72,112.29a.52.52,0,0,1,.31-.76,8.54,8.54,0,0,1,1-.08.54.54,0,0,0,.09-.19c0-.1-.08-.31-.25-.58s-.38-.47-.59-.7c-1-1-2-2-3-3.05-1.3,1.29-2.69,2.5-4.06,3.72a1.17,1.17,0,0,0-.15.37,5.86,5.86,0,0,1,1.73.47.52.52,0,0,1,.18.7,11.77,11.77,0,0,1-1.59,2.13c-.49.65-.95,1.32-1.41,2,1.09.1,3.21.07,2.67,1.48a8.12,8.12,0,0,1-1.44,1.83A20.17,20.17,0,0,0,64,122.09h0c.28.47,1.17.62,1.69.73a16.81,16.81,0,0,0,3.47.33,10.68,10.68,0,0,0,3.45-.52,4.88,4.88,0,0,0,1.66-.91,20.86,20.86,0,0,1-2.55-4.19.52.52,0,0,1,.36-.63c.88-.27,1.79-.47,2.67-.73,0,0,0,0,0-.06-.44-.59-1-1.1-1.43-1.68S72.46,113,72,112.29Z" fill="#0a3a16"></path><path d="M80.85,118.75c.26,0,.47,0,.58.08-.18,1.81,1.12.93,1.69,1.39l.49-.21q1.49-1.49,3-3c-.34-.25-.68-.51-1-.77A31.77,31.77,0,0,0,80.85,118.75Z" opacity="0.41" fill="url(#linear-gradient-3)"></path><path d="M86.75,117.06v-8.94H84.81v9A2.6,2.6,0,0,0,86.75,117.06Z" fill="#a83f1e"></path><path d="M86,108.14v9.16a2,2,0,0,0,.78-.22v-8.94Z" fill="#7f2b14"></path><path d="M88.09,103.76a.52.52,0,0,1,.31-.76,8.54,8.54,0,0,1,1-.08.54.54,0,0,0,.09-.19c0-.1-.08-.31-.25-.58s-.38-.47-.59-.7c-1-1-2-2-3-3.05-1.3,1.29-2.69,2.5-4.06,3.72a1.17,1.17,0,0,0-.15.37,5.86,5.86,0,0,1,1.73.47.52.52,0,0,1,.18.7,11.77,11.77,0,0,1-1.59,2.13c-.49.65-.95,1.32-1.41,2,1.09.1,3.21.07,2.67,1.48a8.12,8.12,0,0,1-1.44,1.83,20.17,20.17,0,0,0-1.57,2.47h0c.28.47,1.17.62,1.69.73a16.81,16.81,0,0,0,3.47.33,10.68,10.68,0,0,0,3.45-.52,4.88,4.88,0,0,0,1.66-.91A20.86,20.86,0,0,1,87.83,109a.52.52,0,0,1,.36-.63c.88-.27,1.79-.47,2.67-.73,0,0,0,0,0-.06-.44-.59-1-1.1-1.43-1.68S88.59,104.44,88.09,103.76Z" fill="#0a3a16"></path><path d="M146.35,79.94c.26,0,.47,0,.58.08-.18,1.81,1.12.93,1.69,1.39l.49-.21q1.49-1.49,3-3c-.34-.25-.68-.51-1-.77A31.77,31.77,0,0,0,146.35,79.94Z" opacity="0.41" fill="url(#linear-gradient-4)"></path><path d="M152.25,78.25V69.31H150.3v9A2.6,2.6,0,0,0,152.25,78.25Z" fill="#a83f1e"></path><path d="M151.47,69.33v9.16a2,2,0,0,0,.78-.22V69.33Z" fill="#7f2b14"></path><path d="M153.58,65a.52.52,0,0,1,.31-.76,8.54,8.54,0,0,1,1-.08.54.54,0,0,0,.09-.19c0-.1-.08-.31-.25-.58s-.38-.47-.59-.7c-1-1-2-2-3-3.05-1.3,1.29-2.69,2.5-4.06,3.72a1.17,1.17,0,0,0-.15.37,5.86,5.86,0,0,1,1.73.47.52.52,0,0,1,.18.7A11.77,11.77,0,0,1,147.35,67c-.49.65-.95,1.32-1.41,2,1.09.1,3.21.07,2.67,1.48a8.12,8.12,0,0,1-1.44,1.83,20.17,20.17,0,0,0-1.57,2.47h0c.28.47,1.17.62,1.69.73a16.81,16.81,0,0,0,3.47.33,10.68,10.68,0,0,0,3.45-.52,4.88,4.88,0,0,0,1.66-.91,20.86,20.86,0,0,1-2.55-4.19.52.52,0,0,1,.36-.63c.88-.27,1.79-.47,2.67-.73,0,0,0,0,0-.06-.44-.59-1-1.1-1.43-1.68S154.09,65.64,153.58,65Z" fill="#0a3a16"></path><polygon points="164.84 132.15 164.84 76.35 152.68 83.15 152.68 139.17 164.84 132.15" fill="#68e1fd"></polygon><polygon points="164.84 132.15 164.84 76.35 152.68 83.15 152.68 139.17 164.84 132.15" fill="#1e4549" opacity="0.33"></polygon><polygon points="152.68 83.15 140.32 76.35 140.32 131.91 152.68 139.17 152.68 83.15" fill="#68e1fd"></polygon><polygon points="164.84 76.35 152.68 68.89 140.32 76.35 152.68 83.15 164.84 76.35" fill="#9d9ca1"></polygon><polygon points="140.32 80.28 152.78 86.73 164.84 80.39 164.84 81.37 152.78 87.7 140.32 81.26 140.32 80.28" fill="#ccc"></polygon><polygon points="140.32 84.33 152.78 90.77 164.84 84.44 164.84 85.42 152.78 91.75 140.32 85.3 140.32 84.33" fill="#ccc"></polygon><polygon points="140.32 88.74 152.83 95.2 164.84 88.9 164.84 89.87 152.83 96.18 140.32 89.71 140.32 88.74" fill="#ccc"></polygon><polygon points="140.32 92.73 152.93 99.25 164.84 92.99 164.84 93.97 152.93 100.22 140.32 93.7 140.32 92.73" fill="#ccc"></polygon><polygon points="140.32 96.62 152.73 103.04 164.84 96.68 164.84 97.66 152.74 104.01 140.32 97.59 140.32 96.62" fill="#ccc"></polygon><polygon points="140.32 100.61 152.83 107.08 164.84 100.78 164.84 101.75 152.83 108.06 140.32 101.59 140.32 100.61" fill="#ccc"></polygon><polygon points="140.32 104.56 152.68 110.96 164.84 104.57 164.84 105.55 152.69 111.93 140.32 105.53 140.32 104.56" fill="#ccc"></polygon><polygon points="140.32 108.69 152.78 115.13 164.84 108.8 164.84 109.78 152.78 116.11 140.32 109.66 140.32 108.69" fill="#ccc"></polygon><polygon points="140.32 112.81 152.88 119.3 164.84 113.02 164.84 114 152.88 120.28 140.32 113.78 140.32 112.81" fill="#ccc"></polygon><polygon points="140.32 116.8 152.98 123.35 164.84 117.12 164.84 118.09 152.98 124.32 140.32 117.77 140.32 116.8" fill="#ccc"></polygon><polygon points="140.32 121.22 152.68 127.62 164.84 121.23 164.84 122.21 152.69 128.59 140.32 122.2 140.32 121.22" fill="#ccc"></polygon><polygon points="140.32 125.22 152.78 131.66 164.84 125.33 164.84 126.3 152.78 132.63 140.32 126.19 140.32 125.22" fill="#ccc"></polygon><polygon points="140.32 129.1 152.83 135.57 164.84 129.26 164.84 130.24 152.83 136.54 140.32 130.07 140.32 129.1" fill="#ccc"></polygon><path d="M329.8,137.7a25.62,25.62,0,0,1,4.15,4.67,16.19,16.19,0,0,1-9.24-.21c-4.49-1.66-15.31-8.26-15.59-8.37A15.78,15.78,0,0,1,307.8,131" fill="#189681"></path><path d="M307.8,127c-.1.15,0,4,0,4s5.74,4.24,8.78,6,7.63,3.64,14.67,4.24v-3.44a38.59,38.59,0,0,0-6.69-6.79s.45-.95-.35-1.4-7.54-4.44-7.54-4.44l-4.78-2.54L308,124.88a1.17,1.17,0,0,0-.51,1.44Z" fill="#fff"></path><path d="M331.26,139.27s-7.38-.39-11.62-2.76-11.87-7.26-11.87-7.26l0,1.77,7.41,5.18s5.55,4.36,16,5.09Z" fill="#3d639b"></path><polygon points="324.57 131.07 324.57 134.18 319.64 136.51 307.77 129.25 307.53 126.32 318.81 133.59 324.57 131.07" fill="#ccccce"></polygon><polygon points="317.04 132.98 317.04 134.44 315.97 133.82 315.97 132.26 317.04 132.98" fill="#6a4e39"></polygon><polygon points="315.58 132.14 315.58 133.59 314.51 132.98 314.51 131.41 315.58 132.14" fill="#6a4e39"></polygon><polygon points="313.22 130.54 313.22 131.99 312.16 131.38 312.16 129.81 313.22 130.54" fill="#6a4e39"></polygon><polygon points="311.86 129.7 311.86 131.15 310.8 130.54 310.8 128.97 311.86 129.7" fill="#6a4e39"></polygon><path d="M331.26,137.85s-8.07-.43-12.29-1.73h0a25.66,25.66,0,0,0,12.29,3.15Z" fill="#7c9bc1"></path><path d="M321.79,149.31a25.62,25.62,0,0,1,4.15,4.67,16.19,16.19,0,0,1-9.24-.21c-4.49-1.66-15.31-8.26-15.59-8.37a15.78,15.78,0,0,1-1.32-2.77" fill="#189681"></path><path d="M299.8,138.64c-.1.15,0,4,0,4s5.74,4.24,8.78,6,7.63,3.64,14.67,4.24v-3.44a38.59,38.59,0,0,0-6.69-6.79s.45-.95-.35-1.4-7.54-4.44-7.54-4.44l-4.78-2.54L300,136.49a1.17,1.17,0,0,0-.51,1.44Z" fill="#fff"></path><path d="M323.25,150.89s-7.38-.39-11.62-2.76-11.87-7.26-11.87-7.26l0,1.77,7.41,5.18s5.55,4.36,16,5.09Z" fill="#3d639b"></path><polygon points="316.56 142.68 316.56 145.8 311.63 148.12 299.76 140.86 299.52 137.94 310.8 145.21 316.56 142.68" fill="#ccccce"></polygon><polygon points="309.03 144.6 309.03 146.05 307.97 145.44 307.97 143.87 309.03 144.6" fill="#6a4e39"></polygon><polygon points="307.57 143.75 307.57 145.21 306.5 144.59 306.5 143.03 307.57 143.75" fill="#6a4e39"></polygon><polygon points="305.21 142.15 305.21 143.6 304.15 142.99 304.15 141.43 305.21 142.15" fill="#6a4e39"></polygon><polygon points="303.85 141.31 303.85 142.76 302.79 142.15 302.79 140.58 303.85 141.31" fill="#6a4e39"></polygon><path d="M323.25,149.47s-8.07-.43-12.29-1.73h0a25.66,25.66,0,0,0,12.29,3.15Z" fill="#7c9bc1"></path><path d="M301.05,173.29A25.62,25.62,0,0,1,305.2,178a16.19,16.19,0,0,1-9.24-.21c-4.49-1.66-15.31-8.26-15.59-8.37a15.78,15.78,0,0,1-1.32-2.77" fill="#189681"></path><path d="M279.06,162.62c-.1.15,0,4,0,4s5.74,4.24,8.78,6,7.63,3.64,14.67,4.24v-3.44a38.59,38.59,0,0,0-6.69-6.79s.45-.95-.35-1.4-7.54-4.44-7.54-4.44l-4.78-2.54-3.87,2.19a1.17,1.17,0,0,0-.51,1.44Z" fill="#fff"></path><path d="M302.51,174.87s-7.38-.39-11.62-2.76S279,164.84,279,164.84l0,1.77,7.41,5.18s5.55,4.36,16,5.09Z" fill="#3d639b"></path><polygon points="295.82 166.66 295.82 169.78 290.89 172.1 279.02 164.84 278.78 161.91 290.06 169.19 295.82 166.66" fill="#ccccce"></polygon><polygon points="288.29 168.58 288.29 170.03 287.23 169.42 287.23 167.85 288.29 168.58" fill="#6a4e39"></polygon><polygon points="286.83 167.74 286.83 169.19 285.76 168.57 285.76 167.01 286.83 167.74" fill="#6a4e39"></polygon><polygon points="284.47 166.13 284.47 167.59 283.41 166.97 283.41 165.41 284.47 166.13" fill="#6a4e39"></polygon><polygon points="283.11 165.29 283.11 166.74 282.05 166.13 282.05 164.56 283.11 165.29" fill="#6a4e39"></polygon><path d="M302.51,173.45s-8.07-.43-12.29-1.73h0a25.66,25.66,0,0,0,12.29,3.15Z" fill="#7c9bc1"></path><path d="M244.52,231.37a25.62,25.62,0,0,1,4.15,4.67,16.19,16.19,0,0,1-9.24-.21c-4.49-1.66-15.31-8.26-15.59-8.37a15.78,15.78,0,0,1-1.32-2.77" fill="#189681"></path><path d="M222.52,220.7c-.1.15,0,4,0,4s5.74,4.24,8.78,6,7.63,3.64,14.67,4.24v-3.44a38.59,38.59,0,0,0-6.69-6.79s.45-.95-.35-1.4-7.54-4.44-7.54-4.44l-4.78-2.54-3.87,2.19a1.17,1.17,0,0,0-.51,1.44Z" fill="#fff"></path><path d="M246,232.95s-7.38-.39-11.62-2.76-11.87-7.26-11.87-7.26l0,1.77,7.41,5.18s5.55,4.36,16,5.09Z" fill="#3d639b"></path><polygon points="239.29 224.74 239.29 227.86 234.35 230.18 222.48 222.92 222.24 220 233.53 227.27 239.29 224.74" fill="#ccccce"></polygon><polygon points="231.75 226.66 231.75 228.11 230.69 227.5 230.69 225.93 231.75 226.66" fill="#6a4e39"></polygon><polygon points="230.29 225.81 230.29 227.27 229.23 226.65 229.23 225.09 230.29 225.81" fill="#6a4e39"></polygon><polygon points="227.94 224.21 227.94 225.66 226.87 225.05 226.87 223.49 227.94 224.21" fill="#6a4e39"></polygon><polygon points="226.58 223.37 226.58 224.82 225.51 224.21 225.51 222.65 226.58 223.37" fill="#6a4e39"></polygon><path d="M246,231.53s-8.07-.43-12.29-1.73h0A25.66,25.66,0,0,0,246,232.95Z" fill="#7c9bc1"></path><path d="M308.54,162.91a25.62,25.62,0,0,1,4.15,4.67,16.19,16.19,0,0,1-9.24-.21c-4.49-1.66-15.31-8.26-15.59-8.37a15.78,15.78,0,0,1-1.32-2.77" fill="#189681"></path><path d="M286.54,152.24c-.1.15,0,4,0,4s5.74,4.24,8.78,6,7.63,3.64,14.67,4.24v-3.44a38.59,38.59,0,0,0-6.69-6.79s.45-.95-.35-1.4-7.54-4.44-7.54-4.44l-4.78-2.54-3.87,2.19a1.17,1.17,0,0,0-.51,1.44Z" fill="#fff"></path><path d="M310,164.49s-7.38-.39-11.62-2.76-11.87-7.26-11.87-7.26l0,1.77,7.41,5.18s5.55,4.36,16,5.09Z" fill="#3d639b"></path><polygon points="303.31 156.28 303.31 159.4 298.38 161.72 286.51 154.46 286.27 151.53 297.55 158.81 303.31 156.28" fill="#ccccce"></polygon><polygon points="295.78 158.2 295.78 159.65 294.71 159.04 294.71 157.47 295.78 158.2" fill="#6a4e39"></polygon><polygon points="294.32 157.35 294.32 158.81 293.25 158.19 293.25 156.63 294.32 157.35" fill="#6a4e39"></polygon><polygon points="291.96 155.75 291.96 157.2 290.9 156.59 290.9 155.03 291.96 155.75" fill="#6a4e39"></polygon><polygon points="290.6 154.91 290.6 156.36 289.54 155.75 289.54 154.18 290.6 154.91" fill="#6a4e39"></polygon><path d="M310,163.07s-8.07-.43-12.29-1.73h0A25.66,25.66,0,0,0,310,164.49Z" fill="#7c9bc1"></path><path d="M168.2,47.23s-9-1.47-16.17,2a49.17,49.17,0,0,0-7.48,4.68Q140.09,58,136,62.56c-.45.58-.91,1.15-1.41,1.69-.41,1.32-.18,2.07,1.73.48,3.8-3.16,5.71-7.54,8.11-6.45s1.37,3.91,5.19,0S151.57,52,155.73,53s2.76-.54,6.16-1.87,7.73-1.29,8.11-2.94S168.2,47.23,168.2,47.23Z" fill="#8dc8fc"></path><path d="M115.23,222.35l2.13-2,9.9,4.68c-1,.52-2.49,1.41-3.92,2.25A72.26,72.26,0,0,1,115.23,222.35Z" opacity="0.68" fill="url(#linear-gradient-5)" style="mix-blend-mode: multiply;"></path><rect x="116.74" y="202" width="0.81" height="19.51" transform="translate(234.29 423.51) rotate(-180)" fill="#404048"></rect><circle cx="117.21" cy="201.53" r="2.42" fill="#68e1fd"></circle><circle cx="118.3" cy="200.6" r="0.5" fill="#fff"></circle><path d="M115.37,200a2.4,2.4,0,0,0,1.22,3,2.26,2.26,0,0,0,2.87-.55,2.42,2.42,0,1,1-4.09-2.45Z" fill="#3e3e4a" opacity="0.4"></path><path d="M116.16,216.53l-.88,5.31a4.73,4.73,0,0,0,2.16.4c1.65.06,1.56-.5,1.56-.5l-.87-5.21Z" fill="#3e3e4a"></path><ellipse cx="117.14" cy="216.53" rx="0.98" ry="0.49" fill="#55555f"></ellipse><ellipse cx="117.14" cy="221.88" rx="1.87" ry="0.94" fill="#3e3e4a"></ellipse><path d="M139.81,208.27l2.13-2,9.9,4.68c-1,.52-2.49,1.41-3.92,2.25A72.26,72.26,0,0,1,139.81,208.27Z" opacity="0.68" fill="url(#linear-gradient-6)" style="mix-blend-mode: multiply;"></path><rect x="141.31" y="187.92" width="0.81" height="19.51" transform="translate(283.44 395.35) rotate(-180)" fill="#404048"></rect><circle cx="141.78" cy="187.45" r="2.42" fill="#68e1fd"></circle><circle cx="142.88" cy="186.52" r="0.5" fill="#fff"></circle><path d="M139.95,185.87a2.4,2.4,0,0,0,1.22,3,2.26,2.26,0,0,0,2.87-.55,2.42,2.42,0,1,1-4.09-2.45Z" fill="#3e3e4a" opacity="0.4"></path><path d="M140.74,202.45l-.88,5.31a4.73,4.73,0,0,0,2.16.4c1.65.06,1.56-.5,1.56-.5l-.87-5.21Z" fill="#3e3e4a"></path><ellipse cx="141.72" cy="202.45" rx="0.98" ry="0.49" fill="#55555f"></ellipse><ellipse cx="141.72" cy="207.8" rx="1.87" ry="0.94" fill="#3e3e4a"></ellipse><path d="M166.88,191.07l2.13-2,9.9,4.68c-1,.52-2.49,1.41-3.92,2.25A72.26,72.26,0,0,1,166.88,191.07Z" opacity="0.68" fill="url(#linear-gradient-7)" style="mix-blend-mode: multiply;"></path><rect x="168.38" y="170.72" width="0.81" height="19.51" transform="translate(337.57 360.95) rotate(-180)" fill="#404048"></rect><circle cx="168.85" cy="170.25" r="2.42" fill="#68e1fd"></circle><circle cx="169.94" cy="169.32" r="0.5" fill="#fff"></circle><path d="M167,168.67a2.4,2.4,0,0,0,1.22,3,2.26,2.26,0,0,0,2.87-.55,2.42,2.42,0,1,1-4.09-2.45Z" fill="#3e3e4a" opacity="0.4"></path><path d="M167.8,185.25l-.88,5.31a4.73,4.73,0,0,0,2.16.4c1.65.06,1.56-.5,1.56-.5l-.87-5.21Z" fill="#3e3e4a"></path><ellipse cx="168.79" cy="185.25" rx="0.98" ry="0.49" fill="#55555f"></ellipse><ellipse cx="168.79" cy="190.6" rx="1.87" ry="0.94" fill="#3e3e4a"></ellipse><path d="M191.45,177l2.13-2,9.9,4.68c-1,.52-2.49,1.41-3.92,2.25A72.26,72.26,0,0,1,191.45,177Z" opacity="0.68" fill="url(#linear-gradient-8)" style="mix-blend-mode: multiply;"></path><rect x="192.96" y="156.64" width="0.81" height="19.51" transform="translate(386.73 332.79) rotate(-180)" fill="#404048"></rect><circle cx="193.43" cy="156.17" r="2.42" fill="#68e1fd"></circle><circle cx="194.52" cy="155.24" r="0.5" fill="#fff"></circle><path d="M191.59,154.59a2.4,2.4,0,0,0,1.22,3,2.26,2.26,0,0,0,2.87-.55,2.42,2.42,0,1,1-4.09-2.45Z" fill="#3e3e4a" opacity="0.4"></path><path d="M192.38,171.17l-.88,5.31a4.73,4.73,0,0,0,2.16.4c1.65.06,1.56-.5,1.56-.5l-.87-5.21Z" fill="#3e3e4a"></path><ellipse cx="193.36" cy="171.17" rx="0.98" ry="0.49" fill="#55555f"></ellipse><ellipse cx="193.36" cy="176.52" rx="1.87" ry="0.94" fill="#3e3e4a"></ellipse><path d="M244.14,148.84l2.13-2,9.9,4.68c-1,.52-2.49,1.41-3.92,2.25A72.26,72.26,0,0,1,244.14,148.84Z" opacity="0.68" fill="url(#linear-gradient-9)" style="mix-blend-mode: multiply;"></path><rect x="245.65" y="128.49" width="0.81" height="19.51" transform="translate(492.11 276.49) rotate(-180)" fill="#404048"></rect><circle cx="246.12" cy="128.01" r="2.42" fill="#68e1fd"></circle><circle cx="247.21" cy="127.09" r="0.5" fill="#fff"></circle><path d="M244.28,126.44a2.4,2.4,0,0,0,1.22,3,2.26,2.26,0,0,0,2.87-.55,2.42,2.42,0,1,1-4.09-2.45Z" fill="#3e3e4a" opacity="0.4"></path><path d="M245.07,143l-.88,5.31a4.73,4.73,0,0,0,2.16.4c1.65.06,1.56-.5,1.56-.5L247,143Z" fill="#3e3e4a"></path><ellipse cx="246.05" cy="143.02" rx="0.98" ry="0.49" fill="#55555f"></ellipse><ellipse cx="246.06" cy="148.37" rx="1.87" ry="0.94" fill="#3e3e4a"></ellipse><path d="M268.72,134.76l2.13-2,9.9,4.68c-1,.52-2.49,1.41-3.92,2.25A72.26,72.26,0,0,1,268.72,134.76Z" opacity="0.68" fill="url(#linear-gradient-10)" style="mix-blend-mode: multiply;"></path><rect x="270.22" y="114.41" width="0.81" height="19.51" transform="translate(541.26 248.33) rotate(-180)" fill="#404048"></rect><circle cx="270.69" cy="113.93" r="2.42" fill="#68e1fd"></circle><circle cx="271.79" cy="113.01" r="0.5" fill="#fff"></circle><path d="M268.86,112.36a2.4,2.4,0,0,0,1.22,3,2.26,2.26,0,0,0,2.87-.55,2.42,2.42,0,1,1-4.09-2.45Z" fill="#3e3e4a" opacity="0.4"></path><path d="M269.65,128.94l-.88,5.31a4.73,4.73,0,0,0,2.16.4c1.65.06,1.56-.5,1.56-.5l-.87-5.21Z" fill="#3e3e4a"></path><ellipse cx="270.63" cy="128.94" rx="0.98" ry="0.49" fill="#55555f"></ellipse><ellipse cx="270.63" cy="134.29" rx="1.87" ry="0.94" fill="#3e3e4a"></ellipse><path d="M260.72,126.5s-23-12.32-24.37-13.25L256,101.9l24.9,13.37C279.18,116.54,262.47,125.24,260.72,126.5Z" opacity="0.68" fill="url(#linear-gradient-11)" style="mix-blend-mode: multiply;"></path><path d="M256.48,104.83v-51l-18.8,10.5v48.52l.39.09C244,109.77,250.5,107.87,256.48,104.83Z" fill="#68e1fd"></path><path d="M256.48,104.83v-51l-18.8,10.5v48.52l.39.09C244,109.77,250.5,107.87,256.48,104.83Z" fill="#1e4549" opacity="0.33"></path><path d="M237.68,112.82V64.3L218.59,53.8v49.73C225.35,105.77,230.83,111,237.68,112.82Z" fill="#68e1fd"></path><polygon points="256.48 53.8 237.68 42.27 218.59 53.8 237.68 64.3 256.48 53.8" fill="#ccc"></polygon><polygon points="218.59 53.8 237.68 64.3 256.48 53.8 256.48 56.34 237.68 66.69 218.59 56.16 218.59 53.8" fill="#1e4549"></polygon><polygon points="220.86 64.9 220.86 60.88 223.25 62.19 223.25 66.06 220.86 64.9" fill="#e0e0e0"></polygon><polygon points="226.83 68.12 226.83 64.1 229.22 65.41 229.22 69.28 226.83 68.12" fill="#e0e0e0"></polygon><polygon points="233.02 71.92 233.02 67.9 235.41 69.21 235.41 73.08 233.02 71.92" fill="#e0e0e0"></polygon><polygon points="220.86 79.34 220.86 75.31 223.25 76.62 223.25 80.49 220.86 79.34" fill="#e0e0e0"></polygon><polygon points="226.83 82.56 226.83 78.53 229.22 79.84 229.22 83.71 226.83 82.56" fill="#e0e0e0"></polygon><polygon points="233.02 86.36 233.02 82.33 235.41 83.64 235.41 87.51 233.02 86.36" fill="#e0e0e0"></polygon><polygon points="220.86 95.85 220.86 91.82 223.25 93.14 223.25 97 220.86 95.85" fill="#e0e0e0"></polygon><polygon points="226.83 99.07 226.83 95.04 229.22 96.36 229.22 100.22 226.83 99.07" fill="#e0e0e0"></polygon><polygon points="233.02 102.87 233.02 98.84 235.41 100.16 235.41 104.03 233.02 102.87" fill="#e0e0e0"></polygon><polygon points="255.38 64.95 255.38 60.92 252.99 62.23 252.99 66.1 255.38 64.95" fill="#e0e0e0"></polygon><polygon points="249.42 68.17 249.42 64.14 247.02 65.45 247.02 69.32 249.42 68.17" fill="#e0e0e0"></polygon><polygon points="243.23 71.97 243.23 67.94 240.83 69.26 240.83 73.12 243.23 71.97" fill="#e0e0e0"></polygon><polygon points="255.38 79.38 255.38 75.35 252.99 76.67 252.99 80.53 255.38 79.38" fill="#e0e0e0"></polygon><polygon points="249.42 82.6 249.42 78.57 247.02 79.89 247.02 83.75 249.42 82.6" fill="#e0e0e0"></polygon><polygon points="243.23 86.4 243.23 82.38 240.83 83.69 240.83 87.56 243.23 86.4" fill="#e0e0e0"></polygon><polygon points="255.38 95.89 255.38 91.87 252.99 93.18 252.99 97.05 255.38 95.89" fill="#e0e0e0"></polygon><polygon points="249.42 99.11 249.42 95.09 247.02 96.4 247.02 100.27 249.42 99.11" fill="#e0e0e0"></polygon><polygon points="243.23 102.92 243.23 98.89 240.83 100.2 240.83 104.07 243.23 102.92" fill="#e0e0e0"></polygon><polygon points="218.59 83.69 237.84 93.64 256.48 83.86 256.48 87.84 237.68 97.61 218.59 87.84 218.59 83.69" fill="#2e5b5a"></polygon><polygon points="218.59 100.22 237.84 110.18 256.48 100.4 256.48 104.38 237.68 114.15 218.59 104.38 218.59 100.22" fill="#2e5b5a"></polygon><polygon points="218.59 67.9 237.84 77.85 256.48 68.07 256.48 72.05 237.68 81.83 218.59 72.05 218.59 67.9" fill="#2e5b5a"></polygon><path d="M221.14,116.05l2-1.85,9.12,4.31c-.94.48-2.29,1.3-3.61,2.07A66.55,66.55,0,0,1,221.14,116.05Z" opacity="0.68" fill="url(#linear-gradient-12)" style="mix-blend-mode: multiply;"></path><rect x="221.04" y="100.37" width="2.36" height="15.65" rx="1.13" ry="1.13" transform="translate(444.44 216.39) rotate(-180)" fill="#bc532a"></rect><circle cx="222.19" cy="101.66" r="7.91" fill="#5fc963"></circle><path d="M218.2,101.64a13.69,13.69,0,0,1,2.1-7.65,7.9,7.9,0,0,0,3.51,15.41A7.93,7.93,0,0,1,218.2,101.64Z" fill="#388e38"></path><path d="M217.56,154.92S191,140.73,189.49,139.66l22.67-13.07L240.83,142C238.81,143.45,219.58,153.47,217.56,154.92Z" opacity="0.68" fill="url(#linear-gradient-13)" style="mix-blend-mode: multiply;"></path><polygon points="215.44 127.93 215.44 21.92 192.32 34.84 192.32 141.26 215.44 127.93" fill="#68e1fd"></polygon><polygon points="215.44 127.93 215.44 21.92 192.32 34.84 192.32 141.26 215.44 127.93" fill="#1e4549" opacity="0.33"></polygon><polygon points="192.32 34.84 168.84 21.92 168.84 127.47 192.32 141.26 192.32 34.84" fill="#68e1fd"></polygon><polygon points="215.44 21.92 192.32 7.74 168.84 21.92 192.32 34.84 215.44 21.92" fill="#9d9ca1"></polygon><polygon points="168.84 29.4 192.52 41.64 215.43 29.61 215.43 31.46 192.53 43.49 168.84 31.24 168.84 29.4" fill="#ccc"></polygon><polygon points="168.84 37.08 192.52 49.32 215.43 37.29 215.43 39.15 192.53 51.17 168.84 38.93 168.84 37.08" fill="#ccc"></polygon><polygon points="168.84 45.45 192.61 57.74 215.43 45.76 215.43 47.61 192.62 59.59 168.84 47.3 168.84 45.45" fill="#ccc"></polygon><polygon points="168.84 53.04 192.8 65.42 215.43 53.54 215.43 55.4 192.81 67.28 168.84 54.89 168.84 53.04" fill="#ccc"></polygon><polygon points="168.84 60.43 192.43 72.62 215.43 60.54 215.43 62.4 192.43 74.47 168.84 62.28 168.84 60.43" fill="#ccc"></polygon><polygon points="168.84 68.02 192.61 80.31 215.43 68.33 215.43 70.18 192.62 82.16 168.84 69.86 168.84 68.02" fill="#ccc"></polygon><polygon points="168.84 75.52 192.33 87.66 215.43 75.53 215.43 77.39 192.34 89.51 168.84 77.36 168.84 75.52" fill="#ccc"></polygon><polygon points="168.84 83.35 192.52 95.6 215.43 83.56 215.43 85.42 192.53 97.45 168.84 85.2 168.84 83.35" fill="#ccc"></polygon><polygon points="168.84 91.18 192.71 103.52 215.43 91.59 215.43 93.44 192.71 105.37 168.84 93.03 168.84 91.18" fill="#ccc"></polygon><polygon points="168.84 98.77 192.89 111.2 215.43 99.37 215.43 101.22 192.9 113.06 168.84 100.62 168.84 98.77" fill="#ccc"></polygon><polygon points="168.84 107.17 192.33 119.31 215.43 107.18 215.43 109.04 192.34 121.16 168.84 109.01 168.84 107.17" fill="#ccc"></polygon><polygon points="168.84 114.75 192.52 126.99 215.43 114.96 215.43 116.82 192.53 128.84 168.84 116.6 168.84 114.75" fill="#ccc"></polygon><polygon points="168.84 122.13 192.61 134.42 215.43 122.44 215.43 124.29 192.62 136.27 168.84 123.98 168.84 122.13" fill="#ccc"></polygon><path d="M181.89,142.51l2.13-2,9.9,4.68c-1,.52-2.49,1.41-3.92,2.25A72.26,72.26,0,0,1,181.89,142.51Z" opacity="0.68" fill="url(#linear-gradient-14)" style="mix-blend-mode: multiply;"></path><rect x="183.4" y="122.16" width="0.81" height="19.51" transform="translate(367.6 263.83) rotate(-180)" fill="#404048"></rect><circle cx="183.87" cy="121.69" r="2.42" fill="#68e1fd"></circle><circle cx="184.96" cy="120.76" r="0.5" fill="#fff"></circle><path d="M182,120.11a2.4,2.4,0,0,0,1.22,3,2.26,2.26,0,0,0,2.87-.55,2.42,2.42,0,1,1-4.09-2.45Z" fill="#3e3e4a" opacity="0.4"></path><path d="M182.82,136.69l-.88,5.31a4.73,4.73,0,0,0,2.16.4c1.65.06,1.56-.5,1.56-.5l-.87-5.21Z" fill="#3e3e4a"></path><ellipse cx="183.8" cy="136.69" rx="0.98" ry="0.49" fill="#55555f"></ellipse><ellipse cx="183.8" cy="142.04" rx="1.87" ry="0.94" fill="#3e3e4a"></ellipse><path d="M168.85,146.64l2-1.85,9.12,4.31c-.94.48-2.29,1.3-3.61,2.07A66.55,66.55,0,0,1,168.85,146.64Z" opacity="0.68" fill="url(#linear-gradient-15)" style="mix-blend-mode: multiply;"></path><rect x="168.74" y="130.95" width="2.36" height="15.65" rx="1.13" ry="1.13" transform="translate(339.85 277.55) rotate(-180)" fill="#bc532a"></rect><circle cx="169.9" cy="132.24" r="7.91" fill="#5fc963"></circle><path d="M165.91,132.23a13.69,13.69,0,0,1,2.1-7.65A7.9,7.9,0,0,0,171.52,140,7.93,7.93,0,0,1,165.91,132.23Z" fill="#388e38"></path><path d="M120.86,196.19s-33.24-17.78-35.17-19.12l28.41-16.38L150,180C147.5,181.82,123.39,194.37,120.86,196.19Z" opacity="0.68" fill="url(#linear-gradient-16)" style="mix-blend-mode: multiply;"></path><ellipse cx="102.86" cy="173.52" rx="20.17" ry="8.73" fill="#145fa3"></ellipse><polyline points="82.69 163.84 82.69 173.52 123.03 173.52 123.03 163.84" fill="#145fa3"></polyline><ellipse cx="102.86" cy="164.43" rx="20.17" ry="8.73" fill="#398de7"></ellipse><ellipse cx="102.02" cy="164.63" rx="15.24" ry="6.6" fill="#145fa3"></ellipse><polyline points="86.77 161.31 86.77 164.63 117.26 164.63 117.26 161.31" fill="#145fa3"></polyline><ellipse cx="102.02" cy="161.31" rx="15.24" ry="6.6" fill="#398de7"></ellipse><ellipse cx="102.86" cy="160.87" rx="10.25" ry="4.43" fill="#145fa3"></ellipse><polyline points="92.61 158.63 92.61 160.87 113.11 160.87 113.11 158.63" fill="#145fa3"></polyline><ellipse cx="102.86" cy="158.63" rx="10.25" ry="4.43" fill="#398de7"></ellipse><path d="M98.3,149.31v9.9a9.44,9.44,0,0,0,9.11,0v-9.94C104.38,149.37,101.34,149.28,98.3,149.31Z" fill="#145fa3"></path><ellipse cx="102.86" cy="144.4" rx="17.36" ry="8.36" fill="#68e1fd"></ellipse><path d="M98.35,124.85v19.38a9.44,9.44,0,0,0,9.11,0V124.95A15.35,15.35,0,0,1,98.35,124.85Z" fill="#145fa3"></path><ellipse cx="102.91" cy="124.96" rx="11.85" ry="5.7" fill="#68e1fd"></ellipse><path d="M107.46,122.92v-60a4.55,4.55,0,1,0-9.11,0v59.84A13.33,13.33,0,0,0,107.46,122.92Z" fill="#145fa3"></path><path d="M87.8,64.81s6.68,17.45,6.68,21.43-.1,23-.2,24-11.37,61.61-11.37,61.61l.6,1.4h1.69L93,127.12l3.19-18.64,2.89-.6s.5-16.65,0-18.54S94.78,66.7,94.78,66.7l-2.19-.6s2.79,9.07,1.69,9.37-4-10.17-4-10.17Z" fill="#68e1fd"></path><path d="M96.18,108.48s-.2,11.44-.49,12.9S87,175.8,87,175.8l1.94.58s8.44-53.75,8.83-55,1.25-13.49,1.25-13.49Z" fill="#68e1fd"></path><polygon points="94.67 114.97 97 116.44 96.38 119.63 93.93 118.04 94.67 114.97" fill="#68e1fd"></polygon><polygon points="93.14 123.74 95.47 125.22 94.84 128.4 92.4 126.81 93.14 123.74" fill="#68e1fd"></polygon><polygon points="91.6 133.71 93.93 135.19 93.31 138.38 90.86 136.78 91.6 133.71" fill="#68e1fd"></polygon><polygon points="90.06 141.43 92.4 142.91 91.77 146.1 89.32 144.5 90.06 141.43" fill="#68e1fd"></polygon><polygon points="88.53 151.33 90.86 152.81 90.23 156 87.79 154.4 88.53 151.33" fill="#68e1fd"></polygon><polygon points="87.21 160.63 89.55 162.11 88.92 165.3 86.47 163.71 87.21 160.63" fill="#68e1fd"></polygon><path d="M117.85,65.35s-6.68,17.45-6.68,21.43.1,23,.2,24,11.37,61.61,11.37,61.61l-.6,1.4h-1.69l-7.78-46.16L109.47,109l-2.89-.6s-.5-16.65,0-18.54,4.29-22.63,4.29-22.63l2.19-.6s-2.79,9.07-1.69,9.37,4-10.17,4-10.17Z" fill="#68e1fd"></path><path d="M109.47,109s.2,11.44.49,12.9,8.63,54.42,8.63,54.42l-1.94.58s-8.44-53.75-8.83-55-1.25-13.49-1.25-13.49Z" fill="#68e1fd"></path><polygon points="110.98 115.5 108.64 116.98 109.27 120.17 111.72 118.57 110.98 115.5" fill="#68e1fd"></polygon><polygon points="112.51 124.27 110.18 125.75 110.81 128.94 113.25 127.34 112.51 124.27" fill="#68e1fd"></polygon><polygon points="114.05 134.25 111.72 135.73 112.34 138.91 114.79 137.32 114.05 134.25" fill="#68e1fd"></polygon><polygon points="115.58 141.97 113.25 143.45 113.88 146.63 116.32 145.04 115.58 141.97" fill="#68e1fd"></polygon><polygon points="117.12 151.87 114.79 153.34 115.41 156.53 117.86 154.94 117.12 151.87" fill="#68e1fd"></polygon><polygon points="118.43 161.17 116.1 162.65 116.73 165.84 119.17 164.24 118.43 161.17" fill="#68e1fd"></polygon><ellipse cx="102.69" cy="52.99" rx="29.05" ry="14.85" fill="#68e1fd"></ellipse><ellipse cx="102.8" cy="53.53" rx="22.53" ry="9.75" fill="#145fa3"></ellipse><polyline points="80.27 48.61 80.27 53.53 125.33 53.53 125.33 48.61" fill="#145fa3"></polyline><ellipse cx="102.8" cy="48.61" rx="22.53" ry="9.75" fill="#398de7"></ellipse><ellipse cx="102.8" cy="42.96" rx="9.8" ry="4.24" fill="#145fa3"></ellipse><polyline points="93 40.82 93 42.96 112.6 42.96 112.6 40.82" fill="#145fa3"></polyline><ellipse cx="102.8" cy="40.82" rx="9.8" ry="4.24" fill="#398de7"></ellipse><path d="M101,38.54l1.47-23.82h.83l1.58,23.82A3.24,3.24,0,0,1,101,38.54Z" fill="#d1d1d1"></path><path d="M242.33,159.64a19.38,19.38,0,0,1-6.34,1.1c-4.87,0-20.68,4.13-24.09,1.33l-1.21,4.84c1.93,1.34,47.94,35.15,47.94,35.15,2.53-1.82,19.76-11.37,22.29-13.2Z" opacity="0.68" fill="url(#linear-gradient-17)" style="mix-blend-mode: multiply;"></path><path d="M280.73,180.67l.11-.05-50.59-29.73-19.13,11.29.07,0a.89.89,0,0,0-.49.82v4.26a1,1,0,0,0,2,0v-4.13l9.18,5.81v7.73a1,1,0,0,0,2,0v-6.46l10.5,6.65v9.51a1,1,0,0,0,2,0v-8.24l9.6,6.09a.91.91,0,0,0-.28.68v8.68a1,1,0,0,0,2,0v-8.27l9.93,6.3v8.83a1,1,0,0,0,2,0v-9.29l19.3-9.63v7.69a1,1,0,0,0,2,0v-8A.91.91,0,0,0,280.73,180.67Z" fill="#873230"></path></g></g></svg>