<svg id="ee28O3JhwkA1" xmlns="http://www.w3.org/2000/svg" xmlns:xlink="http://www.w3.org/1999/xlink" viewBox="0 0 400 300" shape-rendering="geometricPrecision" text-rendering="geometricPrecision">
<style><![CDATA[
#ee28O3JhwkA11_ts {animation: ee28O3JhwkA11_ts__ts 3000ms linear 1 normal forwards}@keyframes ee28O3JhwkA11_ts__ts { 0% {transform: translate(287.846695px,102.149762px) scale(0,0)} 10% {transform: translate(287.846695px,102.149762px) scale(0,0);animation-timing-function: cubic-bezier(0.445,0.05,0.55,0.95)} 40% {transform: translate(287.846695px,102.149762px) scale(1,1)} 100% {transform: translate(287.846695px,102.149762px) scale(1,1)}} #ee28O3JhwkA18_ts {animation: ee28O3JhwkA18_ts__ts 3000ms linear 1 normal forwards}@keyframes ee28O3JhwkA18_ts__ts { 0% {transform: translate(154.920883px,73.752081px) scale(0,0);animation-timing-function: cubic-bezier(0.445,0.05,0.55,0.95)} 16.666667% {transform: translate(154.920883px,73.752081px) scale(1,1)} 100% {transform: translate(154.920883px,73.752081px) scale(1,1)}} #ee28O3JhwkA19_ts {animation: ee28O3JhwkA19_ts__ts 3000ms linear 1 normal forwards}@keyframes ee28O3JhwkA19_ts__ts { 0% {transform: translate(243.781647px,104.760635px) scale(0,0)} 6.666667% {transform: translate(243.781647px,104.760635px) scale(0,0);animation-timing-function: cubic-bezier(0.445,0.05,0.55,0.95)} 30% {transform: translate(243.781647px,104.760635px) scale(1,1)} 100% {transform: translate(243.781647px,104.760635px) scale(1,1)}} #ee28O3JhwkA39_tr {animation: ee28O3JhwkA39_tr__tr 3000ms linear 1 normal forwards}@keyframes ee28O3JhwkA39_tr__tr { 0% {transform: translate(62.666462px,146.88881px) rotate(5deg);animation-timing-function: cubic-bezier(0.42,0,0.58,1)} 33.333333% {transform: translate(62.666462px,146.88881px) rotate(-5deg);animation-timing-function: cubic-bezier(0.47,0,0.745,0.715)} 66.666667% {transform: translate(62.666462px,146.88881px) rotate(0deg)} 100% {transform: translate(62.666462px,146.88881px) rotate(0deg)}} #ee28O3JhwkA42_tr {animation: ee28O3JhwkA42_tr__tr 3000ms linear 1 normal forwards}@keyframes ee28O3JhwkA42_tr__tr { 0% {transform: translate(65.357698px,155.931168px) rotate(5deg);animation-timing-function: cubic-bezier(0.42,0,0.58,1)} 33.333333% {transform: translate(65.357698px,155.931168px) rotate(-5deg);animation-timing-function: cubic-bezier(0.42,0,0.58,1)} 66.666667% {transform: translate(65.357698px,155.931168px) rotate(0deg)} 100% {transform: translate(65.357698px,155.931168px) rotate(0deg)}} #ee28O3JhwkA45_tr {animation: ee28O3JhwkA45_tr__tr 3000ms linear 1 normal forwards}@keyframes ee28O3JhwkA45_tr__tr { 0% {transform: translate(61.006878px,151.71px) rotate(0deg);animation-timing-function: cubic-bezier(0.445,0.05,0.55,0.95)} 33.333333% {transform: translate(61.006878px,151.71px) rotate(5deg)} 66.666667% {transform: translate(61.006878px,151.71px) rotate(-5deg)} 100% {transform: translate(61.006878px,151.71px) rotate(-5deg)}}
]]></style>
<defs><linearGradient id="ee28O3JhwkA5-fill" x1="287.15" y1="199.57" x2="247.51" y2="174.84" spreadMethod="pad" gradientUnits="userSpaceOnUse" gradientTransform="translate(0 0)"><stop id="ee28O3JhwkA5-fill-0" offset="0%" stop-color="rgba(255,255,255,0)"/><stop id="ee28O3JhwkA5-fill-1" offset="100%" stop-color="#9e005d"/></linearGradient><linearGradient id="ee28O3JhwkA6-fill" x1="200.68" y1="267.17" x2="185.68" y2="233.75" spreadMethod="pad" gradientUnits="userSpaceOnUse" gradientTransform="translate(0 0)"><stop id="ee28O3JhwkA6-fill-0" offset="0%" stop-color="rgba(255,255,255,0)"/><stop id="ee28O3JhwkA6-fill-1" offset="100%" stop-color="#9e005d"/></linearGradient><linearGradient id="ee28O3JhwkA36-fill" x1="84.84" y1="190.42" x2="75.83" y2="170.34" spreadMethod="pad" gradientUnits="userSpaceOnUse" gradientTransform="translate(0 0)"><stop id="ee28O3JhwkA36-fill-0" offset="0%" stop-color="rgba(255,255,255,0)"/><stop id="ee28O3JhwkA36-fill-1" offset="100%" stop-color="#9e005d"/></linearGradient></defs><g style="isolation:isolate"><g><path d="M195.22,288.83L15.5,182.61c-5.72-3.21-10.63-8.49-5.05-11.94l180.37-104c2.71-1.68,6.82-2.78,9.57-1.18L389,175c5.72,3.32,6.75,12.6,1,15.93L218.91,288.66c-7.311039,4.241771-16.318838,4.306411-23.69.17Z" fill="#d9616f"/><path style="mix-blend-mode:multiply" d="M254.66,163.41l-21.54,14l40.77,26.83c.36,0,3.79,9.51,1.07,0c16.7-9.21,17.75-1.3,29.62-8.63-17.87-12.3-36.92-24.17-49.92-32.2Z" opacity="0.63" fill="url(#ee28O3JhwkA5-fill)"/><path style="mix-blend-mode:multiply" d="M178.21,232.56l-20.5,9.38l40.77,26.83c.36,0,3.79,9.51,1.07,0c16.7-9.21,17.75-1.3,29.62-8.63-17.88-12.35-37.96-19.55-50.96-27.58Z" opacity="0.63" fill="url(#ee28O3JhwkA6-fill)"/><path d="M218.4,142.45l-18.21,8.77c-1.398799.671988-2.311635,2.062061-2.372404,3.61271s.740484,3.007895,2.082404,3.78729l43.16,25.18c1.938035,1.133898,4.425415.538515,5.64-1.35l10.49-16.31" fill="#56403d"/><path d="M317.47,100.28L172.23,16.6c-2.027434-1.168159-4.52404-1.166067-6.549513.00549s-3.272148,3.334621-3.270487,5.67451v87c-.00109,1.946124,1.035638,3.745153,2.72,4.72l154.82,89.4c1.080174.626103,2.411627.631294,3.496651.013633s1.760279-1.76519,1.773349-3.013633v-86.72c-.0001-5.531474-2.955479-10.641419-7.75-13.4Z" fill="#68e1fd"/><ellipse rx="3.06" ry="3.5" transform="matrix(.981959-.189095 0.189095 0.981959 230.830022 142.822856)" fill="#ab643c"/><path d="M172.25,23.18l140.82,81c3.063381,1.761487,4.95132,5.026286,4.95,8.56v65.26c-.003671,1.270505-.682296,2.443326-1.78197,3.079654s-2.454674.640268-3.55803.010346L169.06,98.69c-1.078104-.617544-1.750798-1.757704-1.77-3v-69.69c.017438-1.172678.654121-2.248573,1.673666-2.828233s2.269707-.576529,3.286334.008233Z" fill="#fff"/><g id="ee28O3JhwkA11_ts" transform="translate(287.846695,102.149762) scale(0,0)"><g transform="translate(-287.846695,-102.149761)"><path d="M341,156l-41.49-22.78c-1.62222-.893101-2.629943-2.598183-2.63-4.45v-76.02c-.000211-1.815015.967948-3.492253,2.539744-4.399852s3.508407-.907655,5.080256-.000148l41.49,24c1.57194.90756,2.540211,2.58488,2.54,4.4v74.87c-.024546,1.783931-.983114,3.424228-2.525295,4.321274s-3.4419.919337-5.004705.058726Z" fill="#a2c609"/><path d="M338.48,103.05v18.21c0,5.29-8.22,5.3-8.22,0v-18.21c0-5.29,8.22-5.3,8.22,0Z" fill="#56403d"/><path d="M327.31,84.37v29.38c0,5.29-8.22,5.3-8.22,0v-29.38c0-5.29,8.22-5.3,8.22,0Z" fill="#ffa197"/><path d="M314.07,63.08v45.1c0,5.29-8.22,5.3-8.22,0v-45.1c0-5.29,8.22-5.3,8.22,0Z" fill="#f2f2f2"/><path d="M324.3,126.36l10.16,5.34c1.44.76.16,2.94-1.28,2.18L323,128.54c-1.42-.75-.15-2.94,1.3-2.18Z" fill="#f2f2f2"/><path d="M306.48,125q14.18,7.6,28.65,14.64c1.46.71.18,2.89-1.28,2.18q-14.47-7-28.65-14.64c-1.43-.74-.2-2.92,1.28-2.18Z" fill="#f2f2f2"/></g></g><g id="ee28O3JhwkA18_ts" transform="translate(154.920883,73.752081) scale(0,0)"><path d="M120.34,47.84v17.25c.000356,1.647589.876241,3.170868,2.3,4l59.41,34.55c1.415893.844164,3.173834.871852,4.615609.072697s2.349915-2.304614,2.384391-3.952697l.45-17c.046834-1.69382-.835354-3.277924-2.3-4.13L127.3,43.84c-1.431942-.833898-3.200361-.83896-4.637054-.013275s-2.322588,2.356216-2.322946,4.013275Z" transform="translate(-154.920883,-73.752081)" fill="#a2c609"/></g><g id="ee28O3JhwkA19_ts" transform="translate(243.781647,104.760635) scale(0,0)"><g transform="translate(-243.781646,-104.760635)"><line x1="214.6" y1="85.45" x2="285.95" y2="127.38" fill="#a2c609"/><path d="M272,114.18L205,74.83c-7-4.14-11.36,8.28-3.56,12.6c23.73,13.95,46.92,27.32,70.52,41.12Z" fill="#68e1fd"/><path d="M286.67,122.8L272,114.18v14.38l10.41,6.1c7.03,4.14,11.29-7.72,4.26-11.86Z" fill="#68e1fd"/><ellipse rx="2.79" ry="3.93" transform="matrix(.954136-.299374 0.299374 0.954136 278.631599 125.041043)" fill="none" stroke="#fff" stroke-miterlimit="10"/><line x1="280.74" y1="128.16" x2="284.56" y2="132.18" fill="none" stroke="#fff" stroke-miterlimit="10"/></g></g><path d="M214.6,107c-1.907683-.587752-3.569513-1.785816-4.73-3.41-1.83449-2.544179-2.836986-5.593583-2.87-8.73-.22-7,3.83-12.79,9-13c2.778858.006302,5.375658,1.383279,6.94,3.68c1.830233,2.531866,2.835857,5.566196,2.88,8.69v0c.150274,3.119243-.663225,6.209144-2.33,8.85-1.41675,2.386946-3.920039,3.921098-6.69,4.1-.738214.051241-1.479933-.009445-2.2-.18Zm2.83-22c-.432569-.120903-.881099-.174862-1.33-.16-3.56.11-6.42,4.69-6.25,10c.036543,2.513007.838929,4.955052,2.3,7c.932393,1.641964,2.697126,2.632851,4.58444,2.574134s3.587039-1.157386,4.41556-2.854134c1.342097-2.152782,1.988084-4.666893,1.85-7.2v0c-.035272-2.51322-.83778-4.955634-2.3-7-.792949-1.145545-1.942729-1.996453-3.27-2.42Z" fill="#f15a24"/><path d="M231.5,125.93c.443769-.236721.731871-.687828.76-1.19l-11.19-20.58-2.53,1.34l10.86,20.64c.700795.204451,1.453568.129173,2.1-.21Z" fill="#f15a24"/><path d="M165.49,234.53c0,0,7.61-3.39,9.44-3.52s4.9.5,2.22,3.86c0,0-8,5.24-9.07,5.4s-3.62-.64-3.69-.36-.3,2.3-.3,2.3-6.7,2.56-7-1.93c0-.58,1-8.89,1-8.89" fill="#34323d"/><path d="M182.21,244.14l4.83,1.73c.297706.910054,1.061554,1.589879,2,1.78.170075.201723.408686.333493.67.37c2,.3,3.84-.34,5.74-.93c2.31-.72,11.34-4.18,8.84,2.3-1.65,1.16-3.49,2.16-5.18,3.19-.95.58-1.9,1.15-2.87,1.69-.51688.350684-1.087796.614184-1.69.78-1.3.2-4.45-.78-4.53-.45s-.37,2.82-.37,2.82-8.22,3.14-8.58-2.37c-.07-.7,1.14-10.91,1.14-10.91Z" fill="#34323d"/><path d="M191.32,174.5q-.9-7.26-2.12-14.47c-.15-.87-.24-4.71-1-5.31c0,0-7-5.69-12.62-7.08l-.6-2.43-.06.06c0-2.4-3.45-4-4.65-1.44-2.253528,4.96969-3.969926,10.165815-5.12,15.5-1.624005,7.914139-2.67672,15.934829-3.15,24-.600766,6.737001-1.602542,13.432205-3,20.05-2,10.09-2,19.94-1.22,30.13c0,0,1.79,5.47,9.93,2.33l.26-2.27c.469641-.167009.798164-.593307.84-1.09c1.32-14.27,4.63-35.42,7.52-49.45.22,3.58-.13,13.71.09,17.29c0,.48.06,1.78.1,2.26c1,16.06,1.61,31.73,2.86,47.78c6.24,2.55,8.78,1.37,12.65-2.59c1.19-24.52,2.3-48.83-.71-73.27Z" fill="#68e1fd"/><path d="M228.82,109.93c-.052922-.330364-.239198-.624495-.515233-.81356s-.617603-.25647-.944767-.18644c-.043071-.363031-.280811-.673627-.62-.81-.323658-.113579-.676342-.113579-1,0-.104993-.335726-.338711-.616187-.65-.78-.637404-.284703-1.385343-.131899-1.86.38-.158247-.308144-.464696-.512442-.81-.54-1-.07-1.29,1-1.25,1.78-.07.49-.14,1-.19,1.63-.43-1.9.21.16-.45-1.69-.4-1.11-2.45.05-2.34,1.1.334564,2.186371.44847,4.40084.34,6.61-.005661.140062.018188.27975.07.41l-.9,1.15c-.27.34-.54.65-.78,1l-.26.24c-.240969.191637-.365778.494205-.33.8-.071069.190701-.12136.388512-.15.59-.007268.066469-.007268.133531,0,.2-.26.4-.54.8-.8,1.21-.192287.281643-.227791.641859-.094189.955622s.41789.537811.754189.594378l-.22.08c-1.2.42-.37,2.21.83,1.8c2.525876-.877586,4.758704-2.438835,6.45-4.51.300633-.069415.541042-.29456.63-.59l.16-.46c1.351291-1.825184,2.410608-3.849356,3.14-6c.082314-.280469.19288-.551859.33-.81.64-.87,1.57-2.27,1.46-3.34Z" fill="#fcbf81"/><path d="M189.08,158.8c.216891-.549803.528246-1.057447.92-1.5.901455-1.597063,1.661035-3.270146,2.27-5c3.31153-7.487777,5.339832-15.479289,6-23.64v-.11q.2-2.19.27-4.38c.186359-1.913957-.271124-3.835385-1.3-5.46-.149197-.198578-.312984-.385763-.49-.56-1.77-1.75-4.54-2.27-6.57-3.68-1.5-1-3.07-2.25-4.9-2.25-1.513309.104216-2.936141.758719-4,1.84-3.39,3.05-4.9,7.61-6.28,12l-6,19c-.26.82-.52,1.64-.76,2.47c5.99,6.62,11.97,11.25,20.84,11.27Z" fill="#8b93fc"/><path d="M189,110.34l-.61,4.13c0,0,1.78,3.53,6.49,2.67l.26-4.12" fill="#fcbf81"/><path d="M200.45,100.44c.39.26,1.12,9.85-2.06,14.42s-10-3.63-10.79-8.23s5.45-11.13,12.85-6.19Z" fill="#fcbf81"/><path d="M199.93,101.56c-.561371,1.577412-2.000328,2.675254-3.67,2.8-2.72,0-4.92,0-5.18,1.11s4.41,1.36,3.53,3.91c-.594317,1.716584-1.418481,3.344727-2.45,4.84-.7,1.16-6.59-5.18-6.7-12.53s6.45-7,6.76-7s1.46-1.53,4.6-1.15s3.57,1.8,3.57,1.8c1.652849-.35007,3.335698.448362,4.11,1.95c2,3.07-.09,6.74-3.69,7.27Z" fill="#e55600"/><path d="M196.75,118.18c0,0,4.43,8.66,8.09,8.86s11.88-10.84,11.88-10.84c3.336503-.743322,6.77217.74641,8.51,3.69s-10.83,15.93-20,20.65-18.52-9.44-18.52-9.44" fill="#8b93fc"/><path style="mix-blend-mode:multiply" d="M74.8,168.07l-18,10.1L80,192.71h.6c9.38-5.17,17.62-3.69,24.29-7.81-8.62-4.59-22.11-11.2-30.09-16.83Z" opacity="0.63" fill="url(#ee28O3JhwkA36-fill)"/><path d="M48.43,150.33c0,0-2.11,25,11.22,29.4s20-8.36,19.48-30.38" fill="#68e1fd"/><ellipse rx="15.36" ry="8.88" transform="matrix(.999496-.03176 0.03176 0.999496 63.77674 149.838758)" fill="#f2696a"/><g id="ee28O3JhwkA39_tr" transform="translate(62.666462,146.88881) rotate(5)"><g transform="translate(-62.666458,-146.8888)"><path d="M67.09,130c0,0-6.3-8.51-3.87-14.61c0,0,2-3.93,5.1-4.65c0,0,0,8.26,3,7.11s-.32-8.65-.32-8.65s3.09-4.47,6.62-4.45.25,7.71,2.66,6.38-.09-7.71,2.65-8.56c2.510935-.66027,5.063331-1.151372,7.64-1.47s2.85,7.44.27,8.6-6.4,1.65-4.51,3.25s7.06-.47,7.06-.47.46,4.22-1.26,6.11-12.29-1.83-10.33,1.75s8.81,1.54,8.81,1.54-3.37,5.16-7.44,7.6-16.08.52-16.08.52Z" fill="#8ccc00"/><path d="M88.42,104.51q-1.64,1.48-3.29,3c.08-1.2.18-2.4.33-3.6.08-.63-.89-.87-1-.24q-.3,2.4-.42,4.82c-2.88,2.69-5.74,5.51-8.38,8.48-.300856-2.018727-.427988-4.059542-.38-6.1c0-.64-1-.61-1,0-.050654,2.344587.123475,4.688632.52,7-1.679626,1.954193-3.248738,4.000716-4.7,6.13-1.793887-2.318719-3.050776-5.006686-3.68-7.87-.14-.63-1.09-.33-1,.3.680227,3.048543,2.048417,5.90122,4,8.34.029213.034284.062839.064548.1.09-4.2,6.37-7,13.45-7,21.56c0,.64,1,.61,1,0c0-7.8,2.68-14.65,6.71-20.81c4.068822.940781,8.263452,1.214344,12.42.81.64-.06.61-1.06,0-1-3.946221.383981-7.92829.144382-11.8-.71c2.026189-2.930808,4.265585-5.708328,6.7-8.31h.09c2.34.13,4.68.27,7,.28c1.474415.165985,2.966647-.054576,4.33-.64.57-.31,0-1.15-.53-.85-1.59.86-3.86.51-5.59.46-1.48,0-3-.12-4.45-.2c3.45-3.64,7.16-7,10.75-10.29.48-.4-.25-1.08-.73-.65Z" fill="#06577a"/></g></g><g id="ee28O3JhwkA42_tr" transform="translate(65.357698,155.931168) rotate(5)"><g transform="translate(-65.357695,-155.931167)"><path d="M69.19,151.71c0,0-4.49-4.16-3.75-7.88c0,0,.74-2.45,2.4-3.18c0,0,.86,4.69,2.46,3.72s-1.08-4.87-1.08-4.87s1.27-2.87,3.29-3.23s1,4.35,2.19,3.34-.87-4.37.59-5.14c1.354879-.64283,2.751346-1.194067,4.18-1.65s2.41,3.92,1.07,4.85-3.46,1.62-2.21,2.32s4-1,4-1s.71,2.35-.06,3.6-7.17.27-5.68,2.1s5.17-.07,5.17-.07c-.806566,1.904297-1.967085,3.638289-3.42,5.11-2.1,1.78-9.15,1.98-9.15,1.98Z" fill="#8ccc00"/><path d="M76.58,137.29L74,142c-.35194-.438854-.660076-.911106-.92-1.41-.3-.57-1.14,0-.85.53.334823.637122.740744,1.234262,1.21,1.78v0l-2.8,5.1c-.346606-.30633-.576312-.723334-.65-1.18-.1-.63-1.1-.6-1,0c.119183.789601.533805,1.504467,1.16,2l-3.53,6.37c-.085744.157197-.081111.348196.012154.501051s.260992.244342.44.24.342102-.103854.427846-.261051l4.65-8.4c.825438-.01194,1.643188-.160621,2.42-.44.6-.22.31-1.18-.3-1-.49803.174018-1.014998.288153-1.54.34l4.71-8.51c.009831-.208131-.110438-.400541-.301839-.482887s-.413803-.037367-.558161.112887Z" fill="#06577a"/></g></g><g id="ee28O3JhwkA45_tr" transform="translate(61.006878,151.71) rotate(0)"><g transform="translate(-61.084415,-151.709996)"><path d="M52.89,142.93c0,0-10.56.75-14.4-4.59c0,0-2.22-3.84-1.18-6.8c0,0,6.94,4.47,7.6,1.29s-7.43-4.41-7.43-4.41-2.11-5-.19-8s6.64,3.94,6.81,1.18-6.55-4.06-5.8-6.84c.790713-2.471197,1.746188-4.886612,2.86-7.23s7.81,1.59,7.4,4.39-2.05,6.29.32,5.55s3.39-6.21,3.39-6.21s3.81,1.88,4.48,4.34-8.15,9.38-4.08,9.65s6-6.61,6-6.61s2.54,5.62,2.41,10.36-8.19,13.93-8.19,13.93Z" fill="#8ccc00"/><path d="M58.07,124.94c.066274-.276142-.103858-.553726-.38-.62s-.553726.103858-.62.38c-.948388,3.717884-3.078566,7.027205-6.07,9.43q-1.85-4.66-3.41-9.43c2.335428-2.480037,4.229409-5.3413,5.6-8.46.26-.59-.62-1.07-.88-.48-1.26101,2.866329-2.976403,5.51033-5.08,7.83C46,120,45,116.27,44.11,112.54c-.15-.63-1.11-.33-1,.3q1.84,7.65,4.42,15.06c-1.89567-.308991-3.746198-.849708-5.51-1.61-.59-.25-1.07.62-.48.88c2.059278.903208,4.232968,1.518975,6.46,1.83v0c1.16,3.26,2.44,6.47,3.81,9.64-3.013199.007041-6.00117-.549176-8.81-1.64-.59-.23-1.08.65-.48.88c3.072523,1.205407,6.349766,1.803122,9.65,1.76q2.6,5.93,5.67,11.66c.31.57,1.15,0,.85-.53-2.736985-5.07358-5.190746-10.294916-7.35-15.64v0c3.31418-2.553664,5.682375-6.139386,6.73-10.19Z" fill="#06577a"/></g></g></g></g></svg>
