<svg id="eQVH97GTLRv1" xmlns="http://www.w3.org/2000/svg" xmlns:xlink="http://www.w3.org/1999/xlink" viewBox="0 0 400 300" shape-rendering="geometricPrecision" text-rendering="geometricPrecision">
<style><![CDATA[
#eQVH97GTLRv2 {animation: eQVH97GTLRv2_c_o 3000ms linear 1 normal forwards}@keyframes eQVH97GTLRv2_c_o { 0% {opacity: 0;animation-timing-function: cubic-bezier(0.445,0.05,0.55,0.95)} 40% {opacity: 1} 100% {opacity: 1}} #eQVH97GTLRv59 {animation: eQVH97GTLRv59_f_p 3000ms linear 1 normal forwards}@keyframes eQVH97GTLRv59_f_p { 0% {fill: #053855} 10% {fill: #053855;animation-timing-function: cubic-bezier(0.445,0.05,0.55,0.95)} 33.333333% {fill: #68e1fd} 100% {fill: #68e1fd}} #eQVH97GTLRv65_tr {animation: eQVH97GTLRv65_tr__tr 3000ms linear 1 normal forwards}@keyframes eQVH97GTLRv65_tr__tr { 0% {transform: translate(277.001678px,112.988107px) rotate(-103.050116deg)} 16.666667% {transform: translate(277.001678px,112.988107px) rotate(-103.050116deg);animation-timing-function: cubic-bezier(0.445,0.05,0.55,0.95)} 46.666667% {transform: translate(277.001678px,112.988107px) rotate(0deg)} 100% {transform: translate(277.001678px,112.988107px) rotate(0deg)}} #eQVH97GTLRv65 {animation: eQVH97GTLRv65_c_o 3000ms linear 1 normal forwards}@keyframes eQVH97GTLRv65_c_o { 0% {opacity: 0} 16.666667% {opacity: 0;animation-timing-function: cubic-bezier(0.445,0.05,0.55,0.95)} 46.666667% {opacity: 1} 100% {opacity: 1}} #eQVH97GTLRv82 {animation: eQVH97GTLRv82_c_o 3000ms linear 1 normal forwards}@keyframes eQVH97GTLRv82_c_o { 0% {opacity: 0} 26.666667% {opacity: 0;animation-timing-function: cubic-bezier(0.42,0,1,1)} 46.666667% {opacity: 1;animation-timing-function: cubic-bezier(0,0,0.58,1)} 66.666667% {opacity: 0} 100% {opacity: 0}} #eQVH97GTLRv83 {animation: eQVH97GTLRv83_c_o 3000ms linear 1 normal forwards}@keyframes eQVH97GTLRv83_c_o { 0% {opacity: 0} 26.666667% {opacity: 0;animation-timing-function: cubic-bezier(0.42,0,1,1)} 46.666667% {opacity: 1;animation-timing-function: cubic-bezier(0,0,0.58,1)} 66.666667% {opacity: 0} 100% {opacity: 0}} #eQVH97GTLRv84 {animation: eQVH97GTLRv84_c_o 3000ms linear 1 normal forwards}@keyframes eQVH97GTLRv84_c_o { 0% {opacity: 0} 26.666667% {opacity: 0;animation-timing-function: cubic-bezier(0.42,0,1,1)} 46.666667% {opacity: 1;animation-timing-function: cubic-bezier(0,0,0.58,1)} 66.666667% {opacity: 0} 100% {opacity: 0}} #eQVH97GTLRv85 {animation: eQVH97GTLRv85_c_o 3000ms linear 1 normal forwards}@keyframes eQVH97GTLRv85_c_o { 0% {opacity: 0} 26.666667% {opacity: 0;animation-timing-function: cubic-bezier(0.42,0,1,1)} 46.666667% {opacity: 1;animation-timing-function: cubic-bezier(0,0,0.58,1)} 66.666667% {opacity: 0} 100% {opacity: 0}} #eQVH97GTLRv86_to {animation: eQVH97GTLRv86_to__to 3000ms linear 1 normal forwards}@keyframes eQVH97GTLRv86_to__to { 0% {transform: translate(160.209999px,64.220001px)} 36.666667% {transform: translate(160.209999px,64.220001px);animation-timing-function: cubic-bezier(0.42,0,1,1)} 73.333333% {transform: translate(160.209999px,-50px)} 100% {transform: translate(160.209999px,-50px)}} #eQVH97GTLRv86 {animation: eQVH97GTLRv86_c_o 3000ms linear 1 normal forwards}@keyframes eQVH97GTLRv86_c_o { 0% {opacity: 1} 46.666667% {opacity: 1} 63.333333% {opacity: 0} 100% {opacity: 0}}
]]></style>
<defs><linearGradient id="eQVH97GTLRv15-fill" x1="156.4" y1="189.64" x2="186.86" y2="136.58" spreadMethod="pad" gradientUnits="userSpaceOnUse" gradientTransform="translate(0 0)"><stop id="eQVH97GTLRv15-fill-0" offset="0%" stop-color="rgba(255,255,255,0)"/><stop id="eQVH97GTLRv15-fill-1" offset="99%" stop-color="#0048aa"/></linearGradient><linearGradient id="eQVH97GTLRv22-fill" x1="72.53" y1="211.1" x2="118" y2="178.81" spreadMethod="pad" gradientUnits="userSpaceOnUse" gradientTransform="translate(0 0)"><stop id="eQVH97GTLRv22-fill-0" offset="0%" stop-color="rgba(255,255,255,0)"/><stop id="eQVH97GTLRv22-fill-1" offset="99%" stop-color="#0048aa"/></linearGradient><linearGradient id="eQVH97GTLRv43-fill" x1="319.47" y1="198.2" x2="339.18" y2="179.66" spreadMethod="pad" gradientUnits="userSpaceOnUse" gradientTransform="translate(0 0)"><stop id="eQVH97GTLRv43-fill-0" offset="0%" stop-color="rgba(0,0,0,0)"/><stop id="eQVH97GTLRv43-fill-1" offset="99%" stop-color="#552800"/></linearGradient><linearGradient id="eQVH97GTLRv64-fill" x1="220.65" y1="240.51" x2="264.46" y2="213.22" spreadMethod="pad" gradientUnits="userSpaceOnUse" gradientTransform="translate(0 0)"><stop id="eQVH97GTLRv64-fill-0" offset="0%" stop-color="rgba(0,113,188,0)"/><stop id="eQVH97GTLRv64-fill-1" offset="99%" stop-color="#2e3192"/></linearGradient></defs><g id="eQVH97GTLRv2" transform="translate(.000001 0)" opacity="0"><polygon points="341.47,66.96 274.65,27.07 274.65,83 341.47,120.79 341.47,66.96" fill="#68e1fd"/><line x1="279.79" y1="36.02" x2="279.79" y2="82.51" fill="none" stroke="#29abe2" stroke-miterlimit="10"/><line x1="291.34" y1="43.24" x2="291.34" y2="89.73" fill="none" stroke="#29abe2" stroke-miterlimit="10"/><line x1="309.39" y1="53.97" x2="309.39" y2="100.46" fill="none" stroke="#29abe2" stroke-miterlimit="10"/><line x1="322.43" y1="61.05" x2="322.43" y2="107.55" fill="none" stroke="#29abe2" stroke-miterlimit="10"/><line x1="334.11" y1="68.61" x2="334.11" y2="115.1" fill="none" stroke="#29abe2" stroke-miterlimit="10"/><path d="M280.83,75.57c0,0,3-14.44,8.88-11.83c6.29,2.77.56,14.68,7.38,18.22c6.6,3.43,4.69-21.68,12.32-18.72c6.81,2.64,4.27,12.79,4.28,18c0,2.4-.81,11.27,3.85,12.63c8.16,2.38,4.78-22.07,15.29-16.52" fill="none" stroke="#fff" stroke-miterlimit="10"/><ellipse rx="1.28" ry="1.55" transform="translate(280.83 75.67)" fill="#fff"/><ellipse rx="1.28" ry="1.55" transform="translate(332.83 77.68)" fill="#fff"/><ellipse rx="1.28" ry="1.55" transform="translate(303.67 68.61)" fill="#fff"/><ellipse rx="1.28" ry="1.55" transform="translate(313.73 79.23)" fill="#fff"/><path d="M21.33,166.12L177.55,77.21c7.760931-4.415365,17.285407-4.365838,25,.13l161,93.75c4.299603,2.499068,6.93937,7.102107,6.924931,12.075207s-2.680889,9.560733-6.994931,12.034793L213.23,281.47c-10.358603,5.954456-23.101397,5.954456-33.46,0L21.28,190.29c-4.331083-2.48757-6.997456-7.104891-6.987124-12.099506s2.695786-9.600865,7.037124-12.070494Z" fill="#3fc1c9"/><path d="M197.38,212.45c.09,0,56.32-29.21,56.39-29.16l-92.22-56.21-52.23-18.67L88.8,145c12.26,7.28,95.5,61.63,108.58,67.45Z" opacity="0.32" fill="url(#eQVH97GTLRv15-fill)"/><path d="M246.89,146.8c0,0-.76,35.82-1.85,36.84s-5.89-33-5.89-33" fill="#844040"/><path d="M198.06,162c.85,2.43-2.07,49.78-.68,50.43s8.84-49.9,8.84-49.9" fill="#844040"/><polyline points="265.07,131.74 265.07,140.2 262.22,140.2 261.24,135.54" fill="#a85c5c"/><polygon points="98.42,104.95 98.42,96.64 101.92,101.24 98.42,104.95" fill="#a85c5c"/><path d="M101.81,98.59L146.15,73c3.199207-1.847063,7.140793-1.847063,10.34,0l105.15,60.7c2.153416,1.230157,3.48245,3.519982,3.48245,6s-1.329034,4.769843-3.48245,6l-44.42,25.64c-3.059977,1.766678-6.830023,1.766678-9.89,0L101.81,110.39c-2.109333-1.215869-3.409103-3.465329-3.409103-5.9s1.29977-4.684131,3.409103-5.9Z" fill="#a85c5c"/><path d="M101.31,91l44.34-25.6c3.199207-1.847063,7.140793-1.847063,10.34,0l105.16,60.71c2.153416,1.230157,3.48245,3.519982,3.48245,6s-1.329034,4.769843-3.48245,6l-44.42,25.64c-3.059977,1.766678-6.830023,1.766678-9.89,0L101.31,102.84c-2.128992-1.210491-3.444038-3.47094-3.444038-5.92s1.315046-4.709509,3.444038-5.92Z" fill="#c96f6f"/><path d="M74.66,214.08c4.92,1.51,9.85,3,14.9,4c3.085068.547978,6.200973.905321,9.33,1.07l5.24-3.55l36.27-27-25.65-17.77L47,202.28c8.13,5.95,18.15,8.89,27.66,11.8Z" opacity="0.32" fill="url(#eQVH97GTLRv22-fill)"/><path d="M109.56,160c-3.65-2.55-8-3.95-12.59-2.93-4.95,1.09-9.23,4.2-14.27,5-.8.12-4-.08-4.47.38-14,13.27,25.18,11.85,25.18,11.85c3.81-3.12,7.39-6.18,11.17-9.33-1.14-2.63-3.06-3.63-5.02-4.97Z" fill="#f8997c"/><path d="M91.11,179.21l-1.39,40.05c-.05,1.52,2.31,1.52,2.36,0l1.39-40.05c.05-1.51-2.31-1.51-2.36,0Z" fill="#844040"/><path d="M120.51,200.64Q109.8,190.16,100,178.76c-1-1.16-2.65.52-1.67,1.67q9.75,11.39,20.47,21.88c1.12,1.07,2.8-.6,1.71-1.67Z" fill="#844040"/><path d="M82.92,175.51q-8.32,15.7-15.66,31.87c-.62,1.37,1.41,2.57,2,1.19Q76.64,192.4,85,176.7c.67-1.34-1.37-2.54-2.08-1.19Z" fill="#844040"/><path d="M113.93,163.71c-2.363322,3.234155-5.688328,5.638659-9.5,6.87-5.36,1.61-13.15.85-16-4.67-5.13-10-.31-22.62-5.73-32.38-1.276934-2.508323-3.56024-4.355329-6.28-5.08-3.51-.76-5.92,1.84-7.19,4.89-2.28,5.48-2.2,12.3-2.09,18.14-.00742,4.714655.326789,9.423651,1,14.09s3.28,19.58,28.84,14.32c4.420128-.788452,8.669865-2.338117,12.56-4.58c1.983616-1.126675,3.7239-2.635829,5.12-4.44c1.65-2.24.61-4.87-.73-7.16Z" fill="#68e1fd"/><path d="M131.62,182.5c0,0-.21,3.58.9,4.57s7.07-1.78,8.66-.79-6,8.14-8.66,8.54-5.14-3.4-5.14-3.4v5.39l-3,1.72-2.22-1.32.66-14.71Z" fill="#8787d1"/><path d="M121.4,185.13c3.18,2.74,6.6,2.65,10.54,1c2.84-5,6.18-35.37-.92-40.23-7.62-5.21-19.52-4.28-21.51-3.72l-29.17,4.78C78.1,150.73,84,170.68,97,171.23s21.22-4.32,21.22-4.32Z" fill="#124577"/><path d="M110.06,101.77c-1.389779.613909-2.538891,1.66814-3.27,3v.1c-2.05,1.68-2.37,4.75-4.55,6.26c0,.06-2.05,1.5-2.07,1.56s.2-2.81.19-2.79v0c-.71,1.94-1.4,3.88-2,5.85.096226.061031.20059.108163.31.14l-.23.11-.2.12c-.053882.19967-.198243.362538-.39.44-.168721.588557.024826,1.221281.493937,1.614729s1.125868.473882,1.676063.205271l6.6-3.22c.877137-.186758,1.739437-.437427,2.58-.75c0-.69.11-1.38.17-2.06c1.052751-1.631141,1.217968-3.681329.44-5.46.034311-.045311.074689-.085689.12-.12v-.07c1.103224-.770274,1.849438-1.95268,2.07-3.28.06-.94-.89-2.14-1.94-1.65Z" fill="#f7931e"/><path d="M101.67,108c0,0,7.52,4.67,8.3,8.56c0,0-5.28,11.47-4.93,11.93c6,7.78-11.93-4.93-11.93-4.93s3.64-10.88,8.56-15.56Z" fill="#68e1fd"/><path d="M118.79,110.86c.62,5.19-6,12.43-8.8,13.82-3.83,1.91-5.32-14-22.15-13.94-1.09,0-6.55-2.32-9.42,4.85s0,27.74,1.91,31.32c1.69,3.16,12.91,10.76,28.93,2.63l.24-7.41c0,0,9.5-.19,14.5-7.13c4.67-6.48,7.44-16.23,7-21-3.81-1.67-8.49-4.36-12.21-3.14Z" fill="#68e1fd"/><path d="M101.67,108c0,0,7.52,4.67,8.3,8.56c0,0-5.28,11.47-4.93,11.93c6,7.78-11.93-4.93-11.93-4.93s3.64-10.88,8.56-15.56Z" fill="#8787d1"/><polyline points="111.79,88.3 131.76,92.7 128.39,120.72 109.2,114.49" fill="#124577"/><path d="M132.4,104.53c-.105215-.450023-.399882-.832568-.808146-1.049159s-.890239-.246067-1.321854-.080841c-.094098-.396122-.31971-.748641-.64-1-.531798-.400334-1.255127-.432129-1.82-.08-.172783.101088-.328114.229405-.46.38l-.1-.11c-.448535-.528082-1.175257-.72664-1.83-.5-.189675.088753-.359677.214555-.5.37-.186414-.915758-.423444-1.820479-.71-2.71-.27-.89-.71-2.53-1.81-2.73-.72-.13-1,.4-1.19,1-.176945.425279-.201671.898599-.07,1.34.048939.60154.135778,1.199395.26,1.79.1.84.19,1.69.27,2.54v0c-.149335-.00214-.293337.055461-.4.16-1.077829.793112-1.515284,2.194586-1.08,3.46.487488,1.768137,1.157769,3.480705,2,5.11.06832.146282.194521.257468.348246.306811s.32106.03238.461754-.046811l.08.31c.068183.294009.338171.496206.639487.478917s.546406-.249039.580513-.548917v-.12c.061837.050497.133279.087919.21.11l.05.68c0,.63,1,.63,1.19.11l.06.5c.08.69,1.18.62,1.22-.07v-.56c.207668-.008094.401364-.106769.53-.27.109041.136838.266632.226378.44.25.166005.135425.393927.166329.59.08v.15c.110149.339947.461619.539547.81.46c0,.07,0,.14,0,.21c0,.79,1.24.89,1.23.1q0-2.36-.13-4.73c.068533-.034517.129675-.082072.18-.14c1.24-1.25,2.32-3.37,1.72-5.15Zm-6.6-1.19c.100034-.066983.224917-.085348.34-.05-.032748.046511-.059618.096894-.08.15h-.37c.031586-.038527.068646-.072218.11-.1Z" fill="#f7931e"/><path d="M96.75,91.8c0,.17,1,10.69-1.31,13s-8.61,1.36-10.16-1.17-3.46-5.87-1.8-9.79s12.99-4.63,13.27-2.04Z" fill="#f7931e"/><path d="M93.38,98.64c.178038-.374541.106429-.820105-.18-1.12-.71959-.893821-1.720597-1.517687-2.84-1.77-1.049548-.248124-2.118932.327367-2.49,1.34-.72,2.39,3.15,3.09,4.73,3.29.577637-.005424,1.044576-.472363,1.05-1.05.008267-.257266-.089325-.506668-.27-.69Z" fill="#ffe8e6"/><path d="M118.79,110.86c.62,5.19-6,12.43-8.8,13.82-3.83,1.91-5.32-14-22.15-13.94-1.09,0-6.55-2.32-9.42,4.85s0,27.74,1.91,31.32c1.69,3.16,12.91,10.76,28.93,2.63l.24-7.41c0,0,9.5-.19,14.5-7.13c4.67-6.48,7.44-16.23,7-21-3.81-1.67-8.49-4.36-12.21-3.14Z" fill="#8787d1"/><path d="M117.47,140.32c-8.983757,3.223166-19.007209-.104224-24.28-8.06-.34-.51-1.17,0-.83.48c5.49253,8.328435,15.95782,11.836122,25.36,8.5.58-.24.33-1.13-.25-.92Z" fill="#fff"/><path d="M108,122.91c-.857253-2.000346-2.128484-3.796428-3.73-5.27-1.83-1.67-4.1-2.74-6-4.3-.38-.31-.94.23-.55.55c1.81,1.48,3.94,2.5,5.71,4c1.693577,1.474423,3.030481,3.313948,3.91,5.38.2.49.87.09.66-.36Z" fill="#fff"/><path d="M97,93.28L93.63,95c0,0,2.59,9.86,3.37,12.45s-2.33,6.22-12.45,6.48-9.6-15-7.26-20.75s9.34-8.3,15-6.74c3.186972.591996,5.293739,3.651506,4.71,6.84Z" fill="#b24d16"/><path d="M115.06,166c-.2066-.515934-.664683-.888834-1.211802-.986461s-1.105905.093824-1.478198.506461c-2.154543,2.35464-4.893994,4.096986-7.94,5.05-5.36,1.61-13.15.85-16-4.67-5.11-10-.35-22.52-5.67-32.28-.916328-1.758124-2.300586-3.228898-4-4.25-4.8-2.77-8,.26-9.53,4-2.28,5.48-2.2,12.3-2.09,18.14-.00742,4.714655.326789,9.423651,1,14.09s3.28,19.58,28.84,14.32c4.420128-.788452,8.669865-2.338117,12.56-4.58c1.983616-1.126675,3.7239-2.635829,5.12-4.44.982575-1.45046,1.134324-3.309385.4-4.9Z" fill="#68e1fd"/><path d="M315.52,202.31c2.8.86,5.61,1.7,8.49,2.28c1.759116.312443,3.535818.516163,5.32.61l3-2L353,187.8l-15.82-5.26-37.42,13c4.63,3.46,10.35,5.11,15.76,6.77Z" opacity="0.32" fill="url(#eQVH97GTLRv43-fill)"/><path d="M344.74,171.07c-3.73-.32-7.66-1.45-10.42-4v11.06c0,3.044685,1.209497,5.964668,3.362414,8.117586s5.072901,3.362414,8.117586,3.362414v0c3.044685,0,5.964668-1.209497,8.117586-3.362414s3.362414-5.072901,3.362414-8.117586v-11.25c-3.91,1.6-8.36,4.55-12.54,4.19Z" fill="#68e1fd"/><ellipse rx="11.48" ry="6.09" transform="translate(345.8 166.99)" fill="#5ed18d"/><path d="M345.8,168c0,0-7.81-1.15-9.87-13.78c0,.03,6.66,3.7,9.87,13.78Z" fill="#5ed18d"/><path d="M347,166.42c0,0-9-16.07,0-26.87c2.736465,8.747654,2.736465,18.122346,0,26.87Z" fill="#5ed18d"/><path d="M345.8,156.32c0,0-7.81-1.15-9.87-13.78c0,0,6.66,3.67,9.87,13.78Z" fill="#5ed18d"/><path d="M346.75,161.46c0,0-2-7.65,8.9-14.43c0-.03-.82,7.57-8.9,14.43Z" fill="#5ed18d"/><ellipse rx="11.48" ry="6.09" transform="translate(345.8 166.99)" fill="#146666"/><path d="M345.8,168c0,0-7.81-1.15-9.87-13.78c0,.03,6.66,3.7,9.87,13.78Z" fill="#5ed18d"/><path d="M347,166.42c0,0-9-16.07,0-26.87c2.736465,8.747654,2.736465,18.122346,0,26.87Z" fill="#5ed18d"/><path d="M345.8,156.32c0,0-7.81-1.15-9.87-13.78c0,0,6.66,3.67,9.87,13.78Z" fill="#5ed18d"/><path d="M346.75,161.46c0,0-2-7.65,8.9-14.43c0-.03-.82,7.57-8.9,14.43Z" fill="#5ed18d"/><polyline points="241.17,133.9 241.17,134.84 240.7,135.42" fill="#adcee1"/><path d="M222.26,122.44l18.38,11.39c.365419.200015.592643.583422.592643,1s-.227224.799985-.592643,1l-27.89,15.78c-.788973.455514-1.761027.455514-2.55,0l-18.3-10.75c-1.33-1.09-1.23-3.15,0-3.23l27.73-15.16c.805986-.487506,1.813103-.498994,2.63-.03Z" fill="#88d3d8"/><path d="M222.26,121.65L240.64,133c.365419.200015.592643.583422.592643,1s-.227224.799985-.592643,1l-27.89,15.78c-.788973.455514-1.761027.455514-2.55,0L191.86,140c-.434737-.254871-.701825-.72106-.701825-1.225s.267088-.970129.701825-1.225l27.73-15.94c.82881-.481851,1.855996-.466462,2.67.04Z" fill="#fff"/><path d="M221.51,120.1c0,0-7.63-24.63-7.58-24.63s-.24-1.09-1.6-.48L183,112.23c0,0-1.42.58-1.14,1.9s7.46,24.1,7.46,24.1c.306884.442797.86457.636775,1.38.48.89-.28,30.09-17.24,30.09-17.24.567669-.190738.884861-.794284.72-1.37Z" fill="#053855"/><polygon id="eQVH97GTLRv59" points="213.44,97.25 183.44,114.74 189.66,135.63 220.04,118.66 213.44,97.25" fill="#053855"/><path d="M223.39,124.26l6.72,4.19c.244384.146287.393977.410178.393977.695s-.149593.548713-.393977.695L206,143.59c-.733281.42336-1.636719.42336-2.37,0-1.55-.9-4.22-2.53-5.85-3.53-.289656-.183311-.465234-.502212-.465234-.845s.175578-.661689.465234-.845L222,124.24c.428952-.259997.968706-.252231,1.39.02Z" fill="#68e1fd"/><path d="M223,135.62l-8.43,4.74c-.262389.149372-.424428.428073-.424428.73s.162039.580628.424428.73l5,2.9c.346529.200069.773471.200069,1.12,0l8.62-4.92c.220311-.124012.356634-.357184.356634-.61s-.136323-.485988-.356634-.61l-5.15-3c-.363953-.203692-.810943-.188279-1.16.04Z" fill="#68e1fd"/><path d="M223.39,124.26l6.72,4.19c.244384.146287.393977.410178.393977.695s-.149593.548713-.393977.695L206,143.59c-.733281.42336-1.636719.42336-2.37,0-1.55-.9-4.22-2.53-5.85-3.53-.289656-.183311-.465234-.502212-.465234-.845s.175578-.661689.465234-.845L222,124.24c.428952-.259997.968706-.252231,1.39.02Z" opacity="0.1" fill="#053855"/><path d="M223,135.62l-8.43,4.74c-.262389.149372-.424428.428073-.424428.73s.162039.580628.424428.73l5,2.9c.346529.200069.773471.200069,1.12,0l8.62-4.92c.220311-.124012.356634-.357184.356634-.61s-.136323-.485988-.356634-.61l-5.15-3c-.363953-.203692-.810943-.188279-1.16.04Z" opacity="0.1" fill="#053855"/><path d="M231.11,248.83c15.31-9.17,42.87-25.21,46.55-28.52l-.88-3.24L256.1,204.8l-50.35,29.26c7.13,6.01,17.63,9.51,25.36,14.77Z" opacity="0.41" fill="url(#eQVH97GTLRv64-fill)"/><g id="eQVH97GTLRv65_tr" transform="translate(277.001678,112.988107) rotate(-103.050116)"><g id="eQVH97GTLRv65" transform="translate(-277.00167,-112.988094)" opacity="0"><path d="M248,92.53l-4.39-3.29c-.014552-.286168-.16752-.547332-.41-.7q-6.29-4.38-12.56-8.8c-.267245-.205649-.620137-.26276-.938605-.151901s-.559616.374756-.641395.701901c-.44.76.12,1.55.83,2.14s1.59,1.31,2.39,2c-.103858.075754-.192136.170823-.26.28-.64,1-1.71,2.42-1.72,3.67s1,1.87,1.78,2.55v.18c-.16,1.54.52,2,1.74,2.73.237452.160611.532414.211592.81.14.84637.551166,1.739855,1.026353,2.67,1.42l3.7,1.88c.94.48,1.62-.65,1.24-1.41.74.06,1.05-.75.86-1.38.094702-.092179.166606-.20517.21-.33v-.05l1.28,1c1,.81,2.26-.8,1.23-1.61l-.91-.72l1.87,1.4c.455635.336894,1.098106.240635,1.435-.215s.240635-1.098106-.215-1.435Z" fill="#f04900"/><path d="M277.73,98.69c-.62,0-21.41-.54-35.46-13.13c0,0-6.73,6.6-4,11.65c0,0,19.92,19.19,35.11,15.26" fill="#006ba4"/></g></g><path d="M277,221.12l1.58-1v-17.79l-7.81-.28c0,0-.15,7.59-2,9.32s-6.41.49-6.86.64-3.52-.74-4.9.68s4.68,5.52,7.9,6.27c2.20512.445099,4.467842.529529,6.7.25s.7-4.55,1.82-4.1s1.2,5.26,1.2,5.26Z" fill="#006ba4"/><path d="M282.92,126.94c1.100173,6.107284,1.748597,12.287367,1.94,18.49.13,7-2.34,62.94-2.34,62.94s-4.64,5.44-15.94,2.16c-1.64-.47-2.16-54.59-2.16-54.59l3.86-24.84" fill="#fc9c54"/><path d="M261.26,92.75c-.057171-.088049-.155019-.141181-.26-.141181s-.202829.053132-.26.141181c-2.002358,3.030082-2.721581,6.730484-2,10.29.08.38.66.22.59-.16-.638754-3.222236-.042649-6.566851,1.67-9.37c1.711297,3.197392,2.591591,6.77359,2.56,10.4c0,.168447.136553.305.305.305s.305-.136553.305-.305c.025853-3.910873-.977742-7.75971-2.91-11.16Z" fill="#42a200"/><path d="M255.65,234.85l1.58-1v-17.79l-7.81-.28c0,0-.15,7.59-2,9.32s-6.41.49-6.86.64-3.52-.74-4.9.68s4.68,5.52,7.9,6.27c2.20512.445099,4.467842.529529,6.7.25s.7-4.55,1.82-4.1s1.2,5.26,1.2,5.26Z" fill="#006ba4"/><path d="M258.45,129.53c0,0-7.2,26.58-10.13,50.37-.7,5.71-6.61,39.77-6.61,39.77s9.74,3.56,18.4.77c0,0,10.3-43.46,10.74-44.31s7.39-29,8.19-49.2" fill="#fc9c54"/><path d="M280.46,95.71l-4.11-1.55c-1.05.07-10.4,3.13-14.65,9.32-.601298,1.939792-1.055912,3.922045-1.36,5.93-.54,2.67-1,5.35-1.34,8-.388096,2.936665-.555233,5.898317-.5,8.86c0,1.27.07,1.91.2,3.17.457755.462106.992387.841086,1.58,1.12c12.28,5.28,22-1.13,22.49-2.12s2.11-15.47,3-24.09c.385444-3.748949-1.791167-7.290554-5.31-8.64Z" fill="#006ba4"/><path d="M270.43,79.94c0,0-3.86,14,1.27,15.93s11.73-3.57,12.39-6.46-5.96-13.68-13.66-9.47Z" fill="#f04900"/><path d="M295.77,75.76c-1.384525-2.908726-4.685826-4.370307-7.77-3.44-2.83.92-4.54,3.35-5.37,6.06-2.55-2.23-6.35-3.36-11.17-1.88c0,0-4.73,2-3.87,5s4.45,3,7.46,3.59.57,3.23.72,6.2s1.49,3.46,2.74,3.72s6.93-1,7.73-7.67c.048407-.40812.068455-.819106.06-1.23.780537.081221,1.566012.104618,2.35.07c1.767987.057185,3.511635-.424062,5-1.38c2.685562-2.177252,3.557613-5.895808,2.12-9.04Z" fill="#fc9c54"/><path d="M265.49,95.29c.391523-.551008.559486-1.230006.47-1.9-.05732-.41037-.361783-.742883-.765526-.836055s-.823125.072301-1.054474.416055l-.44.6c-.07-.77-.15-1.54-.26-2.31-.01933-.552285-.482715-.98433-1.035-.965s-.98433.482715-.965,1.035c0,.24-.06.49-.08.73-.083189.25692-.140146.521603-.17.79-1.09.14-2.39.54-2.58,1.79c0,0,0,.06,0,.08-.84,0-1.66.33-1.69,1.33-.014737.189714-.014737.380286,0,.57-.85.25-1.47.68-1.35,1.79.181616,1.292086.517341,2.557767,1,3.77.14115.305886.426828.520144.76.57.12.54.26,1.07.41,1.6.225232.462414.671686.777181,1.182891.833981s1.015865-.152286,1.337109-.553981c.10218-.006897.203027-.027066.3-.06.242597.166503.54621.217715.83.14.250865.178194.5698.230971.864695.143088s.53291-.306637.645305-.593088c.237279-.21162.359788-.523461.33-.84c0-.23,0-.46,0-.68v0q1.2-3.74,2.26-7.45Z" fill="#f04900"/><path d="M263.78,100.47c-.32.08-4.82-4.05-8.23-2.63c0,0-13,21.92-.87,27.72c6,2.88,10.67-6,10.67-6l-3.45-6.82Z" fill="#006ba4"/><path d="M262.71,101.36c-2.853955,4.649284-4.814246,9.790809-5.78,15.16-.11.63.85.9,1,.27.945416-5.284283,2.871947-10.344817,5.68-14.92.29-.55-.61-1.05-.9-.51Z" fill="#653200"/><path d="M265.12,120.41c-1,1.95-2.28,4-4.28,5-2.413755,1.130019-5.271275.68736-7.23-1.12-4.26-3.67-3.62-10-2.77-14.93.11-.63-.85-.9-1-.27-1,5.54-1.51,12.74,3.72,16.45c2.042811,1.509265,4.70944,1.885376,7.09,1c2.5-1,4.09-3.38,5.29-5.69.34-.51-.52-1.01-.82-.44Z" fill="#653200"/><path d="M276,146.49c-.64,12.71-4.39,24.89-7.57,37.13s-5.89,24.43-8.21,36.78l1.08-.3q3.53-18.71,8.34-37.15c3.15-12,6.73-24,7.36-36.46.05-.64-.95-.64-1,0Z" fill="#653200"/><g transform="translate(0 0.000001)"><path id="eQVH97GTLRv82" d="M152.58,91.72l-11.88-7c0,0,3-2.3,4.69-1.5.698432.264665,1.350005.639404,1.93,1.11s1.22-2.53,3.35-2c1.15126.201406,2.134455.94625,2.64,2s.92-2.38,3-1.11c1.250939.790513,2.080628,2.101128,2.26,3.57L158.35,95Z" opacity="0" fill="#fff"/><path id="eQVH97GTLRv83" d="M167.66,93.11l11.88-7c0,0-3-2.3-4.69-1.5-.698432.264665-1.350005.639404-1.93,1.11s-1.22-2.53-3.35-2c-1.15126.201406-2.134455.94625-2.64,2s-.92-2.38-3-1.11c-1.250939.790513-2.080628,2.101128-2.26,3.57l.23,8.24Z" opacity="0" fill="#fff"/><path id="eQVH97GTLRv84" d="M158.87,85.91c0,0-5.13.89-6,3-.517317,1.11352-.595873,2.381127-.22,3.55s-3.24.1-3.82,2.34s0,2.95,0,2.95-7.23.29-7,7.59v2.34l17.05-9.84Z" opacity="0" fill="#fff"/><path id="eQVH97GTLRv85" d="M161.32,85.24c0,0,5.13.89,6,3c.517317,1.11352.595873,2.381127.22,3.55s3.24.1,3.82,2.34s0,2.95,0,2.95s7.23.29,7,7.59v2.33l-17.05-9.84Z" opacity="0" fill="#fff"/></g><g id="eQVH97GTLRv86_to" transform="translate(160.209999,64.220001)"><g id="eQVH97GTLRv86" transform="translate(-160.209999,-64.220001)"><path d="M165.7,73.68c0,0,4.38,4.52,4.38,7.1s0,10.93,0,10.93h-1.83c0,0-3.75-8.61-6.14-11.44s3.59-6.59,3.59-6.59Z" fill="#68e1fd"/><path d="M165.7,73.68c0,0,4.38,4.52,4.38,7.1s0,10.93,0,10.93h-1.83c0,0-3.75-8.61-6.14-11.44s3.59-6.59,3.59-6.59Z" opacity="0.61" fill="#363636"/><path d="M154.72,73.68c0,0-4.38,4.52-4.38,7.1s0,10.93,0,10.93h1.83c0,0,3.75-8.61,6.14-11.44s-3.59-6.59-3.59-6.59Z" fill="#68e1fd"/><path d="M154.72,73.68c0,0-4.38,4.52-4.38,7.1s0,10.93,0,10.93h1.83c0,0,3.75-8.61,6.14-11.44s-3.59-6.59-3.59-6.59Z" opacity="0.61" fill="#363636"/><path d="M164.51,43.45c-1.05963-2.875267-2.463157-5.611807-4.18-8.15-1.723501,2.55458-3.117843,5.316384-4.15,8.22c2.47,1.32,5.57.9,8.33-.07Z" fill="#68e1fd"/><ellipse rx="4.45" ry="3.92" transform="translate(160.21 61.83)" fill="#68e1fd"/><path d="M160.33,35.29c0,0-13.2,17.83-4.42,45.44c0,0,1,5.89,4.12,5.77s5.56-6.5,5.56-6.5s7.18-26.45-5.26-44.71Z" fill="#68e1fd"/><path d="M164.51,43.45c-1.05963-2.875267-2.463157-5.611807-4.18-8.15-1.723501,2.55458-3.117843,5.316384-4.15,8.22c2.47,1.32,5.57.9,8.33-.07Z" opacity="0.61" fill="#363636"/><ellipse rx="4.45" ry="3.92" transform="translate(160.21 61.83)" opacity="0.61" fill="#363636"/><path d="M155.91,80.73c0,0-3,3.12-3,4.89s0,7.53,0,7.53h1.26c0,0,2.59-5.93,4.23-7.88s-2.49-4.54-2.49-4.54Z" fill="#68e1fd"/><path d="M164.51,80.73c0,0,3,3.12,3,4.89s0,7.53,0,7.53h-1.26c0,0-2.59-5.93-4.23-7.88s2.49-4.54,2.49-4.54Z" fill="#68e1fd"/><path d="M155.91,80.73c0,0-3,3.12-3,4.89s0,7.53,0,7.53h1.26c0,0,2.59-5.93,4.23-7.88s-2.49-4.54-2.49-4.54Z" opacity="0.29" fill="#363636"/><path d="M164.51,80.73c0,0,3,3.12,3,4.89s0,7.53,0,7.53h-1.26c0,0-2.59-5.93-4.23-7.88s2.49-4.54,2.49-4.54Z" opacity="0.29" fill="#363636"/></g></g></g></svg>
