<svg id="eGnIykHUEoz1" xmlns="http://www.w3.org/2000/svg" xmlns:xlink="http://www.w3.org/1999/xlink" viewBox="0 0 400 300" shape-rendering="geometricPrecision" text-rendering="geometricPrecision">
<style><![CDATA[
#eGnIykHUEoz2 {animation: eGnIykHUEoz2_c_o 3000ms linear 1 normal forwards}@keyframes eGnIykHUEoz2_c_o { 0% {opacity: 0} 40% {opacity: 1} 100% {opacity: 1}} #eGnIykHUEoz68_ts {animation: eGnIykHUEoz68_ts__ts 3000ms linear 1 normal forwards}@keyframes eGnIykHUEoz68_ts__ts { 0% {transform: translate(135.32px,86.075001px) scale(0,0)} 6.666667% {transform: translate(135.32px,86.075001px) scale(0,0);animation-timing-function: cubic-bezier(0.445,0.05,0.55,0.95)} 23.333333% {transform: translate(135.32px,86.075001px) scale(1,1)} 100% {transform: translate(135.32px,86.075001px) scale(1,1)}} #eGnIykHUEoz69_ts {animation: eGnIykHUEoz69_ts__ts 3000ms linear 1 normal forwards}@keyframes eGnIykHUEoz69_ts__ts { 0% {transform: translate(161.785004px,84.884998px) scale(0,0)} 20% {transform: translate(161.785004px,84.884998px) scale(0,0);animation-timing-function: cubic-bezier(0.445,0.05,0.55,0.95)} 36.666667% {transform: translate(161.785004px,84.884998px) scale(1,1)} 100% {transform: translate(161.785004px,84.884998px) scale(1,1)}} #eGnIykHUEoz70_ts {animation: eGnIykHUEoz70_ts__ts 3000ms linear 1 normal forwards}@keyframes eGnIykHUEoz70_ts__ts { 0% {transform: translate(147.074997px,93.364998px) scale(0,0)} 20% {transform: translate(147.074997px,93.364998px) scale(0,0);animation-timing-function: cubic-bezier(0.445,0.05,0.55,0.95)} 36.666667% {transform: translate(147.074997px,93.364998px) scale(1,1)} 100% {transform: translate(147.074997px,93.364998px) scale(1,1)}} #eGnIykHUEoz71_ts {animation: eGnIykHUEoz71_ts__ts 3000ms linear 1 normal forwards}@keyframes eGnIykHUEoz71_ts__ts { 0% {transform: translate(115.450001px,109.329998px) scale(0,0)} 13.333333% {transform: translate(115.450001px,109.329998px) scale(0,0);animation-timing-function: cubic-bezier(0.445,0.05,0.55,0.95)} 30% {transform: translate(115.450001px,109.329998px) scale(1,1)} 100% {transform: translate(115.450001px,109.329998px) scale(1,1)}} #eGnIykHUEoz72_ts {animation: eGnIykHUEoz72_ts__ts 3000ms linear 1 normal forwards}@keyframes eGnIykHUEoz72_ts__ts { 0% {transform: translate(115.450001px,119.419998px) scale(0,0)} 13.333333% {transform: translate(115.450001px,119.419998px) scale(0,0);animation-timing-function: cubic-bezier(0.445,0.05,0.55,0.95)} 30% {transform: translate(115.450001px,119.419998px) scale(1,1)} 100% {transform: translate(115.450001px,119.419998px) scale(1,1)}} #eGnIykHUEoz73_ts {animation: eGnIykHUEoz73_ts__ts 3000ms linear 1 normal forwards}@keyframes eGnIykHUEoz73_ts__ts { 0% {transform: translate(148.720001px,118.985001px) scale(0,0)} 33.333333% {transform: translate(148.720001px,118.985001px) scale(0,0);animation-timing-function: cubic-bezier(0.445,0.05,0.55,0.95)} 50% {transform: translate(148.720001px,118.985001px) scale(1,1)} 100% {transform: translate(148.720001px,118.985001px) scale(1,1)}} #eGnIykHUEoz74_ts {animation: eGnIykHUEoz74_ts__ts 3000ms linear 1 normal forwards}@keyframes eGnIykHUEoz74_ts__ts { 0% {transform: translate(158.449997px,113.539997px) scale(0,0)} 33.333333% {transform: translate(158.449997px,113.539997px) scale(0,0);animation-timing-function: cubic-bezier(0.445,0.05,0.55,0.95)} 50% {transform: translate(158.449997px,113.539997px) scale(1,1)} 100% {transform: translate(158.449997px,113.539997px) scale(1,1)}} #eGnIykHUEoz75_ts {animation: eGnIykHUEoz75_ts__ts 3000ms linear 1 normal forwards}@keyframes eGnIykHUEoz75_ts__ts { 0% {transform: translate(167.805px,108.324997px) scale(0,0)} 33.333333% {transform: translate(167.805px,108.324997px) scale(0,0);animation-timing-function: cubic-bezier(0.445,0.05,0.55,0.95)} 50% {transform: translate(167.805px,108.324997px) scale(1,1)} 100% {transform: translate(167.805px,108.324997px) scale(1,1)}} #eGnIykHUEoz76_ts {animation: eGnIykHUEoz76_ts__ts 3000ms linear 1 normal forwards}@keyframes eGnIykHUEoz76_ts__ts { 0% {transform: translate(151.689995px,117.329998px) scale(0,0)} 33.333333% {transform: translate(151.689995px,117.329998px) scale(0,0);animation-timing-function: cubic-bezier(0.445,0.05,0.55,0.95)} 50% {transform: translate(151.689995px,117.329998px) scale(1,1)} 100% {transform: translate(151.689995px,117.329998px) scale(1,1)}} #eGnIykHUEoz77_ts {animation: eGnIykHUEoz77_ts__ts 3000ms linear 1 normal forwards}@keyframes eGnIykHUEoz77_ts__ts { 0% {transform: translate(144.385002px,121.399998px) scale(0,0)} 33.333333% {transform: translate(144.385002px,121.399998px) scale(0,0);animation-timing-function: cubic-bezier(0.445,0.05,0.55,0.95)} 50% {transform: translate(144.385002px,121.399998px) scale(1,1)} 100% {transform: translate(144.385002px,121.399998px) scale(1,1)}}
]]></style>
<defs><linearGradient id="eGnIykHUEoz6-fill" x1="200.35" y1="134.25" x2="188.91" y2="215.59" spreadMethod="pad" gradientUnits="userSpaceOnUse" gradientTransform="translate(0 0)"><stop id="eGnIykHUEoz6-fill-0" offset="1%" stop-color="#000"/><stop id="eGnIykHUEoz6-fill-1" offset="100%" stop-color="#fff"/></linearGradient><linearGradient id="eGnIykHUEoz78-fill" x1="342.79" y1="181.29" x2="315.98" y2="206.78" spreadMethod="pad" gradientUnits="userSpaceOnUse" gradientTransform="translate(0 0)"><stop id="eGnIykHUEoz78-fill-0" offset="0%" stop-color="#00a99d"/><stop id="eGnIykHUEoz78-fill-1" offset="100%" stop-color="#fff"/></linearGradient></defs><g id="eGnIykHUEoz2" style="isolation:isolate" opacity="0"><g><path d="M196.24,288.6L23.74,186.65c-5.49-3.08-10.2-8.15-4.85-11.46L192,75.41c2.6-1.61,6.54-2.66,9.18-1.13l181.1,105.09c5.49,3.19,6.48,12.1,1,15.29L219,288.44c-7.023422,4.078603-15.679931,4.139458-22.76.16Z" fill="#4444a5"/><polygon points="66.23,211.76 250.86,103.1 346.72,158.74 165.94,270.69 66.23,211.76" fill="#cecece"/><path style="mix-blend-mode:multiply" d="M218.73,141.77L99.14,222.13c0,0,57.6,36.3,65.32,39.55l116.41-68.24" fill="url(#eGnIykHUEoz6-fill)"/><path d="M129.8,194.31L136.51,183c7.35-5.74,25.51-19.26,25.51-19.26c5.25-6.6,19.71-21,19.71-21c10.28-7.56,48.67-28,51.56-28.35s12.95,1.89,14.5,2s6.25-3.06,6.25-3.06c13.94,1.15,27.57,12.58,34.08,17.53c3.911675,3.095451,6.319356,7.71078,6.62,12.69s.69,23.88.29,25.14-4.26,4-4.26,4s.13-13.46-9.61-8.69-11.83,21.36-12.73,22.23-48.51,28.39-59.05,34.49c.1-3-.28-6.06-2.53-8.21-2.62-2.5-6.48-2.17-9.58-.91-3.156716,1.224144-5.86897,3.375121-7.78,6.17-2.8,3.45-4.15,8-4.82,12.31-.08.54-.37,8-.49,8-25.68,8.41-54.14-22.42-54.71-24.83s.33-18.94.33-18.94Z" fill="#fcb72b"/><path d="M150,216.5c9.6,6.09,19.47,8.76,36.2,6.53-.3,1.19-1.4,5.89-1.59,7.07-.08.54-.37,8-.49,8-25.68,8.41-54.14-22.42-54.71-24.83-.52-2.23.22-16.48.34-18.69c4.63,9.57,5.78,12.73,20.25,21.92Z" fill="#dd910a"/><path d="M139.14,210.88c0,0-.14,3.86-.07,3.93c4.432848,3.803435,9.455167,6.860059,14.87,9.05l.07-3.76c0,0-8.9-4.33-14.87-9.22Z" fill="#68e1fd"/><path d="M165.4,160.18c0,0-3.94-3.33-6.6-2.13s3.21,5.69,3.21,5.69Z" fill="#1f1971"/><ellipse rx="16.44" ry="10.99" transform="matrix(.435231-.900319 0.900319 0.435231 280.856271 178.627096)" fill="#020202"/><ellipse rx="8.94" ry="5.98" transform="matrix(.435231-.900319 0.900319 0.435231 281.943695 178.696215)" fill="#cecece"/><path d="M161.77,220.39c-.746492-.213576-1.431838-.600796-2-1.13-1-1.1-.31-2.53.48-3.54.771403-.965168,1.858501-1.627341,3.07-1.87c2.424299-.628091,4.881354-1.122172,7.36-1.48c1.65-.24,3.31-.44,5-.56c1.793979-.232117,3.611622-.211921,5.4.06c1.87.4,1.43,2.81.78,4.06-1.202189,1.997104-2.932422,3.623523-5,4.7-1.448896.821455-3.059813,1.316335-4.72,1.45-1.770099.077029-3.543011-.06064-5.28-.41-1.285384-.214604-2.554907-.51528-3.8-.9-.43-.11-.86-.23-1.29-.38Z" fill="#68e1fd"/><path d="M129.8,194.31c0,0,3.11,6.1,4.94,7.65s2.71.5,2.94-1.05-.92-17.9-1.18-17.9-4.76,2.22-6.7,11.3Z" fill="#68e1fd"/><path d="M141.33,199.44c.55.26,1.16.78,1.59,1q4.65,2.82,9.27,5.7l4.62,2.87c1,.63,3.26,1.39,2.26,2.89-1.083211,1.527036-2.379731,2.890908-3.85,4.05-1,.86-1.84,1.13-3.08.4-2.26-1.32-4.52-2.62-6.77-4-1.73-1-3.71-2.31-4.25-4.4-.559427-2.147401-.934126-4.338724-1.12-6.55-.06-.75-.19-2.31,1-2.11.115004.038167.225625.088449.33.15Z" fill="#68e1fd"/><path d="M169.15,231.76c.792089.234586,1.341833.954103,1.36,1.78c0,1.91-1.74,1.82-3.08,1.87-1.67.07-16.68-5-26.45-12.66s-11.45-14.15-11.45-14.15l.09-5c0,0,2.39,10.39,15.2,18c5.275792,3.133222,10.845699,5.742336,16.63,7.79c1.8.64,3.61,1.22,5.45,1.73.763187.163907,1.514801.377699,2.25.64Z" fill="#68e1fd"/><path d="M269,137.48l10.65.66c0,0,1.53.58.63-2s-11.2-13.07-24.9-16.24c0,0-19-3.28-15.47-1.93c1.97.77,17.44,8.03,29.09,19.51Z" fill="#68e1fd"/><path d="M268.4,154.94c3.48-2.46,7-4.91,10.38-7.44-1.934326-1.048049-4.047086-1.726303-6.23-2-1.332029-.083415-2.667971-.083415-4,0Z" fill="#68e1fd"/><path d="M245,152.36c-7.57446,3.658768-14.366734,8.752974-20,15-5.712125,6.632767-10.226159,14.209171-13.34,22.39-.239333.623618-.055074,1.330408.458258,1.757807s1.241808.480552,1.811742.132193c5.95-3.71,17.73-11.09,26.22-16.55l2.13-1.37v-.15l2.38-1.7Z" fill="#68e1fd"/><path d="M265.25,145.77c-3.107521.438105-6.171977,1.140655-9.16,2.1-2.15.68-4.29,1.48-6.4,2.36l-.34,18.3l14.92-10.67.76-.54Z" fill="#68e1fd"/><ellipse rx="17" ry="11.09" transform="matrix(.435231-.900319 0.900319 0.435231 197.162524 225.920207)" fill="#020202"/><ellipse rx="9.25" ry="6.03" transform="matrix(.435231-.900319 0.900319 0.435231 198.162406 225.933244)" fill="#cecece"/><g clip-path="url(#eGnIykHUEoz42)"><g><rect width="75.06" height="71.57" rx="0" ry="0" transform="translate(157.75 132.03)" fill="#68e1fd"/><path d="M187.3,158.47c0,0,3.27-7.83,6.25-7.46s10.54,3.68,11.65,6.78-3.51,24.68-4.52,25.79c-.688978.682519-1.610688,1.079069-2.58,1.11s1,.65.37,2.4-8.4,6.18-9.32,6.09-4.51-6.69-4.51-6.69" fill="#1f758c"/><path d="M195,152.24c0,0-1-6.67,1.16-6.39s8.85,3.76,8.66,5.15-1.29,5.64-1.29,5.64" fill="#1f758c"/><path d="M191.8,178.32c0,0,1.32,4.22-1.93,6.29-1.72,1.1-7,2.29-7,2.29l-8.08-6l5.3-3.83" fill="#493d3f"/><path d="M169.33,167.94c0,0,3.22,10.38,3.94,10.38h1.56l-2.75-10.8" fill="#372727"/><polyline points="180.14,173.66 174.83,178.32 177.49,180.91 182.82,175.2" fill="#372727"/><path d="M140.85,193c0,0,6.5-10.21,8-11.41s9.82-6.77,14.33-6.23c0,0,1.86-2.33,8.89,0s15.12,9.32,16.58,15.29c0,0,14.86,8.22,15.26,11.14s-1.19,16.85-1.19,16.85l-15.26,10.08-3.18-10.61Z" fill="#1f758c"/><path d="M184.87,156.84c0,0-2.1.84-2.74,6.49l3.38.41" fill="#c43333"/><path d="M182.36,162c0,0-.62,5-1.08,5.24s-6.3-1.66-6.3-1.66c-.849622-.378591-1.725179-.696064-2.62-.95-1.57-.45-3,0-3,.6.00727.676743.293026,1.320598.79,1.78.52.62,3.54.74,3.74.24.123911-.317827.168531-.661056.13-1l-.13,1c.890367-.03431,1.766701.229645,2.49.75l5.71,4.07c0,0,.51-2.64.93-2.76s1.66-6.89,1.66-6.89" fill="#fddca7"/><path d="M194.7,161.28c-1.29-2.69-8.77-5.11-9.83-4.44-.486849.727028-.826577,1.542378-1,2.4-.89,6-1.86,11.88-3.24,17.74.203878,1.016962.918596,1.856472,1.89,2.22c3,1,8.72,1,9.33,0s4.15-15.2,2.85-17.92Z" fill="#ec5f5d"/><path d="M191,154.95l-.63,3.23c0,0-.61,1.05-3.13.25v-3" fill="#e5bc80"/><path d="M191,155.88c0,0,1.8-1.6,1.92-3s.77-2.91-1-3.87-5.47-.82-7-1-2.54,4.34,1.69,4.77" fill="#4c3d3a"/><path d="M185.67,150.74c0,0-.49,6.31,1.37,6.89s3.8-1.6,4-1.75c.211786-.431979.379306-.884284.5-1.35s1.07-1.42.32-1.81-1,.52-1,.52.36-1.07-1.21-1.82-1.88,1.25-3.98-.68Z" fill="#fddca7"/><path d="M180,189c-3.47,0-7.66-2.32-10.94-6.4-4.66-5.8-5.46-12.65-1.81-15.58c1.84-1.48,4.45-1.69,7.34-.59c5.903043,2.584797,10.165617,7.897136,11.41,14.22.44,3.06-.32,5.56-2.16,7-1.086068.879275-2.442635,1.356193-3.84,1.35Zm-8.88-20.79c-.838865-.030149-1.662254.231356-2.33.74-2.48,2-1.48,7.54,2.19,12.1s8.87,6.74,11.35,4.74c1.13-.9,1.57-2.59,1.26-4.76-1.115478-5.451756-4.795269-10.029148-9.88-12.29-.822868-.340145-1.700112-.529819-2.59-.56Z" fill="#372727"/><path d="M191.62,163.74c0,.07-1,6.5-2,7.29s-6.81-.39-6.81-.39-3-1.31-3.66-1.44-1.41.79-1.21,1.64s2.7,2.75,3.51,2.69.66-.74.66-.74s4.92,3,8.1,2s4.2-7.34,4.2-7.34" fill="#fddca7"/><path d="M189.87,167.31c0,0,1-7.95,3.24-7.63s2.8,5.4,1.46,8.9Z" fill="#c43333"/><path d="M173.36,165.11c-.49703-.129631-1.011437.138379-1.19.62-.131329-.015204-.261581-.038582-.39-.07-.249898-.1043-.467396-.273465-.63-.49-.390037-.387724-1.019963-.387724-1.41,0-.387724.390037-.387724,1.019963,0,1.41.564634.665197,1.370381,1.078862,2.24,1.15.950547.158247,1.862175-.44369,2.09-1.38.07321-.258671.039187-.535924-.094393-.769219s-.355466-.40298-.615607-.470781Z" fill="#fddca7"/></g><clipPath id="eGnIykHUEoz42"><path d="M185.15,143.67c-2-1.91-19.8,17.89-20.92,20.56s-2.77,4.38.92,8.48s24.53,16.29,28.67,17.29s6.39,3.21,12-1.92s14.11-21.89,14.11-21.89-24.63-12.79-34.78-22.52Z" fill="none"/></clipPath></g><polygon points="216.93,205.04 216.93,212.91 223.75,208.53 223.75,200.57 216.93,205.04" fill="#020202"/><polygon points="223.75,192.86 223.75,200.72 230.56,196.35 230.56,188.39 223.75,192.86" fill="#020202"/><polygon points="230.56,196.38 230.56,204.25 237.38,199.87 237.38,191.91 230.56,196.38" fill="#020202"/><polygon points="237.32,184.12 237.32,191.99 244.13,187.61 244.13,179.65 237.32,184.12" fill="#020202"/><polygon points="244.13,187.6 244.13,195.47 250.95,191.09 250.95,183.14 244.13,187.6" fill="#020202"/><polygon points="250.95,175.42 250.95,183.29 257.76,178.91 257.76,170.95 250.95,175.42" fill="#020202"/><polygon points="257.76,178.94 257.76,186.81 264.58,182.43 264.58,174.47 257.76,178.94" fill="#020202"/><path d="M226.92,149.31l8.63-5-2.75-6.83c0,0-3-.22-4,.76s-1.88,11.07-1.88,11.07Z" fill="#3f3f3f"/><path d="M208.32,138.56c0,0,2.69-9,3-9.58.852497-1.01988,2.046632-1.695135,3.36-1.9c1.18,0,18.15,10.36,18.15,10.36-1.285912.077095-2.415369.880524-2.91,2.07-.67,2-3,9.8-3,9.8Z" fill="#020202"/><polygon points="215.57,134.06 215.31,135.34 214.13,134.65 213.32,138.64 212.18,137.98 212.98,133.99 211.8,133.31 212.06,132.03 215.57,134.06" fill="#fff"/><path d="M218.2,135.58l.53,6.19-1.24-.72-.07-1.29L216,139l-.53.94-1.24-.72l2.67-4.34ZM216.56,138l.78.45-.08-1.77-.7,1.32" fill="#fff"/><polygon points="225.73,139.93 224.66,145.2 223.51,144.53 224.58,139.27 225.73,139.93" fill="#fff"/><polygon points="223.94,138.9 222.17,140.69 223,144.23 221.73,143.5 221.24,141.25 220.03,142.52 218.77,141.79 220.71,139.85 219.95,136.59 221.22,137.33 221.63,139.29 222.68,138.17 223.94,138.9" fill="#fff"/><path d="M63.83,179.71v-74.71c-.003821-3.707006,1.965834-7.135805,5.17-9L174.18,35.29c.639735-.366981,1.426408-.365867,2.0651.002927s1.032924,1.049555,1.0349,1.787073v76.8Z" fill="#edf5f8"/><path d="M63.83,113.77v-8.77c-.003821-3.707006,1.965834-7.135805,5.17-9L174.18,35.29c.639735-.366981,1.426408-.365867,2.0651.002927s1.032924,1.049555,1.0349,1.787073v11.46Z" fill="#68e1fd"/><path d="M71.95,119.5v37.27c-.002842.315803.163763.608913.436558.768044s.609945.159877.883442.001956L97.9,143.69v-38c-.001437-.561699-.300979-1.080405-.78676-1.362405s-1.084758-.284892-1.57324-.007595L73.37,117c-.89292.512922-1.436757,1.470382-1.42,2.5Z" fill="#fff"/><path d="M81.09,141.52c0,0-9,7.07-9.2,7.81-.12.52,0,4.66.1,7.12.015727.389901.233256.74351.574175.933363s.756077.188579,1.095825-.003363l23.2-13.1c.642332-.363684,1.0424-1.041895,1.05-1.78l.09-7.87-9.86,2.11" fill="#68e1fd"/><path d="M80.37,137.22l.72,4.3c0,0,5.5.55,6.22,0s1.92-4.28,1.92-4.28v-4.38" fill="#d3835f"/><path d="M91.26,126.68c0,0,2-5.66,1.38-8.7s-.12-4.8-4.65-4.61-9.67,5-10.58,9C76.8,125,78.5,132,79.54,132.83" fill="#563317"/><path d="M78.8,126.11l.5,10.39c0,0,2.26,4.19,5.53,3.1s5.7-7.12,6.2-8.72s0-12.49,0-12.49-.92,4-4.78,4.61-7.54,1.2-7.45,3.11Z" fill="#f1a782"/><path d="M79.53,131.46c0,0-.93-1.69-2.5-1.06s1.14,5,2.5,4.1" fill="#f1a782"/><path d="M90.87,125.79c0,0,.25-2.66,1.61-2.2s-.76,4.53-1.61,5.5" fill="#f1a782"/><path d="M80.9,140.41l-1.22,2.22l6.84,3.26.27-2.22L88.36,145l2.9-8.54-2-.18c0,0-.15,3.61-3,4.81-1.790406.663131-3.791906.409209-5.36-.68Z" fill="#136db7"/><path d="M94.18,155.09l-.49.4c0-.39.05-.79.07-1.19.259301-.906756.420229-1.838793.48-2.78c0-.18-.24-.19-.3,0-.282588.842204-.437636,1.721933-.46,2.61v0c-.148192.871291-.489912,1.698253-1,2.42-.53.56-1.2.15-1.77.52-.199827.143057-.358476.336195-.46.56-.07-.37-.21-.75-.58-.76s-.63.37-.84.75c-.05-.35-.23-.64-.67-.62s-.82.51-1.07,1c.017247-.409358-.122224-.809891-.39-1.12-.254791-.202094-.615209-.202094-.87,0-.092293-.255123-.29139-.457225-.545103-.553328s-.536742-.076625-.774897.053328c-.357852.139045-.694458.327544-1,.56-.022897-.322485-.169848-.623556-.41-.84-.39-.24-.89.3-1.15.53-.541659.47894-1.009995,1.034879-1.39,1.65-.882313,1.531961-1.418214,3.238653-1.57,5c0,.19.28.19.3,0c.144266-1.548467.582063-3.055302,1.29-4.44.29677-.545684.659489-1.05282,1.08-1.51.214134-.229825.444746-.443726.69-.64q.38-.55.75.06c0,.14.08.29.11.43-.646267.575224-1.220452,1.226638-1.71,1.94-.887716,1.243675-1.563511,2.625676-2,4.09-.2.68-.87,2.76,0,3.23c1,.55,2-1.44,2.41-2c.874474-1.362256,1.456749-2.891154,1.71-4.49.096488-.720116.096488-1.449884,0-2.17c0-.1,0-.24,0-.39.84-.7,1.73-1.14,2-.31-.102648.079755-.199554.166636-.29.26-1.130325,1.176637-1.625311,2.82535-1.33,4.43.013338.051832.053284.092631.104823.107062s.106862.000307.145177-.037062c1.038682-.990442,1.663915-2.337371,1.75-3.77.042669-.295132.042669-.594868,0-.89.84-.35.9,1.07.81,1.68-.022091.080081.024919.162909.105.185s.162909-.024919.185-.105c.120482-.350901.281575-.686512.48-1c.09578-.159927.206258-.310579.33-.45q1,.06.66.79c0,.16.2.28.28.12.111963-.315161.281506-.606776.5-.86.74-.57.7.24.76.68c0,.16.25.12.29,0c.061957-.176258.138905-.346883.23-.51.227771-.322315.606051-.503889,1-.48.16,0,.28,0,.42,0l-.25.29c-.584073.566202-.894119,1.357731-.85,2.17.013303.054301.055699.096697.11.11c1.22.41,2.14-1.57,2.39-2.45.12243-.445268.206075-.900301.25-1.36.24-.21.49-.42.74-.62s-.11-.37-.26-.28ZM80.75,165.46c-.21.27-.88,1.09-1.29.43-.093008-.387835-.093008-.792165,0-1.18.09909-.752883.287068-1.491368.56-2.2.454262-1.253348,1.091133-2.432739,1.89-3.5.419501-.526504.881014-1.018115,1.38-1.47.43,2.81-.83,5.76-2.54,7.92Zm4.53-5.75c-.193551.646893-.536045,1.239409-1,1.73-.151785-.956569-.008779-1.93668.41-2.81.190163-.439621.465452-.83726.81-1.17l.17-.12c.060923.8098-.0728,1.622423-.39,2.37Zm8.11-4.28c0,.11,0,.23,0,.34l-.16.14v0Zm-.5,2.36c-.197112.504484-.508618.956338-.91,1.32l-.31.23q-.75-.3-.29-.86c.159166-.288013.346768-.559366.56-.81.415205-.511474.866349-.992694,1.35-1.44-.06722.534748-.201614,1.058884-.4,1.56Z" fill="#0f1c15"/><g id="eGnIykHUEoz68_ts" transform="translate(135.32,86.075001) scale(0,0)"><polygon points="103.17,101.02 103.17,107.36 167.47,71.86 167.47,64.79 103.17,101.02" transform="translate(-135.32,-86.075001)" fill="#a6b9bf"/></g><g id="eGnIykHUEoz69_ts" transform="translate(161.785004,84.884998) scale(0,0)"><polygon points="166.85,78.75 156.72,84.46 156.72,91.02 166.85,85.43 166.85,78.75" transform="translate(-161.785004,-84.884998)" fill="#a6b9bf"/></g><g id="eGnIykHUEoz70_ts" transform="translate(147.074997,93.364998) scale(0,0)"><polygon points="151.79,87.49 142.36,92.8 142.36,99.24 151.79,94.04 151.79,87.49" transform="translate(-147.074997,-93.364998)" fill="#a6b9bf"/></g><g id="eGnIykHUEoz71_ts" transform="translate(115.450001,109.329998) scale(0,0)"><polygon points="127.73,99.24 103.17,113.08 103.17,119.42 127.73,105.86 127.73,99.24" transform="translate(-115.450001,-109.329998)" fill="#a6b9bf"/></g><g id="eGnIykHUEoz72_ts" transform="translate(115.450001,119.419998) scale(0,0)"><polygon points="127.73,109.33 103.17,123.17 103.17,129.51 127.73,115.95 127.73,109.33" transform="translate(-115.450001,-119.419998)" fill="#a6b9bf"/></g><g id="eGnIykHUEoz73_ts" transform="translate(148.720001,118.985001) scale(0,0)"><polygon points="149.46,114.81 147.98,115.64 147.98,123.16 149.46,122.35 149.46,114.81" transform="translate(-148.720001,-118.985001)" fill="#a6b9bf"/></g><g id="eGnIykHUEoz74_ts" transform="translate(158.449997,113.539997) scale(0,0)"><polygon points="162.97,107.2 153.93,112.3 153.93,119.88 162.97,114.89 162.97,107.2" transform="translate(-158.449997,-113.539997)" fill="#a6b9bf"/></g><g id="eGnIykHUEoz75_ts" transform="translate(167.805,108.324997) scale(0,0)"><polygon points="164.46,106.36 164.46,114.06 171.15,110.37 171.15,102.59 164.46,106.36" transform="translate(-167.805,-108.324997)" fill="#a6b9bf"/></g><g id="eGnIykHUEoz76_ts" transform="translate(151.689995,117.329998) scale(0,0)"><polygon points="152.43,113.14 150.95,113.97 150.95,121.52 152.43,120.71 152.43,113.14" transform="translate(-151.689995,-117.329998)" fill="#a6b9bf"/></g><g id="eGnIykHUEoz77_ts" transform="translate(144.385002,121.399998) scale(0,0)"><polygon points="146.49,116.49 142.28,118.86 142.28,126.31 146.49,123.99 146.49,116.49" transform="translate(-144.385002,-121.399998)" fill="#a6b9bf"/></g><path style="mix-blend-mode:multiply" d="M346.33,194.58l-5.5-7.08-41.93,18.85c4.09,2.09,10,5.7,15.79,9.06c11.31-5.82,21.14-13.57,31.64-20.83Z" opacity="0.68" fill="url(#eGnIykHUEoz78-fill)"/><rect width="10.33" height="68.49" rx="2.01" ry="2.01" transform="translate(336.38 126.92)" fill="#bc532a"/><path d="M367.06,140.93c-2.38-10.34-13-55.88-31.72-42.49C325.73,105.3,323,116,319.17,126.5c-3.18,8.68-5.83,17.82-6,27.13-.3,19,19,21.27,33.72,21.2c8.51,0,20.64-5.06,22.62-14.29c1.2-5.57-.84-12.14-2-17.59q-.22-1.01-.45-2.02Z" fill="#2c9135"/><path d="M368,142.94q-.22-1-.45-2C365.4,131.79,356.88,95.12,342,96c4.43,19.33,11,39.75,7.48,59.53-1.11375,6.907579-3.814522,13.462684-7.89,19.15c2,.1,3.94.13,5.82.12c8.51,0,20.64-5.06,22.62-14.29c1.16-5.51-.88-12.11-2.03-17.57Z" fill="#156819"/></g></g></svg>
