<svg xmlns="http://www.w3.org/2000/svg" xmlns:xlink="http://www.w3.org/1999/xlink" viewBox="0 0 400 300" width="406" height="306" class="illustration styles_illustrationTablet__1DWOa"><defs><linearGradient id="linear-gradient" x1="200.35" y1="134.25" x2="188.91" y2="215.59" gradientUnits="userSpaceOnUse"><stop offset="0.01"></stop><stop offset="1" stop-color="#fff"></stop></linearGradient><clipPath id="clip-path"><path d="M185.15,143.67c-2-1.91-19.8,17.89-20.92,20.56s-2.77,4.38.92,8.48S189.68,189,193.82,190s6.39,3.21,12-1.92,14.11-21.89,14.11-21.89S195.3,153.4,185.15,143.67Z" fill="none"></path></clipPath><linearGradient id="linear-gradient-2" x1="342.79" y1="181.29" x2="315.98" y2="206.78" gradientUnits="userSpaceOnUse"><stop offset="0" stop-color="#00a99d"></stop><stop offset="1" stop-color="#fff"></stop></linearGradient></defs><title>PP</title><g style="isolation: isolate;"><g id="Layer_2" data-name="Layer 2"><path d="M196.24,288.6,23.74,186.65c-5.49-3.08-10.2-8.15-4.85-11.46L192,75.41c2.6-1.61,6.54-2.66,9.18-1.13L382.28,179.37c5.49,3.19,6.48,12.1,1,15.29L219,288.44A22.94,22.94,0,0,1,196.24,288.6Z" fill="#4444a5"></path><polygon points="66.23 211.76 250.86 103.1 346.72 158.74 165.94 270.69 66.23 211.76" fill="#cecece"></polygon><path d="M218.73,141.77,99.14,222.13s57.6,36.3,65.32,39.55l116.41-68.24" fill="url(#linear-gradient)" style="mix-blend-mode: multiply;"></path><path d="M129.8,194.31,136.51,183c7.35-5.74,25.51-19.26,25.51-19.26,5.25-6.6,19.71-21,19.71-21,10.28-7.56,48.67-28,51.56-28.35s12.95,1.89,14.5,2,6.25-3.06,6.25-3.06c13.94,1.15,27.57,12.58,34.08,17.53a17.53,17.53,0,0,1,6.62,12.69s.69,23.88.29,25.14-4.26,4-4.26,4,.13-13.46-9.61-8.69-11.83,21.36-12.73,22.23-48.51,28.39-59.05,34.49c.1-3-.28-6.06-2.53-8.21-2.62-2.5-6.48-2.17-9.58-.91a16.77,16.77,0,0,0-7.78,6.17c-2.8,3.45-4.15,8-4.82,12.31-.08.54-.37,8-.49,8-25.68,8.41-54.14-22.42-54.71-24.83S129.8,194.31,129.8,194.31Z" fill="#fcb72b"></path><path d="M150,216.5c9.6,6.09,19.47,8.76,36.2,6.53-.3,1.19-1.4,5.89-1.59,7.07-.08.54-.37,8-.49,8-25.68,8.41-54.14-22.42-54.71-24.83-.52-2.23.22-16.48.34-18.69C134.38,204.15,135.53,207.31,150,216.5Z" fill="#dd910a"></path><path d="M139.14,210.88s-.14,3.86-.07,3.93a53.83,53.83,0,0,0,14.87,9.05l.07-3.76S145.11,215.77,139.14,210.88Z" fill="#68e1fd"></path><path d="M165.4,160.18s-3.94-3.33-6.6-2.13,3.21,5.69,3.21,5.69Z" fill="#1f1971"></path><ellipse cx="280.87" cy="178.64" rx="16.44" ry="10.99" transform="translate(-2.22 353.75) rotate(-64.2)" fill="#020202"></ellipse><ellipse cx="281.96" cy="178.71" rx="8.94" ry="5.98" transform="translate(-1.67 354.77) rotate(-64.2)" fill="#cecece"></ellipse><path d="M161.77,220.39a4.92,4.92,0,0,1-2-1.13c-1-1.1-.31-2.53.48-3.54a5.25,5.25,0,0,1,3.07-1.87,68.2,68.2,0,0,1,7.36-1.48c1.65-.24,3.31-.44,5-.56a19.38,19.38,0,0,1,5.4.06c1.87.4,1.43,2.81.78,4.06a12.66,12.66,0,0,1-5,4.7,11.43,11.43,0,0,1-4.72,1.45,21.94,21.94,0,0,1-5.28-.41,29.11,29.11,0,0,1-3.8-.9C162.63,220.66,162.2,220.54,161.77,220.39Z" fill="#68e1fd"></path><path d="M129.8,194.31s3.11,6.1,4.94,7.65,2.71.5,2.94-1.05-.92-17.9-1.18-17.9S131.74,185.23,129.8,194.31Z" fill="#68e1fd"></path><path d="M141.33,199.44c.55.26,1.16.78,1.59,1q4.65,2.82,9.27,5.7l4.62,2.87c1,.63,3.26,1.39,2.26,2.89a19.59,19.59,0,0,1-3.85,4.05c-1,.86-1.84,1.13-3.08.4-2.26-1.32-4.52-2.62-6.77-4-1.73-1-3.71-2.31-4.25-4.4A38.91,38.91,0,0,1,140,201.4c-.06-.75-.19-2.31,1-2.11A1.71,1.71,0,0,1,141.33,199.44Z" fill="#68e1fd"></path><path d="M169.15,231.76a1.9,1.9,0,0,1,1.36,1.78c0,1.91-1.74,1.82-3.08,1.87-1.67.07-16.68-5-26.45-12.66s-11.45-14.15-11.45-14.15l.09-5s2.39,10.39,15.2,18a94,94,0,0,0,16.63,7.79c1.8.64,3.61,1.22,5.45,1.73A17.85,17.85,0,0,1,169.15,231.76Z" fill="#68e1fd"></path><path d="M269,137.48l10.65.66s1.53.58.63-2-11.2-13.07-24.9-16.24c0,0-19-3.28-15.47-1.93C241.88,118.74,257.35,126,269,137.48Z" fill="#68e1fd"></path><path d="M268.4,154.94c3.48-2.46,7-4.91,10.38-7.44a17.7,17.7,0,0,0-6.23-2,32,32,0,0,0-4,0Z" fill="#68e1fd"></path><path d="M245,152.36a65,65,0,0,0-20,15,75.43,75.43,0,0,0-13.34,22.39,1.56,1.56,0,0,0,2.27,1.89c5.95-3.71,17.73-11.09,26.22-16.55l2.13-1.37v-.15l2.38-1.7Z" fill="#68e1fd"></path><path d="M265.25,145.77a55.15,55.15,0,0,0-9.16,2.1c-2.15.68-4.29,1.48-6.4,2.36l-.34,18.3,14.92-10.67.76-.54Z" fill="#68e1fd"></path><ellipse cx="197.17" cy="225.94" rx="17" ry="11.09" transform="translate(-92.07 305.1) rotate(-64.2)" fill="#020202"></ellipse><ellipse cx="198.16" cy="225.95" rx="9.25" ry="6.03" transform="translate(-91.51 306) rotate(-64.2)" fill="#cecece"></ellipse><g clip-path="url(#clip-path)"><rect x="157.75" y="132.03" width="75.06" height="71.57" fill="#68e1fd"></rect><path d="M187.3,158.47s3.27-7.83,6.25-7.46,10.54,3.68,11.65,6.78-3.51,24.68-4.52,25.79a3.84,3.84,0,0,1-2.58,1.11s1,.65.37,2.4-8.4,6.18-9.32,6.09-4.51-6.69-4.51-6.69" fill="#1f758c"></path><path d="M195,152.24s-1-6.67,1.16-6.39,8.85,3.76,8.66,5.15-1.29,5.64-1.29,5.64" fill="#1f758c"></path><path d="M191.8,178.32s1.32,4.22-1.93,6.29c-1.72,1.1-7,2.29-7,2.29l-8.08-6,5.3-3.83" fill="#493d3f"></path><path d="M169.33,167.94s3.22,10.38,3.94,10.38h1.56l-2.75-10.8" fill="#372727"></path><polyline points="180.14 173.66 174.83 178.32 177.49 180.91 182.82 175.2" fill="#372727"></polyline><path d="M140.85,193s6.5-10.21,8-11.41,9.82-6.77,14.33-6.23c0,0,1.86-2.33,8.89,0s15.12,9.32,16.58,15.29c0,0,14.86,8.22,15.26,11.14s-1.19,16.85-1.19,16.85l-15.26,10.08-3.18-10.61Z" fill="#1f758c"></path><path d="M184.87,156.84s-2.1.84-2.74,6.49l3.38.41" fill="#c43333"></path><path d="M182.36,162s-.62,5-1.08,5.24-6.3-1.66-6.3-1.66a19.55,19.55,0,0,0-2.62-.95c-1.57-.45-3,0-3,.6a2.46,2.46,0,0,0,.79,1.78c.52.62,3.54.74,3.74.24a2.1,2.1,0,0,0,.13-1l-.13,1a4,4,0,0,1,2.49.75l5.71,4.07s.51-2.64.93-2.76,1.66-6.89,1.66-6.89" fill="#fddca7"></path><path d="M194.7,161.28c-1.29-2.69-8.77-5.11-9.83-4.44a6.7,6.7,0,0,0-1,2.4c-.89,6-1.86,11.88-3.24,17.74a3,3,0,0,0,1.89,2.22c3,1,8.72,1,9.33,0S196,164,194.7,161.28Z" fill="#ec5f5d"></path><path d="M191,154.95l-.63,3.23s-.61,1.05-3.13.25v-3" fill="#e5bc80"></path><path d="M191,155.88s1.8-1.6,1.92-3,.77-2.91-1-3.87-5.47-.82-7-1-2.54,4.34,1.69,4.77" fill="#4c3d3a"></path><path d="M185.67,150.74s-.49,6.31,1.37,6.89,3.8-1.6,4-1.75a7.13,7.13,0,0,0,.5-1.35s1.07-1.42.32-1.81-1,.52-1,.52.36-1.07-1.21-1.82S187.77,152.67,185.67,150.74Z" fill="#fddca7"></path><path d="M180,189c-3.47,0-7.66-2.32-10.94-6.4-4.66-5.8-5.46-12.65-1.81-15.58,1.84-1.48,4.45-1.69,7.34-.59A19.67,19.67,0,0,1,186,180.65c.44,3.06-.32,5.56-2.16,7A6.06,6.06,0,0,1,180,189Zm-8.88-20.79a3.63,3.63,0,0,0-2.33.74c-2.48,2-1.48,7.54,2.19,12.1s8.87,6.74,11.35,4.74c1.13-.9,1.57-2.59,1.26-4.76a17.23,17.23,0,0,0-9.88-12.29A7.44,7.44,0,0,0,171.12,168.18Z" fill="#372727"></path><path d="M191.62,163.74c0,.07-1,6.5-2,7.29s-6.81-.39-6.81-.39-3-1.31-3.66-1.44-1.41.79-1.21,1.64,2.7,2.75,3.51,2.69.66-.74.66-.74,4.92,3,8.1,2,4.2-7.34,4.2-7.34" fill="#fddca7"></path><path d="M189.87,167.31s1-7.95,3.24-7.63,2.8,5.4,1.46,8.9Z" fill="#c43333"></path><path d="M173.36,165.11a1,1,0,0,0-1.19.62,3.18,3.18,0,0,1-.39-.07,1.52,1.52,0,0,1-.63-.49,1,1,0,0,0-1.41,0,1,1,0,0,0,0,1.41,3.29,3.29,0,0,0,2.24,1.15,1.84,1.84,0,0,0,2.09-1.38A1,1,0,0,0,173.36,165.11Z" fill="#fddca7"></path></g><polygon points="216.93 205.04 216.93 212.91 223.75 208.53 223.75 200.57 216.93 205.04" fill="#020202"></polygon><polygon points="223.75 192.86 223.75 200.72 230.56 196.35 230.56 188.39 223.75 192.86" fill="#020202"></polygon><polygon points="230.56 196.38 230.56 204.25 237.38 199.87 237.38 191.91 230.56 196.38" fill="#020202"></polygon><polygon points="237.32 184.12 237.32 191.99 244.13 187.61 244.13 179.65 237.32 184.12" fill="#020202"></polygon><polygon points="244.13 187.6 244.13 195.47 250.95 191.09 250.95 183.14 244.13 187.6" fill="#020202"></polygon><polygon points="250.95 175.42 250.95 183.29 257.76 178.91 257.76 170.95 250.95 175.42" fill="#020202"></polygon><polygon points="257.76 178.94 257.76 186.81 264.58 182.43 264.58 174.47 257.76 178.94" fill="#020202"></polygon><path d="M226.92,149.31l8.63-5-2.75-6.83s-3-.22-4,.76S226.92,149.31,226.92,149.31Z" fill="#3f3f3f"></path><path d="M208.32,138.56s2.69-9,3-9.58a5.48,5.48,0,0,1,3.36-1.9c1.18,0,18.15,10.36,18.15,10.36a3.37,3.37,0,0,0-2.91,2.07c-.67,2-3,9.8-3,9.8Z" fill="#020202"></path><polygon points="215.57 134.06 215.31 135.34 214.13 134.65 213.32 138.64 212.18 137.98 212.98 133.99 211.8 133.31 212.06 132.03 215.57 134.06" fill="#fff"></polygon><path d="M218.2,135.58l.53,6.19-1.24-.72-.07-1.29L216,139l-.53.94-1.24-.72,2.67-4.34ZM216.56,138l.78.45-.08-1.77-.7,1.32" fill="#fff"></path><polygon points="225.73 139.93 224.66 145.2 223.51 144.53 224.58 139.27 225.73 139.93" fill="#fff"></polygon><polygon points="223.94 138.9 222.17 140.69 223 144.23 221.73 143.5 221.24 141.25 220.03 142.52 218.77 141.79 220.71 139.85 219.95 136.59 221.22 137.33 221.63 139.29 222.68 138.17 223.94 138.9" fill="#fff"></polygon><path d="M63.83,179.71V105A10.4,10.4,0,0,1,69,96L174.18,35.29a2.07,2.07,0,0,1,3.1,1.79v76.8Z" fill="#edf5f8"></path><path d="M63.83,113.77V105A10.4,10.4,0,0,1,69,96L174.18,35.29a2.07,2.07,0,0,1,3.1,1.79V48.54Z" fill="#68e1fd"></path><path d="M71.95,119.5v37.27a.88.88,0,0,0,1.32.77l24.63-13.85v-38a1.58,1.58,0,0,0-2.36-1.37L73.37,117A2.83,2.83,0,0,0,71.95,119.5Z" fill="#fff"></path><path d="M81.09,141.52s-9,7.07-9.2,7.81c-.12.52,0,4.66.1,7.12a1.12,1.12,0,0,0,1.67.93l23.2-13.1a2.07,2.07,0,0,0,1.05-1.78l.09-7.87-9.86,2.11" fill="#68e1fd"></path><path d="M80.37,137.22l.72,4.3s5.5.55,6.22,0,1.92-4.28,1.92-4.28l0-4.38" fill="#d3835f"></path><path d="M91.26,126.68s2-5.66,1.38-8.7-.12-4.8-4.65-4.61-9.67,5-10.58,9C76.8,125,78.5,132,79.54,132.83" fill="#563317"></path><path d="M78.8,126.11l.5,10.39s2.26,4.19,5.53,3.1,5.7-7.12,6.2-8.72,0-12.49,0-12.49-.92,4-4.78,4.61S78.71,124.2,78.8,126.11Z" fill="#f1a782"></path><path d="M79.53,131.46s-.93-1.69-2.5-1.06,1.14,5,2.5,4.1" fill="#f1a782"></path><path d="M90.87,125.79s.25-2.66,1.61-2.2-.76,4.53-1.61,5.5" fill="#f1a782"></path><path d="M80.9,140.41l-1.22,2.22,6.84,3.26.27-2.22L88.36,145l2.9-8.54-2-.18s-.15,3.61-3,4.81A5.84,5.84,0,0,1,80.9,140.41Z" fill="#136db7"></path><path d="M94.18,155.09l-.49.4c0-.39.05-.79.07-1.19a13.14,13.14,0,0,0,.48-2.78c0-.18-.24-.19-.3,0a8.91,8.91,0,0,0-.46,2.61v0a5.91,5.91,0,0,1-1,2.42c-.53.56-1.2.15-1.77.52a1.4,1.4,0,0,0-.46.56c-.07-.37-.21-.75-.58-.76s-.63.37-.84.75c-.05-.35-.23-.64-.67-.62s-.82.51-1.07,1a1.61,1.61,0,0,0-.39-1.12.7.7,0,0,0-.87,0,.93.93,0,0,0-1.32-.5,4.11,4.11,0,0,0-1,.56,1.25,1.25,0,0,0-.41-.84c-.39-.24-.89.3-1.15.53a7.38,7.38,0,0,0-1.39,1.65,12.1,12.1,0,0,0-1.57,5c0,.19.28.19.3,0a12.25,12.25,0,0,1,1.29-4.44,7.58,7.58,0,0,1,1.08-1.51,6.46,6.46,0,0,1,.69-.64q.38-.55.75.06c0,.14.08.29.11.43a10.71,10.71,0,0,0-1.71,1.94,13.85,13.85,0,0,0-2,4.09c-.2.68-.87,2.76,0,3.23,1,.55,2-1.44,2.41-2a11.7,11.7,0,0,0,1.71-4.49,8.17,8.17,0,0,0,0-2.17c0-.1,0-.24,0-.39.84-.7,1.73-1.14,2-.31a2.77,2.77,0,0,0-.29.26A5.07,5.07,0,0,0,84,161.77a.15.15,0,0,0,.25.07A5.68,5.68,0,0,0,86,158.07a3.11,3.11,0,0,0,0-.89c.84-.35.9,1.07.81,1.68a.15.15,0,0,0,.29.08,4.76,4.76,0,0,1,.48-1,3,3,0,0,1,.33-.45q1,.06.66.79c0,.16.2.28.28.12a2.7,2.7,0,0,1,.5-.86c.74-.57.7.24.76.68,0,.16.25.12.29,0a3.27,3.27,0,0,1,.23-.51,1.14,1.14,0,0,1,1-.48c.16,0,.28,0,.42,0l-.25.29a2.81,2.81,0,0,0-.85,2.17.15.15,0,0,0,.11.11c1.22.41,2.14-1.57,2.39-2.45a8,8,0,0,0,.25-1.36c.24-.21.49-.42.74-.62S94.33,155,94.18,155.09ZM80.75,165.46c-.21.27-.88,1.09-1.29.43a2.53,2.53,0,0,1,0-1.18,9.61,9.61,0,0,1,.56-2.2,13.54,13.54,0,0,1,1.89-3.5,12.45,12.45,0,0,1,1.38-1.47C83.72,160.35,82.46,163.3,80.75,165.46Zm4.53-5.75a4.32,4.32,0,0,1-1,1.73,4.77,4.77,0,0,1,.41-2.81,3.63,3.63,0,0,1,.81-1.17l.17-.12A5.09,5.09,0,0,1,85.28,159.71Zm8.11-4.28c0,.11,0,.23,0,.34l-.16.14h0Zm-.5,2.36a3.5,3.5,0,0,1-.91,1.32l-.31.23q-.75-.3-.29-.86a4.93,4.93,0,0,1,.56-.81,13.86,13.86,0,0,1,1.35-1.44A6.41,6.41,0,0,1,92.89,157.79Z" fill="#0f1c15"></path><polygon points="103.17 101.02 103.17 107.36 167.47 71.86 167.47 64.79 103.17 101.02" fill="#a6b9bf"></polygon><polygon points="166.85 78.75 156.72 84.46 156.72 91.02 166.85 85.43 166.85 78.75" fill="#a6b9bf"></polygon><polygon points="151.79 87.49 142.36 92.8 142.36 99.24 151.79 94.04 151.79 87.49" fill="#a6b9bf"></polygon><polygon points="127.73 99.24 103.17 113.08 103.17 119.42 127.73 105.86 127.73 99.24" fill="#a6b9bf"></polygon><polygon points="127.73 109.33 103.17 123.17 103.17 129.51 127.73 115.95 127.73 109.33" fill="#a6b9bf"></polygon><polygon points="149.46 114.81 147.98 115.64 147.98 123.16 149.46 122.35 149.46 114.81" fill="#a6b9bf"></polygon><polygon points="162.97 107.2 153.93 112.3 153.93 119.88 162.97 114.89 162.97 107.2" fill="#a6b9bf"></polygon><polygon points="164.46 106.36 164.46 114.06 171.15 110.37 171.15 102.59 164.46 106.36" fill="#a6b9bf"></polygon><polygon points="152.43 113.14 150.95 113.97 150.95 121.52 152.43 120.71 152.43 113.14" fill="#a6b9bf"></polygon><polygon points="146.49 116.49 142.28 118.86 142.28 126.31 146.49 123.99 146.49 116.49" fill="#a6b9bf"></polygon><path d="M346.33,194.58l-5.5-7.08L298.9,206.35c4.09,2.09,10,5.7,15.79,9.06C326,209.59,335.83,201.84,346.33,194.58Z" opacity="0.68" fill="url(#linear-gradient-2)" style="mix-blend-mode: multiply;"></path><rect x="336.38" y="126.92" width="10.33" height="68.49" rx="2.01" ry="2.01" fill="#bc532a"></rect><path d="M367.06,140.93c-2.38-10.34-13-55.88-31.72-42.49C325.73,105.3,323,116,319.17,126.5c-3.18,8.68-5.83,17.82-6,27.13-.3,19,19,21.27,33.72,21.2,8.51,0,20.64-5.06,22.62-14.29,1.2-5.57-.84-12.14-2-17.59Q367.29,141.94,367.06,140.93Z" fill="#2c9135"></path><path d="M368,142.94q-.22-1-.45-2C365.4,131.79,356.88,95.12,342,96c4.43,19.33,11,39.75,7.48,59.53a45.24,45.24,0,0,1-7.89,19.15c2,.1,3.94.13,5.82.12,8.51,0,20.64-5.06,22.62-14.29C371.19,155,369.15,148.4,368,142.94Z" fill="#156819"></path></g></g></svg>