<svg id="Layer_2" data-name="Layer 2" xmlns="http://www.w3.org/2000/svg" xmlns:xlink="http://www.w3.org/1999/xlink" viewBox="0 0 400 300" width="406" height="306" class="illustration styles_illustrationTablet__1DWOa"><defs><linearGradient id="linear-gradient" x1="232.42" y1="259.67" x2="263.17" y2="238" gradientUnits="userSpaceOnUse"><stop offset="0" stop-color="#666" stop-opacity="0"></stop><stop offset="1" stop-color="#4d4d4d"></stop></linearGradient><linearGradient id="linear-gradient-2" x1="117.87" y1="193.68" x2="142.48" y2="171.3" xlink:href="#linear-gradient"></linearGradient><linearGradient id="linear-gradient-3" x1="204.03" y1="178.92" x2="222.21" y2="153.8" xlink:href="#linear-gradient"></linearGradient><linearGradient id="linear-gradient-4" x1="35.84" y1="187.02" x2="45.37" y2="178.55" xlink:href="#linear-gradient"></linearGradient></defs><title>PP</title><path d="M194.28,287,14.56,180.76c-5.72-3.21-10.63-8.49-5.05-11.94l180.37-104c2.71-1.68,6.82-2.78,9.57-1.18L388.11,173.18c5.72,3.32,6.75,12.6,1,15.93L218,286.81A23.9,23.9,0,0,1,194.28,287Z" fill="#a2c609"></path><path d="M253.92,236.25c-7.89,6.48-30.51,16.31-38.8,22.28l19.16,9.59,35.19-21.24Z" opacity="0.32" fill="url(#linear-gradient)"></path><path d="M138.56,169.67c-7.89,6.48-30.51,16.31-38.8,22.28l24.58,12.31,30.29-25.82Z" opacity="0.32" fill="url(#linear-gradient-2)"></path><polyline points="154 117.19 122.53 136.07 262.68 223.36 300.08 201.66" opacity="0.32" fill="url(#linear-gradient-3)"></polyline><polygon points="300.08 91.12 158.92 7.9 158.92 96.79 300.08 178.95 300.08 91.12" fill="#68e1fd"></polygon><path d="M137.25,163.61s-1.45,6-2.68,6.73-8.49,5.54-7.88,8.12,1.23,2.55,2.95,2.5,14.22-6.25,14.29-7.56-.32-10.91-.32-10.91Z" fill="#311f1d"></path><path d="M147,167.05s-.52,6.38-1.75,7.09-8.49,5.54-7.88,8.12,1.23,2.55,2.95,2.5,14.22-6.25,14.29-7.56-.51-10.76-.51-10.76Z" fill="#311f1d"></path><path d="M131.39,92.87s.36,62.65,3.68,72.18c0,0,1.41,3,9.67,1.84,0,0,2.56,4.11,9.37,3.27a4.2,4.2,0,0,0,3.63-4.25c-.17-13.54-1-63-3.62-67.91C151,92.37,131.39,92.87,131.39,92.87Z" fill="#68e1fd"></path><path d="M119.18,71.8s-3.58-2-4.66-2.67-5-6.21-5-6.21-.86.44-.72,1.23a32.2,32.2,0,0,0,2.3,4.3s-2,2.44-.5,4.74,5.53,2.15,5.53,2.15l4.24,2.45Z" fill="#fecab5"></path><path d="M131.39,92.87s-2-35.95,4.84-36.37,17.42,2.94,17.9,7.65.13,32.43-3.08,34.48S132.18,94.92,131.39,92.87Z" fill="#e86e43"></path><path d="M137.32,48.68S135.93,60.09,143,60.36,150.06,50,150.06,50s2.19-1.63,1.29-2.92-1.83-.7-1.83-.7-2.35-4.87-6.24-4.32A6.6,6.6,0,0,0,137.32,48.68Z" fill="#fecab5"></path><path d="M149.53,43.47s.43-3.26-2.55-3.85-12.25.91-12.15,2.45,1.29,1.41,1.29,1.41-2.19.26-1.69,1.79S136,46.79,136,46.79s-1.24,1.77.43,2.83,5,1.73,9.93.4-2.29,6.24,1.59,6.54,6.78-6.21,6.33-8.53S151.68,43.25,149.53,43.47Z" fill="#311f1d"></path><path d="M151.71,60.61s8.22,4.25,10.81,15.62,3.1,16.61,1.16,18.54S151,98.63,151,98.63a14.29,14.29,0,0,1,.59-8.28L155.39,89,151,77.8" fill="#e86e43"></path><path d="M132.17,76.23c-1-.22-13-4.43-13-4.43s1.35,5.68-1.25,7.24c0,0,8.76,8.33,17.13,5.93S132.17,76.23,132.17,76.23Z" fill="#e86e43"></path><path d="M140.16,107c0-.69-1.13-.69-1.08,0l4.2,59.69c0,.69,1.13.69,1.08,0Z" fill="#311f1d"></path><path d="M145.06,93.75a26.83,26.83,0,0,0-3.79,0c-1.1,0-3.81-1-4.82-.9s-.66.9.38,1.45a11.89,11.89,0,0,0,1.95.83s-5.87,1.16-5.54,2.15,2,.44,2,.44-3,1.12-2,1.83,3.23,0,3.23,0-1.35,1.52-.52,1.83,3.52-.84,3.52-.84-.82,1.66.39,1.73,7.72-4.71,7.72-4.71S147.31,94.75,145.06,93.75Z" fill="#fecab5"></path><path d="M45.72,174.68c-4.14,3.4-16,8.57-20.37,11.7l12.91,6.46,13.49-10Z" opacity="0.32" fill="url(#linear-gradient-4)"></path><path d="M41.61,153.14a25.56,25.56,0,0,0-5.34,17.58C37,181,42.76,184,42.76,184l6.88.38s8.18-2.67,7.11-16c-1-12.53-5.08-15.47-5.08-15.47" fill="#68e1fd"></path><ellipse cx="46.67" cy="153.14" rx="5.06" ry="1.79" fill="#003b94"></ellipse><ellipse cx="46.67" cy="182.87" rx="5.06" ry="1.79" fill="#68e1fd"></ellipse><path d="M44.59,153.68l-6.13-35.16c-.13-.77-1.3-.44-1.17.32L43.43,154C43.56,154.76,44.73,154.44,44.59,153.68Z" fill="#007f68"></path><path d="M45.7,153.8a1.46,1.46,0,0,1,.56,0,1.27,1.27,0,0,1,.63.38q.73-14.73.26-29.48c0-.78-1.23-.78-1.21,0Q46.42,139.25,45.7,153.8Z" fill="#007f68"></path><path d="M59.48,119.68a323.29,323.29,0,0,0-11.84,33.78.61.61,0,0,0,1.17.32A323.28,323.28,0,0,1,60.65,120C60.94,119.28,59.78,119,59.48,119.68Z" fill="#007f68"></path><path d="M39.77,133s-.66-.08-3.55-3.12.76-5.33-.91-8.75.69-7.92,1.22-11.34a15.88,15.88,0,0,0,2.54,6.7c2.18,3.12,3.4,5.94,3.17,9.9a35,35,0,0,1-1.28,7.38" fill="#007f68"></path><path d="M46,138.44s-.62-.24-2.69-3.9,2-5,1.24-8.71,2.59-7.51,3.94-10.71a15.88,15.88,0,0,0,.84,7.12c1.36,3.56,1.85,6.58.67,10.37a35,35,0,0,1-3,6.85" fill="#007f68"></path><path d="M54.61,132.11s-.56-.36-1.83-4.36,3-4.46,3-8.28,4.07-6.82,6-9.67a15.88,15.88,0,0,0-.64,7.14c.6,3.76.47,6.82-1.47,10.29a35,35,0,0,1-4.38,6.08" fill="#007f68"></path><polygon points="174.97 32.42 202.03 48.02 202.03 93.63 174.97 78.01 174.97 32.42" fill="#fff" opacity="0.94"></polygon><line x1="174.97" y1="85.02" x2="202.03" y2="100.64" fill="#fff"></line><path d="M174.6,85.67l27.05,15.62a.75.75,0,0,0,.76-1.3L175.35,84.38a.75.75,0,0,0-.76,1.3Z" fill="#754c24"></path><line x1="174.97" y1="90.41" x2="202.03" y2="106.03" fill="#fff"></line><path d="M174.6,91.05l27.05,15.62a.75.75,0,0,0,.76-1.3L175.35,89.76a.75.75,0,0,0-.76,1.3Z" fill="#754c24"></path><line x1="174.97" y1="96" x2="202.03" y2="111.62" fill="#fff"></line><path d="M174.6,96.65l27.05,15.62a.75.75,0,0,0,.76-1.3L175.35,95.35a.75.75,0,0,0-.76,1.3Z" fill="#754c24"></path><polygon points="212.77 53.63 239.82 69.23 239.82 114.85 212.77 99.23 212.77 53.63" fill="#fff" opacity="0.94"></polygon><line x1="212.77" y1="106.24" x2="239.82" y2="121.86" fill="#fff"></line><path d="M212.39,106.89l27.05,15.62a.75.75,0,0,0,.76-1.3l-27.05-15.62a.75.75,0,0,0-.76,1.3Z" fill="#754c24"></path><line x1="212.77" y1="111.62" x2="239.82" y2="127.24" fill="#fff"></line><path d="M212.39,112.27l27.05,15.62a.75.75,0,0,0,.76-1.3L213.15,111a.75.75,0,0,0-.76,1.3Z" fill="#754c24"></path><line x1="212.77" y1="117.22" x2="239.82" y2="132.84" fill="#fff"></line><path d="M212.39,117.86l27.05,15.62a.75.75,0,0,0,.76-1.3l-27.05-15.62a.75.75,0,0,0-.76,1.3Z" fill="#754c24"></path><polygon points="249.86 74.07 276.91 89.67 276.91 135.29 249.86 119.67 249.86 74.07" fill="#fff" opacity="0.94"></polygon><line x1="249.86" y1="126.68" x2="276.91" y2="142.3" fill="#fff"></line><path d="M249.48,127.33l27.05,15.62a.75.75,0,0,0,.76-1.3L250.23,126a.75.75,0,0,0-.76,1.3Z" fill="#754c24"></path><line x1="249.86" y1="132.06" x2="276.91" y2="147.68" fill="#fff"></line><path d="M249.48,132.71l27.05,15.62a.75.75,0,0,0,.76-1.3l-27.05-15.62a.75.75,0,0,0-.76,1.3Z" fill="#754c24"></path><line x1="249.86" y1="137.65" x2="276.91" y2="153.27" fill="#fff"></line><path d="M249.48,138.3l27.05,15.62a.75.75,0,0,0,.76-1.3L250.23,137a.75.75,0,0,0-.76,1.3Z" fill="#754c24"></path><path d="M243.4,113.34a49.86,49.86,0,0,1-1.52-4.82c-.19-1.16,1-5.53.15-5.78s-1.8,2.73-1.8,2.73-2.38-5.38-3-5.63-2.58-.43-3,.06-1.75,3.62-1.18,4.69a61.12,61.12,0,0,0,4,5.48c.21.16,2.71,5.56,3.05,5.73S243.15,114.54,243.4,113.34Z" fill="#ffc9b5"></path><path d="M269.53,130.72s-13.09-5.18-15.36-7-10.52-11.55-10.52-11.55-4.75,1.74-4.71,4.14c0,0,6.66,11.14,9.77,14.12s14.4,10.49,16.87,10.31S269.53,130.72,269.53,130.72Z" fill="#dd8c2a"></path><path d="M261.17,236.66S258,234,254.54,235s-2.78,3.66-.57,5.31,10.72,7.37,13.35,7.32,3.2-2.16,3.25-3.61a66.84,66.84,0,0,0-.77-6.65" fill="#768cfb"></path><path d="M263.12,236.48a.66.66,0,0,1-.88.55,25.58,25.58,0,0,1-2.79-1.07s-3,0-1.18,3,8.17,3.91,10.13,2.78.65-4.32.65-4.32" fill="#ffc9b5"></path><path d="M253.81,242.56s-3.13-2.67-6.63-1.64-2.78,3.66-.57,5.31,10.72,7.37,13.35,7.32,3.2-2.16,3.25-3.61a66.84,66.84,0,0,0-.77-6.65" fill="#768cfb"></path><path d="M255.76,242.37a.66.66,0,0,1-.88.55,25.58,25.58,0,0,1-2.79-1.07s-3,0-1.18,3,8.17,3.91,10.13,2.78.65-4.32.65-4.32" fill="#ffc9b5"></path><path d="M252.48,160.19c-1,2.31-1.57,35.32-1.18,43.8s4.46,38.38,4.46,38.38,2.32,3.52,6.22,3.27,3.15-3.4,3.15-3.4,5,2.31,7.18-2.77c.81-1.88,4.61-54.5,4.61-60.5a41.8,41.8,0,0,0-5.72-20.35" fill="#53b7b7"></path><path d="M265.13,242.24s2.37-66.7,2.07-68.66.65,14.62.58,19.16C267.74,196,265.77,237.7,265.13,242.24Z" fill="#259993"></path><polygon points="246.66 175.12 233.15 160.06 222.49 171.16 235.96 185.64 246.66 175.12" fill="#768cfb"></polygon><path d="M252.48,160.19s-3.45-23.62,1.45-28.08,18.54-7.62,21.08-5.4-1.27,27.27-3.82,31.92S254.29,162,252.48,160.19Z" fill="#f9aa43"></path><path d="M258.69,114.74c-.12.33-2.54,9.56,1.68,10.86s5.07-3.71,5.49-4,1.74-.74,1.68-1.75-1.67-1-1.67-1a6.56,6.56,0,0,0-2.51-3.78C261.46,113.95,258.69,114.74,258.69,114.74Z" fill="#ffc9b5"></path><path d="M262.63,117.34s-3.53.06-5-1.45a3,3,0,0,1,.24-4.35s-1.4-2.79,1.23-3.47c0,0,.24-2.56,5.48-1.39s10,4.87,10.09,9.67.42,5.34,2.12,6.44,1.23,5.3-3.3,5.46-10.71-.23-11.29-2.47,2.86-2.48,3.29-4.72A3.27,3.27,0,0,0,262.63,117.34Z" fill="#2c1d1a"></path><path d="M245.67,156.79s-3.63,3.87-4.68,4.29a32.5,32.5,0,0,0-4.61,2.58,8.11,8.11,0,0,1,1.28,1.47.49.49,0,0,1,0,.05c.46-.34.79-.58.78-.41,0,.54-3.57,5.19-4.12,5.9s1,3,1,3c2.31.77,5-1.57,6.64-3.15s2.5-5.24,3.09-5.7,5.46-3.69,5.81-4.69S245.67,156.79,245.67,156.79Z" fill="#ffc9b5"></path><path d="M252.81,133.8c-1,2.11-.91,4.41-1.35,6.65-.32,1.61-.64,3.3-1,4.93a15.53,15.53,0,0,1-1.54,4.74c-1.33,2.22-3.07,4.14-4.58,6.23a3.85,3.85,0,0,0-.89,1.61c-.14,1.46,1.69,5.61,6.8,5.1a63.16,63.16,0,0,0,7.2-6.82c2.88-3.36,5.56-14.73,5.29-18.52-.19-2.58-1.59-5.45-4-6.58a4.27,4.27,0,0,0-4.81,1.08A5.75,5.75,0,0,0,252.81,133.8Z" fill="#f9aa43"></path><path d="M253.1,160.59s4.26-3.62,5.3-5.8,2.41-6.1,2.41-6.1-2,11.34-3.86,12.86A21.84,21.84,0,0,1,253.1,160.59Z" fill="#dd8c2a"></path></svg>