<svg id="emBXsKjMFa51" xmlns="http://www.w3.org/2000/svg" xmlns:xlink="http://www.w3.org/1999/xlink" viewBox="0 0 400 300" shape-rendering="geometricPrecision" text-rendering="geometricPrecision">
<style><![CDATA[
#emBXsKjMFa52 {animation: emBXsKjMFa52_c_o 3000ms linear 1 normal forwards}@keyframes emBXsKjMFa52_c_o { 0% {opacity: 0;animation-timing-function: cubic-bezier(0.445,0.05,0.55,0.95)} 40% {opacity: 1} 100% {opacity: 1}} #emBXsKjMFa57_ts {animation: emBXsKjMFa57_ts__ts 3000ms linear 1 normal forwards}@keyframes emBXsKjMFa57_ts__ts { 0% {transform: translate(229.499992px,93.425002px) scale(0,0);animation-timing-function: cubic-bezier(0.445,0.05,0.55,0.95)} 16.666667% {transform: translate(229.499992px,93.425002px) scale(1,1)} 100% {transform: translate(229.499992px,93.425002px) scale(1,1)}} #emBXsKjMFa523_tr {animation: emBXsKjMFa523_tr__tr 3000ms linear 1 normal forwards}@keyframes emBXsKjMFa523_tr__tr { 0% {transform: translate(44.601315px,154.18px) rotate(0deg);animation-timing-function: cubic-bezier(0.445,0.05,0.55,0.95)} 33.333333% {transform: translate(44.601315px,154.18px) rotate(-4.553075deg);animation-timing-function: cubic-bezier(0.445,0.05,0.55,0.95)} 66.666667% {transform: translate(44.601315px,154.18px) rotate(0.735038deg)} 100% {transform: translate(44.601315px,154.18px) rotate(0.735038deg)}} #emBXsKjMFa526_tr {animation: emBXsKjMFa526_tr__tr 3000ms linear 1 normal forwards}@keyframes emBXsKjMFa526_tr__tr { 0% {transform: translate(46.511593px,154.18px) rotate(0deg);animation-timing-function: cubic-bezier(0.445,0.05,0.55,0.95)} 33.333333% {transform: translate(46.511593px,154.18px) rotate(3.807129deg)} 66.666667% {transform: translate(46.511593px,154.18px) rotate(-1.028512deg)} 100% {transform: translate(46.511593px,154.18px) rotate(-1.028512deg)}} #emBXsKjMFa529_tr {animation: emBXsKjMFa529_tr__tr 3000ms linear 1 normal forwards}@keyframes emBXsKjMFa529_tr__tr { 0% {transform: translate(46.794003px,154.434278px) rotate(0deg);animation-timing-function: cubic-bezier(0.445,0.05,0.55,0.95)} 33.333333% {transform: translate(46.794003px,154.434278px) rotate(5.123185deg);animation-timing-function: cubic-bezier(0.445,0.05,0.55,0.95)} 66.666667% {transform: translate(46.794003px,154.434278px) rotate(-2.727916deg)} 100% {transform: translate(46.794003px,154.434278px) rotate(-2.727916deg)}} #emBXsKjMFa532_ts {animation: emBXsKjMFa532_ts__ts 3000ms linear 1 normal forwards}@keyframes emBXsKjMFa532_ts__ts { 0% {transform: translate(188.5px,63.024998px) scale(0,0)} 16.666667% {transform: translate(188.5px,63.024998px) scale(0,0);animation-timing-function: cubic-bezier(0.445,0.05,0.55,0.95)} 33.333333% {transform: translate(188.5px,63.024998px) scale(1,1)} 100% {transform: translate(188.5px,63.024998px) scale(1,1)}} #emBXsKjMFa533_ts {animation: emBXsKjMFa533_ts__ts 3000ms linear 1 normal forwards}@keyframes emBXsKjMFa533_ts__ts { 0% {transform: translate(188.5px,98.325001px) scale(0,0)} 36.666667% {transform: translate(188.5px,98.325001px) scale(0,0);animation-timing-function: cubic-bezier(0.445,0.05,0.55,0.95)} 53.333333% {transform: translate(188.5px,98.325001px) scale(1,1)} 100% {transform: translate(188.5px,98.325001px) scale(1,1)}} #emBXsKjMFa540_ts {animation: emBXsKjMFa540_ts__ts 3000ms linear 1 normal forwards}@keyframes emBXsKjMFa540_ts__ts { 0% {transform: translate(226.295006px,84.24px) scale(0,0)} 23.333333% {transform: translate(226.295006px,84.24px) scale(0,0);animation-timing-function: cubic-bezier(0.445,0.05,0.55,0.95)} 40% {transform: translate(226.295006px,84.24px) scale(1,1)} 100% {transform: translate(226.295006px,84.24px) scale(1,1)}} #emBXsKjMFa541_ts {animation: emBXsKjMFa541_ts__ts 3000ms linear 1 normal forwards}@keyframes emBXsKjMFa541_ts__ts { 0% {transform: translate(226.295006px,119.535004px) scale(0,0)} 43.333333% {transform: translate(226.295006px,119.535004px) scale(0,0);animation-timing-function: cubic-bezier(0.445,0.05,0.55,0.95)} 60% {transform: translate(226.295006px,119.535004px) scale(1,1)} 100% {transform: translate(226.295006px,119.535004px) scale(1,1)}} #emBXsKjMFa548_ts {animation: emBXsKjMFa548_ts__ts 3000ms linear 1 normal forwards}@keyframes emBXsKjMFa548_ts__ts { 0% {transform: translate(263.385002px,104.679996px) scale(0,0)} 30% {transform: translate(263.385002px,104.679996px) scale(0,0);animation-timing-function: cubic-bezier(0.445,0.05,0.55,0.95)} 46.666667% {transform: translate(263.385002px,104.679996px) scale(1,1)} 100% {transform: translate(263.385002px,104.679996px) scale(1,1)}} #emBXsKjMFa549_ts {animation: emBXsKjMFa549_ts__ts 3000ms linear 1 normal forwards}@keyframes emBXsKjMFa549_ts__ts { 0% {transform: translate(263.379997px,139.960003px) scale(0,0)} 50% {transform: translate(263.379997px,139.960003px) scale(0,0);animation-timing-function: cubic-bezier(0.445,0.05,0.55,0.95)} 66.666667% {transform: translate(263.379997px,139.960003px) scale(1,1)} 100% {transform: translate(263.379997px,139.960003px) scale(1,1)}} #emBXsKjMFa556_tr {animation: emBXsKjMFa556_tr__tr 3000ms linear 1 normal forwards}@keyframes emBXsKjMFa556_tr__tr { 0% {transform: translate(270.57px,143.949536px) rotate(-124.830884deg)} 33.333333% {transform: translate(270.57px,143.949536px) rotate(-124.830884deg);animation-timing-function: cubic-bezier(0.445,0.05,0.55,0.95)} 70% {transform: translate(270.57px,143.949536px) rotate(-31.523574deg)} 100% {transform: translate(270.57px,143.949536px) rotate(-31.523574deg)}} #emBXsKjMFa556 {animation: emBXsKjMFa556_c_o 3000ms linear 1 normal forwards}@keyframes emBXsKjMFa556_c_o { 0% {opacity: 0} 33.333333% {opacity: 0;animation-timing-function: cubic-bezier(0.445,0.05,0.55,0.95)} 70% {opacity: 1} 100% {opacity: 1}}
]]></style>
<defs><linearGradient id="emBXsKjMFa54-fill" x1="232.42" y1="259.67" x2="263.17" y2="238" spreadMethod="pad" gradientUnits="userSpaceOnUse" gradientTransform="translate(0 0)"><stop id="emBXsKjMFa54-fill-0" offset="0%" stop-color="rgba(102,102,102,0)"/><stop id="emBXsKjMFa54-fill-1" offset="100%" stop-color="#4d4d4d"/></linearGradient><linearGradient id="emBXsKjMFa55-fill" x1="117.87" y1="193.68" x2="142.48" y2="171.3" spreadMethod="pad" gradientUnits="userSpaceOnUse" gradientTransform="translate(0 0)"><stop id="emBXsKjMFa55-fill-0" offset="0%" stop-color="rgba(102,102,102,0)"/><stop id="emBXsKjMFa55-fill-1" offset="100%" stop-color="#4d4d4d"/></linearGradient><linearGradient id="emBXsKjMFa56-fill" x1="204.03" y1="178.92" x2="222.21" y2="153.8" spreadMethod="pad" gradientUnits="userSpaceOnUse" gradientTransform="translate(0 0)"><stop id="emBXsKjMFa56-fill-0" offset="0%" stop-color="rgba(102,102,102,0)"/><stop id="emBXsKjMFa56-fill-1" offset="100%" stop-color="#4d4d4d"/></linearGradient><linearGradient id="emBXsKjMFa519-fill" x1="35.84" y1="187.02" x2="45.37" y2="178.55" spreadMethod="pad" gradientUnits="userSpaceOnUse" gradientTransform="translate(0 0)"><stop id="emBXsKjMFa519-fill-0" offset="0%" stop-color="rgba(102,102,102,0)"/><stop id="emBXsKjMFa519-fill-1" offset="100%" stop-color="#4d4d4d"/></linearGradient></defs><g id="emBXsKjMFa52" transform="translate(.000001 0)" opacity="0"><path d="M194.28,287L14.56,180.76c-5.72-3.21-10.63-8.49-5.05-11.94l180.37-104c2.71-1.68,6.82-2.78,9.57-1.18L388.11,173.18c5.72,3.32,6.75,12.6,1,15.93L218,286.81c-7.315118,4.259408-16.337588,4.331679-23.72.19Z" fill="#a2c609"/><path d="M253.92,236.25c-7.89,6.48-30.51,16.31-38.8,22.28l19.16,9.59l35.19-21.24Z" opacity="0.32" fill="url(#emBXsKjMFa54-fill)"/><path d="M138.56,169.67c-7.89,6.48-30.51,16.31-38.8,22.28l24.58,12.31l30.29-25.82Z" opacity="0.32" fill="url(#emBXsKjMFa55-fill)"/><polyline points="154,117.19 122.53,136.07 262.68,223.36 300.08,201.66" opacity="0.32" fill="url(#emBXsKjMFa56-fill)"/><g id="emBXsKjMFa57_ts" transform="translate(229.499992,93.425002) scale(0,0)"><polygon points="300.08,91.12 158.92,7.9 158.92,96.79 300.08,178.95 300.08,91.12" transform="translate(-229.499992,-93.425002)" fill="#68e1fd"/></g><path d="M137.25,163.61c0,0-1.45,6-2.68,6.73s-8.49,5.54-7.88,8.12s1.23,2.55,2.95,2.5s14.22-6.25,14.29-7.56-.32-10.91-.32-10.91Z" fill="#311f1d"/><path d="M147,167.05c0,0-.52,6.38-1.75,7.09s-8.49,5.54-7.88,8.12s1.23,2.55,2.95,2.5s14.22-6.25,14.29-7.56-.51-10.76-.51-10.76Z" fill="#311f1d"/><path d="M131.39,92.87c0,0,.36,62.65,3.68,72.18c0,0,1.41,3,9.67,1.84c0,0,2.56,4.11,9.37,3.27c2.113818-.289069,3.675073-2.116984,3.63-4.25-.17-13.54-1-63-3.62-67.91-3.12-5.63-22.73-5.13-22.73-5.13Z" fill="#68e1fd"/><path d="M119.18,71.8c0,0-3.58-2-4.66-2.67s-5-6.21-5-6.21-.86.44-.72,1.23c.656874,1.48941,1.425745,2.926864,2.3,4.3s-2,2.44-.5,4.74s5.53,2.15,5.53,2.15l4.24,2.45Z" fill="#fecab5"/><path d="M131.39,92.87c0,0-2-35.95,4.84-36.37s17.42,2.94,17.9,7.65.13,32.43-3.08,34.48-18.87-3.71-19.66-5.76Z" fill="#e86e43"/><path d="M137.32,48.68c0,0-1.39,11.41,5.68,11.68s7.06-10.36,7.06-10.36s2.19-1.63,1.29-2.92-1.83-.7-1.83-.7-2.35-4.87-6.24-4.32c-3.400759.331229-5.986447,3.203251-5.96,6.62Z" fill="#fecab5"/><path d="M149.53,43.47c0,0,.43-3.26-2.55-3.85s-12.25.91-12.15,2.45s1.29,1.41,1.29,1.41-2.19.26-1.69,1.79s1.57,1.52,1.57,1.52-1.24,1.77.43,2.83s5,1.73,9.93.4-2.29,6.24,1.59,6.54s6.78-6.21,6.33-8.53-2.6-4.78-4.75-4.56Z" fill="#311f1d"/><path d="M151.71,60.61c0,0,8.22,4.25,10.81,15.62s3.1,16.61,1.16,18.54-12.68,3.86-12.68,3.86c-.626961-2.757579-.421629-5.639181.59-8.28l3.8-1.35L151,77.8" fill="#e86e43"/><path d="M132.17,76.23c-1-.22-13-4.43-13-4.43s1.35,5.68-1.25,7.24c0,0,8.76,8.33,17.13,5.93s-2.88-8.74-2.88-8.74Z" fill="#e86e43"/><path d="M140.16,107c0-.69-1.13-.69-1.08,0l4.2,59.69c0,.69,1.13.69,1.08,0Z" fill="#311f1d"/><path d="M145.06,93.75c-1.261754-.089341-2.528246-.089341-3.79,0-1.1,0-3.81-1-4.82-.9s-.66.9.38,1.45c.623998.334159,1.27659.611929,1.95.83s-5.87,1.16-5.54,2.15s2,.44,2,.44-3,1.12-2,1.83s3.23,0,3.23,0-1.35,1.52-.52,1.83s3.52-.84,3.52-.84-.82,1.66.39,1.73s7.72-4.71,7.72-4.71-.27-2.81-2.52-3.81Z" fill="#fecab5"/><path d="M45.72,174.68c-4.14,3.4-16,8.57-20.37,11.7l12.91,6.46l13.49-10Z" opacity="0.32" fill="url(#emBXsKjMFa519-fill)"/><path d="M41.61,153.14c-3.897427,4.995581-5.800479,11.260686-5.34,17.58C37,181,42.76,184,42.76,184l6.88.38c0,0,8.18-2.67,7.11-16-1-12.53-5.08-15.47-5.08-15.47" fill="#68e1fd"/><ellipse rx="5.06" ry="1.79" transform="translate(46.67 153.14)" fill="#003b94"/><ellipse rx="5.06" ry="1.79" transform="translate(46.67 182.87)" fill="#68e1fd"/><g id="emBXsKjMFa523_tr" transform="translate(44.601315,154.18) rotate(0)"><g transform="translate(-44.60131,-154.179997)"><path d="M44.59,153.68l-6.13-35.16c-.13-.77-1.3-.44-1.17.32L43.43,154c.13.76,1.3.44,1.16-.32Z" fill="#007f68"/><path d="M39.77,133c0,0-.66-.08-3.55-3.12s.76-5.33-.91-8.75.69-7.92,1.22-11.34c.325172,2.397677,1.193953,4.689341,2.54,6.7c2.18,3.12,3.4,5.94,3.17,9.9-.161454,2.498704-.590578,4.972868-1.28,7.38" fill="#007f68"/></g></g><g id="emBXsKjMFa526_tr" transform="translate(46.511593,154.18) rotate(0)"><g transform="translate(-46.511587,-154.179998)"><path d="M45.7,153.8c.184918-.036134.375082-.036134.56,0c.242894.061732.462094.193947.63.38q.73-14.73.26-29.48c0-.78-1.23-.78-1.21,0q.48,14.55-.24,29.1Z" fill="#007f68"/><path d="M46,138.44c0,0-.62-.24-2.69-3.9s2-5,1.24-8.71s2.59-7.51,3.94-10.71c-.266413,2.406336.020909,4.841729.84,7.12c1.36,3.56,1.85,6.58.67,10.37-.752501,2.383918-1.75824,4.680356-3,6.85" fill="#007f68"/></g></g><g id="emBXsKjMFa529_tr" transform="translate(46.794003,154.434278) rotate(0)"><g transform="translate(-46.794003,-154.434272)"><path d="M59.48,119.68c-4.567474,11.032703-8.520198,22.309984-11.84,33.78-.049513.307627.140774.603122.441322.685323s.614736-.075318.728678-.365323c3.319783-11.470022,7.272507-22.747304,11.84-33.78.29-.72-.87-1-1.17-.32Z" fill="#007f68"/><path d="M54.61,132.11c0,0-.56-.36-1.83-4.36s3-4.46,3-8.28s4.07-6.82,6-9.67c-.754762,2.300108-.973673,4.742329-.64,7.14.6,3.76.47,6.82-1.47,10.29-1.238217,2.177568-2.70663,4.215914-4.38,6.08" fill="#007f68"/></g></g><g id="emBXsKjMFa532_ts" transform="translate(188.5,63.024998) scale(0,0)"><polygon points="174.97,32.42 202.03,48.02 202.03,93.63 174.97,78.01 174.97,32.42" transform="translate(-188.5,-63.024998)" opacity="0.94" fill="#fff"/></g><g id="emBXsKjMFa533_ts" transform="translate(188.5,98.325001) scale(0,0)"><g transform="translate(-188.5,-98.325001)"><line x1="174.97" y1="85.02" x2="202.03" y2="100.64" fill="#fff"/><path d="M174.6,85.67l27.05,15.62c.358985.209868.820132.088985,1.03-.27s.088985-.820132-.27-1.03L175.35,84.38c-.358985-.209868-.820132-.088985-1.03.27s-.088985.820132.27,1.03Z" fill="#754c24"/><line x1="174.97" y1="90.41" x2="202.03" y2="106.03" fill="#fff"/><path d="M174.6,91.05l27.05,15.62c.358985.209868.820132.088985,1.03-.27s.088985-.820132-.27-1.03L175.35,89.76c-.358985-.209868-.820132-.088985-1.03.27s-.088985.820132.27,1.03Z" fill="#754c24"/><line x1="174.97" y1="96" x2="202.03" y2="111.62" fill="#fff"/><path d="M174.6,96.65l27.05,15.62c.358985.209868.820132.088985,1.03-.27s.088985-.820132-.27-1.03L175.35,95.35c-.358985-.209868-.820132-.088985-1.03.27s-.088985.820132.27,1.03Z" fill="#754c24"/></g></g><g id="emBXsKjMFa540_ts" transform="translate(226.295006,84.24) scale(0,0)"><polygon points="212.77,53.63 239.82,69.23 239.82,114.85 212.77,99.23 212.77,53.63" transform="translate(-226.295006,-84.24)" opacity="0.94" fill="#fff"/></g><g id="emBXsKjMFa541_ts" transform="translate(226.295006,119.535004) scale(0,0)"><g transform="translate(-226.295006,-119.535004)"><line x1="212.77" y1="106.24" x2="239.82" y2="121.86" fill="#fff"/><path d="M212.39,106.89l27.05,15.62c.358985.209868.820132.088985,1.03-.27s.088985-.820132-.27-1.03l-27.05-15.62c-.358985-.209868-.820132-.088985-1.03.27s-.088985.820132.27,1.03Z" fill="#754c24"/><line x1="212.77" y1="111.62" x2="239.82" y2="127.24" fill="#fff"/><path d="M212.39,112.27l27.05,15.62c.358985.209868.820132.088985,1.03-.27s.088985-.820132-.27-1.03L213.15,111c-.358985-.209868-.820132-.088985-1.03.27s-.088985.820132.27,1.03Z" fill="#754c24"/><line x1="212.77" y1="117.22" x2="239.82" y2="132.84" fill="#fff"/><path d="M212.39,117.86l27.05,15.62c.358985.209868.820132.088985,1.03-.27s.088985-.820132-.27-1.03l-27.05-15.62c-.358985-.209868-.820132-.088985-1.03.27s-.088985.820132.27,1.03Z" fill="#754c24"/></g></g><g id="emBXsKjMFa548_ts" transform="translate(263.385002,104.679996) scale(0,0)"><polygon points="249.86,74.07 276.91,89.67 276.91,135.29 249.86,119.67 249.86,74.07" transform="translate(-263.385002,-104.679996)" opacity="0.94" fill="#fff"/></g><g id="emBXsKjMFa549_ts" transform="translate(263.379997,139.960003) scale(0,0)"><g transform="translate(-263.379997,-139.960003)"><line x1="249.86" y1="126.68" x2="276.91" y2="142.3" fill="#fff"/><path d="M249.48,127.33l27.05,15.62c.358985.209868.820132.088985,1.03-.27s.088985-.820132-.27-1.03L250.23,126c-.358985-.209868-.820132-.088985-1.03.27s-.088985.820132.27,1.03Z" fill="#754c24"/><line x1="249.86" y1="132.06" x2="276.91" y2="147.68" fill="#fff"/><path d="M249.48,132.71l27.05,15.62c.358985.209868.820132.088985,1.03-.27s.088985-.820132-.27-1.03l-27.05-15.62c-.358985-.209868-.820132-.088985-1.03.27s-.088985.820132.27,1.03Z" fill="#754c24"/><line x1="249.86" y1="137.65" x2="276.91" y2="153.27" fill="#fff"/><path d="M249.48,138.3l27.05,15.62c.358985.209868.820132.088985,1.03-.27s.088985-.820132-.27-1.03L250.23,137c-.358985-.209868-.820132-.088985-1.03.27s-.088985.820132.27,1.03Z" fill="#754c24"/></g></g><g id="emBXsKjMFa556_tr" transform="translate(270.57,143.949536) rotate(-124.830884)"><g id="emBXsKjMFa556" transform="translate(-270.569999,-143.94951)" opacity="0"><path d="M243.4,113.34c-.587822-1.579938-1.09514-3.188671-1.52-4.82-.19-1.16,1-5.53.15-5.78s-1.8,2.73-1.8,2.73-2.38-5.38-3-5.63-2.58-.43-3,.06-1.75,3.62-1.18,4.69c1.230843,1.899318,2.566233,3.728802,4,5.48.21.16,2.71,5.56,3.05,5.73s3.05-1.26,3.3-2.46Z" fill="#ffc9b5"/><path d="M269.53,130.72c0,0-13.09-5.18-15.36-7s-10.52-11.55-10.52-11.55-4.75,1.74-4.71,4.14c0,0,6.66,11.14,9.77,14.12s14.4,10.49,16.87,10.31s3.95-10.02,3.95-10.02Z" fill="#dd8c2a"/></g></g><path d="M261.17,236.66c0,0-3.17-2.66-6.63-1.66s-2.78,3.66-.57,5.31s10.72,7.37,13.35,7.32s3.2-2.16,3.25-3.61c-.14543-2.228137-.402418-4.447586-.77-6.65" fill="#768cfb"/><path d="M263.12,236.48c-.021747.201299-.134688.381479-.306382.488788s-.383145.129874-.573618.061212c-.950055-.301996-1.881644-.659272-2.79-1.07s-3,0-1.18,3s8.17,3.91,10.13,2.78.65-4.32.65-4.32" fill="#ffc9b5"/><path d="M253.81,242.56c0,0-3.13-2.67-6.63-1.64s-2.78,3.66-.57,5.31s10.72,7.37,13.35,7.32s3.2-2.16,3.25-3.61c-.14543-2.228137-.402418-4.447586-.77-6.65" fill="#768cfb"/><path d="M255.76,242.37c-.021747.201299-.134688.381479-.306382.488788s-.383145.129874-.573618.061212c-.950055-.301996-1.881644-.659272-2.79-1.07s-3,0-1.18,3s8.17,3.91,10.13,2.78.65-4.32.65-4.32" fill="#ffc9b5"/><path d="M252.48,160.19c-1,2.31-1.57,35.32-1.18,43.8s4.46,38.38,4.46,38.38s2.32,3.52,6.22,3.27s3.15-3.4,3.15-3.4s5,2.31,7.18-2.77c.81-1.88,4.61-54.5,4.61-60.5-.131653-7.16137-2.101301-14.168773-5.72-20.35" fill="#53b7b7"/><path d="M265.13,242.24c0,0,2.37-66.7,2.07-68.66s.65,14.62.58,19.16c-.04,3.26-2.01,44.96-2.65,49.5Z" fill="#259993"/><polygon points="246.66,175.12 233.15,160.06 222.49,171.16 235.96,185.64 246.66,175.12" fill="#768cfb"/><path d="M252.48,160.19c0,0-3.45-23.62,1.45-28.08s18.54-7.62,21.08-5.4-1.27,27.27-3.82,31.92-16.9,3.37-18.71,1.56Z" fill="#f9aa43"/><path d="M258.69,114.74c-.12.33-2.54,9.56,1.68,10.86s5.07-3.71,5.49-4s1.74-.74,1.68-1.75-1.67-1-1.67-1c-.360396-1.518454-1.250335-2.85868-2.51-3.78-1.9-1.12-4.67-.33-4.67-.33Z" fill="#ffc9b5"/><path d="M262.63,117.34c0,0-3.53.06-5-1.45-.566191-.598674-.861211-1.403878-.815818-2.226631s.427203-1.590615,1.055818-2.123369-1.4-2.79,1.23-3.47c0,0,.24-2.56,5.48-1.39s10,4.87,10.09,9.67.42,5.34,2.12,6.44s1.23,5.3-3.3,5.46-10.71-.23-11.29-2.47s2.86-2.48,3.29-4.72c.127512-.874777-.104591-1.76391-.643406-2.464747s-1.33843-1.153657-2.216594-1.255253Z" fill="#2c1d1a"/><path d="M245.67,156.79c0,0-3.63,3.87-4.68,4.29-1.604133.733476-3.145891,1.596326-4.61,2.58.484213.436758.913983.930322,1.28,1.47.000851.016656.000851.033344,0,.05.46-.34.79-.58.78-.41c0,.54-3.57,5.19-4.12,5.9s1,3,1,3c2.31.77,5-1.57,6.64-3.15s2.5-5.24,3.09-5.7s5.46-3.69,5.81-4.69-5.19-3.34-5.19-3.34Z" fill="#ffc9b5"/><path d="M252.81,133.8c-1,2.11-.91,4.41-1.35,6.65-.32,1.61-.64,3.3-1,4.93-.254805,1.652603-.774834,3.25321-1.54,4.74-1.33,2.22-3.07,4.14-4.58,6.23-.422408.456863-.727792,1.0093-.89,1.61-.14,1.46,1.69,5.61,6.8,5.1c2.575044-2.081106,4.982463-4.361467,7.2-6.82c2.88-3.36,5.56-14.73,5.29-18.52-.19-2.58-1.59-5.45-4-6.58-1.670226-.695345-3.597367-.262639-4.81,1.08-.459981.459554-.838685.993797-1.12,1.58Z" fill="#f9aa43"/><path d="M253.1,160.59c0,0,4.26-3.62,5.3-5.8s2.41-6.1,2.41-6.1-2,11.34-3.86,12.86c-1.309804-.202518-2.598454-.523844-3.85-.96Z" fill="#dd8c2a"/></g></svg>
