<?xml version="1.0" encoding="UTF-8"?>
<svg width="700pt" height="700pt" version="1.1" viewBox="0 0 700 700" xmlns="http://www.w3.org/2000/svg" xmlns:xlink="http://www.w3.org/1999/xlink">
 <defs>
  <symbol id="v" overflow="visible">
   <path d="m1.8281-0.10938c-0.09375 0.054688-0.19531 0.089844-0.29688 0.10938-0.09375 0.019531-0.19922 0.03125-0.3125 0.03125-0.33594 0-0.60156-0.085938-0.79688-0.26562-0.1875-0.1875-0.28125-0.44141-0.28125-0.76562 0-0.3125 0.09375-0.5625 0.28125-0.75 0.19531-0.1875 0.46094-0.28125 0.79688-0.28125 0.11328 0 0.21875 0.015625 0.3125 0.046875 0.10156 0.023437 0.20312 0.058594 0.29688 0.10938v0.40625c-0.09375-0.0625-0.1875-0.10938-0.28125-0.14062s-0.19531-0.046875-0.29688-0.046875c-0.17969 0-0.32031 0.0625-0.42188 0.1875-0.10547 0.11719-0.15625 0.27344-0.15625 0.46875 0 0.21094 0.050781 0.375 0.15625 0.5 0.10156 0.11719 0.24219 0.17188 0.42188 0.17188 0.10156 0 0.20312-0.015625 0.29688-0.046875s0.1875-0.078125 0.28125-0.14062z"/>
  </symbol>
  <symbol id="f" overflow="visible">
   <path d="m1.3438-1.0938c-0.042969-0.019531-0.085938-0.03125-0.125-0.03125-0.042969-0.007812-0.085938-0.015625-0.125-0.015625-0.125 0-0.22656 0.042969-0.29688 0.125-0.0625 0.074219-0.09375 0.18359-0.09375 0.32812v0.6875h-0.46875v-1.5h0.46875v0.25c0.0625-0.09375 0.12891-0.16016 0.20312-0.20312 0.082031-0.050781 0.17969-0.078125 0.29688-0.078125h0.046875c0.019531 0 0.050781 0.007812 0.09375 0.015625z"/>
  </symbol>
  <symbol id="a" overflow="visible">
   <path d="m1.7188-0.75v0.14062h-1.1094c0.007813 0.10547 0.046875 0.1875 0.10938 0.25 0.070312 0.054687 0.17188 0.078125 0.29688 0.078125 0.10156 0 0.20703-0.015625 0.3125-0.046875 0.10156-0.03125 0.21094-0.070313 0.32812-0.125v0.35938c-0.11719 0.042969-0.23047 0.074219-0.34375 0.09375-0.11719 0.019531-0.23047 0.03125-0.34375 0.03125-0.27344 0-0.48047-0.066406-0.625-0.20312-0.14844-0.13281-0.21875-0.32812-0.21875-0.57812 0-0.23828 0.070312-0.42578 0.21875-0.5625 0.14453-0.14453 0.34766-0.21875 0.60938-0.21875 0.22656 0 0.41016 0.074219 0.54688 0.21875 0.14453 0.13672 0.21875 0.32422 0.21875 0.5625zm-0.48438-0.15625c0-0.09375-0.027344-0.16406-0.078125-0.21875-0.054688-0.0625-0.125-0.09375-0.21875-0.09375-0.085938 0-0.15625 0.027344-0.21875 0.078125-0.0625 0.054687-0.10156 0.13281-0.10938 0.23438z"/>
  </symbol>
  <symbol id="e" overflow="visible">
   <path d="m0.90625-0.67188c-0.10547 0-0.18359 0.015625-0.23438 0.046875-0.054687 0.03125-0.078125 0.085938-0.078125 0.15625 0 0.0625 0.019531 0.10938 0.0625 0.14062 0.039062 0.03125 0.097656 0.046875 0.17188 0.046875 0.09375 0 0.16406-0.03125 0.21875-0.09375 0.0625-0.0625 0.09375-0.14453 0.09375-0.25v-0.046875zm0.71875-0.1875v0.85938h-0.48438v-0.21875c-0.0625 0.09375-0.13672 0.16406-0.21875 0.20312-0.074219 0.03125-0.16797 0.046875-0.28125 0.046875-0.15625 0-0.28125-0.039062-0.375-0.125-0.09375-0.09375-0.14062-0.21094-0.14062-0.35938 0-0.17578 0.054688-0.30078 0.17188-0.375 0.125-0.082031 0.3125-0.125 0.5625-0.125h0.28125v-0.046875c0-0.070312-0.03125-0.125-0.09375-0.15625-0.054687-0.039062-0.14062-0.0625-0.26562-0.0625-0.10547 0-0.20312 0.011719-0.29688 0.03125-0.085937 0.023438-0.16406 0.054688-0.23438 0.09375v-0.35938c0.10156-0.03125 0.20703-0.050781 0.3125-0.0625 0.10156-0.007813 0.20312-0.015625 0.29688-0.015625 0.26953 0 0.46094 0.054688 0.57812 0.15625 0.125 0.10547 0.1875 0.27734 0.1875 0.51562z"/>
  </symbol>
  <symbol id="d" overflow="visible">
   <path d="m0.75-1.9219v0.42188h0.5v0.34375h-0.5v0.64062c0 0.0625 0.007812 0.10938 0.03125 0.14062 0.03125 0.023438 0.085938 0.03125 0.17188 0.03125h0.25v0.34375h-0.40625c-0.1875 0-0.32422-0.035156-0.40625-0.10938-0.074219-0.082031-0.10938-0.21875-0.10938-0.40625v-0.64062h-0.25v-0.34375h0.25v-0.42188z"/>
  </symbol>
  <symbol id="k" overflow="visible">
   <path d="m1.25-1.2812v-0.79688h0.48438v2.0781h-0.48438v-0.21875c-0.074219 0.09375-0.15234 0.16406-0.23438 0.20312-0.074219 0.03125-0.16406 0.046875-0.26562 0.046875-0.17969 0-0.32812-0.070312-0.45312-0.21875-0.11719-0.14453-0.17188-0.33203-0.17188-0.5625 0-0.22656 0.054688-0.41406 0.17188-0.5625 0.125-0.14453 0.27344-0.21875 0.45312-0.21875 0.10156 0 0.19141 0.023438 0.26562 0.0625 0.082031 0.042969 0.16016 0.10547 0.23438 0.1875zm-0.3125 0.96875c0.09375 0 0.16406-0.035156 0.21875-0.10938 0.0625-0.070313 0.09375-0.17969 0.09375-0.32812 0-0.13281-0.03125-0.23828-0.09375-0.3125-0.054688-0.082031-0.125-0.125-0.21875-0.125-0.10547 0-0.18359 0.042969-0.23438 0.125-0.054687 0.074219-0.078125 0.17969-0.078125 0.3125 0 0.14844 0.023438 0.25781 0.078125 0.32812 0.050781 0.074219 0.12891 0.10938 0.23438 0.10938z"/>
  </symbol>
  <symbol id="j" overflow="visible">
   <path d="m1.0312-0.3125c0.09375 0 0.16406-0.035156 0.21875-0.10938 0.0625-0.070313 0.09375-0.17969 0.09375-0.32812 0-0.13281-0.03125-0.23828-0.09375-0.3125-0.054688-0.082031-0.125-0.125-0.21875-0.125-0.10547 0-0.1875 0.042969-0.25 0.125-0.054688 0.074219-0.078125 0.17969-0.078125 0.3125 0 0.14844 0.023437 0.25781 0.078125 0.32812 0.0625 0.074219 0.14453 0.10938 0.25 0.10938zm-0.32812-0.96875c0.070313-0.082031 0.14453-0.14453 0.21875-0.1875 0.082031-0.039062 0.17578-0.0625 0.28125-0.0625 0.1875 0 0.33594 0.074219 0.45312 0.21875 0.11328 0.14844 0.17188 0.33594 0.17188 0.5625 0 0.23047-0.058594 0.41797-0.17188 0.5625-0.11719 0.14844-0.26562 0.21875-0.45312 0.21875-0.10547 0-0.19922-0.015625-0.28125-0.046875-0.074219-0.039062-0.14844-0.10938-0.21875-0.20312v0.21875h-0.46875v-2.0781h0.46875z"/>
  </symbol>
  <symbol id="i" overflow="visible">
   <path d="m0.03125-1.5h0.48438l0.39062 1.0156 0.34375-1.0156h0.48438l-0.625 1.6406c-0.0625 0.16406-0.14062 0.28125-0.23438 0.34375-0.085938 0.070313-0.19531 0.10938-0.32812 0.10938h-0.26562v-0.3125h0.14062c0.082031 0 0.14062-0.015625 0.17188-0.046875 0.039062-0.023437 0.070312-0.070313 0.09375-0.14062l0.015625-0.03125z"/>
  </symbol>
  <symbol id="c" overflow="visible">
   <path d="m1.3906-1.4531v0.375c-0.09375-0.050781-0.19531-0.085937-0.29688-0.10938-0.09375-0.019531-0.18359-0.03125-0.26562-0.03125-0.085937 0-0.15234 0.015625-0.20312 0.046875-0.042969 0.023437-0.0625 0.054687-0.0625 0.09375 0 0.042969 0.015625 0.074219 0.046875 0.09375 0.03125 0.023437 0.09375 0.039063 0.1875 0.046875l0.078125 0.015625c0.25 0.03125 0.41406 0.085937 0.5 0.15625 0.082031 0.0625 0.125 0.17188 0.125 0.32812s-0.0625 0.27734-0.1875 0.35938c-0.11719 0.074219-0.28906 0.10938-0.51562 0.10938-0.10547 0-0.21094-0.011719-0.3125-0.03125-0.10547-0.0078125-0.21094-0.03125-0.3125-0.0625v-0.35938c0.09375 0.054687 0.1875 0.089844 0.28125 0.10938 0.10156 0.023438 0.20703 0.03125 0.3125 0.03125 0.09375 0 0.16016-0.007812 0.20312-0.03125 0.050781-0.03125 0.078125-0.070312 0.078125-0.125 0-0.039062-0.015625-0.070312-0.046875-0.09375-0.03125-0.019531-0.10156-0.035156-0.20312-0.046875l-0.078125-0.015625c-0.21875-0.019531-0.37109-0.066406-0.45312-0.14062-0.085937-0.070313-0.125-0.17969-0.125-0.32812 0-0.15625 0.050781-0.26953 0.15625-0.34375 0.11328-0.082031 0.28125-0.125 0.5-0.125 0.09375 0 0.1875 0.011719 0.28125 0.03125 0.10156 0.011719 0.20703 0.027344 0.3125 0.046875z"/>
  </symbol>
  <symbol id="b" overflow="visible">
   <path d="m1.7344-0.90625v0.90625h-0.48438v-0.6875c0-0.13281-0.007812-0.22266-0.015625-0.26562 0-0.050781-0.007813-0.09375-0.015625-0.125-0.023438-0.03125-0.046875-0.050781-0.078125-0.0625-0.03125-0.019531-0.070313-0.03125-0.10938-0.03125-0.10547 0-0.1875 0.042969-0.25 0.125-0.054688 0.074219-0.078125 0.17969-0.078125 0.3125v0.73438h-0.46875v-2.0781h0.46875v0.79688c0.070313-0.082031 0.14844-0.14453 0.23438-0.1875 0.082031-0.039062 0.17188-0.0625 0.26562-0.0625 0.17578 0 0.30469 0.054688 0.39062 0.15625 0.09375 0.10547 0.14062 0.26172 0.14062 0.46875z"/>
  </symbol>
  <symbol id="h" overflow="visible">
   <path d="m1.7344-0.90625v0.90625h-0.48438v-0.70312c0-0.125-0.007812-0.20703-0.015625-0.25 0-0.050781-0.007813-0.09375-0.015625-0.125-0.023438-0.03125-0.046875-0.050781-0.078125-0.0625-0.03125-0.019531-0.070313-0.03125-0.10938-0.03125-0.10547 0-0.1875 0.042969-0.25 0.125-0.054688 0.074219-0.078125 0.17969-0.078125 0.3125v0.73438h-0.46875v-1.5h0.46875v0.21875c0.070313-0.082031 0.14844-0.14453 0.23438-0.1875 0.082031-0.039062 0.17188-0.0625 0.26562-0.0625 0.17578 0 0.30469 0.054688 0.39062 0.15625 0.09375 0.10547 0.14062 0.26172 0.14062 0.46875z"/>
  </symbol>
  <symbol id="u" overflow="visible">
   <path d="m0.23438-2.0781h0.46875v1.125l0.54688-0.54688h0.5625l-0.73438 0.6875 0.79688 0.8125h-0.57812l-0.59375-0.625v0.625h-0.46875z"/>
  </symbol>
  <symbol id="t" overflow="visible">
   <path d="m0.23438-1.5h0.46875v1.5h-0.46875zm0-0.57812h0.46875v0.39062h-0.46875z"/>
  </symbol>
  <symbol id="s" overflow="visible">
   <path d="m1.25-0.25c-0.074219 0.085938-0.15234 0.14844-0.23438 0.1875-0.074219 0.042969-0.16406 0.0625-0.26562 0.0625-0.17969 0-0.32812-0.070312-0.45312-0.21875-0.11719-0.14453-0.17188-0.32812-0.17188-0.54688s0.054688-0.39844 0.17188-0.54688c0.125-0.14453 0.27344-0.21875 0.45312-0.21875 0.10156 0 0.19141 0.023438 0.26562 0.0625 0.082031 0.042969 0.16016 0.10547 0.23438 0.1875v-0.21875h0.48438v1.3438c0 0.23828-0.078125 0.42188-0.23438 0.54688-0.15625 0.13281-0.375 0.20312-0.65625 0.20312-0.09375 0-0.1875-0.011719-0.28125-0.03125-0.085938-0.011719-0.16797-0.03125-0.25-0.0625v-0.375c0.082031 0.050781 0.16016 0.085938 0.23438 0.10938 0.082031 0.03125 0.16406 0.046875 0.25 0.046875 0.15625 0 0.26953-0.039062 0.34375-0.10938 0.070313-0.074219 0.10938-0.17969 0.10938-0.32812zm-0.3125-0.9375c-0.10547 0-0.18359 0.039062-0.23438 0.10938-0.054687 0.074219-0.078125 0.17969-0.078125 0.3125 0 0.13672 0.023438 0.24219 0.078125 0.3125 0.050781 0.074219 0.12891 0.10938 0.23438 0.10938 0.09375 0 0.16406-0.035156 0.21875-0.10938 0.0625-0.070313 0.09375-0.17578 0.09375-0.3125 0-0.13281-0.03125-0.23828-0.09375-0.3125-0.054688-0.070313-0.125-0.10938-0.21875-0.10938z"/>
  </symbol>
  <symbol id="r" overflow="visible">
   <path d="m1.2188-2.0781v0.3125h-0.26562c-0.074219 0-0.125 0.015625-0.15625 0.046875-0.023437 0.023438-0.03125 0.0625-0.03125 0.125v0.09375h0.40625v0.34375h-0.40625v1.1562h-0.46875v-1.1562h-0.25v-0.34375h0.25v-0.09375c0-0.16406 0.039063-0.28516 0.125-0.35938 0.09375-0.082031 0.23438-0.125 0.42188-0.125z"/>
  </symbol>
  <symbol id="g" overflow="visible">
   <path d="m0.9375-1.1875c-0.10547 0-0.1875 0.039062-0.25 0.10938-0.054688 0.074219-0.078125 0.18359-0.078125 0.32812 0 0.14844 0.023437 0.26172 0.078125 0.34375 0.0625 0.074219 0.14453 0.10938 0.25 0.10938 0.10156 0 0.17969-0.035156 0.23438-0.10938 0.0625-0.082031 0.09375-0.19531 0.09375-0.34375 0-0.14453-0.03125-0.25391-0.09375-0.32812-0.054687-0.070313-0.13281-0.10938-0.23438-0.10938zm0-0.34375c0.25781 0 0.46094 0.074219 0.60938 0.21875 0.14453 0.13672 0.21875 0.32422 0.21875 0.5625 0 0.25-0.074219 0.44531-0.21875 0.57812-0.14844 0.13672-0.35156 0.20312-0.60938 0.20312-0.26172 0-0.46484-0.066406-0.60938-0.20312-0.13672-0.13281-0.20312-0.32812-0.20312-0.57812 0-0.23828 0.066406-0.42578 0.20312-0.5625 0.14453-0.14453 0.34766-0.21875 0.60938-0.21875z"/>
  </symbol>
  <symbol id="q" overflow="visible">
   <path d="m1.6094-1.25c0.0625-0.09375 0.13281-0.16016 0.21875-0.20312 0.082031-0.050781 0.17578-0.078125 0.28125-0.078125 0.16406 0 0.29688 0.054688 0.39062 0.15625 0.09375 0.10547 0.14062 0.26172 0.14062 0.46875v0.90625h-0.48438v-0.78125-0.03125-0.0625c0-0.10156-0.015625-0.17578-0.046875-0.21875-0.03125-0.050781-0.085937-0.078125-0.15625-0.078125-0.085937 0-0.15234 0.039063-0.20312 0.10938-0.054688 0.074219-0.078125 0.18359-0.078125 0.32812v0.73438h-0.48438v-0.78125c0-0.16406-0.015625-0.26953-0.046875-0.3125-0.023437-0.050781-0.070313-0.078125-0.14062-0.078125-0.09375 0-0.16797 0.042969-0.21875 0.125-0.054688 0.074219-0.078125 0.17969-0.078125 0.3125v0.73438h-0.46875v-1.5h0.46875v0.21875c0.0625-0.082031 0.12891-0.14453 0.20312-0.1875 0.082031-0.039062 0.16406-0.0625 0.25-0.0625 0.10156 0 0.19141 0.027344 0.26562 0.078125 0.082031 0.054687 0.14453 0.12109 0.1875 0.20312z"/>
  </symbol>
  <symbol id="p" overflow="visible">
   <path d="m0.25-2h0.57812l0.71875 1.375v-1.375h0.48438v2h-0.5625l-0.73438-1.375v1.375h-0.48438z"/>
  </symbol>
  <symbol id="o" overflow="visible">
   <path d="m0.21875-0.57812v-0.92188h0.46875v0.15625 0.3125 0.23438 0.26562c0.007812 0.054688 0.023438 0.089844 0.046875 0.10938 0.019531 0.03125 0.046875 0.058594 0.078125 0.078125 0.03125 0.011719 0.066406 0.015625 0.10938 0.015625 0.09375 0 0.16406-0.035156 0.21875-0.10938 0.0625-0.070312 0.09375-0.17578 0.09375-0.3125v-0.75h0.48438v1.5h-0.48438v-0.21875c-0.074219 0.09375-0.15234 0.16406-0.23438 0.20312-0.074219 0.03125-0.15625 0.046875-0.25 0.046875-0.17969 0-0.3125-0.050781-0.40625-0.15625-0.085938-0.10156-0.125-0.25391-0.125-0.45312z"/>
  </symbol>
  <symbol id="n" overflow="visible">
   <path d="m0.25-2h0.85938c0.25 0 0.44141 0.058594 0.57812 0.17188 0.13281 0.11719 0.20312 0.27734 0.20312 0.48438 0 0.21094-0.070313 0.37109-0.20312 0.48438-0.13672 0.11719-0.32812 0.17188-0.57812 0.17188h-0.34375v0.6875h-0.51562zm0.51562 0.375v0.5625h0.28125c0.10156 0 0.17969-0.019531 0.23438-0.0625 0.050781-0.050781 0.078125-0.125 0.078125-0.21875s-0.027344-0.16016-0.078125-0.20312c-0.054688-0.050781-0.13281-0.078125-0.23438-0.078125z"/>
  </symbol>
  <symbol id="m" overflow="visible">
   <path d="m0.23438-1.5h0.46875v1.4688c0 0.20703-0.046875 0.36328-0.14062 0.46875-0.09375 0.10156-0.23438 0.15625-0.42188 0.15625h-0.23438v-0.3125h0.078125c0.09375 0 0.15625-0.023438 0.1875-0.0625 0.039063-0.042969 0.0625-0.125 0.0625-0.25zm0-0.57812h0.46875v0.39062h-0.46875z"/>
  </symbol>
  <symbol id="l" overflow="visible">
   <path d="m1.4375-1.4531v0.39062c-0.0625-0.039062-0.13281-0.070312-0.20312-0.09375-0.0625-0.019531-0.13281-0.03125-0.20312-0.03125-0.125 0-0.23047 0.042969-0.3125 0.125-0.074219 0.074219-0.10938 0.17969-0.10938 0.3125 0 0.14844 0.035156 0.26172 0.10938 0.34375 0.082031 0.074219 0.1875 0.10938 0.3125 0.10938 0.082031 0 0.15625-0.007813 0.21875-0.03125 0.070312-0.03125 0.13281-0.066406 0.1875-0.10938v0.39062c-0.074219 0.03125-0.15234 0.050781-0.23438 0.0625-0.074219 0.0078125-0.14844 0.015625-0.21875 0.015625-0.27344 0-0.48438-0.066406-0.64062-0.20312-0.14844-0.13281-0.21875-0.32812-0.21875-0.57812 0-0.23828 0.070312-0.42578 0.21875-0.5625 0.15625-0.14453 0.36719-0.21875 0.64062-0.21875 0.070313 0 0.14453 0.011719 0.21875 0.03125 0.082031 0.011719 0.16016 0.027344 0.23438 0.046875z"/>
  </symbol>
 </defs>
 <g>
  <path d="m453.58 458.55c-12.906 7.3281-25.812 14.656-38.719 21.984-20.562 11.648-41.07 23.352-61.633 35-4.7031 2.6797-9.3516 5.3047-14.055 7.9844h16.57c-21.711-12.633-43.422-25.266-65.133-37.953-12.633-7.3281-25.266-14.711-37.898-22.039-2.625-1.5312-5.1953-3.0078-7.8203-4.5391-3.6094-2.1328-7.2188-4.3203-10.664-6.6719-2.7344-1.8047-5.3594-3.7188-7.9844-5.6875-0.92969-0.71094-3.3359-2.6797 0.71094 0.60156-0.65625-0.49219-1.2578-0.98438-1.9141-1.5312-1.4766-1.2031-2.9531-2.4062-4.375-3.6094-5.5234-4.7031-10.828-9.7344-15.75-15.039-2.5703-2.7344-5.0312-5.5781-7.4375-8.4219-1.2031-1.4219-2.3516-2.9531-3.5-4.375 3.7734 4.5938-0.4375-0.60156-1.3125-1.8047-8.6406-11.867-15.859-24.719-21.547-38.227 0.54687 1.3125 1.0938 2.625 1.6406 3.9375-6.4531-15.422-10.828-31.555-13.07-48.125 0.21875 1.4766 0.38281 2.8984 0.60156 4.375-1.6953-12.633-1.6953-25.211-1.6953-37.953v-47.031-62.289-55.453c0-9.1328 0.27344-18.32 0-27.508v-0.38281l-16.406 16.406c36.531 0 73.445-6.3438 107.79-18.922 17.773-6.5078 35.109-14.438 51.516-23.953 13.891-8.0391 26.852-17.281 39.43-27.18 6.8906-5.4141 13.836-10.828 20.727-16.242h-23.188c17.664 13.836 35.055 28.164 54.25 39.922 31.336 19.141 66.336 32.922 102.32 40.086 20.672 4.1016 41.836 6.3438 62.891 6.3438l-16.406-16.406v22.477 52.773 62.125 49.875c0 10.062 0.21875 20.18-0.49219 30.188-0.27344 3.9375-0.71094 7.8203-1.2031 11.703 0.21875-1.4766 0.38281-2.8984 0.60156-4.375-2.2969 16.68-6.7266 33.031-13.234 48.562l1.6406-3.9375c-6.1797 14.547-14.055 28.273-23.625 40.852-2.1875 2.8984 2.0234-2.5703 0.38281-0.49219-0.65625 0.82031-1.3125 1.6406-1.9688 2.4609-1.2578 1.5312-2.5703 3.0625-3.8281 4.5938-2.625 3.0078-5.3594 5.9609-8.1484 8.8047-5.5781 5.6328-11.484 10.883-17.664 15.805-1.9688 1.5859 1.3672-1.0391 1.4219-1.0938-0.49219 0.4375-1.0938 0.82031-1.5859 1.2031-0.875 0.65625-1.75 1.3125-2.625 1.9141-1.8594 1.3672-3.7734 2.6797-5.6875 3.9375-3.9375 2.625-7.875 5.0312-11.922 7.3281-7.4375 4.2656-10.664 15.039-5.9062 22.422 4.8672 7.5469 14.492 10.445 22.422 5.9062 19.633-11.211 37.68-25.703 52.5-42.766 15.422-17.664 27.453-37.406 36.422-59.008 8.5859-20.672 13.344-42.766 14.82-65.133 0.4375-6.5625 0.38281-13.18 0.38281-19.797v-63.766-83.945c0-15.969 0.21875-31.992 0-48.016v-0.71094c0-8.8594-7.4922-16.406-16.406-16.406-13.508 0-27.07-0.92969-40.469-2.7344 1.4766 0.21875 2.8984 0.38281 4.375 0.60156-26.305-3.6094-52.062-10.664-76.562-20.945 1.3125 0.54688 2.625 1.0938 3.9375 1.6406-18.047-7.6562-35.328-16.953-51.516-27.945-4.1016-2.7344-8.0938-5.6328-12.031-8.5859-0.98438-0.76563-1.9688-1.4766-2.9531-2.2422 0.49219 0.38281 2.8438 2.1875 1.0938 0.82031-0.32812-0.27344-0.65625-0.49219-0.98438-0.76562-3.7734-2.9531-7.5469-5.9609-11.375-8.9141-3.2812-2.5703-6.5078-5.1406-9.7891-7.7109-3.3906-2.6797-7-5.0312-11.594-4.8125-4.6484 0.21875-7.9844 1.9688-11.594 4.8125-6.7812 5.3047-13.508 10.609-20.289 15.914-1.0391 0.82031-4.6484 3.4453-0.76562 0.60156-3.9922 2.8984-7.875 5.9062-11.922 8.75-8.0391 5.5781-16.406 10.773-24.938 15.586-9.625 5.3594-19.469 10.172-29.586 14.438l3.9375-1.6406c-24.5 10.281-50.258 17.336-76.562 20.945 1.4766-0.21875 2.8984-0.38281 4.375-0.60156-13.398 1.8047-26.906 2.7344-40.469 2.7344-8.8594 0-16.406 7.4922-16.406 16.406v35.82 76.07 71.094 19.195c0 11.539 0.875 22.969 2.5156 34.398 6.0156 41.836 26.141 81.539 55.398 111.95 13.125 13.617 28.383 25.484 44.734 35.055 5.1953 3.0625 10.445 6.0703 15.641 9.1328 21.82 12.688 43.586 25.375 65.406 38.062 8.2578 4.8125 16.57 9.625 24.828 14.438 1.5859 0.92969 3.1719 1.9141 4.8125 2.7891 5.4688 2.8984 11.32 2.8984 16.844 0 0.54688-0.27344 1.0391-0.60156 1.5859-0.875 17.609-10.008 35.273-20.016 52.883-30.023 18.867-10.719 37.734-21.438 56.602-32.156 1.0391-0.60156 2.1328-1.2031 3.1719-1.8047 7.4922-4.2656 10.664-15.039 5.9062-22.422-4.9219-7.4922-14.492-10.391-22.477-5.8516z"/>
  <path d="m227.17 292.36 73.609 73.609c6.2891 6.2891 16.898 6.2891 23.188 0l130.38-130.38c6.0156-6.0156 12.25-11.977 18.156-18.156l0.27344-0.27344c6.0703-6.0703 6.5078-17.227 0-23.188-6.5625-6.0156-16.734-6.5078-23.188 0l-130.38 130.38c-6.0156 6.0156-12.305 11.922-18.156 18.156l-0.27344 0.27344h23.188l-73.609-73.609c-6.0703-6.0703-17.227-6.5078-23.188 0-6.0156 6.5078-6.4531 16.68 0 23.188z"/>
  <use x="70" y="568.203125" xlink:href="#v"/>
  <use x="72.007812" y="568.203125" xlink:href="#f"/>
  <use x="73.355469" y="568.203125" xlink:href="#a"/>
  <use x="75.210937" y="568.203125" xlink:href="#e"/>
  <use x="77.054688" y="568.203125" xlink:href="#d"/>
  <use x="78.363281" y="568.203125" xlink:href="#a"/>
  <use x="80.214844" y="568.203125" xlink:href="#k"/>
  <use x="83.125" y="568.203125" xlink:href="#j"/>
  <use x="85.082031" y="568.203125" xlink:href="#i"/>
  <use x="87.816406" y="568.203125" xlink:href="#c"/>
  <use x="89.445312" y="568.203125" xlink:href="#b"/>
  <use x="91.390625" y="568.203125" xlink:href="#e"/>
  <use x="93.238281" y="568.203125" xlink:href="#c"/>
  <use x="94.863281" y="568.203125" xlink:href="#b"/>
  <use x="96.8125" y="568.203125" xlink:href="#e"/>
  <use x="98.65625" y="568.203125" xlink:href="#h"/>
  <use x="100.601562" y="568.203125" xlink:href="#u"/>
  <use x="103.375" y="568.203125" xlink:href="#c"/>
  <use x="105" y="568.203125" xlink:href="#t"/>
  <use x="105.9375" y="568.203125" xlink:href="#h"/>
  <use x="107.882812" y="568.203125" xlink:href="#s"/>
  <use x="109.84375" y="568.203125" xlink:href="#b"/>
  <use x="70" y="570.9375" xlink:href="#r"/>
  <use x="71.191406" y="570.9375" xlink:href="#f"/>
  <use x="72.539062" y="570.9375" xlink:href="#g"/>
  <use x="74.417969" y="570.9375" xlink:href="#q"/>
  <use x="78.21875" y="570.9375" xlink:href="#d"/>
  <use x="79.523438" y="570.9375" xlink:href="#b"/>
  <use x="81.472656" y="570.9375" xlink:href="#a"/>
  <use x="84.277344" y="570.9375" xlink:href="#p"/>
  <use x="86.566406" y="570.9375" xlink:href="#g"/>
  <use x="88.445312" y="570.9375" xlink:href="#o"/>
  <use x="90.390625" y="570.9375" xlink:href="#h"/>
  <use x="93.289062" y="570.9375" xlink:href="#n"/>
  <use x="95.292969" y="570.9375" xlink:href="#f"/>
  <use x="96.644531" y="570.9375" xlink:href="#g"/>
  <use x="98.519531" y="570.9375" xlink:href="#m"/>
  <use x="99.457031" y="570.9375" xlink:href="#a"/>
  <use x="101.3125" y="570.9375" xlink:href="#l"/>
  <use x="102.933594" y="570.9375" xlink:href="#d"/>
 </g>
</svg>
