<svg id="eBbmCXSFQ5l1" xmlns="http://www.w3.org/2000/svg" xmlns:xlink="http://www.w3.org/1999/xlink" viewBox="0 0 400 300" shape-rendering="geometricPrecision" text-rendering="geometricPrecision">
<style><![CDATA[
#eBbmCXSFQ5l2 {animation: eBbmCXSFQ5l2_c_o 3000ms linear 1 normal forwards}@keyframes eBbmCXSFQ5l2_c_o { 0% {opacity: 0} 40% {opacity: 1} 100% {opacity: 1}} #eBbmCXSFQ5l26_ts {animation: eBbmCXSFQ5l26_ts__ts 3000ms linear 1 normal forwards}@keyframes eBbmCXSFQ5l26_ts__ts { 0% {transform: translate(212.495003px,60.154999px) scale(0,0)} 26.666667% {transform: translate(212.495003px,60.154999px) scale(0,0);animation-timing-function: cubic-bezier(0.445,0.05,0.55,0.95)} 43.333333% {transform: translate(212.495003px,60.154999px) scale(1,1)} 100% {transform: translate(212.495003px,60.154999px) scale(1,1)}} #eBbmCXSFQ5l27_ts {animation: eBbmCXSFQ5l27_ts__ts 3000ms linear 1 normal forwards}@keyframes eBbmCXSFQ5l27_ts__ts { 0% {transform: translate(187.920006px,54.860001px) scale(0,0)} 30% {transform: translate(187.920006px,54.860001px) scale(0,0);animation-timing-function: cubic-bezier(0.445,0.05,0.55,0.95)} 46.666667% {transform: translate(187.920006px,54.860001px) scale(1,1)} 100% {transform: translate(187.920006px,54.860001px) scale(1,1)}} #eBbmCXSFQ5l28_ts {animation: eBbmCXSFQ5l28_ts__ts 3000ms linear 1 normal forwards}@keyframes eBbmCXSFQ5l28_ts__ts { 0% {transform: translate(222.159996px,74.055px) scale(0,0)} 33.333333% {transform: translate(222.159996px,74.055px) scale(0,0);animation-timing-function: cubic-bezier(0.445,0.05,0.55,0.95)} 50% {transform: translate(222.159996px,74.055px) scale(1,1)} 100% {transform: translate(222.159996px,74.055px) scale(1,1)}} #eBbmCXSFQ5l29_ts {animation: eBbmCXSFQ5l29_ts__ts 3000ms linear 1 normal forwards}@keyframes eBbmCXSFQ5l29_ts__ts { 0% {transform: translate(193.139999px,65.795px) scale(0,0)} 36.666667% {transform: translate(193.139999px,65.795px) scale(0,0);animation-timing-function: cubic-bezier(0.445,0.05,0.55,0.95)} 53.333333% {transform: translate(193.139999px,65.795px) scale(1,1)} 100% {transform: translate(193.139999px,65.795px) scale(1,1)}} #eBbmCXSFQ5l30_ts {animation: eBbmCXSFQ5l30_ts__ts 3000ms linear 1 normal forwards}@keyframes eBbmCXSFQ5l30_ts__ts { 0% {transform: translate(229.165001px,85.560001px) scale(0,0)} 40% {transform: translate(229.165001px,85.560001px) scale(0,0);animation-timing-function: cubic-bezier(0.445,0.05,0.55,0.95)} 56.666667% {transform: translate(229.165001px,85.560001px) scale(1,1)} 100% {transform: translate(229.165001px,85.560001px) scale(1,1)}} #eBbmCXSFQ5l31_ts {animation: eBbmCXSFQ5l31_ts__ts 3000ms linear 1 normal forwards}@keyframes eBbmCXSFQ5l31_ts__ts { 0% {transform: translate(291.330002px,90.322663px) scale(0,0)} 16.666667% {transform: translate(291.330002px,90.322663px) scale(0,0)} 33.333333% {transform: translate(291.330002px,90.322663px) scale(1,1)} 100% {transform: translate(291.330002px,90.322663px) scale(1,1)}}
]]></style>
<defs><linearGradient id="eBbmCXSFQ5l4-fill" x1="311.03" y1="208.3" x2="332.41" y2="188.56" spreadMethod="pad" gradientUnits="userSpaceOnUse" gradientTransform="translate(0 0)"><stop id="eBbmCXSFQ5l4-fill-0" offset="0%" stop-color="#e75d48"/><stop id="eBbmCXSFQ5l4-fill-1" offset="100%" stop-color="#502019"/></linearGradient><linearGradient id="eBbmCXSFQ5l5-fill" x1="137.47" y1="235.44" x2="163.23" y2="211.66" spreadMethod="pad" gradientUnits="userSpaceOnUse" gradientTransform="translate(0 0)"><stop id="eBbmCXSFQ5l5-fill-0" offset="0%" stop-color="#e75d48"/><stop id="eBbmCXSFQ5l5-fill-1" offset="100%" stop-color="#502019"/></linearGradient><linearGradient id="eBbmCXSFQ5l6-fill" x1="44.8" y1="187.6" x2="68.37" y2="168.6" spreadMethod="pad" gradientUnits="userSpaceOnUse" gradientTransform="translate(0 0)"><stop id="eBbmCXSFQ5l6-fill-0" offset="0%" stop-color="#e75d48"/><stop id="eBbmCXSFQ5l6-fill-1" offset="100%" stop-color="#502019"/></linearGradient><linearGradient id="eBbmCXSFQ5l13-fill" x1="189.93" y1="210.01" x2="218.27" y2="172.22" spreadMethod="pad" gradientUnits="userSpaceOnUse" gradientTransform="translate(0 0)"><stop id="eBbmCXSFQ5l13-fill-0" offset="0%" stop-color="#e75d48"/><stop id="eBbmCXSFQ5l13-fill-1" offset="100%" stop-color="#502019"/></linearGradient></defs><g id="eBbmCXSFQ5l2" transform="translate(.000001 0.000001)" opacity="0"><path d="M194.51,291.25L22,189.3c-5.49-3.08-10.2-8.15-4.85-11.46L190.29,78.06c2.6-1.61,6.54-2.66,9.18-1.13L380.54,182c5.49,3.19,6.48,12.1,1,15.29l-164.29,93.8c-7.018335,4.070998-15.665076,4.131837-22.74.16Z" fill="#e75d48"/><path d="M322.29,182.6c-13.16,7.67-22.56,12.83-42.8,24.38c15.32,9.31,28.71,16.14,30.43,17.16l44-25c-3.57-1.83-15.25-8.44-31.63-16.54Z" opacity="0.32" fill="url(#eBbmCXSFQ5l4-fill)"/><path d="M151,204.47c-15.86,9.25-27.19,15.46-51.58,29.38c18.46,11.22,34.6,19.46,36.68,20.68l53-30.09c-4.25-2.24-18.32-10.21-38.1-19.97Z" opacity="0.32" fill="url(#eBbmCXSFQ5l5-fill)"/><path d="M54.27,193.95c8.23-5.48,16.6-10.76,24.92-16.09l-11.82-8.63-45.78,19.1c5.53,2.9,13,8.33,20.86,13.86c3.91-2.79,7.82-5.58,11.82-8.24Z" opacity="0.32" fill="url(#eBbmCXSFQ5l6-fill)"/><path d="M83.68,147.26c-.067983-.282819-.193978-.548431-.37-.78-.322981-.393216-.708056-.731002-1.14-1-5.81-3.93-13.86-5-20-1.17-1.4.88-3.49,2.87-2.66,4.75.48,1.09,1.94,1.73,3,2.17c3.370818,1.347068,6.893579,2.277292,10.49,2.77c1.3.22,2.62.44,3.93.56c1.841645.17734,3.646851-.595243,4.79-2.05.91-1.19,2.37-3.51,1.96-5.25Z" fill="#754c24"/><path d="M59.34,148.2c0,0,5.3,4.8,14.46,4.1s9.87-5,9.87-5-2.37,30.36-3.62,30.88-5.93,2.78-8.19,2.95-9.4-2.69-9.58-3.48-2.94-29.45-2.94-29.45Z" fill="#ff8f6f"/><path d="M61,104c-.28-.57-1.15-.07-.86.5c6.27,12.64,7.49,26.87,8.62,40.69.05.63,1.05.64,1,0C68.63,131.14,67.37,116.76,61,104Z" fill="#007f68"/><path d="M60.21,104.08c0,0,1.75,6.56-.06,9.84s-3.3,3.93-1.14,8s7.94,4.62,8.32,7.74-2.76-20.01-7.12-25.58Z" fill="#007f68"/><path d="M80.26,115.92c-4.828926,10.098776-7.55089,21.075095-8,32.26c0,.78,1.19.77,1.22,0c.423895-10.972254,3.074245-21.743766,7.79-31.66.38-.69-.67-1.31-1.01-.6Z" fill="#007f68"/><path d="M81.12,119.11c0-.66-.15-2-.08-3.11l-.7.44c-2.38,5.79-5.94,19.39-7,23.55c1.45-3.12,7.38-3.55,9.12-8c.767845-1.88887.803503-3.996234.1-5.91-.858228-2.228865-1.344698-4.583514-1.44-6.97Z" fill="#007f68"/><path d="M214.59,232.12c16.12-8.68,54.27-27.87,70.27-36.75l-92.08-57.61-66.44,45.11c16.86,8.82,64.92,34.82,88.25,49.25Z" opacity="0.32" fill="url(#eBbmCXSFQ5l13-fill)"/><path d="M136.88,135c.07,21.33.19,40.53.19,40.53s.45,1.74,3.66.32v-42.13c-1.28.43-2.56.84-3.85,1.28Z" fill="#5b434d"/><path d="M226.07,186.84c.07,21.33.19,40.53.19,40.53s.45,1.74,3.66.32v-42.09c-1.28.4-2.56.84-3.85,1.24Z" fill="#5b434d"/><path d="M281,154.52c.07,21.33.19,40.53.19,40.53s.45,1.74,3.66.32v-42.09c-1.27.42-2.55.84-3.85,1.24Z" fill="#5b434d"/><polyline points="136.13,133.72 136.13,137.35 228.17,190.6 284.77,153.43 284.86,149.37" fill="#a5dd73"/><polyline points="136.13,133.72 136.13,137.35 228.17,190.6 284.77,153.43 284.86,149.37" opacity="0.76" fill="#6db720"/><polygon points="136.13,133.72 195.35,99.94 284.86,149.37 227.85,186.96 136.13,133.72" fill="#a5dd73"/><path d="M218.31,116.14l-12.47,6c-.958927.459789-1.585002,1.412133-1.62692,2.474766s.507191,2.061336,1.42692,2.595234l29.57,17.25c1.328119.773602,3.029932.363579,3.86-.93l7.18-11.17" fill="#56403d"/><path d="M281,84.17L179.13,25.5c-1.026715-.609712-2.302242-.619151-3.337869-.024701s-1.67079,1.700625-1.662131,2.894701v62.33c.002505.912089.490103,1.753957,1.28,2.21L283.8,155.48c.381607.222731.853361.223663,1.235845.002442s.616923-.630599.614155-1.072442v-62.08c.01315-3.353839-1.757891-6.461731-4.65-8.16Z" fill="#68e1fd"/><path d="M180.9,31l96.46,55.5c2.097156,1.206024,3.389966,3.440794,3.39,5.86v44.7c.00247.87296-.461616,1.680731-1.217007,2.11828s-1.686987.438205-2.442993.00172L178.72,82.74c-.748473-.429745-1.21-1.226928-1.21-2.09v-47.65c-.00917-.81246.416599-1.567865,1.1164-1.980727s1.566901-.420212,2.2736-.019273Z" fill="#200a52"/><ellipse rx="1.05" ry="0.01" transform="matrix(.981959-.189095 0.189095 0.981959 222.512195 115.125867)" fill="#ab643c"/><ellipse rx="1.05" ry="1.14" transform="translate(273.43 87.89)" fill="#659fe4"/><ellipse rx="1.05" ry="1.14" transform="translate(270.08 86.22)" fill="#c5e9ff"/><g id="eBbmCXSFQ5l26_ts" transform="translate(212.495003,60.154999) scale(0,0)"><line x1="182.92" y1="43.35" x2="242.07" y2="76.96" transform="translate(-212.495003,-60.154999)" fill="none" stroke="#00a99d" stroke-width="4" stroke-miterlimit="10"/></g><g id="eBbmCXSFQ5l27_ts" transform="translate(187.920006,54.860001) scale(0,0)"><line x1="183.13" y1="52.14" x2="192.71" y2="57.58" transform="translate(-187.920006,-54.860001)" fill="none" stroke="#d4145a" stroke-width="4" stroke-miterlimit="10"/></g><g id="eBbmCXSFQ5l28_ts" transform="translate(222.159996,74.055) scale(0,0)"><line x1="195.54" y1="59.42" x2="248.78" y2="88.69" transform="translate(-222.159996,-74.055)" fill="none" stroke="#29abe2" stroke-width="4" stroke-miterlimit="10"/></g><g id="eBbmCXSFQ5l29_ts" transform="translate(193.139999,65.795) scale(0,0)"><line x1="182.92" y1="60.16" x2="203.36" y2="71.43" transform="translate(-193.139999,-65.795)" fill="none" stroke="#f7931e" stroke-width="4" stroke-miterlimit="10"/></g><g id="eBbmCXSFQ5l30_ts" transform="translate(229.165001,85.560001) scale(0,0)"><line x1="206.75" y1="73.57" x2="251.58" y2="97.55" transform="translate(-229.165001,-85.560001)" fill="none" stroke="#00a99d" stroke-width="4" stroke-miterlimit="10"/></g><g id="eBbmCXSFQ5l31_ts" transform="translate(291.330002,90.322663) scale(0,0)"><g transform="translate(-291.330002,-90.322662)"><path d="M316.58,80.64v43c.003589,1.726558-.922279,3.321442-2.423389,4.174486s-3.345141.832228-4.826611-.054486l-40.91-24.4c-1.452177-.864387-2.341405-2.430035-2.34-4.12v-42.24c-.001656-1.713161.911751-3.296776,2.395495-4.153179s3.311898-.855191,4.794505.003179l40.91,23.62c1.490703.858247,2.406763,2.449902,2.4,4.17Z" fill="#a5dd73"/><polyline points="287.38,75.78 274.12,85.53 286.01,102.22" fill="none" stroke="#006837" stroke-width="4" stroke-miterlimit="10"/><polyline points="299.11,82.82 308.87,101.88 295.15,108.28" fill="none" stroke="#006837" stroke-width="4" stroke-miterlimit="10"/></g></g><path d="M183.77,122.22L162.28,134.5c-.456241.264822-.737033.752472-.737033,1.28s.280792,1.015178.737033,1.28L222,171.39c1.4733.848235,3.2867.848235,4.76,0l20.11-11.61c.477769-.274747.772292-.783866.772292-1.335s-.294523-1.060253-.772292-1.335l-60.4-34.89c-.833691-.488583-1.866309-.488583-2.7,0Z" fill="#200a52"/><path d="M216.24,141.8l-6.13,3.64l4.55,2.64l6.16-3.62Z" fill="#fff"/><path d="M209.52,137.89l-6.13,3.64l5.77,3.35l6.16-3.62Z" fill="#fff"/><path d="M185.1,123.71l-6.23,3.58l5.54,3.22l6.16-3.62Z" fill="#fff"/><path d="M198.23,131.34L192.1,135l4.55,2.64l6.16-3.62Z" fill="#fff"/><path d="M191.51,127.43l-6.13,3.64l5.76,3.35c.68-.39,4.54-2.67,6.16-3.62Z" fill="#fff"/><path d="M221.75,145l-6.13,3.64l4.36,2.53l6.15-3.62Z" fill="#fff"/><path d="M203.74,134.54l-6.13,3.64l4.82,2.8l6.16-3.62Z" fill="#fff"/><path d="M227.07,148.08l-6.13,3.64l5.77,3.35l6.16-3.62Z" fill="#fff"/><polygon points="233.79,151.99 227.65,155.62 238,161.63 244.23,158.05 233.79,151.99" fill="#fff"/><path d="M178.08,128.35l-6.23,3.58l8.06,4.68l6.16-3.62Z" fill="#fff"/><path d="M193.72,137.43l-6.13,3.64l4.55,2.64l6.16-3.62Z" fill="#fff"/><path d="M205,144l-6.13,3.64l5.77,3.35l6.16-3.62Z" fill="#fff"/><path d="M199.23,140.63l-6.13,3.64l4.82,2.8l6.16-3.62Z" fill="#fff"/><path d="M211.73,147.89l-6.13,3.64l4.55,2.64l6.15-3.62Z" fill="#fff"/><path d="M217.24,151.09l-6.13,3.64l4.36,2.53l6.15-3.62Z" fill="#fff"/><path d="M187,133.53l-6.13,3.64l5.76,3.35l6.16-3.62Z" fill="#fff"/><path d="M222.55,154.18l-6.13,3.64l5.77,3.35l6.15-3.62Z" fill="#fff"/><polygon points="223.14,161.72 230.97,166.27 237.21,162.69 229.27,158.08 223.14,161.72" fill="#fff"/><polygon points="218.55,161.09 213.99,163.81 219.28,166.87 223.91,164.21 218.55,161.09" fill="#fff"/><polygon points="220.38,167.51 224.88,170.11 229.52,167.46 224.93,164.8 220.38,167.51" fill="#fff"/><polygon points="170.39,133.12 165.61,135.78 171.03,138.91 175.72,136.22 170.39,133.12" fill="#fff"/><polygon points="176.73,136.81 172.12,139.55 177.91,142.9 182.59,140.21 176.73,136.81" fill="#fff"/><polygon points="183.61,140.8 179.01,143.54 212.89,163.17 217.53,160.5 183.61,140.8" fill="#fff"/><ellipse rx="18.83" ry="9.31" transform="translate(339.69 192.74)" fill="#68e1fd"/><path d="M358.53,167.94v25.32c0,0-14,13-37.67.21v-25.53" fill="#68e1fd"/><path d="M343.83,192.49c-5.2,4-11.48,5.9-17.92,6.58c4.291452,2.075681,9.014055,3.103824,13.78,3c10,0,18.17-3.86,18.77-8.74l.06-.05v-25.34h-.35c-3.17,9.06-6.51,18.47-14.34,24.55Z" opacity="0.21" fill="#200a52"/><path d="M323.68,177c0,0-3.12-4.77-6.06-2s-.37,12.3,8.26,13.22v3.78c0,0-10.83-1.47-12.3-11.2s5.51-11.23,9-8.55" fill="#68e1fd"/><ellipse rx="18.83" ry="9.31" transform="translate(339.69 168.04)" fill="#663535"/><path d="M162.47,168c-4.64-3.24-10.1-5-16-3.72-6.28,1.38-11.72,5.33-18.12,6.3-1,.15-5.05-.11-5.67.48-17.81,16.86,32,15.05,32,15.05c4.83-4,9.38-7.85,14.18-11.85-1.46-3.2-3.86-4.48-6.39-6.26Z" fill="#f8997c"/><path d="M139,192.48l-1.77,50.86c-.07,1.93,2.93,1.93,3,0L142,192.48c.1-1.93-2.89-1.92-3,0Z" fill="#f8997c"/><path d="M176.37,219.69q-13.6-13.31-26-27.78c-1.26-1.47-3.37.66-2.12,2.12q12.38,14.46,26,27.78c1.38,1.35,3.51-.81,2.12-2.12Z" fill="#f8997c"/><path d="M128.64,187.78q-10.56,19.93-19.89,40.47c-.79,1.74,1.79,3.27,2.59,1.51q9.33-20.54,19.89-40.47c.9-1.7-1.68-3.22-2.59-1.51Z" fill="#f8997c"/><path d="M163.71,134c.61-.15,5.74-1.47,7-1.89s5.16-3.45,7.28-3s6.39,3.26,6.59,4.2-1,2.08-1.45,2.49-3.54-.72-4.74-.91-3.11,2.65-4.24,3.15-8.43,1.81-8.43,1.81" fill="#fcbf81"/><path d="M177.5,146.46c.61-.15,5.74-1.47,7-1.89s5.16-3.45,7.28-3s6.39,3.26,6.59,4.2-1,2.08-1.45,2.49-3.54-.72-4.74-.91-3.11,2.65-4.24,3.15-8.43,1.81-8.43,1.81" fill="#fcbf81"/><path d="M175.51,211.09c.93-1,1.54-2,1.22-3.05-.57-1.87-3.11-2.63-4.85-2.53s-3.54,1-5.3,1.5c-1.840204.660543-3.804392.903078-5.75.71-.313128-.045942-.598135-.206258-.8-.45-1.097672-.243455-1.984257-1.050133-2.33-2.12l-5.76-2.06c0,0-1.47,12.17-1.42,13c.43,6.57,10.24,2.82,10.24,2.82s.35-3,.44-3.37s3.85.77,5.4.53c.712835-.199094,1.388387-.513225,2-.93c1.16-.64,2.3-1.32,3.43-2s2.31-1.35,3.48-2.05Z" fill="#56403d"/><path d="M154,166.17c-2.16.21-4.32.49-6.47.8q1.34,20.73,3,41.43c5.6,2.29,7.87,1.23,11.34-2.32.66-13.17,1.81-27,1.78-40.28-3.2.14-6.42.28-9.65.37Z" fill="#34323d"/><path d="M130.73,162.38c0,0-.93,15.13,6.67,18.5s23.19,1.69,30.86-2.81c3.965273-2.415029,8.1266-4.492347,12.44-6.21s2-6.62-2.81-9.48-15.35-6.4-24.73,0" fill="#34323d"/><path d="M169.48,139.73c.81-3.09.34-8.19.34-8.19s-9.49,1.62-13.49,1-10.54-9-10.54-9l.89,16.6c7.58,1.59,15.43,1.93,22.8-.41Z" fill="#ba3e00"/><path d="M193.06,220.57c.93-1,1.54-2,1.22-3.05-.57-1.87-3.11-2.63-4.85-2.53s-3.54,1-5.3,1.5c-1.840204.660543-3.804392.903078-5.75.71-.313128-.045942-.598135-.206258-.8-.45-1.097672-.243455-1.984257-1.050133-2.33-2.12l-5.76-2.06c0,0-1.47,12.17-1.42,13c.43,6.57,10.24,2.82,10.24,2.82s.35-3,.44-3.37s3.85.77,5.4.53c.712835-.199094,1.388387-.513225,2-.93c1.16-.64,2.3-1.32,3.43-2s2.32-1.35,3.48-2.05Z" fill="#56403d"/><path d="M170.9,162.75c-2-.94-4.06-.84-6.44-.83.33,4.87.15,6.62.45,11.48l.08,1.29c.92,14.4,2,28.79,3.1,43.18c5.6,2.29,7.87,1.23,11.34-2.32.77-15.33,2.22-31.51,1.66-46.77-3.23-3.2-6.09-4.11-10.19-6.03Z" fill="#34323d"/><path d="M130.6,159.25c0,.37.07,1.62.13,3.13c3.15,4.15,7,6.58,13,6.4c4.89-.14,9-2.28,12.8-4.92-.48-8.85-1.91-24-4.14-34.53-.19-.89-2.5-1.49-3.18-1.86-1.59-.87-.66-2.37-2.22-3.3-2.262655-1.317639-4.618987-2.467396-7.05-3.44h-.06c-3.89-.06-10.6,2.94-11,8.15-.61,8,.27,12.85.89,20.84.23,3.22.56,6.4.83,9.53Z" fill="#e55600"/><path d="M144.15,105.56c.51.13,4.83,10.07,3.14,16.11s-11.95-.17-14.53-4.77s1.69-13.9,11.39-11.34Z" fill="#fcbf81"/><path d="M144,106.95c0,0,0,3.28-2.87,4.34s-5.26,1.77-5.1,3.1s5.19-.19,5.21,2.85c.001742,2.047772-.274103,4.086331-.82,6.06-.32,1.49-8.93-3.08-11.77-10.86s4.27-9.85,4.62-9.9s1-2.17,4.47-2.93s4.47.6,4.47.6c1.627601-.980785,3.709479-.755828,5.09.55c3.21,2.55,2.4,7.21-1.24,9.1Z" fill="#34323d"/><path d="M183.6,144c-4.47.93-13.55,2.41-16.76,1-2.49-1.09-10.8-18.91-19.83-20.82l-1.22,13.6c0,0,12.77,16.2,18.67,17.87c4.29,1.21,15.84-.41,20.91-2.17.219529-3.258739-.389381-6.520023-1.77-9.48Z" fill="#e55600"/><path d="M155.31,148.19c-.65-.84-8.05-9.22-8.05-9.22l8.89,18.21Z" fill="#34323d"/><path d="M168.16,174c-2.777608,3.871759-6.713656,6.760762-11.24,8.25-6.34,1.93-15.56,1-18.89-5.61-6.06-12.06-.37-27.16-6.77-38.89-1.494536-2.998987-4.197402-5.218029-7.43-6.1-4.15-.91-7,2.21-8.5,5.88-2.7,6.58-2.6,14.77-2.47,21.78.006674,5.66209.41772,11.316474,1.23,16.92s3.88,23.51,34.12,17.2c5.237055-.949495,10.26674-2.811087,14.86-5.5c2.353532-1.357134,4.413522-3.168974,6.06-5.33c1.87-2.72.62-5.91-.97-8.6Z" fill="#68e1fd"/></g></svg>
